G04 (created by PCBNEW-RS274X (2011-aug-04)-testing) date Fri 14 Sep 2012 05:32:11 PM PDT*
G01*
G70*
G90*
%MOIN*%
G04 Gerber Fmt 3.4, Leading zero omitted, Abs format*
%FSLAX34Y34*%
G04 APERTURE LIST*
%ADD10C,0.006000*%
%ADD11O,0.060000X0.100000*%
%ADD12C,0.155000*%
%ADD13R,0.055000X0.055000*%
%ADD14C,0.055000*%
%ADD15C,0.060000*%
%ADD16C,0.015000*%
%ADD17C,0.010000*%
G04 APERTURE END LIST*
G54D10*
G54D11*
X70237Y-51677D03*
X69237Y-51677D03*
X68237Y-51677D03*
X65237Y-51677D03*
X66237Y-51677D03*
X67237Y-51677D03*
X63237Y-51677D03*
X62237Y-51677D03*
X61237Y-51677D03*
X59237Y-51677D03*
X58237Y-51677D03*
X70237Y-32677D03*
X69237Y-32677D03*
X68237Y-32677D03*
X67237Y-32677D03*
X66237Y-32677D03*
X65237Y-32677D03*
X64237Y-32677D03*
X63237Y-32677D03*
X61637Y-32677D03*
X60637Y-32677D03*
X59637Y-32677D03*
X58637Y-32677D03*
X57637Y-32677D03*
X56637Y-32677D03*
X55637Y-32677D03*
X54637Y-32677D03*
X60237Y-51677D03*
G54D12*
X71237Y-49677D03*
X71237Y-38677D03*
X51237Y-32677D03*
X50737Y-51677D03*
G54D13*
X67951Y-40675D03*
G54D14*
X66951Y-40675D03*
X65951Y-40675D03*
X64951Y-40675D03*
X63951Y-40675D03*
X62951Y-40675D03*
X61951Y-40675D03*
X60951Y-40675D03*
X59951Y-40675D03*
X58951Y-40675D03*
X57951Y-40675D03*
X56951Y-40675D03*
X56951Y-43675D03*
X57951Y-43675D03*
X58951Y-43675D03*
X59951Y-43675D03*
X60951Y-43675D03*
X61951Y-43675D03*
X62951Y-43675D03*
X63951Y-43675D03*
X64951Y-43675D03*
X65951Y-43675D03*
X66951Y-43675D03*
X67951Y-43675D03*
G54D15*
X74804Y-50429D03*
X74803Y-49052D03*
X74802Y-47671D03*
X74803Y-46294D03*
X74803Y-44916D03*
X74803Y-43540D03*
X74803Y-42161D03*
X74802Y-40783D03*
X74802Y-39405D03*
X74802Y-38025D03*
X74801Y-35271D03*
X74802Y-36649D03*
X74802Y-33893D03*
G54D14*
X67264Y-45280D03*
X67264Y-47280D03*
X67894Y-38815D03*
X67894Y-36815D03*
X66083Y-38776D03*
X66083Y-36776D03*
X64685Y-45425D03*
X64685Y-46425D03*
G54D16*
X67855Y-38776D02*
X67894Y-38815D01*
X66083Y-38776D02*
X67855Y-38776D01*
X61999Y-48723D02*
X56951Y-43675D01*
X73098Y-48723D02*
X61999Y-48723D01*
X74804Y-50429D02*
X73098Y-48723D01*
X62605Y-48329D02*
X57951Y-43675D01*
X74080Y-48329D02*
X62605Y-48329D01*
X74803Y-49052D02*
X74080Y-48329D01*
X63137Y-47861D02*
X58951Y-43675D01*
X74612Y-47861D02*
X63137Y-47861D01*
X74802Y-47671D02*
X74612Y-47861D01*
X62201Y-45925D02*
X59951Y-43675D01*
X74434Y-45925D02*
X62201Y-45925D01*
X74803Y-46294D02*
X74434Y-45925D01*
X62095Y-44819D02*
X60951Y-43675D01*
X74706Y-44819D02*
X62095Y-44819D01*
X74803Y-44916D02*
X74706Y-44819D01*
X62713Y-44437D02*
X61951Y-43675D01*
X73906Y-44437D02*
X62713Y-44437D01*
X74803Y-43540D02*
X73906Y-44437D01*
X63459Y-44183D02*
X62951Y-43675D01*
X72781Y-44183D02*
X63459Y-44183D01*
X74803Y-42161D02*
X72781Y-44183D01*
X64905Y-42721D02*
X63951Y-43675D01*
X72864Y-42721D02*
X64905Y-42721D01*
X74802Y-40783D02*
X72864Y-42721D01*
X67441Y-34151D02*
X68237Y-33355D01*
X67441Y-37246D02*
X67441Y-34151D01*
X67484Y-37289D02*
X67441Y-37246D01*
X72686Y-37289D02*
X67484Y-37289D01*
X74802Y-39405D02*
X72686Y-37289D01*
X68237Y-32677D02*
X68237Y-33355D01*
X58788Y-33355D02*
X56637Y-33355D01*
X65408Y-39975D02*
X58788Y-33355D01*
X65408Y-40871D02*
X65408Y-39975D01*
X65151Y-41128D02*
X65408Y-40871D01*
X64404Y-41128D02*
X65151Y-41128D01*
X63951Y-40675D02*
X64404Y-41128D01*
X56637Y-32677D02*
X56637Y-33355D01*
X70816Y-33893D02*
X67894Y-36815D01*
X74802Y-33893D02*
X70816Y-33893D01*
X57440Y-40186D02*
X56951Y-40675D01*
X64462Y-40186D02*
X57440Y-40186D01*
X64951Y-40675D02*
X64462Y-40186D01*
G54D10*
G36*
X75856Y-52352D02*
X75353Y-52352D01*
X75353Y-50538D01*
X75353Y-50320D01*
X75269Y-50118D01*
X75115Y-49964D01*
X74913Y-49880D01*
X74714Y-49880D01*
X73488Y-48654D01*
X73945Y-48654D01*
X74254Y-48962D01*
X74254Y-49161D01*
X74338Y-49363D01*
X74492Y-49517D01*
X74694Y-49601D01*
X74912Y-49601D01*
X75114Y-49517D01*
X75268Y-49363D01*
X75352Y-49161D01*
X75352Y-48943D01*
X75268Y-48741D01*
X75114Y-48587D01*
X74912Y-48503D01*
X74713Y-48503D01*
X74396Y-48186D01*
X74611Y-48186D01*
X74612Y-48186D01*
X74693Y-48220D01*
X74911Y-48220D01*
X75113Y-48136D01*
X75267Y-47982D01*
X75351Y-47780D01*
X75351Y-47562D01*
X75267Y-47360D01*
X75113Y-47206D01*
X74911Y-47122D01*
X74693Y-47122D01*
X74491Y-47206D01*
X74337Y-47360D01*
X74263Y-47536D01*
X67597Y-47536D01*
X67592Y-47531D01*
X67610Y-47525D01*
X67678Y-47374D01*
X67682Y-47209D01*
X67623Y-47054D01*
X67610Y-47035D01*
X67541Y-47010D01*
X67534Y-47017D01*
X67534Y-47003D01*
X67509Y-46934D01*
X67358Y-46866D01*
X67193Y-46862D01*
X67038Y-46921D01*
X67019Y-46934D01*
X66994Y-47003D01*
X67264Y-47273D01*
X67534Y-47003D01*
X67534Y-47017D01*
X67306Y-47245D01*
X67271Y-47280D01*
X67264Y-47287D01*
X67257Y-47280D01*
X67222Y-47245D01*
X66987Y-47010D01*
X66918Y-47035D01*
X66850Y-47186D01*
X66846Y-47351D01*
X66905Y-47506D01*
X66918Y-47525D01*
X66935Y-47531D01*
X66931Y-47536D01*
X64955Y-47536D01*
X64955Y-46702D01*
X64685Y-46432D01*
X64415Y-46702D01*
X64440Y-46771D01*
X64591Y-46839D01*
X64756Y-46843D01*
X64911Y-46784D01*
X64930Y-46771D01*
X64955Y-46702D01*
X64955Y-47536D01*
X63271Y-47536D01*
X59935Y-44200D01*
X60016Y-44200D01*
X61970Y-46154D01*
X61971Y-46155D01*
X62076Y-46224D01*
X62077Y-46225D01*
X62175Y-46244D01*
X62200Y-46250D01*
X62200Y-46249D01*
X62201Y-46250D01*
X64307Y-46250D01*
X64271Y-46331D01*
X64267Y-46496D01*
X64326Y-46651D01*
X64339Y-46670D01*
X64408Y-46695D01*
X64643Y-46460D01*
X64678Y-46425D01*
X64685Y-46418D01*
X64692Y-46425D01*
X64727Y-46460D01*
X64962Y-46695D01*
X65031Y-46670D01*
X65099Y-46519D01*
X65103Y-46354D01*
X65063Y-46250D01*
X74254Y-46250D01*
X74254Y-46403D01*
X74338Y-46605D01*
X74492Y-46759D01*
X74694Y-46843D01*
X74912Y-46843D01*
X75114Y-46759D01*
X75268Y-46605D01*
X75352Y-46403D01*
X75352Y-46185D01*
X75268Y-45983D01*
X75114Y-45829D01*
X74912Y-45745D01*
X74713Y-45745D01*
X74664Y-45695D01*
X74558Y-45625D01*
X74434Y-45600D01*
X67686Y-45600D01*
X67709Y-45578D01*
X67789Y-45385D01*
X67789Y-45176D01*
X67775Y-45144D01*
X74303Y-45144D01*
X74338Y-45227D01*
X74492Y-45381D01*
X74694Y-45465D01*
X74912Y-45465D01*
X75114Y-45381D01*
X75268Y-45227D01*
X75352Y-45025D01*
X75352Y-44807D01*
X75268Y-44605D01*
X75114Y-44451D01*
X74912Y-44367D01*
X74694Y-44367D01*
X74492Y-44451D01*
X74449Y-44494D01*
X74308Y-44494D01*
X74713Y-44089D01*
X74912Y-44089D01*
X75114Y-44005D01*
X75268Y-43851D01*
X75352Y-43649D01*
X75352Y-43431D01*
X75268Y-43229D01*
X75114Y-43075D01*
X74912Y-42991D01*
X74694Y-42991D01*
X74492Y-43075D01*
X74338Y-43229D01*
X74254Y-43431D01*
X74254Y-43629D01*
X73771Y-44112D01*
X73311Y-44112D01*
X74713Y-42710D01*
X74912Y-42710D01*
X75114Y-42626D01*
X75268Y-42472D01*
X75352Y-42270D01*
X75352Y-42052D01*
X75268Y-41850D01*
X75114Y-41696D01*
X74912Y-41612D01*
X74694Y-41612D01*
X74492Y-41696D01*
X74338Y-41850D01*
X74254Y-42052D01*
X74254Y-42250D01*
X72646Y-43858D01*
X68443Y-43858D01*
X68476Y-43780D01*
X68476Y-43571D01*
X68396Y-43378D01*
X68249Y-43230D01*
X68056Y-43150D01*
X67847Y-43150D01*
X67654Y-43230D01*
X67506Y-43377D01*
X67450Y-43510D01*
X67396Y-43378D01*
X67249Y-43230D01*
X67056Y-43150D01*
X66847Y-43150D01*
X66654Y-43230D01*
X66506Y-43377D01*
X66450Y-43510D01*
X66396Y-43378D01*
X66249Y-43230D01*
X66056Y-43150D01*
X65847Y-43150D01*
X65654Y-43230D01*
X65506Y-43377D01*
X65450Y-43510D01*
X65396Y-43378D01*
X65249Y-43230D01*
X65056Y-43150D01*
X64936Y-43150D01*
X65040Y-43046D01*
X72864Y-43046D01*
X72988Y-43021D01*
X73094Y-42951D01*
X74712Y-41332D01*
X74911Y-41332D01*
X75113Y-41248D01*
X75267Y-41094D01*
X75351Y-40892D01*
X75351Y-40674D01*
X75267Y-40472D01*
X75113Y-40318D01*
X74911Y-40234D01*
X74693Y-40234D01*
X74491Y-40318D01*
X74337Y-40472D01*
X74253Y-40674D01*
X74253Y-40872D01*
X72729Y-42396D01*
X72262Y-42396D01*
X72262Y-38882D01*
X72262Y-38474D01*
X72106Y-38097D01*
X71818Y-37809D01*
X71442Y-37652D01*
X71034Y-37652D01*
X70657Y-37808D01*
X70369Y-38096D01*
X70212Y-38472D01*
X70212Y-38880D01*
X70368Y-39257D01*
X70656Y-39545D01*
X71032Y-39702D01*
X71440Y-39702D01*
X71817Y-39546D01*
X72105Y-39258D01*
X72262Y-38882D01*
X72262Y-42396D01*
X68475Y-42396D01*
X68475Y-41000D01*
X68475Y-40901D01*
X68475Y-40351D01*
X68437Y-40259D01*
X68419Y-40241D01*
X68419Y-38920D01*
X68419Y-38711D01*
X68339Y-38518D01*
X68192Y-38370D01*
X67999Y-38290D01*
X67790Y-38290D01*
X67597Y-38370D01*
X67515Y-38451D01*
X66501Y-38451D01*
X66501Y-36705D01*
X66442Y-36550D01*
X66429Y-36531D01*
X66360Y-36506D01*
X66353Y-36513D01*
X66353Y-36499D01*
X66328Y-36430D01*
X66177Y-36362D01*
X66012Y-36358D01*
X65857Y-36417D01*
X65838Y-36430D01*
X65813Y-36499D01*
X66083Y-36769D01*
X66353Y-36499D01*
X66353Y-36513D01*
X66090Y-36776D01*
X66360Y-37046D01*
X66429Y-37021D01*
X66497Y-36870D01*
X66501Y-36705D01*
X66501Y-38451D01*
X66500Y-38451D01*
X66381Y-38331D01*
X66353Y-38319D01*
X66353Y-37053D01*
X66083Y-36783D01*
X66076Y-36790D01*
X66076Y-36776D01*
X65806Y-36506D01*
X65737Y-36531D01*
X65669Y-36682D01*
X65665Y-36847D01*
X65724Y-37002D01*
X65737Y-37021D01*
X65806Y-37046D01*
X66076Y-36776D01*
X66076Y-36790D01*
X65813Y-37053D01*
X65838Y-37122D01*
X65989Y-37190D01*
X66154Y-37194D01*
X66309Y-37135D01*
X66328Y-37122D01*
X66353Y-37053D01*
X66353Y-38319D01*
X66188Y-38251D01*
X65979Y-38251D01*
X65786Y-38331D01*
X65638Y-38478D01*
X65558Y-38671D01*
X65558Y-38880D01*
X65638Y-39073D01*
X65785Y-39221D01*
X65978Y-39301D01*
X66187Y-39301D01*
X66380Y-39221D01*
X66500Y-39101D01*
X67444Y-39101D01*
X67449Y-39112D01*
X67596Y-39260D01*
X67789Y-39340D01*
X67998Y-39340D01*
X68191Y-39260D01*
X68339Y-39113D01*
X68419Y-38920D01*
X68419Y-40241D01*
X68367Y-40189D01*
X68276Y-40151D01*
X68177Y-40151D01*
X67627Y-40151D01*
X67535Y-40189D01*
X67465Y-40259D01*
X67427Y-40350D01*
X67427Y-40449D01*
X67427Y-40999D01*
X67465Y-41091D01*
X67535Y-41161D01*
X67626Y-41199D01*
X67725Y-41199D01*
X68275Y-41199D01*
X68367Y-41161D01*
X68437Y-41091D01*
X68475Y-41000D01*
X68475Y-42396D01*
X67369Y-42396D01*
X67369Y-40604D01*
X67310Y-40449D01*
X67297Y-40430D01*
X67228Y-40405D01*
X67221Y-40412D01*
X67221Y-40398D01*
X67196Y-40329D01*
X67045Y-40261D01*
X66880Y-40257D01*
X66725Y-40316D01*
X66706Y-40329D01*
X66681Y-40398D01*
X66951Y-40668D01*
X67221Y-40398D01*
X67221Y-40412D01*
X66958Y-40675D01*
X67228Y-40945D01*
X67297Y-40920D01*
X67365Y-40769D01*
X67369Y-40604D01*
X67369Y-42396D01*
X67221Y-42396D01*
X67221Y-40952D01*
X66951Y-40682D01*
X66944Y-40689D01*
X66944Y-40675D01*
X66674Y-40405D01*
X66605Y-40430D01*
X66537Y-40581D01*
X66533Y-40746D01*
X66592Y-40901D01*
X66605Y-40920D01*
X66674Y-40945D01*
X66944Y-40675D01*
X66944Y-40689D01*
X66681Y-40952D01*
X66706Y-41021D01*
X66857Y-41089D01*
X67022Y-41093D01*
X67177Y-41034D01*
X67196Y-41021D01*
X67221Y-40952D01*
X67221Y-42396D01*
X64905Y-42396D01*
X64780Y-42421D01*
X64675Y-42491D01*
X64016Y-43150D01*
X63847Y-43150D01*
X63654Y-43230D01*
X63506Y-43377D01*
X63450Y-43510D01*
X63396Y-43378D01*
X63249Y-43230D01*
X63056Y-43150D01*
X62847Y-43150D01*
X62654Y-43230D01*
X62506Y-43377D01*
X62450Y-43510D01*
X62396Y-43378D01*
X62249Y-43230D01*
X62056Y-43150D01*
X61847Y-43150D01*
X61654Y-43230D01*
X61506Y-43377D01*
X61450Y-43510D01*
X61396Y-43378D01*
X61249Y-43230D01*
X61056Y-43150D01*
X60847Y-43150D01*
X60654Y-43230D01*
X60506Y-43377D01*
X60450Y-43510D01*
X60396Y-43378D01*
X60249Y-43230D01*
X60056Y-43150D01*
X59847Y-43150D01*
X59654Y-43230D01*
X59506Y-43377D01*
X59450Y-43510D01*
X59396Y-43378D01*
X59249Y-43230D01*
X59056Y-43150D01*
X58847Y-43150D01*
X58654Y-43230D01*
X58506Y-43377D01*
X58450Y-43510D01*
X58396Y-43378D01*
X58249Y-43230D01*
X58056Y-43150D01*
X57847Y-43150D01*
X57654Y-43230D01*
X57506Y-43377D01*
X57450Y-43510D01*
X57396Y-43378D01*
X57369Y-43350D01*
X57369Y-40604D01*
X57310Y-40449D01*
X57297Y-40430D01*
X57228Y-40405D01*
X57221Y-40412D01*
X57221Y-40398D01*
X57196Y-40329D01*
X57045Y-40261D01*
X56880Y-40257D01*
X56725Y-40316D01*
X56706Y-40329D01*
X56681Y-40398D01*
X56951Y-40668D01*
X57221Y-40398D01*
X57221Y-40412D01*
X56958Y-40675D01*
X57228Y-40945D01*
X57297Y-40920D01*
X57365Y-40769D01*
X57369Y-40604D01*
X57369Y-43350D01*
X57249Y-43230D01*
X57221Y-43218D01*
X57221Y-40952D01*
X56951Y-40682D01*
X56944Y-40689D01*
X56944Y-40675D01*
X56674Y-40405D01*
X56605Y-40430D01*
X56537Y-40581D01*
X56533Y-40746D01*
X56592Y-40901D01*
X56605Y-40920D01*
X56674Y-40945D01*
X56944Y-40675D01*
X56944Y-40689D01*
X56681Y-40952D01*
X56706Y-41021D01*
X56857Y-41089D01*
X57022Y-41093D01*
X57177Y-41034D01*
X57196Y-41021D01*
X57221Y-40952D01*
X57221Y-43218D01*
X57056Y-43150D01*
X56847Y-43150D01*
X56654Y-43230D01*
X56506Y-43377D01*
X56426Y-43570D01*
X56426Y-43779D01*
X56506Y-43972D01*
X56653Y-44120D01*
X56846Y-44200D01*
X57016Y-44200D01*
X61767Y-48950D01*
X61769Y-48953D01*
X61874Y-49022D01*
X61875Y-49023D01*
X61973Y-49042D01*
X61998Y-49048D01*
X61998Y-49047D01*
X61999Y-49048D01*
X70417Y-49048D01*
X70369Y-49096D01*
X70212Y-49472D01*
X70212Y-49880D01*
X70368Y-50257D01*
X70656Y-50545D01*
X71032Y-50702D01*
X71440Y-50702D01*
X71817Y-50546D01*
X72105Y-50258D01*
X72262Y-49882D01*
X72262Y-49474D01*
X72106Y-49097D01*
X72057Y-49048D01*
X72963Y-49048D01*
X74255Y-50339D01*
X74255Y-50538D01*
X74339Y-50740D01*
X74493Y-50894D01*
X74695Y-50978D01*
X74913Y-50978D01*
X75115Y-50894D01*
X75269Y-50740D01*
X75353Y-50538D01*
X75353Y-52352D01*
X70535Y-52352D01*
X70543Y-52349D01*
X70694Y-52197D01*
X70777Y-51999D01*
X70777Y-51784D01*
X70777Y-51356D01*
X70695Y-51157D01*
X70543Y-51006D01*
X70345Y-50923D01*
X70130Y-50923D01*
X69931Y-51005D01*
X69780Y-51157D01*
X69737Y-51259D01*
X69695Y-51157D01*
X69543Y-51006D01*
X69345Y-50923D01*
X69130Y-50923D01*
X68931Y-51005D01*
X68780Y-51157D01*
X68737Y-51259D01*
X68695Y-51157D01*
X68543Y-51006D01*
X68345Y-50923D01*
X68130Y-50923D01*
X67931Y-51005D01*
X67780Y-51157D01*
X67737Y-51259D01*
X67695Y-51157D01*
X67543Y-51006D01*
X67345Y-50923D01*
X67130Y-50923D01*
X66931Y-51005D01*
X66780Y-51157D01*
X66737Y-51259D01*
X66695Y-51157D01*
X66543Y-51006D01*
X66345Y-50923D01*
X66130Y-50923D01*
X65931Y-51005D01*
X65780Y-51157D01*
X65737Y-51259D01*
X65695Y-51157D01*
X65543Y-51006D01*
X65345Y-50923D01*
X65130Y-50923D01*
X64931Y-51005D01*
X64780Y-51157D01*
X64697Y-51355D01*
X64697Y-51570D01*
X64697Y-51998D01*
X64779Y-52197D01*
X64931Y-52348D01*
X64940Y-52352D01*
X63535Y-52352D01*
X63543Y-52349D01*
X63694Y-52197D01*
X63777Y-51999D01*
X63777Y-51784D01*
X63777Y-51356D01*
X63695Y-51157D01*
X63543Y-51006D01*
X63345Y-50923D01*
X63130Y-50923D01*
X62931Y-51005D01*
X62780Y-51157D01*
X62737Y-51259D01*
X62695Y-51157D01*
X62543Y-51006D01*
X62345Y-50923D01*
X62130Y-50923D01*
X61931Y-51005D01*
X61780Y-51157D01*
X61697Y-51355D01*
X61697Y-51570D01*
X61697Y-51998D01*
X61779Y-52197D01*
X61931Y-52348D01*
X61940Y-52352D01*
X61687Y-52352D01*
X61687Y-51972D01*
X61687Y-51682D01*
X61687Y-51672D01*
X61687Y-51382D01*
X61616Y-51217D01*
X61488Y-51092D01*
X61312Y-51034D01*
X61242Y-51065D01*
X61242Y-51672D01*
X61687Y-51672D01*
X61687Y-51682D01*
X61242Y-51682D01*
X61242Y-52289D01*
X61312Y-52320D01*
X61488Y-52262D01*
X61616Y-52137D01*
X61687Y-51972D01*
X61687Y-52352D01*
X61232Y-52352D01*
X61232Y-52289D01*
X61232Y-51682D01*
X61232Y-51672D01*
X61232Y-51065D01*
X61162Y-51034D01*
X60986Y-51092D01*
X60858Y-51217D01*
X60787Y-51382D01*
X60787Y-51672D01*
X61232Y-51672D01*
X61232Y-51682D01*
X60787Y-51682D01*
X60787Y-51972D01*
X60858Y-52137D01*
X60986Y-52262D01*
X61162Y-52320D01*
X61232Y-52289D01*
X61232Y-52352D01*
X60535Y-52352D01*
X60543Y-52349D01*
X60694Y-52197D01*
X60777Y-51999D01*
X60777Y-51784D01*
X60777Y-51356D01*
X60695Y-51157D01*
X60543Y-51006D01*
X60345Y-50923D01*
X60130Y-50923D01*
X59931Y-51005D01*
X59780Y-51157D01*
X59737Y-51259D01*
X59695Y-51157D01*
X59543Y-51006D01*
X59345Y-50923D01*
X59130Y-50923D01*
X58931Y-51005D01*
X58780Y-51157D01*
X58737Y-51259D01*
X58695Y-51157D01*
X58543Y-51006D01*
X58345Y-50923D01*
X58130Y-50923D01*
X57931Y-51005D01*
X57780Y-51157D01*
X57697Y-51355D01*
X57697Y-51570D01*
X57697Y-51998D01*
X57779Y-52197D01*
X57931Y-52348D01*
X57940Y-52352D01*
X51511Y-52352D01*
X51605Y-52258D01*
X51762Y-51882D01*
X51762Y-51474D01*
X51606Y-51097D01*
X51318Y-50809D01*
X50942Y-50652D01*
X50534Y-50652D01*
X50157Y-50808D01*
X49869Y-51096D01*
X49712Y-51472D01*
X49712Y-51880D01*
X49868Y-52257D01*
X49963Y-52352D01*
X49045Y-52352D01*
X49045Y-31998D01*
X50467Y-31998D01*
X50369Y-32096D01*
X50212Y-32472D01*
X50212Y-32880D01*
X50368Y-33257D01*
X50656Y-33545D01*
X51032Y-33702D01*
X51440Y-33702D01*
X51817Y-33546D01*
X52105Y-33258D01*
X52262Y-32882D01*
X52262Y-32474D01*
X52106Y-32097D01*
X52007Y-31998D01*
X54347Y-31998D01*
X54331Y-32005D01*
X54180Y-32157D01*
X54097Y-32355D01*
X54097Y-32570D01*
X54097Y-32998D01*
X54179Y-33197D01*
X54331Y-33348D01*
X54529Y-33431D01*
X54744Y-33431D01*
X54943Y-33349D01*
X55094Y-33197D01*
X55136Y-33094D01*
X55179Y-33197D01*
X55331Y-33348D01*
X55529Y-33431D01*
X55744Y-33431D01*
X55943Y-33349D01*
X56094Y-33197D01*
X56136Y-33094D01*
X56179Y-33197D01*
X56312Y-33329D01*
X56312Y-33355D01*
X56337Y-33479D01*
X56407Y-33585D01*
X56513Y-33655D01*
X56637Y-33680D01*
X58653Y-33680D01*
X65083Y-40110D01*
X65083Y-40278D01*
X65045Y-40261D01*
X64880Y-40257D01*
X64725Y-40316D01*
X64706Y-40329D01*
X64681Y-40398D01*
X64916Y-40633D01*
X64951Y-40668D01*
X64958Y-40675D01*
X64951Y-40682D01*
X64944Y-40675D01*
X64909Y-40640D01*
X64674Y-40405D01*
X64605Y-40430D01*
X64537Y-40581D01*
X64533Y-40746D01*
X64554Y-40803D01*
X64538Y-40803D01*
X64476Y-40740D01*
X64476Y-40571D01*
X64396Y-40378D01*
X64249Y-40230D01*
X64056Y-40150D01*
X63847Y-40150D01*
X63654Y-40230D01*
X63506Y-40377D01*
X63450Y-40510D01*
X63396Y-40378D01*
X63249Y-40230D01*
X63056Y-40150D01*
X62847Y-40150D01*
X62654Y-40230D01*
X62506Y-40377D01*
X62450Y-40510D01*
X62396Y-40378D01*
X62249Y-40230D01*
X62056Y-40150D01*
X61847Y-40150D01*
X61654Y-40230D01*
X61506Y-40377D01*
X61450Y-40510D01*
X61396Y-40378D01*
X61249Y-40230D01*
X61056Y-40150D01*
X60847Y-40150D01*
X60654Y-40230D01*
X60506Y-40377D01*
X60450Y-40510D01*
X60396Y-40378D01*
X60249Y-40230D01*
X60056Y-40150D01*
X59847Y-40150D01*
X59654Y-40230D01*
X59506Y-40377D01*
X59450Y-40510D01*
X59396Y-40378D01*
X59249Y-40230D01*
X59056Y-40150D01*
X58847Y-40150D01*
X58654Y-40230D01*
X58506Y-40377D01*
X58450Y-40510D01*
X58396Y-40378D01*
X58249Y-40230D01*
X58056Y-40150D01*
X57847Y-40150D01*
X57654Y-40230D01*
X57506Y-40377D01*
X57426Y-40570D01*
X57426Y-40779D01*
X57506Y-40972D01*
X57653Y-41120D01*
X57846Y-41200D01*
X58055Y-41200D01*
X58248Y-41120D01*
X58396Y-40973D01*
X58451Y-40839D01*
X58506Y-40972D01*
X58653Y-41120D01*
X58846Y-41200D01*
X59055Y-41200D01*
X59248Y-41120D01*
X59396Y-40973D01*
X59451Y-40839D01*
X59506Y-40972D01*
X59653Y-41120D01*
X59846Y-41200D01*
X60055Y-41200D01*
X60248Y-41120D01*
X60396Y-40973D01*
X60451Y-40839D01*
X60506Y-40972D01*
X60653Y-41120D01*
X60846Y-41200D01*
X61055Y-41200D01*
X61248Y-41120D01*
X61396Y-40973D01*
X61451Y-40839D01*
X61506Y-40972D01*
X61653Y-41120D01*
X61846Y-41200D01*
X62055Y-41200D01*
X62248Y-41120D01*
X62396Y-40973D01*
X62451Y-40839D01*
X62506Y-40972D01*
X62653Y-41120D01*
X62846Y-41200D01*
X63055Y-41200D01*
X63248Y-41120D01*
X63396Y-40973D01*
X63451Y-40839D01*
X63506Y-40972D01*
X63653Y-41120D01*
X63846Y-41200D01*
X64016Y-41200D01*
X64172Y-41355D01*
X64174Y-41358D01*
X64279Y-41427D01*
X64280Y-41428D01*
X64404Y-41453D01*
X65151Y-41453D01*
X65275Y-41428D01*
X65381Y-41358D01*
X65635Y-41102D01*
X65653Y-41120D01*
X65846Y-41200D01*
X66055Y-41200D01*
X66248Y-41120D01*
X66396Y-40973D01*
X66476Y-40780D01*
X66476Y-40571D01*
X66396Y-40378D01*
X66249Y-40230D01*
X66056Y-40150D01*
X65847Y-40150D01*
X65733Y-40197D01*
X65733Y-39975D01*
X65708Y-39851D01*
X65708Y-39850D01*
X65638Y-39745D01*
X59092Y-33199D01*
X59094Y-33197D01*
X59136Y-33094D01*
X59179Y-33197D01*
X59331Y-33348D01*
X59529Y-33431D01*
X59744Y-33431D01*
X59943Y-33349D01*
X60094Y-33197D01*
X60136Y-33094D01*
X60179Y-33197D01*
X60331Y-33348D01*
X60529Y-33431D01*
X60744Y-33431D01*
X60943Y-33349D01*
X61094Y-33197D01*
X61136Y-33094D01*
X61179Y-33197D01*
X61331Y-33348D01*
X61529Y-33431D01*
X61744Y-33431D01*
X61943Y-33349D01*
X62094Y-33197D01*
X62177Y-32999D01*
X62177Y-32784D01*
X62177Y-32356D01*
X62095Y-32157D01*
X61943Y-32006D01*
X61923Y-31998D01*
X62947Y-31998D01*
X62931Y-32005D01*
X62780Y-32157D01*
X62697Y-32355D01*
X62697Y-32570D01*
X62697Y-32998D01*
X62779Y-33197D01*
X62931Y-33348D01*
X63129Y-33431D01*
X63344Y-33431D01*
X63543Y-33349D01*
X63694Y-33197D01*
X63736Y-33094D01*
X63779Y-33197D01*
X63931Y-33348D01*
X64129Y-33431D01*
X64344Y-33431D01*
X64543Y-33349D01*
X64694Y-33197D01*
X64736Y-33094D01*
X64779Y-33197D01*
X64931Y-33348D01*
X65129Y-33431D01*
X65344Y-33431D01*
X65543Y-33349D01*
X65694Y-33197D01*
X65736Y-33094D01*
X65779Y-33197D01*
X65931Y-33348D01*
X66129Y-33431D01*
X66344Y-33431D01*
X66543Y-33349D01*
X66694Y-33197D01*
X66736Y-33094D01*
X66779Y-33197D01*
X66931Y-33348D01*
X67129Y-33431D01*
X67344Y-33431D01*
X67543Y-33349D01*
X67694Y-33197D01*
X67736Y-33094D01*
X67779Y-33197D01*
X67857Y-33275D01*
X67211Y-33921D01*
X67141Y-34027D01*
X67116Y-34151D01*
X67116Y-37246D01*
X67141Y-37370D01*
X67211Y-37476D01*
X67252Y-37516D01*
X67254Y-37519D01*
X67359Y-37588D01*
X67360Y-37589D01*
X67458Y-37608D01*
X67483Y-37614D01*
X67483Y-37613D01*
X67484Y-37614D01*
X72551Y-37614D01*
X74253Y-39315D01*
X74253Y-39514D01*
X74337Y-39716D01*
X74491Y-39870D01*
X74693Y-39954D01*
X74911Y-39954D01*
X75113Y-39870D01*
X75267Y-39716D01*
X75351Y-39514D01*
X75351Y-39296D01*
X75351Y-38134D01*
X75351Y-37916D01*
X75351Y-36758D01*
X75351Y-36540D01*
X75350Y-36537D01*
X75350Y-35380D01*
X75350Y-35162D01*
X75266Y-34960D01*
X75246Y-34940D01*
X75246Y-33818D01*
X75184Y-33654D01*
X75168Y-33633D01*
X75097Y-33605D01*
X75090Y-33612D01*
X75090Y-33598D01*
X75062Y-33527D01*
X74902Y-33455D01*
X74727Y-33449D01*
X74563Y-33511D01*
X74542Y-33527D01*
X74514Y-33598D01*
X74802Y-33886D01*
X75090Y-33598D01*
X75090Y-33612D01*
X74809Y-33893D01*
X75097Y-34181D01*
X75168Y-34153D01*
X75240Y-33993D01*
X75246Y-33818D01*
X75246Y-34940D01*
X75112Y-34806D01*
X75090Y-34796D01*
X75090Y-34188D01*
X74802Y-33900D01*
X74795Y-33907D01*
X74795Y-33893D01*
X74507Y-33605D01*
X74436Y-33633D01*
X74364Y-33793D01*
X74358Y-33968D01*
X74420Y-34132D01*
X74436Y-34153D01*
X74507Y-34181D01*
X74795Y-33893D01*
X74795Y-33907D01*
X74514Y-34188D01*
X74542Y-34259D01*
X74702Y-34331D01*
X74877Y-34337D01*
X75041Y-34275D01*
X75062Y-34259D01*
X75090Y-34188D01*
X75090Y-34796D01*
X74910Y-34722D01*
X74692Y-34722D01*
X74490Y-34806D01*
X74336Y-34960D01*
X74252Y-35162D01*
X74252Y-35380D01*
X74336Y-35582D01*
X74490Y-35736D01*
X74692Y-35820D01*
X74910Y-35820D01*
X75112Y-35736D01*
X75266Y-35582D01*
X75350Y-35380D01*
X75350Y-36537D01*
X75267Y-36338D01*
X75113Y-36184D01*
X74911Y-36100D01*
X74693Y-36100D01*
X74491Y-36184D01*
X74337Y-36338D01*
X74253Y-36540D01*
X74253Y-36758D01*
X74337Y-36960D01*
X74491Y-37114D01*
X74693Y-37198D01*
X74911Y-37198D01*
X75113Y-37114D01*
X75267Y-36960D01*
X75351Y-36758D01*
X75351Y-37916D01*
X75267Y-37714D01*
X75113Y-37560D01*
X74911Y-37476D01*
X74693Y-37476D01*
X74491Y-37560D01*
X74337Y-37714D01*
X74253Y-37916D01*
X74253Y-38134D01*
X74337Y-38336D01*
X74491Y-38490D01*
X74693Y-38574D01*
X74911Y-38574D01*
X75113Y-38490D01*
X75267Y-38336D01*
X75351Y-38134D01*
X75351Y-39296D01*
X75267Y-39094D01*
X75113Y-38940D01*
X74911Y-38856D01*
X74712Y-38856D01*
X72916Y-37059D01*
X72810Y-36989D01*
X72686Y-36964D01*
X68283Y-36964D01*
X68308Y-36909D01*
X68312Y-36744D01*
X68253Y-36589D01*
X68240Y-36570D01*
X68171Y-36545D01*
X67936Y-36780D01*
X67901Y-36815D01*
X67894Y-36822D01*
X67887Y-36815D01*
X67894Y-36808D01*
X67929Y-36773D01*
X68164Y-36538D01*
X68139Y-36469D01*
X67988Y-36401D01*
X67823Y-36397D01*
X67766Y-36418D01*
X67766Y-34285D01*
X68464Y-33586D01*
X68466Y-33585D01*
X68467Y-33585D01*
X68536Y-33480D01*
X68537Y-33479D01*
X68556Y-33381D01*
X68562Y-33356D01*
X68561Y-33355D01*
X68562Y-33355D01*
X68562Y-33329D01*
X68694Y-33197D01*
X68736Y-33094D01*
X68779Y-33197D01*
X68931Y-33348D01*
X69129Y-33431D01*
X69344Y-33431D01*
X69543Y-33349D01*
X69694Y-33197D01*
X69736Y-33094D01*
X69779Y-33197D01*
X69931Y-33348D01*
X70129Y-33431D01*
X70344Y-33431D01*
X70543Y-33349D01*
X70694Y-33197D01*
X70777Y-32999D01*
X70777Y-32784D01*
X70777Y-32356D01*
X70695Y-32157D01*
X70543Y-32006D01*
X70523Y-31998D01*
X75856Y-31998D01*
X75856Y-52352D01*
X75856Y-52352D01*
G37*
G54D17*
X75856Y-52352D02*
X75353Y-52352D01*
X75353Y-50538D01*
X75353Y-50320D01*
X75269Y-50118D01*
X75115Y-49964D01*
X74913Y-49880D01*
X74714Y-49880D01*
X73488Y-48654D01*
X73945Y-48654D01*
X74254Y-48962D01*
X74254Y-49161D01*
X74338Y-49363D01*
X74492Y-49517D01*
X74694Y-49601D01*
X74912Y-49601D01*
X75114Y-49517D01*
X75268Y-49363D01*
X75352Y-49161D01*
X75352Y-48943D01*
X75268Y-48741D01*
X75114Y-48587D01*
X74912Y-48503D01*
X74713Y-48503D01*
X74396Y-48186D01*
X74611Y-48186D01*
X74612Y-48186D01*
X74693Y-48220D01*
X74911Y-48220D01*
X75113Y-48136D01*
X75267Y-47982D01*
X75351Y-47780D01*
X75351Y-47562D01*
X75267Y-47360D01*
X75113Y-47206D01*
X74911Y-47122D01*
X74693Y-47122D01*
X74491Y-47206D01*
X74337Y-47360D01*
X74263Y-47536D01*
X67597Y-47536D01*
X67592Y-47531D01*
X67610Y-47525D01*
X67678Y-47374D01*
X67682Y-47209D01*
X67623Y-47054D01*
X67610Y-47035D01*
X67541Y-47010D01*
X67534Y-47017D01*
X67534Y-47003D01*
X67509Y-46934D01*
X67358Y-46866D01*
X67193Y-46862D01*
X67038Y-46921D01*
X67019Y-46934D01*
X66994Y-47003D01*
X67264Y-47273D01*
X67534Y-47003D01*
X67534Y-47017D01*
X67306Y-47245D01*
X67271Y-47280D01*
X67264Y-47287D01*
X67257Y-47280D01*
X67222Y-47245D01*
X66987Y-47010D01*
X66918Y-47035D01*
X66850Y-47186D01*
X66846Y-47351D01*
X66905Y-47506D01*
X66918Y-47525D01*
X66935Y-47531D01*
X66931Y-47536D01*
X64955Y-47536D01*
X64955Y-46702D01*
X64685Y-46432D01*
X64415Y-46702D01*
X64440Y-46771D01*
X64591Y-46839D01*
X64756Y-46843D01*
X64911Y-46784D01*
X64930Y-46771D01*
X64955Y-46702D01*
X64955Y-47536D01*
X63271Y-47536D01*
X59935Y-44200D01*
X60016Y-44200D01*
X61970Y-46154D01*
X61971Y-46155D01*
X62076Y-46224D01*
X62077Y-46225D01*
X62175Y-46244D01*
X62200Y-46250D01*
X62200Y-46249D01*
X62201Y-46250D01*
X64307Y-46250D01*
X64271Y-46331D01*
X64267Y-46496D01*
X64326Y-46651D01*
X64339Y-46670D01*
X64408Y-46695D01*
X64643Y-46460D01*
X64678Y-46425D01*
X64685Y-46418D01*
X64692Y-46425D01*
X64727Y-46460D01*
X64962Y-46695D01*
X65031Y-46670D01*
X65099Y-46519D01*
X65103Y-46354D01*
X65063Y-46250D01*
X74254Y-46250D01*
X74254Y-46403D01*
X74338Y-46605D01*
X74492Y-46759D01*
X74694Y-46843D01*
X74912Y-46843D01*
X75114Y-46759D01*
X75268Y-46605D01*
X75352Y-46403D01*
X75352Y-46185D01*
X75268Y-45983D01*
X75114Y-45829D01*
X74912Y-45745D01*
X74713Y-45745D01*
X74664Y-45695D01*
X74558Y-45625D01*
X74434Y-45600D01*
X67686Y-45600D01*
X67709Y-45578D01*
X67789Y-45385D01*
X67789Y-45176D01*
X67775Y-45144D01*
X74303Y-45144D01*
X74338Y-45227D01*
X74492Y-45381D01*
X74694Y-45465D01*
X74912Y-45465D01*
X75114Y-45381D01*
X75268Y-45227D01*
X75352Y-45025D01*
X75352Y-44807D01*
X75268Y-44605D01*
X75114Y-44451D01*
X74912Y-44367D01*
X74694Y-44367D01*
X74492Y-44451D01*
X74449Y-44494D01*
X74308Y-44494D01*
X74713Y-44089D01*
X74912Y-44089D01*
X75114Y-44005D01*
X75268Y-43851D01*
X75352Y-43649D01*
X75352Y-43431D01*
X75268Y-43229D01*
X75114Y-43075D01*
X74912Y-42991D01*
X74694Y-42991D01*
X74492Y-43075D01*
X74338Y-43229D01*
X74254Y-43431D01*
X74254Y-43629D01*
X73771Y-44112D01*
X73311Y-44112D01*
X74713Y-42710D01*
X74912Y-42710D01*
X75114Y-42626D01*
X75268Y-42472D01*
X75352Y-42270D01*
X75352Y-42052D01*
X75268Y-41850D01*
X75114Y-41696D01*
X74912Y-41612D01*
X74694Y-41612D01*
X74492Y-41696D01*
X74338Y-41850D01*
X74254Y-42052D01*
X74254Y-42250D01*
X72646Y-43858D01*
X68443Y-43858D01*
X68476Y-43780D01*
X68476Y-43571D01*
X68396Y-43378D01*
X68249Y-43230D01*
X68056Y-43150D01*
X67847Y-43150D01*
X67654Y-43230D01*
X67506Y-43377D01*
X67450Y-43510D01*
X67396Y-43378D01*
X67249Y-43230D01*
X67056Y-43150D01*
X66847Y-43150D01*
X66654Y-43230D01*
X66506Y-43377D01*
X66450Y-43510D01*
X66396Y-43378D01*
X66249Y-43230D01*
X66056Y-43150D01*
X65847Y-43150D01*
X65654Y-43230D01*
X65506Y-43377D01*
X65450Y-43510D01*
X65396Y-43378D01*
X65249Y-43230D01*
X65056Y-43150D01*
X64936Y-43150D01*
X65040Y-43046D01*
X72864Y-43046D01*
X72988Y-43021D01*
X73094Y-42951D01*
X74712Y-41332D01*
X74911Y-41332D01*
X75113Y-41248D01*
X75267Y-41094D01*
X75351Y-40892D01*
X75351Y-40674D01*
X75267Y-40472D01*
X75113Y-40318D01*
X74911Y-40234D01*
X74693Y-40234D01*
X74491Y-40318D01*
X74337Y-40472D01*
X74253Y-40674D01*
X74253Y-40872D01*
X72729Y-42396D01*
X72262Y-42396D01*
X72262Y-38882D01*
X72262Y-38474D01*
X72106Y-38097D01*
X71818Y-37809D01*
X71442Y-37652D01*
X71034Y-37652D01*
X70657Y-37808D01*
X70369Y-38096D01*
X70212Y-38472D01*
X70212Y-38880D01*
X70368Y-39257D01*
X70656Y-39545D01*
X71032Y-39702D01*
X71440Y-39702D01*
X71817Y-39546D01*
X72105Y-39258D01*
X72262Y-38882D01*
X72262Y-42396D01*
X68475Y-42396D01*
X68475Y-41000D01*
X68475Y-40901D01*
X68475Y-40351D01*
X68437Y-40259D01*
X68419Y-40241D01*
X68419Y-38920D01*
X68419Y-38711D01*
X68339Y-38518D01*
X68192Y-38370D01*
X67999Y-38290D01*
X67790Y-38290D01*
X67597Y-38370D01*
X67515Y-38451D01*
X66501Y-38451D01*
X66501Y-36705D01*
X66442Y-36550D01*
X66429Y-36531D01*
X66360Y-36506D01*
X66353Y-36513D01*
X66353Y-36499D01*
X66328Y-36430D01*
X66177Y-36362D01*
X66012Y-36358D01*
X65857Y-36417D01*
X65838Y-36430D01*
X65813Y-36499D01*
X66083Y-36769D01*
X66353Y-36499D01*
X66353Y-36513D01*
X66090Y-36776D01*
X66360Y-37046D01*
X66429Y-37021D01*
X66497Y-36870D01*
X66501Y-36705D01*
X66501Y-38451D01*
X66500Y-38451D01*
X66381Y-38331D01*
X66353Y-38319D01*
X66353Y-37053D01*
X66083Y-36783D01*
X66076Y-36790D01*
X66076Y-36776D01*
X65806Y-36506D01*
X65737Y-36531D01*
X65669Y-36682D01*
X65665Y-36847D01*
X65724Y-37002D01*
X65737Y-37021D01*
X65806Y-37046D01*
X66076Y-36776D01*
X66076Y-36790D01*
X65813Y-37053D01*
X65838Y-37122D01*
X65989Y-37190D01*
X66154Y-37194D01*
X66309Y-37135D01*
X66328Y-37122D01*
X66353Y-37053D01*
X66353Y-38319D01*
X66188Y-38251D01*
X65979Y-38251D01*
X65786Y-38331D01*
X65638Y-38478D01*
X65558Y-38671D01*
X65558Y-38880D01*
X65638Y-39073D01*
X65785Y-39221D01*
X65978Y-39301D01*
X66187Y-39301D01*
X66380Y-39221D01*
X66500Y-39101D01*
X67444Y-39101D01*
X67449Y-39112D01*
X67596Y-39260D01*
X67789Y-39340D01*
X67998Y-39340D01*
X68191Y-39260D01*
X68339Y-39113D01*
X68419Y-38920D01*
X68419Y-40241D01*
X68367Y-40189D01*
X68276Y-40151D01*
X68177Y-40151D01*
X67627Y-40151D01*
X67535Y-40189D01*
X67465Y-40259D01*
X67427Y-40350D01*
X67427Y-40449D01*
X67427Y-40999D01*
X67465Y-41091D01*
X67535Y-41161D01*
X67626Y-41199D01*
X67725Y-41199D01*
X68275Y-41199D01*
X68367Y-41161D01*
X68437Y-41091D01*
X68475Y-41000D01*
X68475Y-42396D01*
X67369Y-42396D01*
X67369Y-40604D01*
X67310Y-40449D01*
X67297Y-40430D01*
X67228Y-40405D01*
X67221Y-40412D01*
X67221Y-40398D01*
X67196Y-40329D01*
X67045Y-40261D01*
X66880Y-40257D01*
X66725Y-40316D01*
X66706Y-40329D01*
X66681Y-40398D01*
X66951Y-40668D01*
X67221Y-40398D01*
X67221Y-40412D01*
X66958Y-40675D01*
X67228Y-40945D01*
X67297Y-40920D01*
X67365Y-40769D01*
X67369Y-40604D01*
X67369Y-42396D01*
X67221Y-42396D01*
X67221Y-40952D01*
X66951Y-40682D01*
X66944Y-40689D01*
X66944Y-40675D01*
X66674Y-40405D01*
X66605Y-40430D01*
X66537Y-40581D01*
X66533Y-40746D01*
X66592Y-40901D01*
X66605Y-40920D01*
X66674Y-40945D01*
X66944Y-40675D01*
X66944Y-40689D01*
X66681Y-40952D01*
X66706Y-41021D01*
X66857Y-41089D01*
X67022Y-41093D01*
X67177Y-41034D01*
X67196Y-41021D01*
X67221Y-40952D01*
X67221Y-42396D01*
X64905Y-42396D01*
X64780Y-42421D01*
X64675Y-42491D01*
X64016Y-43150D01*
X63847Y-43150D01*
X63654Y-43230D01*
X63506Y-43377D01*
X63450Y-43510D01*
X63396Y-43378D01*
X63249Y-43230D01*
X63056Y-43150D01*
X62847Y-43150D01*
X62654Y-43230D01*
X62506Y-43377D01*
X62450Y-43510D01*
X62396Y-43378D01*
X62249Y-43230D01*
X62056Y-43150D01*
X61847Y-43150D01*
X61654Y-43230D01*
X61506Y-43377D01*
X61450Y-43510D01*
X61396Y-43378D01*
X61249Y-43230D01*
X61056Y-43150D01*
X60847Y-43150D01*
X60654Y-43230D01*
X60506Y-43377D01*
X60450Y-43510D01*
X60396Y-43378D01*
X60249Y-43230D01*
X60056Y-43150D01*
X59847Y-43150D01*
X59654Y-43230D01*
X59506Y-43377D01*
X59450Y-43510D01*
X59396Y-43378D01*
X59249Y-43230D01*
X59056Y-43150D01*
X58847Y-43150D01*
X58654Y-43230D01*
X58506Y-43377D01*
X58450Y-43510D01*
X58396Y-43378D01*
X58249Y-43230D01*
X58056Y-43150D01*
X57847Y-43150D01*
X57654Y-43230D01*
X57506Y-43377D01*
X57450Y-43510D01*
X57396Y-43378D01*
X57369Y-43350D01*
X57369Y-40604D01*
X57310Y-40449D01*
X57297Y-40430D01*
X57228Y-40405D01*
X57221Y-40412D01*
X57221Y-40398D01*
X57196Y-40329D01*
X57045Y-40261D01*
X56880Y-40257D01*
X56725Y-40316D01*
X56706Y-40329D01*
X56681Y-40398D01*
X56951Y-40668D01*
X57221Y-40398D01*
X57221Y-40412D01*
X56958Y-40675D01*
X57228Y-40945D01*
X57297Y-40920D01*
X57365Y-40769D01*
X57369Y-40604D01*
X57369Y-43350D01*
X57249Y-43230D01*
X57221Y-43218D01*
X57221Y-40952D01*
X56951Y-40682D01*
X56944Y-40689D01*
X56944Y-40675D01*
X56674Y-40405D01*
X56605Y-40430D01*
X56537Y-40581D01*
X56533Y-40746D01*
X56592Y-40901D01*
X56605Y-40920D01*
X56674Y-40945D01*
X56944Y-40675D01*
X56944Y-40689D01*
X56681Y-40952D01*
X56706Y-41021D01*
X56857Y-41089D01*
X57022Y-41093D01*
X57177Y-41034D01*
X57196Y-41021D01*
X57221Y-40952D01*
X57221Y-43218D01*
X57056Y-43150D01*
X56847Y-43150D01*
X56654Y-43230D01*
X56506Y-43377D01*
X56426Y-43570D01*
X56426Y-43779D01*
X56506Y-43972D01*
X56653Y-44120D01*
X56846Y-44200D01*
X57016Y-44200D01*
X61767Y-48950D01*
X61769Y-48953D01*
X61874Y-49022D01*
X61875Y-49023D01*
X61973Y-49042D01*
X61998Y-49048D01*
X61998Y-49047D01*
X61999Y-49048D01*
X70417Y-49048D01*
X70369Y-49096D01*
X70212Y-49472D01*
X70212Y-49880D01*
X70368Y-50257D01*
X70656Y-50545D01*
X71032Y-50702D01*
X71440Y-50702D01*
X71817Y-50546D01*
X72105Y-50258D01*
X72262Y-49882D01*
X72262Y-49474D01*
X72106Y-49097D01*
X72057Y-49048D01*
X72963Y-49048D01*
X74255Y-50339D01*
X74255Y-50538D01*
X74339Y-50740D01*
X74493Y-50894D01*
X74695Y-50978D01*
X74913Y-50978D01*
X75115Y-50894D01*
X75269Y-50740D01*
X75353Y-50538D01*
X75353Y-52352D01*
X70535Y-52352D01*
X70543Y-52349D01*
X70694Y-52197D01*
X70777Y-51999D01*
X70777Y-51784D01*
X70777Y-51356D01*
X70695Y-51157D01*
X70543Y-51006D01*
X70345Y-50923D01*
X70130Y-50923D01*
X69931Y-51005D01*
X69780Y-51157D01*
X69737Y-51259D01*
X69695Y-51157D01*
X69543Y-51006D01*
X69345Y-50923D01*
X69130Y-50923D01*
X68931Y-51005D01*
X68780Y-51157D01*
X68737Y-51259D01*
X68695Y-51157D01*
X68543Y-51006D01*
X68345Y-50923D01*
X68130Y-50923D01*
X67931Y-51005D01*
X67780Y-51157D01*
X67737Y-51259D01*
X67695Y-51157D01*
X67543Y-51006D01*
X67345Y-50923D01*
X67130Y-50923D01*
X66931Y-51005D01*
X66780Y-51157D01*
X66737Y-51259D01*
X66695Y-51157D01*
X66543Y-51006D01*
X66345Y-50923D01*
X66130Y-50923D01*
X65931Y-51005D01*
X65780Y-51157D01*
X65737Y-51259D01*
X65695Y-51157D01*
X65543Y-51006D01*
X65345Y-50923D01*
X65130Y-50923D01*
X64931Y-51005D01*
X64780Y-51157D01*
X64697Y-51355D01*
X64697Y-51570D01*
X64697Y-51998D01*
X64779Y-52197D01*
X64931Y-52348D01*
X64940Y-52352D01*
X63535Y-52352D01*
X63543Y-52349D01*
X63694Y-52197D01*
X63777Y-51999D01*
X63777Y-51784D01*
X63777Y-51356D01*
X63695Y-51157D01*
X63543Y-51006D01*
X63345Y-50923D01*
X63130Y-50923D01*
X62931Y-51005D01*
X62780Y-51157D01*
X62737Y-51259D01*
X62695Y-51157D01*
X62543Y-51006D01*
X62345Y-50923D01*
X62130Y-50923D01*
X61931Y-51005D01*
X61780Y-51157D01*
X61697Y-51355D01*
X61697Y-51570D01*
X61697Y-51998D01*
X61779Y-52197D01*
X61931Y-52348D01*
X61940Y-52352D01*
X61687Y-52352D01*
X61687Y-51972D01*
X61687Y-51682D01*
X61687Y-51672D01*
X61687Y-51382D01*
X61616Y-51217D01*
X61488Y-51092D01*
X61312Y-51034D01*
X61242Y-51065D01*
X61242Y-51672D01*
X61687Y-51672D01*
X61687Y-51682D01*
X61242Y-51682D01*
X61242Y-52289D01*
X61312Y-52320D01*
X61488Y-52262D01*
X61616Y-52137D01*
X61687Y-51972D01*
X61687Y-52352D01*
X61232Y-52352D01*
X61232Y-52289D01*
X61232Y-51682D01*
X61232Y-51672D01*
X61232Y-51065D01*
X61162Y-51034D01*
X60986Y-51092D01*
X60858Y-51217D01*
X60787Y-51382D01*
X60787Y-51672D01*
X61232Y-51672D01*
X61232Y-51682D01*
X60787Y-51682D01*
X60787Y-51972D01*
X60858Y-52137D01*
X60986Y-52262D01*
X61162Y-52320D01*
X61232Y-52289D01*
X61232Y-52352D01*
X60535Y-52352D01*
X60543Y-52349D01*
X60694Y-52197D01*
X60777Y-51999D01*
X60777Y-51784D01*
X60777Y-51356D01*
X60695Y-51157D01*
X60543Y-51006D01*
X60345Y-50923D01*
X60130Y-50923D01*
X59931Y-51005D01*
X59780Y-51157D01*
X59737Y-51259D01*
X59695Y-51157D01*
X59543Y-51006D01*
X59345Y-50923D01*
X59130Y-50923D01*
X58931Y-51005D01*
X58780Y-51157D01*
X58737Y-51259D01*
X58695Y-51157D01*
X58543Y-51006D01*
X58345Y-50923D01*
X58130Y-50923D01*
X57931Y-51005D01*
X57780Y-51157D01*
X57697Y-51355D01*
X57697Y-51570D01*
X57697Y-51998D01*
X57779Y-52197D01*
X57931Y-52348D01*
X57940Y-52352D01*
X51511Y-52352D01*
X51605Y-52258D01*
X51762Y-51882D01*
X51762Y-51474D01*
X51606Y-51097D01*
X51318Y-50809D01*
X50942Y-50652D01*
X50534Y-50652D01*
X50157Y-50808D01*
X49869Y-51096D01*
X49712Y-51472D01*
X49712Y-51880D01*
X49868Y-52257D01*
X49963Y-52352D01*
X49045Y-52352D01*
X49045Y-31998D01*
X50467Y-31998D01*
X50369Y-32096D01*
X50212Y-32472D01*
X50212Y-32880D01*
X50368Y-33257D01*
X50656Y-33545D01*
X51032Y-33702D01*
X51440Y-33702D01*
X51817Y-33546D01*
X52105Y-33258D01*
X52262Y-32882D01*
X52262Y-32474D01*
X52106Y-32097D01*
X52007Y-31998D01*
X54347Y-31998D01*
X54331Y-32005D01*
X54180Y-32157D01*
X54097Y-32355D01*
X54097Y-32570D01*
X54097Y-32998D01*
X54179Y-33197D01*
X54331Y-33348D01*
X54529Y-33431D01*
X54744Y-33431D01*
X54943Y-33349D01*
X55094Y-33197D01*
X55136Y-33094D01*
X55179Y-33197D01*
X55331Y-33348D01*
X55529Y-33431D01*
X55744Y-33431D01*
X55943Y-33349D01*
X56094Y-33197D01*
X56136Y-33094D01*
X56179Y-33197D01*
X56312Y-33329D01*
X56312Y-33355D01*
X56337Y-33479D01*
X56407Y-33585D01*
X56513Y-33655D01*
X56637Y-33680D01*
X58653Y-33680D01*
X65083Y-40110D01*
X65083Y-40278D01*
X65045Y-40261D01*
X64880Y-40257D01*
X64725Y-40316D01*
X64706Y-40329D01*
X64681Y-40398D01*
X64916Y-40633D01*
X64951Y-40668D01*
X64958Y-40675D01*
X64951Y-40682D01*
X64944Y-40675D01*
X64909Y-40640D01*
X64674Y-40405D01*
X64605Y-40430D01*
X64537Y-40581D01*
X64533Y-40746D01*
X64554Y-40803D01*
X64538Y-40803D01*
X64476Y-40740D01*
X64476Y-40571D01*
X64396Y-40378D01*
X64249Y-40230D01*
X64056Y-40150D01*
X63847Y-40150D01*
X63654Y-40230D01*
X63506Y-40377D01*
X63450Y-40510D01*
X63396Y-40378D01*
X63249Y-40230D01*
X63056Y-40150D01*
X62847Y-40150D01*
X62654Y-40230D01*
X62506Y-40377D01*
X62450Y-40510D01*
X62396Y-40378D01*
X62249Y-40230D01*
X62056Y-40150D01*
X61847Y-40150D01*
X61654Y-40230D01*
X61506Y-40377D01*
X61450Y-40510D01*
X61396Y-40378D01*
X61249Y-40230D01*
X61056Y-40150D01*
X60847Y-40150D01*
X60654Y-40230D01*
X60506Y-40377D01*
X60450Y-40510D01*
X60396Y-40378D01*
X60249Y-40230D01*
X60056Y-40150D01*
X59847Y-40150D01*
X59654Y-40230D01*
X59506Y-40377D01*
X59450Y-40510D01*
X59396Y-40378D01*
X59249Y-40230D01*
X59056Y-40150D01*
X58847Y-40150D01*
X58654Y-40230D01*
X58506Y-40377D01*
X58450Y-40510D01*
X58396Y-40378D01*
X58249Y-40230D01*
X58056Y-40150D01*
X57847Y-40150D01*
X57654Y-40230D01*
X57506Y-40377D01*
X57426Y-40570D01*
X57426Y-40779D01*
X57506Y-40972D01*
X57653Y-41120D01*
X57846Y-41200D01*
X58055Y-41200D01*
X58248Y-41120D01*
X58396Y-40973D01*
X58451Y-40839D01*
X58506Y-40972D01*
X58653Y-41120D01*
X58846Y-41200D01*
X59055Y-41200D01*
X59248Y-41120D01*
X59396Y-40973D01*
X59451Y-40839D01*
X59506Y-40972D01*
X59653Y-41120D01*
X59846Y-41200D01*
X60055Y-41200D01*
X60248Y-41120D01*
X60396Y-40973D01*
X60451Y-40839D01*
X60506Y-40972D01*
X60653Y-41120D01*
X60846Y-41200D01*
X61055Y-41200D01*
X61248Y-41120D01*
X61396Y-40973D01*
X61451Y-40839D01*
X61506Y-40972D01*
X61653Y-41120D01*
X61846Y-41200D01*
X62055Y-41200D01*
X62248Y-41120D01*
X62396Y-40973D01*
X62451Y-40839D01*
X62506Y-40972D01*
X62653Y-41120D01*
X62846Y-41200D01*
X63055Y-41200D01*
X63248Y-41120D01*
X63396Y-40973D01*
X63451Y-40839D01*
X63506Y-40972D01*
X63653Y-41120D01*
X63846Y-41200D01*
X64016Y-41200D01*
X64172Y-41355D01*
X64174Y-41358D01*
X64279Y-41427D01*
X64280Y-41428D01*
X64404Y-41453D01*
X65151Y-41453D01*
X65275Y-41428D01*
X65381Y-41358D01*
X65635Y-41102D01*
X65653Y-41120D01*
X65846Y-41200D01*
X66055Y-41200D01*
X66248Y-41120D01*
X66396Y-40973D01*
X66476Y-40780D01*
X66476Y-40571D01*
X66396Y-40378D01*
X66249Y-40230D01*
X66056Y-40150D01*
X65847Y-40150D01*
X65733Y-40197D01*
X65733Y-39975D01*
X65708Y-39851D01*
X65708Y-39850D01*
X65638Y-39745D01*
X59092Y-33199D01*
X59094Y-33197D01*
X59136Y-33094D01*
X59179Y-33197D01*
X59331Y-33348D01*
X59529Y-33431D01*
X59744Y-33431D01*
X59943Y-33349D01*
X60094Y-33197D01*
X60136Y-33094D01*
X60179Y-33197D01*
X60331Y-33348D01*
X60529Y-33431D01*
X60744Y-33431D01*
X60943Y-33349D01*
X61094Y-33197D01*
X61136Y-33094D01*
X61179Y-33197D01*
X61331Y-33348D01*
X61529Y-33431D01*
X61744Y-33431D01*
X61943Y-33349D01*
X62094Y-33197D01*
X62177Y-32999D01*
X62177Y-32784D01*
X62177Y-32356D01*
X62095Y-32157D01*
X61943Y-32006D01*
X61923Y-31998D01*
X62947Y-31998D01*
X62931Y-32005D01*
X62780Y-32157D01*
X62697Y-32355D01*
X62697Y-32570D01*
X62697Y-32998D01*
X62779Y-33197D01*
X62931Y-33348D01*
X63129Y-33431D01*
X63344Y-33431D01*
X63543Y-33349D01*
X63694Y-33197D01*
X63736Y-33094D01*
X63779Y-33197D01*
X63931Y-33348D01*
X64129Y-33431D01*
X64344Y-33431D01*
X64543Y-33349D01*
X64694Y-33197D01*
X64736Y-33094D01*
X64779Y-33197D01*
X64931Y-33348D01*
X65129Y-33431D01*
X65344Y-33431D01*
X65543Y-33349D01*
X65694Y-33197D01*
X65736Y-33094D01*
X65779Y-33197D01*
X65931Y-33348D01*
X66129Y-33431D01*
X66344Y-33431D01*
X66543Y-33349D01*
X66694Y-33197D01*
X66736Y-33094D01*
X66779Y-33197D01*
X66931Y-33348D01*
X67129Y-33431D01*
X67344Y-33431D01*
X67543Y-33349D01*
X67694Y-33197D01*
X67736Y-33094D01*
X67779Y-33197D01*
X67857Y-33275D01*
X67211Y-33921D01*
X67141Y-34027D01*
X67116Y-34151D01*
X67116Y-37246D01*
X67141Y-37370D01*
X67211Y-37476D01*
X67252Y-37516D01*
X67254Y-37519D01*
X67359Y-37588D01*
X67360Y-37589D01*
X67458Y-37608D01*
X67483Y-37614D01*
X67483Y-37613D01*
X67484Y-37614D01*
X72551Y-37614D01*
X74253Y-39315D01*
X74253Y-39514D01*
X74337Y-39716D01*
X74491Y-39870D01*
X74693Y-39954D01*
X74911Y-39954D01*
X75113Y-39870D01*
X75267Y-39716D01*
X75351Y-39514D01*
X75351Y-39296D01*
X75351Y-38134D01*
X75351Y-37916D01*
X75351Y-36758D01*
X75351Y-36540D01*
X75350Y-36537D01*
X75350Y-35380D01*
X75350Y-35162D01*
X75266Y-34960D01*
X75246Y-34940D01*
X75246Y-33818D01*
X75184Y-33654D01*
X75168Y-33633D01*
X75097Y-33605D01*
X75090Y-33612D01*
X75090Y-33598D01*
X75062Y-33527D01*
X74902Y-33455D01*
X74727Y-33449D01*
X74563Y-33511D01*
X74542Y-33527D01*
X74514Y-33598D01*
X74802Y-33886D01*
X75090Y-33598D01*
X75090Y-33612D01*
X74809Y-33893D01*
X75097Y-34181D01*
X75168Y-34153D01*
X75240Y-33993D01*
X75246Y-33818D01*
X75246Y-34940D01*
X75112Y-34806D01*
X75090Y-34796D01*
X75090Y-34188D01*
X74802Y-33900D01*
X74795Y-33907D01*
X74795Y-33893D01*
X74507Y-33605D01*
X74436Y-33633D01*
X74364Y-33793D01*
X74358Y-33968D01*
X74420Y-34132D01*
X74436Y-34153D01*
X74507Y-34181D01*
X74795Y-33893D01*
X74795Y-33907D01*
X74514Y-34188D01*
X74542Y-34259D01*
X74702Y-34331D01*
X74877Y-34337D01*
X75041Y-34275D01*
X75062Y-34259D01*
X75090Y-34188D01*
X75090Y-34796D01*
X74910Y-34722D01*
X74692Y-34722D01*
X74490Y-34806D01*
X74336Y-34960D01*
X74252Y-35162D01*
X74252Y-35380D01*
X74336Y-35582D01*
X74490Y-35736D01*
X74692Y-35820D01*
X74910Y-35820D01*
X75112Y-35736D01*
X75266Y-35582D01*
X75350Y-35380D01*
X75350Y-36537D01*
X75267Y-36338D01*
X75113Y-36184D01*
X74911Y-36100D01*
X74693Y-36100D01*
X74491Y-36184D01*
X74337Y-36338D01*
X74253Y-36540D01*
X74253Y-36758D01*
X74337Y-36960D01*
X74491Y-37114D01*
X74693Y-37198D01*
X74911Y-37198D01*
X75113Y-37114D01*
X75267Y-36960D01*
X75351Y-36758D01*
X75351Y-37916D01*
X75267Y-37714D01*
X75113Y-37560D01*
X74911Y-37476D01*
X74693Y-37476D01*
X74491Y-37560D01*
X74337Y-37714D01*
X74253Y-37916D01*
X74253Y-38134D01*
X74337Y-38336D01*
X74491Y-38490D01*
X74693Y-38574D01*
X74911Y-38574D01*
X75113Y-38490D01*
X75267Y-38336D01*
X75351Y-38134D01*
X75351Y-39296D01*
X75267Y-39094D01*
X75113Y-38940D01*
X74911Y-38856D01*
X74712Y-38856D01*
X72916Y-37059D01*
X72810Y-36989D01*
X72686Y-36964D01*
X68283Y-36964D01*
X68308Y-36909D01*
X68312Y-36744D01*
X68253Y-36589D01*
X68240Y-36570D01*
X68171Y-36545D01*
X67936Y-36780D01*
X67901Y-36815D01*
X67894Y-36822D01*
X67887Y-36815D01*
X67894Y-36808D01*
X67929Y-36773D01*
X68164Y-36538D01*
X68139Y-36469D01*
X67988Y-36401D01*
X67823Y-36397D01*
X67766Y-36418D01*
X67766Y-34285D01*
X68464Y-33586D01*
X68466Y-33585D01*
X68467Y-33585D01*
X68536Y-33480D01*
X68537Y-33479D01*
X68556Y-33381D01*
X68562Y-33356D01*
X68561Y-33355D01*
X68562Y-33355D01*
X68562Y-33329D01*
X68694Y-33197D01*
X68736Y-33094D01*
X68779Y-33197D01*
X68931Y-33348D01*
X69129Y-33431D01*
X69344Y-33431D01*
X69543Y-33349D01*
X69694Y-33197D01*
X69736Y-33094D01*
X69779Y-33197D01*
X69931Y-33348D01*
X70129Y-33431D01*
X70344Y-33431D01*
X70543Y-33349D01*
X70694Y-33197D01*
X70777Y-32999D01*
X70777Y-32784D01*
X70777Y-32356D01*
X70695Y-32157D01*
X70543Y-32006D01*
X70523Y-31998D01*
X75856Y-31998D01*
X75856Y-52352D01*
M02*
