G04 (created by PCBNEW-RS274X (2011-aug-04)-testing) date Fri 14 Sep 2012 05:32:11 PM PDT*
G01*
G70*
G90*
%MOIN*%
G04 Gerber Fmt 3.4, Leading zero omitted, Abs format*
%FSLAX34Y34*%
G04 APERTURE LIST*
%ADD10C,0.006000*%
%ADD11C,0.012000*%
%ADD12C,0.015000*%
%ADD13C,0.011300*%
%ADD14C,0.008000*%
G04 APERTURE END LIST*
G54D10*
X61872Y-34045D02*
X61472Y-34045D01*
X61472Y-33950D01*
X61491Y-33892D01*
X61529Y-33854D01*
X61567Y-33835D01*
X61643Y-33816D01*
X61700Y-33816D01*
X61777Y-33835D01*
X61815Y-33854D01*
X61853Y-33892D01*
X61872Y-33950D01*
X61872Y-34045D01*
X61643Y-33588D02*
X61624Y-33626D01*
X61605Y-33645D01*
X61567Y-33664D01*
X61548Y-33664D01*
X61510Y-33645D01*
X61491Y-33626D01*
X61472Y-33588D01*
X61472Y-33511D01*
X61491Y-33473D01*
X61510Y-33454D01*
X61548Y-33435D01*
X61567Y-33435D01*
X61605Y-33454D01*
X61624Y-33473D01*
X61643Y-33511D01*
X61643Y-33588D01*
X61662Y-33626D01*
X61681Y-33645D01*
X61720Y-33664D01*
X61796Y-33664D01*
X61834Y-33645D01*
X61853Y-33626D01*
X61872Y-33588D01*
X61872Y-33511D01*
X61853Y-33473D01*
X61834Y-33454D01*
X61796Y-33435D01*
X61720Y-33435D01*
X61681Y-33454D01*
X61662Y-33473D01*
X61643Y-33511D01*
X60882Y-34045D02*
X60482Y-34045D01*
X60482Y-33950D01*
X60501Y-33892D01*
X60539Y-33854D01*
X60577Y-33835D01*
X60653Y-33816D01*
X60710Y-33816D01*
X60787Y-33835D01*
X60825Y-33854D01*
X60863Y-33892D01*
X60882Y-33950D01*
X60882Y-34045D01*
X60882Y-33626D02*
X60882Y-33550D01*
X60863Y-33511D01*
X60844Y-33492D01*
X60787Y-33454D01*
X60710Y-33435D01*
X60558Y-33435D01*
X60520Y-33454D01*
X60501Y-33473D01*
X60482Y-33511D01*
X60482Y-33588D01*
X60501Y-33626D01*
X60520Y-33645D01*
X60558Y-33664D01*
X60653Y-33664D01*
X60691Y-33645D01*
X60710Y-33626D01*
X60730Y-33588D01*
X60730Y-33511D01*
X60710Y-33473D01*
X60691Y-33454D01*
X60653Y-33435D01*
X59812Y-34426D02*
X59412Y-34426D01*
X59412Y-34331D01*
X59431Y-34273D01*
X59469Y-34235D01*
X59507Y-34216D01*
X59583Y-34197D01*
X59640Y-34197D01*
X59717Y-34216D01*
X59755Y-34235D01*
X59793Y-34273D01*
X59812Y-34331D01*
X59812Y-34426D01*
X59812Y-33816D02*
X59812Y-34045D01*
X59812Y-33931D02*
X59412Y-33931D01*
X59469Y-33969D01*
X59507Y-34007D01*
X59526Y-34045D01*
X59412Y-33569D02*
X59412Y-33530D01*
X59431Y-33492D01*
X59450Y-33473D01*
X59488Y-33454D01*
X59564Y-33435D01*
X59660Y-33435D01*
X59736Y-33454D01*
X59774Y-33473D01*
X59793Y-33492D01*
X59812Y-33530D01*
X59812Y-33569D01*
X59793Y-33607D01*
X59774Y-33626D01*
X59736Y-33645D01*
X59660Y-33664D01*
X59564Y-33664D01*
X59488Y-33645D01*
X59450Y-33626D01*
X59431Y-33607D01*
X59412Y-33569D01*
X58802Y-34386D02*
X58402Y-34386D01*
X58402Y-34291D01*
X58421Y-34233D01*
X58459Y-34195D01*
X58497Y-34176D01*
X58573Y-34157D01*
X58630Y-34157D01*
X58707Y-34176D01*
X58745Y-34195D01*
X58783Y-34233D01*
X58802Y-34291D01*
X58802Y-34386D01*
X58802Y-33776D02*
X58802Y-34005D01*
X58802Y-33891D02*
X58402Y-33891D01*
X58459Y-33929D01*
X58497Y-33967D01*
X58516Y-34005D01*
X58802Y-33395D02*
X58802Y-33624D01*
X58802Y-33510D02*
X58402Y-33510D01*
X58459Y-33548D01*
X58497Y-33586D01*
X58516Y-33624D01*
X57802Y-34396D02*
X57402Y-34396D01*
X57402Y-34301D01*
X57421Y-34243D01*
X57459Y-34205D01*
X57497Y-34186D01*
X57573Y-34167D01*
X57630Y-34167D01*
X57707Y-34186D01*
X57745Y-34205D01*
X57783Y-34243D01*
X57802Y-34301D01*
X57802Y-34396D01*
X57802Y-33786D02*
X57802Y-34015D01*
X57802Y-33901D02*
X57402Y-33901D01*
X57459Y-33939D01*
X57497Y-33977D01*
X57516Y-34015D01*
X57440Y-33634D02*
X57421Y-33615D01*
X57402Y-33577D01*
X57402Y-33481D01*
X57421Y-33443D01*
X57440Y-33424D01*
X57478Y-33405D01*
X57516Y-33405D01*
X57573Y-33424D01*
X57802Y-33653D01*
X57802Y-33405D01*
X56812Y-34376D02*
X56412Y-34376D01*
X56412Y-34281D01*
X56431Y-34223D01*
X56469Y-34185D01*
X56507Y-34166D01*
X56583Y-34147D01*
X56640Y-34147D01*
X56717Y-34166D01*
X56755Y-34185D01*
X56793Y-34223D01*
X56812Y-34281D01*
X56812Y-34376D01*
X56812Y-33766D02*
X56812Y-33995D01*
X56812Y-33881D02*
X56412Y-33881D01*
X56469Y-33919D01*
X56507Y-33957D01*
X56526Y-33995D01*
X56412Y-33633D02*
X56412Y-33385D01*
X56564Y-33519D01*
X56564Y-33461D01*
X56583Y-33423D01*
X56602Y-33404D01*
X56640Y-33385D01*
X56736Y-33385D01*
X56774Y-33404D01*
X56793Y-33423D01*
X56812Y-33461D01*
X56812Y-33576D01*
X56793Y-33614D01*
X56774Y-33633D01*
X70422Y-34055D02*
X70022Y-34055D01*
X70022Y-33960D01*
X70041Y-33902D01*
X70079Y-33864D01*
X70117Y-33845D01*
X70193Y-33826D01*
X70250Y-33826D01*
X70327Y-33845D01*
X70365Y-33864D01*
X70403Y-33902D01*
X70422Y-33960D01*
X70422Y-34055D01*
X70022Y-33579D02*
X70022Y-33540D01*
X70041Y-33502D01*
X70060Y-33483D01*
X70098Y-33464D01*
X70174Y-33445D01*
X70270Y-33445D01*
X70346Y-33464D01*
X70384Y-33483D01*
X70403Y-33502D01*
X70422Y-33540D01*
X70422Y-33579D01*
X70403Y-33617D01*
X70384Y-33636D01*
X70346Y-33655D01*
X70270Y-33674D01*
X70174Y-33674D01*
X70098Y-33655D01*
X70060Y-33636D01*
X70041Y-33617D01*
X70022Y-33579D01*
X69422Y-34045D02*
X69022Y-34045D01*
X69022Y-33950D01*
X69041Y-33892D01*
X69079Y-33854D01*
X69117Y-33835D01*
X69193Y-33816D01*
X69250Y-33816D01*
X69327Y-33835D01*
X69365Y-33854D01*
X69403Y-33892D01*
X69422Y-33950D01*
X69422Y-34045D01*
X69422Y-33435D02*
X69422Y-33664D01*
X69422Y-33550D02*
X69022Y-33550D01*
X69079Y-33588D01*
X69117Y-33626D01*
X69136Y-33664D01*
X66422Y-34055D02*
X66022Y-34055D01*
X66022Y-33960D01*
X66041Y-33902D01*
X66079Y-33864D01*
X66117Y-33845D01*
X66193Y-33826D01*
X66250Y-33826D01*
X66327Y-33845D01*
X66365Y-33864D01*
X66403Y-33902D01*
X66422Y-33960D01*
X66422Y-34055D01*
X66155Y-33483D02*
X66422Y-33483D01*
X66003Y-33579D02*
X66289Y-33674D01*
X66289Y-33426D01*
X63452Y-34055D02*
X63052Y-34055D01*
X63052Y-33960D01*
X63071Y-33902D01*
X63109Y-33864D01*
X63147Y-33845D01*
X63223Y-33826D01*
X63280Y-33826D01*
X63357Y-33845D01*
X63395Y-33864D01*
X63433Y-33902D01*
X63452Y-33960D01*
X63452Y-34055D01*
X63052Y-33693D02*
X63052Y-33426D01*
X63452Y-33598D01*
G54D11*
X50394Y-48984D02*
X49594Y-48984D01*
X50165Y-48784D01*
X49594Y-48584D01*
X50394Y-48584D01*
X50165Y-48327D02*
X50165Y-48041D01*
X50394Y-48384D02*
X49594Y-48184D01*
X50394Y-47984D01*
X49594Y-47841D02*
X50394Y-47441D01*
X49594Y-47441D02*
X50394Y-47841D01*
X50394Y-46899D02*
X50394Y-47242D01*
X50394Y-47070D02*
X49594Y-47070D01*
X49708Y-47127D01*
X49784Y-47185D01*
X49822Y-47242D01*
X49670Y-46671D02*
X49632Y-46642D01*
X49594Y-46585D01*
X49594Y-46442D01*
X49632Y-46385D01*
X49670Y-46356D01*
X49746Y-46328D01*
X49822Y-46328D01*
X49937Y-46356D01*
X50394Y-46699D01*
X50394Y-46328D01*
X49594Y-46128D02*
X49594Y-45728D01*
X50394Y-45985D01*
X49594Y-45386D02*
X49594Y-45329D01*
X49632Y-45272D01*
X49670Y-45243D01*
X49746Y-45214D01*
X49899Y-45186D01*
X50089Y-45186D01*
X50241Y-45214D01*
X50318Y-45243D01*
X50356Y-45272D01*
X50394Y-45329D01*
X50394Y-45386D01*
X50356Y-45443D01*
X50318Y-45472D01*
X50241Y-45500D01*
X50089Y-45529D01*
X49899Y-45529D01*
X49746Y-45500D01*
X49670Y-45472D01*
X49632Y-45443D01*
X49594Y-45386D01*
X50165Y-44501D02*
X50165Y-44215D01*
X50394Y-44558D02*
X49594Y-44358D01*
X50394Y-44158D01*
X49860Y-43958D02*
X50394Y-43958D01*
X49937Y-43958D02*
X49899Y-43930D01*
X49860Y-43872D01*
X49860Y-43787D01*
X49899Y-43730D01*
X49975Y-43701D01*
X50394Y-43701D01*
X50394Y-43158D02*
X49975Y-43158D01*
X49899Y-43187D01*
X49860Y-43244D01*
X49860Y-43358D01*
X49899Y-43415D01*
X50356Y-43158D02*
X50394Y-43215D01*
X50394Y-43358D01*
X50356Y-43415D01*
X50280Y-43444D01*
X50203Y-43444D01*
X50127Y-43415D01*
X50089Y-43358D01*
X50089Y-43215D01*
X50051Y-43158D01*
X50394Y-42786D02*
X50356Y-42844D01*
X50280Y-42872D01*
X49594Y-42872D01*
X50394Y-42472D02*
X50356Y-42530D01*
X50318Y-42558D01*
X50241Y-42587D01*
X50013Y-42587D01*
X49937Y-42558D01*
X49899Y-42530D01*
X49860Y-42472D01*
X49860Y-42387D01*
X49899Y-42330D01*
X49937Y-42301D01*
X50013Y-42272D01*
X50241Y-42272D01*
X50318Y-42301D01*
X50356Y-42330D01*
X50394Y-42387D01*
X50394Y-42472D01*
X49860Y-41758D02*
X50508Y-41758D01*
X50584Y-41787D01*
X50622Y-41815D01*
X50660Y-41872D01*
X50660Y-41958D01*
X50622Y-42015D01*
X50356Y-41758D02*
X50394Y-41815D01*
X50394Y-41929D01*
X50356Y-41987D01*
X50318Y-42015D01*
X50241Y-42044D01*
X50013Y-42044D01*
X49937Y-42015D01*
X49899Y-41987D01*
X49860Y-41929D01*
X49860Y-41815D01*
X49899Y-41758D01*
X50394Y-41015D02*
X49594Y-41015D01*
X49860Y-40729D02*
X50394Y-40729D01*
X49937Y-40729D02*
X49899Y-40701D01*
X49860Y-40643D01*
X49860Y-40558D01*
X49899Y-40501D01*
X49975Y-40472D01*
X50394Y-40472D01*
X49860Y-40186D02*
X50660Y-40186D01*
X49899Y-40186D02*
X49860Y-40129D01*
X49860Y-40015D01*
X49899Y-39958D01*
X49937Y-39929D01*
X50013Y-39900D01*
X50241Y-39900D01*
X50318Y-39929D01*
X50356Y-39958D01*
X50394Y-40015D01*
X50394Y-40129D01*
X50356Y-40186D01*
X49860Y-39386D02*
X50394Y-39386D01*
X49860Y-39643D02*
X50280Y-39643D01*
X50356Y-39615D01*
X50394Y-39557D01*
X50394Y-39472D01*
X50356Y-39415D01*
X50318Y-39386D01*
X49860Y-39186D02*
X49860Y-38957D01*
X49594Y-39100D02*
X50280Y-39100D01*
X50356Y-39072D01*
X50394Y-39014D01*
X50394Y-38957D01*
X50356Y-38329D02*
X50394Y-38243D01*
X50394Y-38100D01*
X50356Y-38043D01*
X50318Y-38014D01*
X50241Y-37986D01*
X50165Y-37986D01*
X50089Y-38014D01*
X50051Y-38043D01*
X50013Y-38100D01*
X49975Y-38214D01*
X49937Y-38272D01*
X49899Y-38300D01*
X49822Y-38329D01*
X49746Y-38329D01*
X49670Y-38300D01*
X49632Y-38272D01*
X49594Y-38214D01*
X49594Y-38072D01*
X49632Y-37986D01*
X50394Y-37729D02*
X49594Y-37729D01*
X50394Y-37472D02*
X49975Y-37472D01*
X49899Y-37501D01*
X49860Y-37558D01*
X49860Y-37643D01*
X49899Y-37701D01*
X49937Y-37729D01*
X50356Y-36958D02*
X50394Y-37015D01*
X50394Y-37129D01*
X50356Y-37186D01*
X50280Y-37215D01*
X49975Y-37215D01*
X49899Y-37186D01*
X49860Y-37129D01*
X49860Y-37015D01*
X49899Y-36958D01*
X49975Y-36929D01*
X50051Y-36929D01*
X50127Y-37215D01*
X50394Y-36672D02*
X49860Y-36672D01*
X49594Y-36672D02*
X49632Y-36701D01*
X49670Y-36672D01*
X49632Y-36644D01*
X49594Y-36672D01*
X49670Y-36672D01*
X50394Y-36300D02*
X50356Y-36358D01*
X50280Y-36386D01*
X49594Y-36386D01*
X50394Y-35815D02*
X49594Y-35815D01*
X50356Y-35815D02*
X50394Y-35872D01*
X50394Y-35986D01*
X50356Y-36044D01*
X50318Y-36072D01*
X50241Y-36101D01*
X50013Y-36101D01*
X49937Y-36072D01*
X49899Y-36044D01*
X49860Y-35986D01*
X49860Y-35872D01*
X49899Y-35815D01*
X51634Y-46785D02*
X50834Y-46785D01*
X50834Y-46385D02*
X50834Y-46271D01*
X50872Y-46213D01*
X50948Y-46156D01*
X51100Y-46128D01*
X51367Y-46128D01*
X51520Y-46156D01*
X51596Y-46213D01*
X51634Y-46271D01*
X51634Y-46385D01*
X51596Y-46442D01*
X51520Y-46499D01*
X51367Y-46528D01*
X51100Y-46528D01*
X50948Y-46499D01*
X50872Y-46442D01*
X50834Y-46385D01*
X51634Y-45070D02*
X51253Y-45270D01*
X51634Y-45413D02*
X50834Y-45413D01*
X50834Y-45185D01*
X50872Y-45127D01*
X50910Y-45099D01*
X50986Y-45070D01*
X51100Y-45070D01*
X51177Y-45099D01*
X51215Y-45127D01*
X51253Y-45185D01*
X51253Y-45413D01*
X51634Y-44727D02*
X51596Y-44785D01*
X51558Y-44813D01*
X51481Y-44842D01*
X51253Y-44842D01*
X51177Y-44813D01*
X51139Y-44785D01*
X51100Y-44727D01*
X51100Y-44642D01*
X51139Y-44585D01*
X51177Y-44556D01*
X51253Y-44527D01*
X51481Y-44527D01*
X51558Y-44556D01*
X51596Y-44585D01*
X51634Y-44642D01*
X51634Y-44727D01*
X51634Y-44013D02*
X50834Y-44013D01*
X51596Y-44013D02*
X51634Y-44070D01*
X51634Y-44184D01*
X51596Y-44242D01*
X51558Y-44270D01*
X51481Y-44299D01*
X51253Y-44299D01*
X51177Y-44270D01*
X51139Y-44242D01*
X51100Y-44184D01*
X51100Y-44070D01*
X51139Y-44013D01*
X51596Y-43499D02*
X51634Y-43556D01*
X51634Y-43670D01*
X51596Y-43727D01*
X51520Y-43756D01*
X51215Y-43756D01*
X51139Y-43727D01*
X51100Y-43670D01*
X51100Y-43556D01*
X51139Y-43499D01*
X51215Y-43470D01*
X51291Y-43470D01*
X51367Y-43756D01*
X51634Y-43127D02*
X51596Y-43185D01*
X51558Y-43213D01*
X51481Y-43242D01*
X51253Y-43242D01*
X51177Y-43213D01*
X51139Y-43185D01*
X51100Y-43127D01*
X51100Y-43042D01*
X51139Y-42985D01*
X51177Y-42956D01*
X51253Y-42927D01*
X51481Y-42927D01*
X51558Y-42956D01*
X51596Y-42985D01*
X51634Y-43042D01*
X51634Y-43127D01*
X51634Y-42213D02*
X50834Y-42213D01*
X51100Y-41927D02*
X51634Y-41927D01*
X51177Y-41927D02*
X51139Y-41899D01*
X51100Y-41841D01*
X51100Y-41756D01*
X51139Y-41699D01*
X51215Y-41670D01*
X51634Y-41670D01*
X51596Y-41127D02*
X51634Y-41184D01*
X51634Y-41298D01*
X51596Y-41356D01*
X51558Y-41384D01*
X51481Y-41413D01*
X51253Y-41413D01*
X51177Y-41384D01*
X51139Y-41356D01*
X51100Y-41298D01*
X51100Y-41184D01*
X51139Y-41127D01*
X51558Y-40870D02*
X51596Y-40842D01*
X51634Y-40870D01*
X51596Y-40899D01*
X51558Y-40870D01*
X51634Y-40870D01*
X50834Y-39756D02*
X51634Y-39556D01*
X50834Y-39356D01*
X50834Y-39042D02*
X50834Y-38985D01*
X50872Y-38928D01*
X50910Y-38899D01*
X50986Y-38870D01*
X51139Y-38842D01*
X51329Y-38842D01*
X51481Y-38870D01*
X51558Y-38899D01*
X51596Y-38928D01*
X51634Y-38985D01*
X51634Y-39042D01*
X51596Y-39099D01*
X51558Y-39128D01*
X51481Y-39156D01*
X51329Y-39185D01*
X51139Y-39185D01*
X50986Y-39156D01*
X50910Y-39128D01*
X50872Y-39099D01*
X50834Y-39042D01*
X51558Y-38585D02*
X51596Y-38557D01*
X51634Y-38585D01*
X51596Y-38614D01*
X51558Y-38585D01*
X51634Y-38585D01*
X51634Y-37985D02*
X51634Y-38328D01*
X51634Y-38156D02*
X50834Y-38156D01*
X50948Y-38213D01*
X51024Y-38271D01*
X51062Y-38328D01*
G54D10*
X70298Y-50786D02*
X70298Y-50595D01*
X70412Y-50824D02*
X70012Y-50691D01*
X70412Y-50557D01*
X70412Y-50424D02*
X70012Y-50424D01*
X70012Y-50329D01*
X70031Y-50271D01*
X70069Y-50233D01*
X70107Y-50214D01*
X70183Y-50195D01*
X70240Y-50195D01*
X70317Y-50214D01*
X70355Y-50233D01*
X70393Y-50271D01*
X70412Y-50329D01*
X70412Y-50424D01*
X70012Y-49833D02*
X70012Y-50024D01*
X70202Y-50043D01*
X70183Y-50024D01*
X70164Y-49986D01*
X70164Y-49890D01*
X70183Y-49852D01*
X70202Y-49833D01*
X70240Y-49814D01*
X70336Y-49814D01*
X70374Y-49833D01*
X70393Y-49852D01*
X70412Y-49890D01*
X70412Y-49986D01*
X70393Y-50024D01*
X70374Y-50043D01*
X69298Y-50786D02*
X69298Y-50595D01*
X69412Y-50824D02*
X69012Y-50691D01*
X69412Y-50557D01*
X69412Y-50424D02*
X69012Y-50424D01*
X69012Y-50329D01*
X69031Y-50271D01*
X69069Y-50233D01*
X69107Y-50214D01*
X69183Y-50195D01*
X69240Y-50195D01*
X69317Y-50214D01*
X69355Y-50233D01*
X69393Y-50271D01*
X69412Y-50329D01*
X69412Y-50424D01*
X69145Y-49852D02*
X69412Y-49852D01*
X68993Y-49948D02*
X69279Y-50043D01*
X69279Y-49795D01*
X68248Y-50786D02*
X68248Y-50595D01*
X68362Y-50824D02*
X67962Y-50691D01*
X68362Y-50557D01*
X68362Y-50424D02*
X67962Y-50424D01*
X67962Y-50329D01*
X67981Y-50271D01*
X68019Y-50233D01*
X68057Y-50214D01*
X68133Y-50195D01*
X68190Y-50195D01*
X68267Y-50214D01*
X68305Y-50233D01*
X68343Y-50271D01*
X68362Y-50329D01*
X68362Y-50424D01*
X67962Y-50062D02*
X67962Y-49814D01*
X68114Y-49948D01*
X68114Y-49890D01*
X68133Y-49852D01*
X68152Y-49833D01*
X68190Y-49814D01*
X68286Y-49814D01*
X68324Y-49833D01*
X68343Y-49852D01*
X68362Y-49890D01*
X68362Y-50005D01*
X68343Y-50043D01*
X68324Y-50062D01*
X67298Y-50786D02*
X67298Y-50595D01*
X67412Y-50824D02*
X67012Y-50691D01*
X67412Y-50557D01*
X67412Y-50424D02*
X67012Y-50424D01*
X67012Y-50329D01*
X67031Y-50271D01*
X67069Y-50233D01*
X67107Y-50214D01*
X67183Y-50195D01*
X67240Y-50195D01*
X67317Y-50214D01*
X67355Y-50233D01*
X67393Y-50271D01*
X67412Y-50329D01*
X67412Y-50424D01*
X67050Y-50043D02*
X67031Y-50024D01*
X67012Y-49986D01*
X67012Y-49890D01*
X67031Y-49852D01*
X67050Y-49833D01*
X67088Y-49814D01*
X67126Y-49814D01*
X67183Y-49833D01*
X67412Y-50062D01*
X67412Y-49814D01*
X66248Y-50786D02*
X66248Y-50595D01*
X66362Y-50824D02*
X65962Y-50691D01*
X66362Y-50557D01*
X66362Y-50424D02*
X65962Y-50424D01*
X65962Y-50329D01*
X65981Y-50271D01*
X66019Y-50233D01*
X66057Y-50214D01*
X66133Y-50195D01*
X66190Y-50195D01*
X66267Y-50214D01*
X66305Y-50233D01*
X66343Y-50271D01*
X66362Y-50329D01*
X66362Y-50424D01*
X66362Y-49814D02*
X66362Y-50043D01*
X66362Y-49929D02*
X65962Y-49929D01*
X66019Y-49967D01*
X66057Y-50005D01*
X66076Y-50043D01*
X65248Y-50786D02*
X65248Y-50595D01*
X65362Y-50824D02*
X64962Y-50691D01*
X65362Y-50557D01*
X65362Y-50424D02*
X64962Y-50424D01*
X64962Y-50329D01*
X64981Y-50271D01*
X65019Y-50233D01*
X65057Y-50214D01*
X65133Y-50195D01*
X65190Y-50195D01*
X65267Y-50214D01*
X65305Y-50233D01*
X65343Y-50271D01*
X65362Y-50329D01*
X65362Y-50424D01*
X64962Y-49948D02*
X64962Y-49909D01*
X64981Y-49871D01*
X65000Y-49852D01*
X65038Y-49833D01*
X65114Y-49814D01*
X65210Y-49814D01*
X65286Y-49833D01*
X65324Y-49852D01*
X65343Y-49871D01*
X65362Y-49909D01*
X65362Y-49948D01*
X65343Y-49986D01*
X65324Y-50005D01*
X65286Y-50024D01*
X65210Y-50043D01*
X65114Y-50043D01*
X65038Y-50024D01*
X65000Y-50005D01*
X64981Y-49986D01*
X64962Y-49948D01*
X63012Y-50840D02*
X63412Y-50707D01*
X63012Y-50573D01*
X63450Y-50535D02*
X63450Y-50230D01*
X63412Y-50135D02*
X63012Y-50135D01*
X63412Y-49945D02*
X63012Y-49945D01*
X63412Y-49716D01*
X63012Y-49716D01*
X62081Y-50604D02*
X62062Y-50642D01*
X62062Y-50699D01*
X62081Y-50757D01*
X62119Y-50795D01*
X62157Y-50814D01*
X62233Y-50833D01*
X62290Y-50833D01*
X62367Y-50814D01*
X62405Y-50795D01*
X62443Y-50757D01*
X62462Y-50699D01*
X62462Y-50661D01*
X62443Y-50604D01*
X62424Y-50585D01*
X62290Y-50585D01*
X62290Y-50661D01*
X62462Y-50414D02*
X62062Y-50414D01*
X62462Y-50185D01*
X62062Y-50185D01*
X62462Y-49995D02*
X62062Y-49995D01*
X62062Y-49900D01*
X62081Y-49842D01*
X62119Y-49804D01*
X62157Y-49785D01*
X62233Y-49766D01*
X62290Y-49766D01*
X62367Y-49785D01*
X62405Y-49804D01*
X62443Y-49842D01*
X62462Y-49900D01*
X62462Y-49995D01*
X61081Y-50604D02*
X61062Y-50642D01*
X61062Y-50699D01*
X61081Y-50757D01*
X61119Y-50795D01*
X61157Y-50814D01*
X61233Y-50833D01*
X61290Y-50833D01*
X61367Y-50814D01*
X61405Y-50795D01*
X61443Y-50757D01*
X61462Y-50699D01*
X61462Y-50661D01*
X61443Y-50604D01*
X61424Y-50585D01*
X61290Y-50585D01*
X61290Y-50661D01*
X61462Y-50414D02*
X61062Y-50414D01*
X61462Y-50185D01*
X61062Y-50185D01*
X61462Y-49995D02*
X61062Y-49995D01*
X61062Y-49900D01*
X61081Y-49842D01*
X61119Y-49804D01*
X61157Y-49785D01*
X61233Y-49766D01*
X61290Y-49766D01*
X61367Y-49785D01*
X61405Y-49804D01*
X61443Y-49842D01*
X61462Y-49900D01*
X61462Y-49995D01*
X60012Y-50626D02*
X60012Y-50817D01*
X60202Y-50836D01*
X60183Y-50817D01*
X60164Y-50779D01*
X60164Y-50683D01*
X60183Y-50645D01*
X60202Y-50626D01*
X60240Y-50607D01*
X60336Y-50607D01*
X60374Y-50626D01*
X60393Y-50645D01*
X60412Y-50683D01*
X60412Y-50779D01*
X60393Y-50817D01*
X60374Y-50836D01*
X60012Y-50493D02*
X60412Y-50360D01*
X60012Y-50226D01*
X59012Y-50845D02*
X59012Y-50597D01*
X59164Y-50731D01*
X59164Y-50673D01*
X59183Y-50635D01*
X59202Y-50616D01*
X59240Y-50597D01*
X59336Y-50597D01*
X59374Y-50616D01*
X59393Y-50635D01*
X59412Y-50673D01*
X59412Y-50788D01*
X59393Y-50826D01*
X59374Y-50845D01*
X59012Y-50483D02*
X59412Y-50350D01*
X59012Y-50216D01*
X59012Y-50121D02*
X59012Y-49873D01*
X59164Y-50007D01*
X59164Y-49949D01*
X59183Y-49911D01*
X59202Y-49892D01*
X59240Y-49873D01*
X59336Y-49873D01*
X59374Y-49892D01*
X59393Y-49911D01*
X59412Y-49949D01*
X59412Y-50064D01*
X59393Y-50102D01*
X59374Y-50121D01*
X58412Y-50619D02*
X58221Y-50753D01*
X58412Y-50848D02*
X58012Y-50848D01*
X58012Y-50695D01*
X58031Y-50657D01*
X58050Y-50638D01*
X58088Y-50619D01*
X58145Y-50619D01*
X58183Y-50638D01*
X58202Y-50657D01*
X58221Y-50695D01*
X58221Y-50848D01*
X58393Y-50467D02*
X58412Y-50410D01*
X58412Y-50314D01*
X58393Y-50276D01*
X58374Y-50257D01*
X58336Y-50238D01*
X58298Y-50238D01*
X58260Y-50257D01*
X58240Y-50276D01*
X58221Y-50314D01*
X58202Y-50391D01*
X58183Y-50429D01*
X58164Y-50448D01*
X58126Y-50467D01*
X58088Y-50467D01*
X58050Y-50448D01*
X58031Y-50429D01*
X58012Y-50391D01*
X58012Y-50295D01*
X58031Y-50238D01*
X58012Y-50124D02*
X58012Y-49895D01*
X58412Y-50010D02*
X58012Y-50010D01*
X54718Y-34608D02*
X54718Y-34417D01*
X54832Y-34646D02*
X54432Y-34513D01*
X54832Y-34379D01*
X54832Y-34017D02*
X54641Y-34151D01*
X54832Y-34246D02*
X54432Y-34246D01*
X54432Y-34093D01*
X54451Y-34055D01*
X54470Y-34036D01*
X54508Y-34017D01*
X54565Y-34017D01*
X54603Y-34036D01*
X54622Y-34055D01*
X54641Y-34093D01*
X54641Y-34246D01*
X54622Y-33846D02*
X54622Y-33712D01*
X54832Y-33655D02*
X54832Y-33846D01*
X54432Y-33846D01*
X54432Y-33655D01*
X54622Y-33350D02*
X54622Y-33484D01*
X54832Y-33484D02*
X54432Y-33484D01*
X54432Y-33293D01*
X55461Y-34204D02*
X55442Y-34242D01*
X55442Y-34299D01*
X55461Y-34357D01*
X55499Y-34395D01*
X55537Y-34414D01*
X55613Y-34433D01*
X55670Y-34433D01*
X55747Y-34414D01*
X55785Y-34395D01*
X55823Y-34357D01*
X55842Y-34299D01*
X55842Y-34261D01*
X55823Y-34204D01*
X55804Y-34185D01*
X55670Y-34185D01*
X55670Y-34261D01*
X55842Y-34014D02*
X55442Y-34014D01*
X55842Y-33785D01*
X55442Y-33785D01*
X55842Y-33595D02*
X55442Y-33595D01*
X55442Y-33500D01*
X55461Y-33442D01*
X55499Y-33404D01*
X55537Y-33385D01*
X55613Y-33366D01*
X55670Y-33366D01*
X55747Y-33385D01*
X55785Y-33404D01*
X55823Y-33442D01*
X55842Y-33500D01*
X55842Y-33595D01*
X56793Y-35626D02*
X56812Y-35583D01*
X56812Y-35512D01*
X56793Y-35483D01*
X56774Y-35469D01*
X56736Y-35454D01*
X56698Y-35454D01*
X56660Y-35469D01*
X56640Y-35483D01*
X56621Y-35512D01*
X56602Y-35569D01*
X56583Y-35597D01*
X56564Y-35612D01*
X56526Y-35626D01*
X56488Y-35626D01*
X56450Y-35612D01*
X56431Y-35597D01*
X56412Y-35569D01*
X56412Y-35497D01*
X56431Y-35454D01*
X56774Y-35154D02*
X56793Y-35168D01*
X56812Y-35211D01*
X56812Y-35240D01*
X56793Y-35283D01*
X56755Y-35311D01*
X56717Y-35326D01*
X56640Y-35340D01*
X56583Y-35340D01*
X56507Y-35326D01*
X56469Y-35311D01*
X56431Y-35283D01*
X56412Y-35240D01*
X56412Y-35211D01*
X56431Y-35168D01*
X56450Y-35154D01*
X56812Y-35026D02*
X56412Y-35026D01*
X56812Y-34854D02*
X56583Y-34983D01*
X56412Y-34854D02*
X56640Y-35026D01*
X57792Y-35692D02*
X57392Y-35692D01*
X57678Y-35592D01*
X57392Y-35492D01*
X57792Y-35492D01*
X57792Y-35349D02*
X57392Y-35349D01*
X57773Y-35220D02*
X57792Y-35177D01*
X57792Y-35106D01*
X57773Y-35077D01*
X57754Y-35063D01*
X57716Y-35048D01*
X57678Y-35048D01*
X57640Y-35063D01*
X57620Y-35077D01*
X57601Y-35106D01*
X57582Y-35163D01*
X57563Y-35191D01*
X57544Y-35206D01*
X57506Y-35220D01*
X57468Y-35220D01*
X57430Y-35206D01*
X57411Y-35191D01*
X57392Y-35163D01*
X57392Y-35091D01*
X57411Y-35048D01*
X57392Y-34862D02*
X57392Y-34805D01*
X57411Y-34777D01*
X57449Y-34748D01*
X57525Y-34734D01*
X57659Y-34734D01*
X57735Y-34748D01*
X57773Y-34777D01*
X57792Y-34805D01*
X57792Y-34862D01*
X57773Y-34891D01*
X57735Y-34920D01*
X57659Y-34934D01*
X57525Y-34934D01*
X57449Y-34920D01*
X57411Y-34891D01*
X57392Y-34862D01*
X58852Y-35722D02*
X58452Y-35722D01*
X58738Y-35622D01*
X58452Y-35522D01*
X58852Y-35522D01*
X58452Y-35321D02*
X58452Y-35264D01*
X58471Y-35236D01*
X58509Y-35207D01*
X58585Y-35193D01*
X58719Y-35193D01*
X58795Y-35207D01*
X58833Y-35236D01*
X58852Y-35264D01*
X58852Y-35321D01*
X58833Y-35350D01*
X58795Y-35379D01*
X58719Y-35393D01*
X58585Y-35393D01*
X58509Y-35379D01*
X58471Y-35350D01*
X58452Y-35321D01*
X58833Y-35079D02*
X58852Y-35036D01*
X58852Y-34965D01*
X58833Y-34936D01*
X58814Y-34922D01*
X58776Y-34907D01*
X58738Y-34907D01*
X58700Y-34922D01*
X58680Y-34936D01*
X58661Y-34965D01*
X58642Y-35022D01*
X58623Y-35050D01*
X58604Y-35065D01*
X58566Y-35079D01*
X58528Y-35079D01*
X58490Y-35065D01*
X58471Y-35050D01*
X58452Y-35022D01*
X58452Y-34950D01*
X58471Y-34907D01*
X58852Y-34779D02*
X58452Y-34779D01*
X59784Y-35373D02*
X59803Y-35387D01*
X59822Y-35430D01*
X59822Y-35459D01*
X59803Y-35502D01*
X59765Y-35530D01*
X59727Y-35545D01*
X59650Y-35559D01*
X59593Y-35559D01*
X59517Y-35545D01*
X59479Y-35530D01*
X59441Y-35502D01*
X59422Y-35459D01*
X59422Y-35430D01*
X59441Y-35387D01*
X59460Y-35373D01*
X59803Y-35259D02*
X59822Y-35216D01*
X59822Y-35145D01*
X59803Y-35116D01*
X59784Y-35102D01*
X59746Y-35087D01*
X59708Y-35087D01*
X59670Y-35102D01*
X59650Y-35116D01*
X59631Y-35145D01*
X59612Y-35202D01*
X59593Y-35230D01*
X59574Y-35245D01*
X59536Y-35259D01*
X59498Y-35259D01*
X59460Y-35245D01*
X59441Y-35230D01*
X59422Y-35202D01*
X59422Y-35130D01*
X59441Y-35087D01*
X59422Y-34901D02*
X59422Y-34873D01*
X59441Y-34844D01*
X59460Y-34830D01*
X59498Y-34816D01*
X59574Y-34801D01*
X59670Y-34801D01*
X59746Y-34816D01*
X59784Y-34830D01*
X59803Y-34844D01*
X59822Y-34873D01*
X59822Y-34901D01*
X59803Y-34930D01*
X59784Y-34944D01*
X59746Y-34959D01*
X59670Y-34973D01*
X59574Y-34973D01*
X59498Y-34959D01*
X59460Y-34944D01*
X59441Y-34930D01*
X59422Y-34901D01*
X61883Y-35693D02*
X61902Y-35650D01*
X61902Y-35579D01*
X61883Y-35550D01*
X61864Y-35536D01*
X61826Y-35521D01*
X61788Y-35521D01*
X61750Y-35536D01*
X61730Y-35550D01*
X61711Y-35579D01*
X61692Y-35636D01*
X61673Y-35664D01*
X61654Y-35679D01*
X61616Y-35693D01*
X61578Y-35693D01*
X61540Y-35679D01*
X61521Y-35664D01*
X61502Y-35636D01*
X61502Y-35564D01*
X61521Y-35521D01*
X61883Y-35407D02*
X61902Y-35364D01*
X61902Y-35293D01*
X61883Y-35264D01*
X61864Y-35250D01*
X61826Y-35235D01*
X61788Y-35235D01*
X61750Y-35250D01*
X61730Y-35264D01*
X61711Y-35293D01*
X61692Y-35350D01*
X61673Y-35378D01*
X61654Y-35393D01*
X61616Y-35407D01*
X61578Y-35407D01*
X61540Y-35393D01*
X61521Y-35378D01*
X61502Y-35350D01*
X61502Y-35278D01*
X61521Y-35235D01*
X61502Y-35149D02*
X61502Y-34978D01*
X61902Y-35064D02*
X61502Y-35064D01*
X61902Y-34706D02*
X61711Y-34806D01*
X61902Y-34878D02*
X61502Y-34878D01*
X61502Y-34763D01*
X61521Y-34735D01*
X61540Y-34720D01*
X61578Y-34706D01*
X61635Y-34706D01*
X61673Y-34720D01*
X61692Y-34735D01*
X61711Y-34763D01*
X61711Y-34878D01*
X61692Y-34478D02*
X61711Y-34435D01*
X61730Y-34420D01*
X61769Y-34406D01*
X61826Y-34406D01*
X61864Y-34420D01*
X61883Y-34435D01*
X61902Y-34463D01*
X61902Y-34578D01*
X61502Y-34578D01*
X61502Y-34478D01*
X61521Y-34449D01*
X61540Y-34435D01*
X61578Y-34420D01*
X61616Y-34420D01*
X61654Y-34435D01*
X61673Y-34449D01*
X61692Y-34478D01*
X61692Y-34578D01*
X64402Y-34055D02*
X64002Y-34055D01*
X64002Y-33960D01*
X64021Y-33902D01*
X64059Y-33864D01*
X64097Y-33845D01*
X64173Y-33826D01*
X64230Y-33826D01*
X64307Y-33845D01*
X64345Y-33864D01*
X64383Y-33902D01*
X64402Y-33960D01*
X64402Y-34055D01*
X64002Y-33483D02*
X64002Y-33560D01*
X64021Y-33598D01*
X64040Y-33617D01*
X64097Y-33655D01*
X64173Y-33674D01*
X64326Y-33674D01*
X64364Y-33655D01*
X64383Y-33636D01*
X64402Y-33598D01*
X64402Y-33521D01*
X64383Y-33483D01*
X64364Y-33464D01*
X64326Y-33445D01*
X64230Y-33445D01*
X64192Y-33464D01*
X64173Y-33483D01*
X64154Y-33521D01*
X64154Y-33598D01*
X64173Y-33636D01*
X64192Y-33655D01*
X64230Y-33674D01*
X65412Y-34055D02*
X65012Y-34055D01*
X65012Y-33960D01*
X65031Y-33902D01*
X65069Y-33864D01*
X65107Y-33845D01*
X65183Y-33826D01*
X65240Y-33826D01*
X65317Y-33845D01*
X65355Y-33864D01*
X65393Y-33902D01*
X65412Y-33960D01*
X65412Y-34055D01*
X65012Y-33464D02*
X65012Y-33655D01*
X65202Y-33674D01*
X65183Y-33655D01*
X65164Y-33617D01*
X65164Y-33521D01*
X65183Y-33483D01*
X65202Y-33464D01*
X65240Y-33445D01*
X65336Y-33445D01*
X65374Y-33464D01*
X65393Y-33483D01*
X65412Y-33521D01*
X65412Y-33617D01*
X65393Y-33655D01*
X65374Y-33674D01*
X67452Y-34055D02*
X67052Y-34055D01*
X67052Y-33960D01*
X67071Y-33902D01*
X67109Y-33864D01*
X67147Y-33845D01*
X67223Y-33826D01*
X67280Y-33826D01*
X67357Y-33845D01*
X67395Y-33864D01*
X67433Y-33902D01*
X67452Y-33960D01*
X67452Y-34055D01*
X67052Y-33693D02*
X67052Y-33445D01*
X67204Y-33579D01*
X67204Y-33521D01*
X67223Y-33483D01*
X67242Y-33464D01*
X67280Y-33445D01*
X67376Y-33445D01*
X67414Y-33464D01*
X67433Y-33483D01*
X67452Y-33521D01*
X67452Y-33636D01*
X67433Y-33674D01*
X67414Y-33693D01*
X68422Y-34055D02*
X68022Y-34055D01*
X68022Y-33960D01*
X68041Y-33902D01*
X68079Y-33864D01*
X68117Y-33845D01*
X68193Y-33826D01*
X68250Y-33826D01*
X68327Y-33845D01*
X68365Y-33864D01*
X68403Y-33902D01*
X68422Y-33960D01*
X68422Y-34055D01*
X68060Y-33674D02*
X68041Y-33655D01*
X68022Y-33617D01*
X68022Y-33521D01*
X68041Y-33483D01*
X68060Y-33464D01*
X68098Y-33445D01*
X68136Y-33445D01*
X68193Y-33464D01*
X68422Y-33693D01*
X68422Y-33445D01*
X72296Y-33681D02*
X72258Y-33662D01*
X72201Y-33662D01*
X72143Y-33681D01*
X72105Y-33719D01*
X72086Y-33757D01*
X72067Y-33833D01*
X72067Y-33890D01*
X72086Y-33967D01*
X72105Y-34005D01*
X72143Y-34043D01*
X72201Y-34062D01*
X72239Y-34062D01*
X72296Y-34043D01*
X72315Y-34024D01*
X72315Y-33890D01*
X72239Y-33890D01*
X72486Y-34062D02*
X72486Y-33662D01*
X72715Y-34062D01*
X72715Y-33662D01*
X72905Y-34062D02*
X72905Y-33662D01*
X73000Y-33662D01*
X73058Y-33681D01*
X73096Y-33719D01*
X73115Y-33757D01*
X73134Y-33833D01*
X73134Y-33890D01*
X73115Y-33967D01*
X73096Y-34005D01*
X73058Y-34043D01*
X73000Y-34062D01*
X72905Y-34062D01*
X72505Y-35362D02*
X72505Y-34962D01*
X72600Y-34962D01*
X72658Y-34981D01*
X72696Y-35019D01*
X72715Y-35057D01*
X72734Y-35133D01*
X72734Y-35190D01*
X72715Y-35267D01*
X72696Y-35305D01*
X72658Y-35343D01*
X72600Y-35362D01*
X72505Y-35362D01*
X73096Y-34962D02*
X72905Y-34962D01*
X72886Y-35152D01*
X72905Y-35133D01*
X72943Y-35114D01*
X73039Y-35114D01*
X73077Y-35133D01*
X73096Y-35152D01*
X73115Y-35190D01*
X73115Y-35286D01*
X73096Y-35324D01*
X73077Y-35343D01*
X73039Y-35362D01*
X72943Y-35362D01*
X72905Y-35343D01*
X72886Y-35324D01*
X72505Y-36812D02*
X72505Y-36412D01*
X72600Y-36412D01*
X72658Y-36431D01*
X72696Y-36469D01*
X72715Y-36507D01*
X72734Y-36583D01*
X72734Y-36640D01*
X72715Y-36717D01*
X72696Y-36755D01*
X72658Y-36793D01*
X72600Y-36812D01*
X72505Y-36812D01*
X73077Y-36412D02*
X73000Y-36412D01*
X72962Y-36431D01*
X72943Y-36450D01*
X72905Y-36507D01*
X72886Y-36583D01*
X72886Y-36736D01*
X72905Y-36774D01*
X72924Y-36793D01*
X72962Y-36812D01*
X73039Y-36812D01*
X73077Y-36793D01*
X73096Y-36774D01*
X73115Y-36736D01*
X73115Y-36640D01*
X73096Y-36602D01*
X73077Y-36583D01*
X73039Y-36564D01*
X72962Y-36564D01*
X72924Y-36583D01*
X72905Y-36602D01*
X72886Y-36640D01*
X72505Y-38212D02*
X72505Y-37812D01*
X72600Y-37812D01*
X72658Y-37831D01*
X72696Y-37869D01*
X72715Y-37907D01*
X72734Y-37983D01*
X72734Y-38040D01*
X72715Y-38117D01*
X72696Y-38155D01*
X72658Y-38193D01*
X72600Y-38212D01*
X72505Y-38212D01*
X72867Y-37812D02*
X73115Y-37812D01*
X72981Y-37964D01*
X73039Y-37964D01*
X73077Y-37983D01*
X73096Y-38002D01*
X73115Y-38040D01*
X73115Y-38136D01*
X73096Y-38174D01*
X73077Y-38193D01*
X73039Y-38212D01*
X72924Y-38212D01*
X72886Y-38193D01*
X72867Y-38174D01*
X72505Y-39562D02*
X72505Y-39162D01*
X72600Y-39162D01*
X72658Y-39181D01*
X72696Y-39219D01*
X72715Y-39257D01*
X72734Y-39333D01*
X72734Y-39390D01*
X72715Y-39467D01*
X72696Y-39505D01*
X72658Y-39543D01*
X72600Y-39562D01*
X72505Y-39562D01*
X72886Y-39200D02*
X72905Y-39181D01*
X72943Y-39162D01*
X73039Y-39162D01*
X73077Y-39181D01*
X73096Y-39200D01*
X73115Y-39238D01*
X73115Y-39276D01*
X73096Y-39333D01*
X72867Y-39562D01*
X73115Y-39562D01*
X72324Y-40924D02*
X72305Y-40943D01*
X72248Y-40962D01*
X72210Y-40962D01*
X72152Y-40943D01*
X72114Y-40905D01*
X72095Y-40867D01*
X72076Y-40790D01*
X72076Y-40733D01*
X72095Y-40657D01*
X72114Y-40619D01*
X72152Y-40581D01*
X72210Y-40562D01*
X72248Y-40562D01*
X72305Y-40581D01*
X72324Y-40600D01*
X72495Y-40962D02*
X72495Y-40562D01*
X72495Y-40752D02*
X72724Y-40752D01*
X72724Y-40962D02*
X72724Y-40562D01*
X72876Y-40562D02*
X73143Y-40562D01*
X72971Y-40962D01*
X72324Y-42274D02*
X72305Y-42293D01*
X72248Y-42312D01*
X72210Y-42312D01*
X72152Y-42293D01*
X72114Y-42255D01*
X72095Y-42217D01*
X72076Y-42140D01*
X72076Y-42083D01*
X72095Y-42007D01*
X72114Y-41969D01*
X72152Y-41931D01*
X72210Y-41912D01*
X72248Y-41912D01*
X72305Y-41931D01*
X72324Y-41950D01*
X72495Y-42312D02*
X72495Y-41912D01*
X72495Y-42102D02*
X72724Y-42102D01*
X72724Y-42312D02*
X72724Y-41912D01*
X73086Y-41912D02*
X73009Y-41912D01*
X72971Y-41931D01*
X72952Y-41950D01*
X72914Y-42007D01*
X72895Y-42083D01*
X72895Y-42236D01*
X72914Y-42274D01*
X72933Y-42293D01*
X72971Y-42312D01*
X73048Y-42312D01*
X73086Y-42293D01*
X73105Y-42274D01*
X73124Y-42236D01*
X73124Y-42140D01*
X73105Y-42102D01*
X73086Y-42083D01*
X73048Y-42064D01*
X72971Y-42064D01*
X72933Y-42083D01*
X72914Y-42102D01*
X72895Y-42140D01*
X72324Y-43724D02*
X72305Y-43743D01*
X72248Y-43762D01*
X72210Y-43762D01*
X72152Y-43743D01*
X72114Y-43705D01*
X72095Y-43667D01*
X72076Y-43590D01*
X72076Y-43533D01*
X72095Y-43457D01*
X72114Y-43419D01*
X72152Y-43381D01*
X72210Y-43362D01*
X72248Y-43362D01*
X72305Y-43381D01*
X72324Y-43400D01*
X72495Y-43762D02*
X72495Y-43362D01*
X72495Y-43552D02*
X72724Y-43552D01*
X72724Y-43762D02*
X72724Y-43362D01*
X73105Y-43362D02*
X72914Y-43362D01*
X72895Y-43552D01*
X72914Y-43533D01*
X72952Y-43514D01*
X73048Y-43514D01*
X73086Y-43533D01*
X73105Y-43552D01*
X73124Y-43590D01*
X73124Y-43686D01*
X73105Y-43724D01*
X73086Y-43743D01*
X73048Y-43762D01*
X72952Y-43762D01*
X72914Y-43743D01*
X72895Y-43724D01*
X72324Y-46474D02*
X72305Y-46493D01*
X72248Y-46512D01*
X72210Y-46512D01*
X72152Y-46493D01*
X72114Y-46455D01*
X72095Y-46417D01*
X72076Y-46340D01*
X72076Y-46283D01*
X72095Y-46207D01*
X72114Y-46169D01*
X72152Y-46131D01*
X72210Y-46112D01*
X72248Y-46112D01*
X72305Y-46131D01*
X72324Y-46150D01*
X72495Y-46512D02*
X72495Y-46112D01*
X72495Y-46302D02*
X72724Y-46302D01*
X72724Y-46512D02*
X72724Y-46112D01*
X72876Y-46112D02*
X73124Y-46112D01*
X72990Y-46264D01*
X73048Y-46264D01*
X73086Y-46283D01*
X73105Y-46302D01*
X73124Y-46340D01*
X73124Y-46436D01*
X73105Y-46474D01*
X73086Y-46493D01*
X73048Y-46512D01*
X72933Y-46512D01*
X72895Y-46493D01*
X72876Y-46474D01*
X72324Y-45074D02*
X72305Y-45093D01*
X72248Y-45112D01*
X72210Y-45112D01*
X72152Y-45093D01*
X72114Y-45055D01*
X72095Y-45017D01*
X72076Y-44940D01*
X72076Y-44883D01*
X72095Y-44807D01*
X72114Y-44769D01*
X72152Y-44731D01*
X72210Y-44712D01*
X72248Y-44712D01*
X72305Y-44731D01*
X72324Y-44750D01*
X72495Y-45112D02*
X72495Y-44712D01*
X72495Y-44902D02*
X72724Y-44902D01*
X72724Y-45112D02*
X72724Y-44712D01*
X73086Y-44845D02*
X73086Y-45112D01*
X72990Y-44693D02*
X72895Y-44979D01*
X73143Y-44979D01*
X72374Y-47824D02*
X72355Y-47843D01*
X72298Y-47862D01*
X72260Y-47862D01*
X72202Y-47843D01*
X72164Y-47805D01*
X72145Y-47767D01*
X72126Y-47690D01*
X72126Y-47633D01*
X72145Y-47557D01*
X72164Y-47519D01*
X72202Y-47481D01*
X72260Y-47462D01*
X72298Y-47462D01*
X72355Y-47481D01*
X72374Y-47500D01*
X72545Y-47862D02*
X72545Y-47462D01*
X72545Y-47652D02*
X72774Y-47652D01*
X72774Y-47862D02*
X72774Y-47462D01*
X72945Y-47500D02*
X72964Y-47481D01*
X73002Y-47462D01*
X73098Y-47462D01*
X73136Y-47481D01*
X73155Y-47500D01*
X73174Y-47538D01*
X73174Y-47576D01*
X73155Y-47633D01*
X72926Y-47862D01*
X73174Y-47862D01*
X72374Y-49174D02*
X72355Y-49193D01*
X72298Y-49212D01*
X72260Y-49212D01*
X72202Y-49193D01*
X72164Y-49155D01*
X72145Y-49117D01*
X72126Y-49040D01*
X72126Y-48983D01*
X72145Y-48907D01*
X72164Y-48869D01*
X72202Y-48831D01*
X72260Y-48812D01*
X72298Y-48812D01*
X72355Y-48831D01*
X72374Y-48850D01*
X72545Y-49212D02*
X72545Y-48812D01*
X72545Y-49002D02*
X72774Y-49002D01*
X72774Y-49212D02*
X72774Y-48812D01*
X73174Y-49212D02*
X72945Y-49212D01*
X73059Y-49212D02*
X73059Y-48812D01*
X73021Y-48869D01*
X72983Y-48907D01*
X72945Y-48926D01*
X72374Y-50574D02*
X72355Y-50593D01*
X72298Y-50612D01*
X72260Y-50612D01*
X72202Y-50593D01*
X72164Y-50555D01*
X72145Y-50517D01*
X72126Y-50440D01*
X72126Y-50383D01*
X72145Y-50307D01*
X72164Y-50269D01*
X72202Y-50231D01*
X72260Y-50212D01*
X72298Y-50212D01*
X72355Y-50231D01*
X72374Y-50250D01*
X72545Y-50612D02*
X72545Y-50212D01*
X72545Y-50402D02*
X72774Y-50402D01*
X72774Y-50612D02*
X72774Y-50212D01*
X73040Y-50212D02*
X73079Y-50212D01*
X73117Y-50231D01*
X73136Y-50250D01*
X73155Y-50288D01*
X73174Y-50364D01*
X73174Y-50460D01*
X73155Y-50536D01*
X73136Y-50574D01*
X73117Y-50593D01*
X73079Y-50612D01*
X73040Y-50612D01*
X73002Y-50593D01*
X72983Y-50574D01*
X72964Y-50536D01*
X72945Y-50460D01*
X72945Y-50364D01*
X72964Y-50288D01*
X72983Y-50250D01*
X73002Y-50231D01*
X73040Y-50212D01*
G54D12*
X68951Y-42675D02*
X68451Y-42675D01*
X68451Y-42675D02*
X68451Y-41675D01*
X68451Y-41675D02*
X68951Y-41675D01*
X68951Y-41675D02*
X68951Y-41675D01*
X68951Y-43175D02*
X55951Y-43175D01*
X55951Y-43175D02*
X55951Y-41175D01*
X55951Y-41175D02*
X68951Y-41175D01*
X68951Y-41175D02*
X68951Y-43175D01*
X73386Y-32986D02*
X73386Y-51333D01*
X76180Y-32987D02*
X76180Y-51333D01*
X73385Y-51334D02*
X76141Y-51334D01*
X73386Y-32985D02*
X76181Y-32985D01*
G54D11*
X67664Y-44880D02*
X67664Y-47680D01*
X67664Y-47680D02*
X66864Y-47680D01*
X66864Y-47680D02*
X66864Y-44880D01*
X66864Y-44880D02*
X67664Y-44880D01*
X67464Y-44880D02*
X67664Y-45080D01*
X67494Y-39215D02*
X67494Y-36415D01*
X67494Y-36415D02*
X68294Y-36415D01*
X68294Y-36415D02*
X68294Y-39215D01*
X68294Y-39215D02*
X67494Y-39215D01*
X67694Y-39215D02*
X67494Y-39015D01*
X65683Y-39176D02*
X65683Y-36376D01*
X65683Y-36376D02*
X66483Y-36376D01*
X66483Y-36376D02*
X66483Y-39176D01*
X66483Y-39176D02*
X65683Y-39176D01*
X65883Y-39176D02*
X65683Y-38976D01*
X65185Y-44945D02*
X65185Y-46925D01*
X65185Y-46925D02*
X64185Y-46925D01*
X64185Y-46925D02*
X64185Y-44925D01*
X64185Y-44925D02*
X65185Y-44925D01*
X64935Y-44925D02*
X65185Y-45175D01*
G54D13*
X54854Y-41807D02*
X54854Y-42374D01*
X54876Y-42441D01*
X54897Y-42474D01*
X54940Y-42507D01*
X55026Y-42507D01*
X55068Y-42474D01*
X55090Y-42441D01*
X55111Y-42374D01*
X55111Y-41807D01*
X55389Y-42107D02*
X55347Y-42074D01*
X55325Y-42041D01*
X55304Y-41974D01*
X55304Y-41941D01*
X55325Y-41874D01*
X55347Y-41841D01*
X55389Y-41807D01*
X55475Y-41807D01*
X55518Y-41841D01*
X55539Y-41874D01*
X55561Y-41941D01*
X55561Y-41974D01*
X55539Y-42041D01*
X55518Y-42074D01*
X55475Y-42107D01*
X55389Y-42107D01*
X55347Y-42141D01*
X55325Y-42174D01*
X55304Y-42241D01*
X55304Y-42374D01*
X55325Y-42441D01*
X55347Y-42474D01*
X55389Y-42507D01*
X55475Y-42507D01*
X55518Y-42474D01*
X55539Y-42441D01*
X55561Y-42374D01*
X55561Y-42241D01*
X55539Y-42174D01*
X55518Y-42141D01*
X55475Y-42107D01*
X59886Y-42488D02*
X59886Y-41788D01*
X60036Y-42288D01*
X60186Y-41788D01*
X60186Y-42488D01*
X60379Y-42288D02*
X60593Y-42288D01*
X60336Y-42488D02*
X60486Y-41788D01*
X60636Y-42488D01*
X60743Y-41788D02*
X61043Y-42488D01*
X61043Y-41788D02*
X60743Y-42488D01*
X61451Y-42488D02*
X61194Y-42488D01*
X61322Y-42488D02*
X61322Y-41788D01*
X61279Y-41888D01*
X61237Y-41955D01*
X61194Y-41988D01*
X61623Y-41855D02*
X61644Y-41822D01*
X61687Y-41788D01*
X61794Y-41788D01*
X61837Y-41822D01*
X61858Y-41855D01*
X61880Y-41922D01*
X61880Y-41988D01*
X61858Y-42088D01*
X61601Y-42488D01*
X61880Y-42488D01*
X62030Y-41788D02*
X62330Y-41788D01*
X62137Y-42488D01*
X62588Y-41788D02*
X62631Y-41788D01*
X62674Y-41822D01*
X62695Y-41855D01*
X62716Y-41922D01*
X62738Y-42055D01*
X62738Y-42222D01*
X62716Y-42355D01*
X62695Y-42422D01*
X62674Y-42455D01*
X62631Y-42488D01*
X62588Y-42488D01*
X62545Y-42455D01*
X62524Y-42422D01*
X62502Y-42355D01*
X62481Y-42222D01*
X62481Y-42055D01*
X62502Y-41922D01*
X62524Y-41855D01*
X62545Y-41822D01*
X62588Y-41788D01*
X62931Y-42222D02*
X63274Y-42222D01*
X63488Y-42488D02*
X63488Y-41788D01*
X63660Y-41788D01*
X63702Y-41822D01*
X63724Y-41855D01*
X63745Y-41922D01*
X63745Y-42022D01*
X63724Y-42088D01*
X63702Y-42122D01*
X63660Y-42155D01*
X63488Y-42155D01*
X63938Y-42488D02*
X63938Y-41788D01*
X64045Y-41788D01*
X64110Y-41822D01*
X64152Y-41888D01*
X64174Y-41955D01*
X64195Y-42088D01*
X64195Y-42188D01*
X64174Y-42322D01*
X64152Y-42388D01*
X64110Y-42455D01*
X64045Y-42488D01*
X63938Y-42488D01*
X64388Y-42488D02*
X64388Y-41788D01*
X64602Y-42488D02*
X64602Y-41788D01*
X64774Y-41788D01*
X64816Y-41822D01*
X64838Y-41855D01*
X64859Y-41922D01*
X64859Y-42022D01*
X64838Y-42088D01*
X64816Y-42122D01*
X64774Y-42155D01*
X64602Y-42155D01*
G54D11*
X74298Y-52193D02*
X74298Y-51593D01*
X74526Y-51593D01*
X74584Y-51621D01*
X74612Y-51650D01*
X74641Y-51707D01*
X74641Y-51793D01*
X74612Y-51850D01*
X74584Y-51879D01*
X74526Y-51907D01*
X74298Y-51907D01*
X75212Y-52193D02*
X74869Y-52193D01*
X75041Y-52193D02*
X75041Y-51593D01*
X74984Y-51679D01*
X74926Y-51736D01*
X74869Y-51764D01*
G54D14*
X67427Y-48603D02*
X67446Y-48622D01*
X67465Y-48679D01*
X67465Y-48717D01*
X67446Y-48775D01*
X67408Y-48813D01*
X67370Y-48832D01*
X67293Y-48851D01*
X67236Y-48851D01*
X67160Y-48832D01*
X67122Y-48813D01*
X67084Y-48775D01*
X67065Y-48717D01*
X67065Y-48679D01*
X67084Y-48622D01*
X67103Y-48603D01*
X67465Y-48222D02*
X67465Y-48451D01*
X67465Y-48337D02*
X67065Y-48337D01*
X67122Y-48375D01*
X67160Y-48413D01*
X67179Y-48451D01*
X67465Y-47841D02*
X67465Y-48070D01*
X67465Y-47956D02*
X67065Y-47956D01*
X67122Y-47994D01*
X67160Y-48032D01*
X67179Y-48070D01*
X66411Y-46585D02*
X66678Y-46585D01*
X66259Y-46681D02*
X66545Y-46776D01*
X66545Y-46528D01*
X66640Y-46376D02*
X66659Y-46357D01*
X66678Y-46376D01*
X66659Y-46395D01*
X66640Y-46376D01*
X66678Y-46376D01*
X66278Y-46224D02*
X66278Y-45957D01*
X66678Y-46129D01*
X66411Y-45633D02*
X66678Y-45633D01*
X66411Y-45805D02*
X66621Y-45805D01*
X66659Y-45786D01*
X66678Y-45748D01*
X66678Y-45690D01*
X66659Y-45652D01*
X66640Y-45633D01*
X66468Y-45309D02*
X66468Y-45443D01*
X66678Y-45443D02*
X66278Y-45443D01*
X66278Y-45252D01*
X68077Y-35946D02*
X68096Y-35965D01*
X68115Y-36022D01*
X68115Y-36060D01*
X68096Y-36118D01*
X68058Y-36156D01*
X68020Y-36175D01*
X67943Y-36194D01*
X67886Y-36194D01*
X67810Y-36175D01*
X67772Y-36156D01*
X67734Y-36118D01*
X67715Y-36060D01*
X67715Y-36022D01*
X67734Y-35965D01*
X67753Y-35946D01*
X68115Y-35565D02*
X68115Y-35794D01*
X68115Y-35680D02*
X67715Y-35680D01*
X67772Y-35718D01*
X67810Y-35756D01*
X67829Y-35794D01*
X67753Y-35413D02*
X67734Y-35394D01*
X67715Y-35356D01*
X67715Y-35260D01*
X67734Y-35222D01*
X67753Y-35203D01*
X67791Y-35184D01*
X67829Y-35184D01*
X67886Y-35203D01*
X68115Y-35432D01*
X68115Y-35184D01*
X66947Y-38255D02*
X66947Y-38216D01*
X66966Y-38178D01*
X66985Y-38159D01*
X67023Y-38140D01*
X67099Y-38121D01*
X67195Y-38121D01*
X67271Y-38140D01*
X67309Y-38159D01*
X67328Y-38178D01*
X67347Y-38216D01*
X67347Y-38255D01*
X67328Y-38293D01*
X67309Y-38312D01*
X67271Y-38331D01*
X67195Y-38350D01*
X67099Y-38350D01*
X67023Y-38331D01*
X66985Y-38312D01*
X66966Y-38293D01*
X66947Y-38255D01*
X67309Y-37950D02*
X67328Y-37931D01*
X67347Y-37950D01*
X67328Y-37969D01*
X67309Y-37950D01*
X67347Y-37950D01*
X67347Y-37550D02*
X67347Y-37779D01*
X67347Y-37665D02*
X66947Y-37665D01*
X67004Y-37703D01*
X67042Y-37741D01*
X67061Y-37779D01*
X67080Y-37207D02*
X67347Y-37207D01*
X67080Y-37379D02*
X67290Y-37379D01*
X67328Y-37360D01*
X67347Y-37322D01*
X67347Y-37264D01*
X67328Y-37226D01*
X67309Y-37207D01*
X67137Y-36883D02*
X67137Y-37017D01*
X67347Y-37017D02*
X66947Y-37017D01*
X66947Y-36826D01*
X66207Y-35966D02*
X66226Y-35985D01*
X66245Y-36042D01*
X66245Y-36080D01*
X66226Y-36138D01*
X66188Y-36176D01*
X66150Y-36195D01*
X66073Y-36214D01*
X66016Y-36214D01*
X65940Y-36195D01*
X65902Y-36176D01*
X65864Y-36138D01*
X65845Y-36080D01*
X65845Y-36042D01*
X65864Y-35985D01*
X65883Y-35966D01*
X66245Y-35585D02*
X66245Y-35814D01*
X66245Y-35700D02*
X65845Y-35700D01*
X65902Y-35738D01*
X65940Y-35776D01*
X65959Y-35814D01*
X65978Y-35242D02*
X66245Y-35242D01*
X65826Y-35338D02*
X66112Y-35433D01*
X66112Y-35185D01*
X65210Y-38258D02*
X65477Y-38258D01*
X65058Y-38354D02*
X65344Y-38449D01*
X65344Y-38201D01*
X65439Y-38049D02*
X65458Y-38030D01*
X65477Y-38049D01*
X65458Y-38068D01*
X65439Y-38049D01*
X65477Y-38049D01*
X65077Y-37897D02*
X65077Y-37630D01*
X65477Y-37802D01*
X65210Y-37306D02*
X65477Y-37306D01*
X65210Y-37478D02*
X65420Y-37478D01*
X65458Y-37459D01*
X65477Y-37421D01*
X65477Y-37363D01*
X65458Y-37325D01*
X65439Y-37306D01*
X65267Y-36982D02*
X65267Y-37116D01*
X65477Y-37116D02*
X65077Y-37116D01*
X65077Y-36925D01*
X64825Y-47877D02*
X64844Y-47896D01*
X64863Y-47953D01*
X64863Y-47991D01*
X64844Y-48049D01*
X64806Y-48087D01*
X64768Y-48106D01*
X64691Y-48125D01*
X64634Y-48125D01*
X64558Y-48106D01*
X64520Y-48087D01*
X64482Y-48049D01*
X64463Y-47991D01*
X64463Y-47953D01*
X64482Y-47896D01*
X64501Y-47877D01*
X64863Y-47496D02*
X64863Y-47725D01*
X64863Y-47611D02*
X64463Y-47611D01*
X64520Y-47649D01*
X64558Y-47687D01*
X64577Y-47725D01*
X64463Y-47363D02*
X64463Y-47115D01*
X64615Y-47249D01*
X64615Y-47191D01*
X64634Y-47153D01*
X64653Y-47134D01*
X64691Y-47115D01*
X64787Y-47115D01*
X64825Y-47134D01*
X64844Y-47153D01*
X64863Y-47191D01*
X64863Y-47306D01*
X64844Y-47344D01*
X64825Y-47363D01*
X63482Y-46694D02*
X63482Y-46655D01*
X63501Y-46617D01*
X63520Y-46598D01*
X63558Y-46579D01*
X63634Y-46560D01*
X63730Y-46560D01*
X63806Y-46579D01*
X63844Y-46598D01*
X63863Y-46617D01*
X63882Y-46655D01*
X63882Y-46694D01*
X63863Y-46732D01*
X63844Y-46751D01*
X63806Y-46770D01*
X63730Y-46789D01*
X63634Y-46789D01*
X63558Y-46770D01*
X63520Y-46751D01*
X63501Y-46732D01*
X63482Y-46694D01*
X63844Y-46389D02*
X63863Y-46370D01*
X63882Y-46389D01*
X63863Y-46408D01*
X63844Y-46389D01*
X63882Y-46389D01*
X63482Y-46123D02*
X63482Y-46084D01*
X63501Y-46046D01*
X63520Y-46027D01*
X63558Y-46008D01*
X63634Y-45989D01*
X63730Y-45989D01*
X63806Y-46008D01*
X63844Y-46027D01*
X63863Y-46046D01*
X63882Y-46084D01*
X63882Y-46123D01*
X63863Y-46161D01*
X63844Y-46180D01*
X63806Y-46199D01*
X63730Y-46218D01*
X63634Y-46218D01*
X63558Y-46199D01*
X63520Y-46180D01*
X63501Y-46161D01*
X63482Y-46123D01*
X63882Y-45608D02*
X63882Y-45837D01*
X63882Y-45723D02*
X63482Y-45723D01*
X63539Y-45761D01*
X63577Y-45799D01*
X63596Y-45837D01*
X63615Y-45265D02*
X63882Y-45265D01*
X63615Y-45437D02*
X63825Y-45437D01*
X63863Y-45418D01*
X63882Y-45380D01*
X63882Y-45322D01*
X63863Y-45284D01*
X63844Y-45265D01*
X63672Y-44941D02*
X63672Y-45075D01*
X63882Y-45075D02*
X63482Y-45075D01*
X63482Y-44884D01*
M02*
