G04 (created by PCBNEW (2013-mar-13)-testing) date Sat 24 Aug 2013 02:49:24 PM PDT*
%MOIN*%
G04 Gerber Fmt 3.4, Leading zero omitted, Abs format*
%FSLAX34Y34*%
G01*
G70*
G90*
G04 APERTURE LIST*
%ADD10C,0.005906*%
%ADD11O,0.060000X0.100000*%
%ADD12C,0.155000*%
%ADD13R,0.062000X0.090000*%
%ADD14O,0.062000X0.090000*%
%ADD15O,0.100000X0.065000*%
%ADD16C,0.065000*%
%ADD17C,0.035000*%
%ADD18C,0.020000*%
%ADD19C,0.010000*%
G04 APERTURE END LIST*
G54D10*
G54D11*
X70237Y-51677D03*
X69237Y-51677D03*
X68237Y-51677D03*
X65237Y-51677D03*
X66237Y-51677D03*
X67237Y-51677D03*
X63237Y-51677D03*
X62237Y-51677D03*
X61237Y-51677D03*
X59237Y-51677D03*
X58237Y-51677D03*
X70237Y-32677D03*
X69237Y-32677D03*
X68237Y-32677D03*
X67237Y-32677D03*
X66237Y-32677D03*
X65237Y-32677D03*
X64237Y-32677D03*
X63237Y-32677D03*
X61637Y-32677D03*
X60637Y-32677D03*
X59637Y-32677D03*
X58637Y-32677D03*
X57637Y-32677D03*
X56637Y-32677D03*
X55637Y-32677D03*
X54637Y-32677D03*
X60237Y-51677D03*
G54D12*
X71237Y-49677D03*
X71237Y-38677D03*
X51237Y-32677D03*
X50737Y-51677D03*
G54D13*
X67901Y-40670D03*
G54D14*
X66901Y-40670D03*
X65901Y-40670D03*
X64901Y-40670D03*
X63901Y-40670D03*
X62901Y-40670D03*
X61901Y-40670D03*
X60901Y-40670D03*
X59901Y-40670D03*
X58901Y-40670D03*
X57901Y-40670D03*
X56901Y-40670D03*
X56901Y-43670D03*
X57901Y-43670D03*
X58901Y-43670D03*
X59901Y-43670D03*
X60901Y-43670D03*
X61901Y-43670D03*
X62901Y-43670D03*
X63901Y-43670D03*
X64901Y-43670D03*
X65901Y-43670D03*
X66901Y-43670D03*
X67901Y-43670D03*
G54D15*
X75843Y-50443D03*
X75842Y-49066D03*
X75841Y-47685D03*
X75842Y-46308D03*
X75842Y-44930D03*
X75842Y-43554D03*
X75842Y-42175D03*
X75841Y-40797D03*
X75841Y-39419D03*
X75841Y-38039D03*
X75840Y-35285D03*
X75841Y-36663D03*
X75841Y-33907D03*
G54D16*
X64783Y-46043D03*
X64783Y-47043D03*
X66988Y-45551D03*
X66988Y-47551D03*
X68881Y-38141D03*
X68881Y-36141D03*
X66720Y-38141D03*
X66720Y-36141D03*
G54D17*
X61284Y-36024D03*
G54D18*
X60237Y-51677D02*
X60237Y-50977D01*
X58433Y-41202D02*
X57901Y-40670D01*
X58433Y-41247D02*
X58433Y-41202D01*
X58510Y-41324D02*
X58433Y-41247D01*
X67247Y-41324D02*
X58510Y-41324D01*
X67901Y-40670D02*
X67247Y-41324D01*
X56389Y-47129D02*
X60237Y-50977D01*
X56389Y-43291D02*
X56389Y-47129D01*
X58433Y-41247D02*
X56389Y-43291D01*
X67901Y-40670D02*
X67901Y-40019D01*
X67901Y-38141D02*
X67901Y-40019D01*
X66720Y-38141D02*
X67901Y-38141D01*
X67901Y-38141D02*
X68881Y-38141D01*
X61933Y-48702D02*
X56901Y-43670D01*
X73401Y-48702D02*
X61933Y-48702D01*
X75142Y-50443D02*
X73401Y-48702D01*
X75843Y-50443D02*
X75142Y-50443D01*
X75842Y-49066D02*
X75142Y-49066D01*
X62633Y-48401D02*
X57901Y-43670D01*
X74477Y-48401D02*
X62633Y-48401D01*
X75142Y-49066D02*
X74477Y-48401D01*
X63313Y-48081D02*
X58901Y-43670D01*
X74745Y-48081D02*
X63313Y-48081D01*
X75141Y-47685D02*
X74745Y-48081D01*
X75841Y-47685D02*
X75141Y-47685D01*
X61252Y-45021D02*
X59901Y-43670D01*
X73854Y-45021D02*
X61252Y-45021D01*
X75142Y-46308D02*
X73854Y-45021D01*
X75842Y-46308D02*
X75142Y-46308D01*
X61944Y-44713D02*
X60901Y-43670D01*
X74924Y-44713D02*
X61944Y-44713D01*
X75142Y-44930D02*
X74924Y-44713D01*
X75842Y-44930D02*
X75142Y-44930D01*
X62552Y-44321D02*
X61901Y-43670D01*
X74375Y-44321D02*
X62552Y-44321D01*
X75142Y-43554D02*
X74375Y-44321D01*
X75842Y-43554D02*
X75142Y-43554D01*
X64395Y-42175D02*
X62901Y-43670D01*
X75842Y-42175D02*
X64395Y-42175D01*
X64870Y-42701D02*
X63901Y-43670D01*
X76255Y-42701D02*
X64870Y-42701D01*
X76543Y-42414D02*
X76255Y-42701D01*
X76543Y-40799D02*
X76543Y-42414D01*
X76541Y-40797D02*
X76543Y-40799D01*
X75841Y-40797D02*
X76541Y-40797D01*
X64237Y-34411D02*
X64237Y-32677D01*
X66498Y-36673D02*
X64237Y-34411D01*
X73752Y-36673D02*
X66498Y-36673D01*
X75140Y-35285D02*
X73752Y-36673D01*
X75840Y-35285D02*
X75140Y-35285D01*
X58637Y-32677D02*
X58637Y-33377D01*
X61284Y-36024D02*
X58637Y-33377D01*
X56637Y-33405D02*
X56637Y-32677D01*
X63901Y-40670D02*
X56637Y-33405D01*
X66720Y-36141D02*
X68881Y-36141D01*
X72907Y-36141D02*
X75141Y-33907D01*
X68881Y-36141D02*
X72907Y-36141D01*
X75841Y-33907D02*
X75141Y-33907D01*
X65291Y-47551D02*
X64783Y-47043D01*
X66988Y-47551D02*
X65291Y-47551D01*
G54D10*
G36*
X76995Y-52450D02*
X70687Y-52450D01*
X70687Y-51889D01*
X70687Y-51464D01*
X70652Y-51292D01*
X70555Y-51146D01*
X70409Y-51048D01*
X70237Y-51014D01*
X70064Y-51048D01*
X69918Y-51146D01*
X69821Y-51292D01*
X69787Y-51464D01*
X69787Y-51889D01*
X69821Y-52062D01*
X69918Y-52208D01*
X70064Y-52305D01*
X70237Y-52339D01*
X70409Y-52305D01*
X70555Y-52208D01*
X70652Y-52062D01*
X70687Y-51889D01*
X70687Y-52450D01*
X69687Y-52450D01*
X69687Y-51889D01*
X69687Y-51464D01*
X69652Y-51292D01*
X69555Y-51146D01*
X69409Y-51048D01*
X69237Y-51014D01*
X69064Y-51048D01*
X68918Y-51146D01*
X68821Y-51292D01*
X68787Y-51464D01*
X68787Y-51889D01*
X68821Y-52062D01*
X68918Y-52208D01*
X69064Y-52305D01*
X69237Y-52339D01*
X69409Y-52305D01*
X69555Y-52208D01*
X69652Y-52062D01*
X69687Y-51889D01*
X69687Y-52450D01*
X68687Y-52450D01*
X68687Y-51889D01*
X68687Y-51464D01*
X68652Y-51292D01*
X68555Y-51146D01*
X68409Y-51048D01*
X68237Y-51014D01*
X68064Y-51048D01*
X67918Y-51146D01*
X67821Y-51292D01*
X67787Y-51464D01*
X67787Y-51889D01*
X67821Y-52062D01*
X67918Y-52208D01*
X68064Y-52305D01*
X68237Y-52339D01*
X68409Y-52305D01*
X68555Y-52208D01*
X68652Y-52062D01*
X68687Y-51889D01*
X68687Y-52450D01*
X67687Y-52450D01*
X67687Y-51889D01*
X67687Y-51464D01*
X67652Y-51292D01*
X67555Y-51146D01*
X67409Y-51048D01*
X67237Y-51014D01*
X67064Y-51048D01*
X66918Y-51146D01*
X66821Y-51292D01*
X66787Y-51464D01*
X66787Y-51889D01*
X66821Y-52062D01*
X66918Y-52208D01*
X67064Y-52305D01*
X67237Y-52339D01*
X67409Y-52305D01*
X67555Y-52208D01*
X67652Y-52062D01*
X67687Y-51889D01*
X67687Y-52450D01*
X66687Y-52450D01*
X66687Y-51889D01*
X66687Y-51464D01*
X66652Y-51292D01*
X66555Y-51146D01*
X66409Y-51048D01*
X66237Y-51014D01*
X66064Y-51048D01*
X65918Y-51146D01*
X65821Y-51292D01*
X65787Y-51464D01*
X65787Y-51889D01*
X65821Y-52062D01*
X65918Y-52208D01*
X66064Y-52305D01*
X66237Y-52339D01*
X66409Y-52305D01*
X66555Y-52208D01*
X66652Y-52062D01*
X66687Y-51889D01*
X66687Y-52450D01*
X65687Y-52450D01*
X65687Y-51889D01*
X65687Y-51464D01*
X65652Y-51292D01*
X65555Y-51146D01*
X65409Y-51048D01*
X65237Y-51014D01*
X65064Y-51048D01*
X64918Y-51146D01*
X64821Y-51292D01*
X64787Y-51464D01*
X64787Y-51889D01*
X64821Y-52062D01*
X64918Y-52208D01*
X65064Y-52305D01*
X65237Y-52339D01*
X65409Y-52305D01*
X65555Y-52208D01*
X65652Y-52062D01*
X65687Y-51889D01*
X65687Y-52450D01*
X63687Y-52450D01*
X63687Y-51889D01*
X63687Y-51464D01*
X63652Y-51292D01*
X63555Y-51146D01*
X63409Y-51048D01*
X63237Y-51014D01*
X63064Y-51048D01*
X62918Y-51146D01*
X62821Y-51292D01*
X62787Y-51464D01*
X62787Y-51889D01*
X62821Y-52062D01*
X62918Y-52208D01*
X63064Y-52305D01*
X63237Y-52339D01*
X63409Y-52305D01*
X63555Y-52208D01*
X63652Y-52062D01*
X63687Y-51889D01*
X63687Y-52450D01*
X61709Y-52450D01*
X61749Y-52425D01*
X61912Y-52198D01*
X61918Y-52208D01*
X62064Y-52305D01*
X62237Y-52339D01*
X62409Y-52305D01*
X62555Y-52208D01*
X62652Y-52062D01*
X62687Y-51889D01*
X62687Y-51464D01*
X62652Y-51292D01*
X62555Y-51146D01*
X62409Y-51048D01*
X62237Y-51014D01*
X62064Y-51048D01*
X61918Y-51146D01*
X61912Y-51155D01*
X61749Y-50929D01*
X61500Y-50774D01*
X61378Y-50740D01*
X61262Y-50840D01*
X61262Y-51652D01*
X61269Y-51652D01*
X61269Y-51702D01*
X61262Y-51702D01*
X61262Y-51710D01*
X61212Y-51710D01*
X61212Y-51702D01*
X61204Y-51702D01*
X61204Y-51652D01*
X61212Y-51652D01*
X61212Y-50840D01*
X61095Y-50740D01*
X60973Y-50774D01*
X60724Y-50929D01*
X60561Y-51155D01*
X60555Y-51146D01*
X60487Y-51100D01*
X60487Y-50977D01*
X60467Y-50881D01*
X60413Y-50800D01*
X56639Y-47026D01*
X56639Y-44189D01*
X56725Y-44246D01*
X56901Y-44281D01*
X57077Y-44246D01*
X57105Y-44227D01*
X61756Y-48878D01*
X61837Y-48933D01*
X61837Y-48933D01*
X61933Y-48952D01*
X70654Y-48952D01*
X70453Y-49152D01*
X70312Y-49492D01*
X70311Y-49860D01*
X70452Y-50200D01*
X70712Y-50460D01*
X71052Y-50602D01*
X71420Y-50602D01*
X71760Y-50461D01*
X72020Y-50201D01*
X72161Y-49861D01*
X72162Y-49493D01*
X72021Y-49153D01*
X71820Y-48952D01*
X73297Y-48952D01*
X74966Y-50620D01*
X75047Y-50674D01*
X75142Y-50693D01*
X75262Y-50693D01*
X75319Y-50779D01*
X75473Y-50882D01*
X75655Y-50918D01*
X76030Y-50918D01*
X76212Y-50882D01*
X76366Y-50779D01*
X76469Y-50625D01*
X76505Y-50443D01*
X76469Y-50262D01*
X76366Y-50107D01*
X76212Y-50004D01*
X76030Y-49968D01*
X75655Y-49968D01*
X75473Y-50004D01*
X75319Y-50107D01*
X75262Y-50193D01*
X75246Y-50193D01*
X73704Y-48651D01*
X74373Y-48651D01*
X74965Y-49243D01*
X75046Y-49297D01*
X75142Y-49316D01*
X75261Y-49316D01*
X75318Y-49402D01*
X75472Y-49505D01*
X75654Y-49541D01*
X76029Y-49541D01*
X76211Y-49505D01*
X76365Y-49402D01*
X76468Y-49248D01*
X76504Y-49066D01*
X76468Y-48885D01*
X76365Y-48730D01*
X76211Y-48627D01*
X76029Y-48591D01*
X75654Y-48591D01*
X75472Y-48627D01*
X75318Y-48730D01*
X75261Y-48816D01*
X75245Y-48816D01*
X74757Y-48329D01*
X74840Y-48312D01*
X74921Y-48258D01*
X75244Y-47935D01*
X75260Y-47935D01*
X75317Y-48021D01*
X75471Y-48124D01*
X75653Y-48160D01*
X76028Y-48160D01*
X76210Y-48124D01*
X76364Y-48021D01*
X76467Y-47867D01*
X76503Y-47685D01*
X76467Y-47504D01*
X76364Y-47349D01*
X76210Y-47246D01*
X76028Y-47210D01*
X75653Y-47210D01*
X75471Y-47246D01*
X75317Y-47349D01*
X75260Y-47435D01*
X75141Y-47435D01*
X75045Y-47454D01*
X74964Y-47509D01*
X74641Y-47831D01*
X67711Y-47831D01*
X67761Y-47711D01*
X67764Y-47402D01*
X67648Y-47117D01*
X67641Y-47107D01*
X67484Y-47089D01*
X67449Y-47125D01*
X67449Y-47054D01*
X67432Y-46897D01*
X67148Y-46777D01*
X66839Y-46775D01*
X66554Y-46890D01*
X66544Y-46897D01*
X66526Y-47054D01*
X66988Y-47515D01*
X67449Y-47054D01*
X67449Y-47125D01*
X67023Y-47551D01*
X67029Y-47556D01*
X66993Y-47592D01*
X66988Y-47586D01*
X66982Y-47592D01*
X66947Y-47556D01*
X66952Y-47551D01*
X66491Y-47089D01*
X66334Y-47107D01*
X66214Y-47391D01*
X66212Y-47699D01*
X66265Y-47831D01*
X65559Y-47831D01*
X65559Y-46895D01*
X65443Y-46609D01*
X65437Y-46599D01*
X65280Y-46582D01*
X65258Y-46603D01*
X65258Y-45949D01*
X65186Y-45774D01*
X65052Y-45640D01*
X64878Y-45568D01*
X64689Y-45568D01*
X64514Y-45640D01*
X64381Y-45773D01*
X64308Y-45948D01*
X64308Y-46137D01*
X64380Y-46312D01*
X64422Y-46353D01*
X64349Y-46382D01*
X64339Y-46389D01*
X64322Y-46546D01*
X64783Y-47007D01*
X65244Y-46546D01*
X65227Y-46389D01*
X65144Y-46354D01*
X65185Y-46312D01*
X65258Y-46138D01*
X65258Y-45949D01*
X65258Y-46603D01*
X64818Y-47043D01*
X65280Y-47504D01*
X65437Y-47487D01*
X65557Y-47203D01*
X65559Y-46895D01*
X65559Y-47831D01*
X65244Y-47831D01*
X65244Y-47539D01*
X64783Y-47078D01*
X64748Y-47114D01*
X64748Y-47043D01*
X64286Y-46582D01*
X64129Y-46599D01*
X64009Y-46883D01*
X64007Y-47191D01*
X64123Y-47477D01*
X64129Y-47487D01*
X64286Y-47504D01*
X64748Y-47043D01*
X64748Y-47114D01*
X64322Y-47539D01*
X64339Y-47696D01*
X64623Y-47817D01*
X64931Y-47819D01*
X65217Y-47703D01*
X65227Y-47696D01*
X65244Y-47539D01*
X65244Y-47831D01*
X63416Y-47831D01*
X59858Y-44273D01*
X59901Y-44281D01*
X60077Y-44246D01*
X60105Y-44227D01*
X61075Y-45197D01*
X61156Y-45252D01*
X61252Y-45271D01*
X66596Y-45271D01*
X66585Y-45281D01*
X66513Y-45456D01*
X66513Y-45645D01*
X66585Y-45819D01*
X66718Y-45953D01*
X66893Y-46026D01*
X67082Y-46026D01*
X67256Y-45954D01*
X67390Y-45820D01*
X67463Y-45646D01*
X67463Y-45457D01*
X67391Y-45282D01*
X67379Y-45271D01*
X73750Y-45271D01*
X74965Y-46485D01*
X75046Y-46539D01*
X75046Y-46539D01*
X75142Y-46558D01*
X75261Y-46558D01*
X75318Y-46644D01*
X75472Y-46747D01*
X75654Y-46783D01*
X76029Y-46783D01*
X76211Y-46747D01*
X76365Y-46644D01*
X76468Y-46490D01*
X76504Y-46308D01*
X76468Y-46127D01*
X76365Y-45972D01*
X76211Y-45869D01*
X76029Y-45833D01*
X75654Y-45833D01*
X75472Y-45869D01*
X75318Y-45972D01*
X75261Y-46058D01*
X75245Y-46058D01*
X74149Y-44963D01*
X74820Y-44963D01*
X74965Y-45107D01*
X75046Y-45161D01*
X75142Y-45180D01*
X75261Y-45180D01*
X75318Y-45266D01*
X75472Y-45369D01*
X75654Y-45405D01*
X76029Y-45405D01*
X76211Y-45369D01*
X76365Y-45266D01*
X76468Y-45112D01*
X76504Y-44930D01*
X76468Y-44749D01*
X76365Y-44594D01*
X76211Y-44491D01*
X76029Y-44455D01*
X75654Y-44455D01*
X75472Y-44491D01*
X75318Y-44594D01*
X75261Y-44680D01*
X75245Y-44680D01*
X75101Y-44536D01*
X75020Y-44482D01*
X74924Y-44463D01*
X74587Y-44463D01*
X75245Y-43804D01*
X75261Y-43804D01*
X75318Y-43890D01*
X75472Y-43993D01*
X75654Y-44029D01*
X76029Y-44029D01*
X76211Y-43993D01*
X76365Y-43890D01*
X76468Y-43736D01*
X76504Y-43554D01*
X76468Y-43373D01*
X76365Y-43218D01*
X76211Y-43115D01*
X76029Y-43079D01*
X75654Y-43079D01*
X75472Y-43115D01*
X75318Y-43218D01*
X75261Y-43304D01*
X75142Y-43304D01*
X75046Y-43323D01*
X74965Y-43378D01*
X74272Y-44071D01*
X68277Y-44071D01*
X68326Y-43997D01*
X68361Y-43821D01*
X68361Y-43518D01*
X68326Y-43342D01*
X68226Y-43193D01*
X68077Y-43093D01*
X67901Y-43058D01*
X67725Y-43093D01*
X67576Y-43193D01*
X67476Y-43342D01*
X67441Y-43518D01*
X67441Y-43821D01*
X67476Y-43997D01*
X67525Y-44071D01*
X67277Y-44071D01*
X67326Y-43997D01*
X67361Y-43821D01*
X67361Y-43518D01*
X67326Y-43342D01*
X67226Y-43193D01*
X67077Y-43093D01*
X66901Y-43058D01*
X66725Y-43093D01*
X66576Y-43193D01*
X66476Y-43342D01*
X66441Y-43518D01*
X66441Y-43821D01*
X66476Y-43997D01*
X66525Y-44071D01*
X66277Y-44071D01*
X66326Y-43997D01*
X66361Y-43821D01*
X66361Y-43518D01*
X66326Y-43342D01*
X66226Y-43193D01*
X66077Y-43093D01*
X65901Y-43058D01*
X65725Y-43093D01*
X65576Y-43193D01*
X65476Y-43342D01*
X65441Y-43518D01*
X65441Y-43821D01*
X65476Y-43997D01*
X65525Y-44071D01*
X65277Y-44071D01*
X65326Y-43997D01*
X65361Y-43821D01*
X65361Y-43518D01*
X65326Y-43342D01*
X65226Y-43193D01*
X65077Y-43093D01*
X64901Y-43058D01*
X64858Y-43066D01*
X64973Y-42951D01*
X76255Y-42951D01*
X76351Y-42932D01*
X76432Y-42878D01*
X76719Y-42591D01*
X76774Y-42509D01*
X76774Y-42509D01*
X76793Y-42414D01*
X76793Y-40799D01*
X76777Y-40720D01*
X76777Y-34053D01*
X76777Y-33761D01*
X76741Y-33634D01*
X76581Y-33377D01*
X76335Y-33201D01*
X76041Y-33132D01*
X75866Y-33132D01*
X75866Y-33882D01*
X76678Y-33882D01*
X76777Y-33761D01*
X76777Y-34053D01*
X76678Y-33932D01*
X75866Y-33932D01*
X75866Y-34682D01*
X76041Y-34682D01*
X76335Y-34614D01*
X76581Y-34438D01*
X76741Y-34181D01*
X76777Y-34053D01*
X76777Y-40720D01*
X76774Y-40703D01*
X76719Y-40622D01*
X76718Y-40621D01*
X76636Y-40566D01*
X76541Y-40547D01*
X76503Y-40547D01*
X76503Y-39419D01*
X76503Y-38039D01*
X76503Y-36663D01*
X76502Y-36658D01*
X76502Y-35285D01*
X76466Y-35104D01*
X76363Y-34949D01*
X76209Y-34846D01*
X76027Y-34810D01*
X75816Y-34810D01*
X75816Y-34682D01*
X75816Y-33932D01*
X75816Y-33882D01*
X75816Y-33132D01*
X75641Y-33132D01*
X75346Y-33201D01*
X75100Y-33377D01*
X74940Y-33634D01*
X74904Y-33761D01*
X75004Y-33882D01*
X75816Y-33882D01*
X75816Y-33932D01*
X75004Y-33932D01*
X74904Y-34053D01*
X74940Y-34181D01*
X75100Y-34438D01*
X75346Y-34614D01*
X75641Y-34682D01*
X75816Y-34682D01*
X75816Y-34810D01*
X75652Y-34810D01*
X75470Y-34846D01*
X75316Y-34949D01*
X75259Y-35035D01*
X75140Y-35035D01*
X75044Y-35054D01*
X74963Y-35109D01*
X73649Y-36423D01*
X70687Y-36423D01*
X70687Y-32889D01*
X70687Y-32464D01*
X70652Y-32292D01*
X70555Y-32146D01*
X70409Y-32048D01*
X70237Y-32014D01*
X70064Y-32048D01*
X69918Y-32146D01*
X69821Y-32292D01*
X69787Y-32464D01*
X69787Y-32889D01*
X69821Y-33062D01*
X69918Y-33208D01*
X70064Y-33305D01*
X70237Y-33339D01*
X70409Y-33305D01*
X70555Y-33208D01*
X70652Y-33062D01*
X70687Y-32889D01*
X70687Y-36423D01*
X69687Y-36423D01*
X69687Y-32889D01*
X69687Y-32464D01*
X69652Y-32292D01*
X69555Y-32146D01*
X69409Y-32048D01*
X69237Y-32014D01*
X69064Y-32048D01*
X68918Y-32146D01*
X68821Y-32292D01*
X68787Y-32464D01*
X68787Y-32889D01*
X68821Y-33062D01*
X68918Y-33208D01*
X69064Y-33305D01*
X69237Y-33339D01*
X69409Y-33305D01*
X69555Y-33208D01*
X69652Y-33062D01*
X69687Y-32889D01*
X69687Y-36423D01*
X69604Y-36423D01*
X69655Y-36301D01*
X69658Y-35993D01*
X69542Y-35707D01*
X69535Y-35697D01*
X69378Y-35680D01*
X69343Y-35715D01*
X69343Y-35645D01*
X69325Y-35488D01*
X69041Y-35367D01*
X68733Y-35365D01*
X68687Y-35384D01*
X68687Y-32889D01*
X68687Y-32464D01*
X68652Y-32292D01*
X68555Y-32146D01*
X68409Y-32048D01*
X68237Y-32014D01*
X68064Y-32048D01*
X67918Y-32146D01*
X67821Y-32292D01*
X67787Y-32464D01*
X67787Y-32889D01*
X67821Y-33062D01*
X67918Y-33208D01*
X68064Y-33305D01*
X68237Y-33339D01*
X68409Y-33305D01*
X68555Y-33208D01*
X68652Y-33062D01*
X68687Y-32889D01*
X68687Y-35384D01*
X68447Y-35481D01*
X68437Y-35488D01*
X68420Y-35645D01*
X68881Y-36106D01*
X69343Y-35645D01*
X69343Y-35715D01*
X68917Y-36141D01*
X68922Y-36147D01*
X68887Y-36182D01*
X68881Y-36177D01*
X68876Y-36182D01*
X68840Y-36147D01*
X68846Y-36141D01*
X68385Y-35680D01*
X68228Y-35697D01*
X68108Y-35981D01*
X68105Y-36289D01*
X68159Y-36423D01*
X67687Y-36423D01*
X67687Y-32889D01*
X67687Y-32464D01*
X67652Y-32292D01*
X67555Y-32146D01*
X67409Y-32048D01*
X67237Y-32014D01*
X67064Y-32048D01*
X66918Y-32146D01*
X66821Y-32292D01*
X66787Y-32464D01*
X66787Y-32889D01*
X66821Y-33062D01*
X66918Y-33208D01*
X67064Y-33305D01*
X67237Y-33339D01*
X67409Y-33305D01*
X67555Y-33208D01*
X67652Y-33062D01*
X67687Y-32889D01*
X67687Y-36423D01*
X67442Y-36423D01*
X67494Y-36301D01*
X67496Y-35993D01*
X67380Y-35707D01*
X67374Y-35697D01*
X67217Y-35680D01*
X67181Y-35715D01*
X67181Y-35645D01*
X67164Y-35488D01*
X66880Y-35367D01*
X66687Y-35366D01*
X66687Y-32889D01*
X66687Y-32464D01*
X66652Y-32292D01*
X66555Y-32146D01*
X66409Y-32048D01*
X66237Y-32014D01*
X66064Y-32048D01*
X65918Y-32146D01*
X65821Y-32292D01*
X65787Y-32464D01*
X65787Y-32889D01*
X65821Y-33062D01*
X65918Y-33208D01*
X66064Y-33305D01*
X66237Y-33339D01*
X66409Y-33305D01*
X66555Y-33208D01*
X66652Y-33062D01*
X66687Y-32889D01*
X66687Y-35366D01*
X66572Y-35365D01*
X66286Y-35481D01*
X66276Y-35488D01*
X66259Y-35645D01*
X66720Y-36106D01*
X67181Y-35645D01*
X67181Y-35715D01*
X66755Y-36141D01*
X66761Y-36147D01*
X66726Y-36182D01*
X66720Y-36177D01*
X66538Y-36359D01*
X66502Y-36324D01*
X66685Y-36141D01*
X66223Y-35680D01*
X66066Y-35697D01*
X66010Y-35831D01*
X65687Y-35508D01*
X65687Y-32889D01*
X65687Y-32464D01*
X65652Y-32292D01*
X65555Y-32146D01*
X65409Y-32048D01*
X65237Y-32014D01*
X65064Y-32048D01*
X64918Y-32146D01*
X64821Y-32292D01*
X64787Y-32464D01*
X64787Y-32889D01*
X64821Y-33062D01*
X64918Y-33208D01*
X65064Y-33305D01*
X65237Y-33339D01*
X65409Y-33305D01*
X65555Y-33208D01*
X65652Y-33062D01*
X65687Y-32889D01*
X65687Y-35508D01*
X64487Y-34308D01*
X64487Y-33253D01*
X64555Y-33208D01*
X64652Y-33062D01*
X64687Y-32889D01*
X64687Y-32464D01*
X64652Y-32292D01*
X64555Y-32146D01*
X64409Y-32048D01*
X64237Y-32014D01*
X64064Y-32048D01*
X63918Y-32146D01*
X63821Y-32292D01*
X63787Y-32464D01*
X63787Y-32889D01*
X63821Y-33062D01*
X63918Y-33208D01*
X63987Y-33253D01*
X63987Y-34411D01*
X64006Y-34507D01*
X64060Y-34588D01*
X66321Y-36849D01*
X66402Y-36904D01*
X66402Y-36904D01*
X66498Y-36923D01*
X73752Y-36923D01*
X73848Y-36904D01*
X73929Y-36849D01*
X75243Y-35535D01*
X75259Y-35535D01*
X75316Y-35621D01*
X75470Y-35724D01*
X75652Y-35760D01*
X76027Y-35760D01*
X76209Y-35724D01*
X76363Y-35621D01*
X76466Y-35467D01*
X76502Y-35285D01*
X76502Y-36658D01*
X76467Y-36482D01*
X76364Y-36327D01*
X76210Y-36224D01*
X76028Y-36188D01*
X75653Y-36188D01*
X75471Y-36224D01*
X75317Y-36327D01*
X75214Y-36482D01*
X75178Y-36663D01*
X75214Y-36845D01*
X75317Y-36999D01*
X75471Y-37102D01*
X75653Y-37138D01*
X76028Y-37138D01*
X76210Y-37102D01*
X76364Y-36999D01*
X76467Y-36845D01*
X76503Y-36663D01*
X76503Y-38039D01*
X76467Y-37858D01*
X76364Y-37703D01*
X76210Y-37600D01*
X76028Y-37564D01*
X75653Y-37564D01*
X75471Y-37600D01*
X75317Y-37703D01*
X75214Y-37858D01*
X75178Y-38039D01*
X75214Y-38221D01*
X75317Y-38375D01*
X75471Y-38478D01*
X75653Y-38514D01*
X76028Y-38514D01*
X76210Y-38478D01*
X76364Y-38375D01*
X76467Y-38221D01*
X76503Y-38039D01*
X76503Y-39419D01*
X76467Y-39238D01*
X76364Y-39083D01*
X76210Y-38980D01*
X76028Y-38944D01*
X75653Y-38944D01*
X75471Y-38980D01*
X75317Y-39083D01*
X75214Y-39238D01*
X75178Y-39419D01*
X75214Y-39601D01*
X75317Y-39755D01*
X75471Y-39858D01*
X75653Y-39894D01*
X76028Y-39894D01*
X76210Y-39858D01*
X76364Y-39755D01*
X76467Y-39601D01*
X76503Y-39419D01*
X76503Y-40547D01*
X76422Y-40547D01*
X76364Y-40461D01*
X76210Y-40358D01*
X76028Y-40322D01*
X75653Y-40322D01*
X75471Y-40358D01*
X75317Y-40461D01*
X75214Y-40616D01*
X75178Y-40797D01*
X75214Y-40979D01*
X75317Y-41133D01*
X75471Y-41236D01*
X75653Y-41272D01*
X76028Y-41272D01*
X76210Y-41236D01*
X76293Y-41181D01*
X76293Y-41791D01*
X76211Y-41736D01*
X76029Y-41700D01*
X75654Y-41700D01*
X75472Y-41736D01*
X75318Y-41839D01*
X75261Y-41925D01*
X72162Y-41925D01*
X72162Y-38493D01*
X72021Y-38153D01*
X71761Y-37893D01*
X71421Y-37752D01*
X71053Y-37752D01*
X70713Y-37892D01*
X70453Y-38152D01*
X70312Y-38492D01*
X70311Y-38860D01*
X70452Y-39200D01*
X70712Y-39460D01*
X71052Y-39602D01*
X71420Y-39602D01*
X71760Y-39461D01*
X72020Y-39201D01*
X72161Y-38861D01*
X72162Y-38493D01*
X72162Y-41925D01*
X64395Y-41925D01*
X64395Y-41925D01*
X64300Y-41944D01*
X64219Y-41999D01*
X63105Y-43112D01*
X63077Y-43093D01*
X62901Y-43058D01*
X62725Y-43093D01*
X62576Y-43193D01*
X62476Y-43342D01*
X62441Y-43518D01*
X62441Y-43821D01*
X62450Y-43865D01*
X62361Y-43776D01*
X62361Y-43518D01*
X62326Y-43342D01*
X62226Y-43193D01*
X62077Y-43093D01*
X61901Y-43058D01*
X61725Y-43093D01*
X61576Y-43193D01*
X61476Y-43342D01*
X61441Y-43518D01*
X61441Y-43821D01*
X61450Y-43865D01*
X61361Y-43776D01*
X61361Y-43518D01*
X61326Y-43342D01*
X61226Y-43193D01*
X61077Y-43093D01*
X60901Y-43058D01*
X60725Y-43093D01*
X60576Y-43193D01*
X60476Y-43342D01*
X60441Y-43518D01*
X60441Y-43821D01*
X60450Y-43865D01*
X60361Y-43776D01*
X60361Y-43518D01*
X60326Y-43342D01*
X60226Y-43193D01*
X60077Y-43093D01*
X59901Y-43058D01*
X59725Y-43093D01*
X59576Y-43193D01*
X59476Y-43342D01*
X59441Y-43518D01*
X59441Y-43821D01*
X59450Y-43865D01*
X59361Y-43776D01*
X59361Y-43518D01*
X59326Y-43342D01*
X59226Y-43193D01*
X59077Y-43093D01*
X58901Y-43058D01*
X58725Y-43093D01*
X58576Y-43193D01*
X58476Y-43342D01*
X58441Y-43518D01*
X58441Y-43821D01*
X58450Y-43865D01*
X58361Y-43776D01*
X58361Y-43518D01*
X58326Y-43342D01*
X58226Y-43193D01*
X58077Y-43093D01*
X57901Y-43058D01*
X57725Y-43093D01*
X57576Y-43193D01*
X57476Y-43342D01*
X57441Y-43518D01*
X57441Y-43821D01*
X57450Y-43865D01*
X57361Y-43776D01*
X57361Y-43518D01*
X57326Y-43342D01*
X57226Y-43193D01*
X57077Y-43093D01*
X56963Y-43070D01*
X58468Y-41565D01*
X58510Y-41574D01*
X67247Y-41574D01*
X67342Y-41555D01*
X67424Y-41501D01*
X67655Y-41270D01*
X68241Y-41270D01*
X68296Y-41247D01*
X68338Y-41205D01*
X68361Y-41149D01*
X68361Y-41090D01*
X68361Y-40190D01*
X68338Y-40135D01*
X68296Y-40092D01*
X68241Y-40070D01*
X68181Y-40070D01*
X68151Y-40070D01*
X68151Y-40019D01*
X68151Y-38391D01*
X68471Y-38391D01*
X68478Y-38410D01*
X68612Y-38544D01*
X68786Y-38616D01*
X68975Y-38616D01*
X69150Y-38544D01*
X69284Y-38411D01*
X69356Y-38236D01*
X69356Y-38047D01*
X69284Y-37873D01*
X69151Y-37739D01*
X68976Y-37666D01*
X68787Y-37666D01*
X68613Y-37738D01*
X68479Y-37872D01*
X68471Y-37891D01*
X67901Y-37891D01*
X67131Y-37891D01*
X67123Y-37873D01*
X66989Y-37739D01*
X66815Y-37666D01*
X66626Y-37666D01*
X66451Y-37738D01*
X66318Y-37872D01*
X66245Y-38046D01*
X66245Y-38235D01*
X66317Y-38410D01*
X66451Y-38544D01*
X66625Y-38616D01*
X66814Y-38616D01*
X66989Y-38544D01*
X67122Y-38411D01*
X67130Y-38391D01*
X67651Y-38391D01*
X67651Y-40019D01*
X67651Y-40070D01*
X67561Y-40070D01*
X67506Y-40092D01*
X67506Y-40093D01*
X67421Y-39975D01*
X67169Y-39818D01*
X67045Y-39783D01*
X66926Y-39883D01*
X66926Y-40645D01*
X66934Y-40645D01*
X66934Y-40695D01*
X66926Y-40695D01*
X66926Y-40702D01*
X66876Y-40702D01*
X66876Y-40695D01*
X66868Y-40695D01*
X66868Y-40645D01*
X66876Y-40645D01*
X66876Y-39883D01*
X66758Y-39783D01*
X66633Y-39818D01*
X66381Y-39975D01*
X66225Y-40192D01*
X66077Y-40093D01*
X65901Y-40058D01*
X65725Y-40093D01*
X65577Y-40192D01*
X65421Y-39975D01*
X65169Y-39818D01*
X65045Y-39783D01*
X64926Y-39883D01*
X64926Y-40645D01*
X64934Y-40645D01*
X64934Y-40695D01*
X64926Y-40695D01*
X64926Y-40702D01*
X64876Y-40702D01*
X64876Y-40695D01*
X64868Y-40695D01*
X64868Y-40645D01*
X64876Y-40645D01*
X64876Y-39883D01*
X64758Y-39783D01*
X64633Y-39818D01*
X64381Y-39975D01*
X64225Y-40192D01*
X64077Y-40093D01*
X63901Y-40058D01*
X63725Y-40093D01*
X63697Y-40112D01*
X63687Y-40101D01*
X63687Y-32889D01*
X63687Y-32464D01*
X63652Y-32292D01*
X63555Y-32146D01*
X63409Y-32048D01*
X63237Y-32014D01*
X63064Y-32048D01*
X62918Y-32146D01*
X62821Y-32292D01*
X62787Y-32464D01*
X62787Y-32889D01*
X62821Y-33062D01*
X62918Y-33208D01*
X63064Y-33305D01*
X63237Y-33339D01*
X63409Y-33305D01*
X63555Y-33208D01*
X63652Y-33062D01*
X63687Y-32889D01*
X63687Y-40101D01*
X62087Y-38501D01*
X62087Y-32889D01*
X62087Y-32464D01*
X62052Y-32292D01*
X61955Y-32146D01*
X61809Y-32048D01*
X61637Y-32014D01*
X61464Y-32048D01*
X61318Y-32146D01*
X61221Y-32292D01*
X61187Y-32464D01*
X61187Y-32889D01*
X61221Y-33062D01*
X61318Y-33208D01*
X61464Y-33305D01*
X61637Y-33339D01*
X61809Y-33305D01*
X61955Y-33208D01*
X62052Y-33062D01*
X62087Y-32889D01*
X62087Y-38501D01*
X61609Y-38024D01*
X61609Y-35960D01*
X61560Y-35840D01*
X61468Y-35749D01*
X61349Y-35699D01*
X61313Y-35699D01*
X61087Y-35473D01*
X61087Y-32889D01*
X61087Y-32464D01*
X61052Y-32292D01*
X60955Y-32146D01*
X60809Y-32048D01*
X60637Y-32014D01*
X60464Y-32048D01*
X60318Y-32146D01*
X60221Y-32292D01*
X60187Y-32464D01*
X60187Y-32889D01*
X60221Y-33062D01*
X60318Y-33208D01*
X60464Y-33305D01*
X60637Y-33339D01*
X60809Y-33305D01*
X60955Y-33208D01*
X61052Y-33062D01*
X61087Y-32889D01*
X61087Y-35473D01*
X60087Y-34473D01*
X60087Y-32889D01*
X60087Y-32464D01*
X60052Y-32292D01*
X59955Y-32146D01*
X59809Y-32048D01*
X59637Y-32014D01*
X59464Y-32048D01*
X59318Y-32146D01*
X59221Y-32292D01*
X59187Y-32464D01*
X59187Y-32889D01*
X59221Y-33062D01*
X59318Y-33208D01*
X59464Y-33305D01*
X59637Y-33339D01*
X59809Y-33305D01*
X59955Y-33208D01*
X60052Y-33062D01*
X60087Y-32889D01*
X60087Y-34473D01*
X58887Y-33273D01*
X58887Y-33253D01*
X58955Y-33208D01*
X59052Y-33062D01*
X59087Y-32889D01*
X59087Y-32464D01*
X59052Y-32292D01*
X58955Y-32146D01*
X58809Y-32048D01*
X58637Y-32014D01*
X58464Y-32048D01*
X58318Y-32146D01*
X58221Y-32292D01*
X58187Y-32464D01*
X58187Y-32889D01*
X58221Y-33062D01*
X58318Y-33208D01*
X58387Y-33253D01*
X58387Y-33377D01*
X58406Y-33472D01*
X58460Y-33554D01*
X60959Y-36053D01*
X60959Y-36089D01*
X61008Y-36208D01*
X61100Y-36300D01*
X61219Y-36349D01*
X61348Y-36349D01*
X61468Y-36300D01*
X61559Y-36209D01*
X61609Y-36089D01*
X61609Y-35960D01*
X61609Y-38024D01*
X58087Y-34501D01*
X58087Y-32889D01*
X58087Y-32464D01*
X58052Y-32292D01*
X57955Y-32146D01*
X57809Y-32048D01*
X57637Y-32014D01*
X57464Y-32048D01*
X57318Y-32146D01*
X57221Y-32292D01*
X57187Y-32464D01*
X57187Y-32889D01*
X57221Y-33062D01*
X57318Y-33208D01*
X57464Y-33305D01*
X57637Y-33339D01*
X57809Y-33305D01*
X57955Y-33208D01*
X58052Y-33062D01*
X58087Y-32889D01*
X58087Y-34501D01*
X56887Y-33301D01*
X56887Y-33253D01*
X56955Y-33208D01*
X57052Y-33062D01*
X57087Y-32889D01*
X57087Y-32464D01*
X57052Y-32292D01*
X56955Y-32146D01*
X56809Y-32048D01*
X56637Y-32014D01*
X56464Y-32048D01*
X56318Y-32146D01*
X56221Y-32292D01*
X56187Y-32464D01*
X56187Y-32889D01*
X56221Y-33062D01*
X56318Y-33208D01*
X56387Y-33253D01*
X56387Y-33405D01*
X56406Y-33501D01*
X56460Y-33582D01*
X62944Y-40066D01*
X62901Y-40058D01*
X62725Y-40093D01*
X62576Y-40193D01*
X62476Y-40342D01*
X62441Y-40518D01*
X62441Y-40821D01*
X62476Y-40997D01*
X62527Y-41074D01*
X62275Y-41074D01*
X62326Y-40997D01*
X62361Y-40821D01*
X62361Y-40518D01*
X62326Y-40342D01*
X62226Y-40193D01*
X62077Y-40093D01*
X61901Y-40058D01*
X61725Y-40093D01*
X61576Y-40193D01*
X61476Y-40342D01*
X61441Y-40518D01*
X61441Y-40821D01*
X61476Y-40997D01*
X61527Y-41074D01*
X61275Y-41074D01*
X61326Y-40997D01*
X61361Y-40821D01*
X61361Y-40518D01*
X61326Y-40342D01*
X61226Y-40193D01*
X61077Y-40093D01*
X60901Y-40058D01*
X60725Y-40093D01*
X60576Y-40193D01*
X60476Y-40342D01*
X60441Y-40518D01*
X60441Y-40821D01*
X60476Y-40997D01*
X60527Y-41074D01*
X60275Y-41074D01*
X60326Y-40997D01*
X60361Y-40821D01*
X60361Y-40518D01*
X60326Y-40342D01*
X60226Y-40193D01*
X60077Y-40093D01*
X59901Y-40058D01*
X59725Y-40093D01*
X59576Y-40193D01*
X59476Y-40342D01*
X59441Y-40518D01*
X59441Y-40821D01*
X59476Y-40997D01*
X59527Y-41074D01*
X59275Y-41074D01*
X59326Y-40997D01*
X59361Y-40821D01*
X59361Y-40518D01*
X59326Y-40342D01*
X59226Y-40193D01*
X59077Y-40093D01*
X58901Y-40058D01*
X58725Y-40093D01*
X58576Y-40193D01*
X58476Y-40342D01*
X58441Y-40518D01*
X58441Y-40821D01*
X58450Y-40865D01*
X58361Y-40776D01*
X58361Y-40518D01*
X58326Y-40342D01*
X58226Y-40193D01*
X58077Y-40093D01*
X57901Y-40058D01*
X57725Y-40093D01*
X57577Y-40192D01*
X57421Y-39975D01*
X57169Y-39818D01*
X57045Y-39783D01*
X56926Y-39883D01*
X56926Y-40645D01*
X56934Y-40645D01*
X56934Y-40695D01*
X56926Y-40695D01*
X56926Y-41457D01*
X57045Y-41556D01*
X57169Y-41521D01*
X57421Y-41365D01*
X57577Y-41147D01*
X57725Y-41246D01*
X57901Y-41281D01*
X58077Y-41246D01*
X58086Y-41240D01*
X56876Y-42450D01*
X56876Y-41457D01*
X56876Y-40695D01*
X56876Y-40645D01*
X56876Y-39883D01*
X56758Y-39783D01*
X56633Y-39818D01*
X56381Y-39975D01*
X56208Y-40216D01*
X56141Y-40505D01*
X56141Y-40645D01*
X56876Y-40645D01*
X56876Y-40695D01*
X56141Y-40695D01*
X56141Y-40835D01*
X56208Y-41124D01*
X56381Y-41365D01*
X56633Y-41521D01*
X56758Y-41556D01*
X56876Y-41457D01*
X56876Y-42450D01*
X56213Y-43114D01*
X56158Y-43195D01*
X56139Y-43291D01*
X56139Y-47129D01*
X56158Y-47225D01*
X56213Y-47306D01*
X59987Y-51080D01*
X59987Y-51100D01*
X59918Y-51146D01*
X59821Y-51292D01*
X59787Y-51464D01*
X59787Y-51889D01*
X59821Y-52062D01*
X59918Y-52208D01*
X60064Y-52305D01*
X60237Y-52339D01*
X60409Y-52305D01*
X60555Y-52208D01*
X60561Y-52198D01*
X60724Y-52425D01*
X60764Y-52450D01*
X59687Y-52450D01*
X59687Y-51889D01*
X59687Y-51464D01*
X59652Y-51292D01*
X59555Y-51146D01*
X59409Y-51048D01*
X59237Y-51014D01*
X59064Y-51048D01*
X58918Y-51146D01*
X58821Y-51292D01*
X58787Y-51464D01*
X58787Y-51889D01*
X58821Y-52062D01*
X58918Y-52208D01*
X59064Y-52305D01*
X59237Y-52339D01*
X59409Y-52305D01*
X59555Y-52208D01*
X59652Y-52062D01*
X59687Y-51889D01*
X59687Y-52450D01*
X58687Y-52450D01*
X58687Y-51889D01*
X58687Y-51464D01*
X58652Y-51292D01*
X58555Y-51146D01*
X58409Y-51048D01*
X58237Y-51014D01*
X58064Y-51048D01*
X57918Y-51146D01*
X57821Y-51292D01*
X57787Y-51464D01*
X57787Y-51889D01*
X57821Y-52062D01*
X57918Y-52208D01*
X58064Y-52305D01*
X58237Y-52339D01*
X58409Y-52305D01*
X58555Y-52208D01*
X58652Y-52062D01*
X58687Y-51889D01*
X58687Y-52450D01*
X56087Y-52450D01*
X56087Y-32889D01*
X56087Y-32464D01*
X56052Y-32292D01*
X55955Y-32146D01*
X55809Y-32048D01*
X55637Y-32014D01*
X55464Y-32048D01*
X55318Y-32146D01*
X55221Y-32292D01*
X55187Y-32464D01*
X55187Y-32889D01*
X55221Y-33062D01*
X55318Y-33208D01*
X55464Y-33305D01*
X55637Y-33339D01*
X55809Y-33305D01*
X55955Y-33208D01*
X56052Y-33062D01*
X56087Y-32889D01*
X56087Y-52450D01*
X55087Y-52450D01*
X55087Y-32889D01*
X55087Y-32464D01*
X55052Y-32292D01*
X54955Y-32146D01*
X54809Y-32048D01*
X54637Y-32014D01*
X54464Y-32048D01*
X54318Y-32146D01*
X54221Y-32292D01*
X54187Y-32464D01*
X54187Y-32889D01*
X54221Y-33062D01*
X54318Y-33208D01*
X54464Y-33305D01*
X54637Y-33339D01*
X54809Y-33305D01*
X54955Y-33208D01*
X55052Y-33062D01*
X55087Y-32889D01*
X55087Y-52450D01*
X51272Y-52450D01*
X51520Y-52201D01*
X51661Y-51861D01*
X51662Y-51493D01*
X51521Y-51153D01*
X51261Y-50893D01*
X50921Y-50752D01*
X50553Y-50752D01*
X50213Y-50892D01*
X49953Y-51152D01*
X49812Y-51492D01*
X49811Y-51860D01*
X49952Y-52200D01*
X50201Y-52450D01*
X48950Y-52450D01*
X48950Y-31900D01*
X50706Y-31900D01*
X50453Y-32152D01*
X50312Y-32492D01*
X50311Y-32860D01*
X50452Y-33200D01*
X50712Y-33460D01*
X51052Y-33602D01*
X51420Y-33602D01*
X51760Y-33461D01*
X52020Y-33201D01*
X52161Y-32861D01*
X52162Y-32493D01*
X52021Y-32153D01*
X51768Y-31900D01*
X76995Y-31900D01*
X76995Y-52450D01*
X76995Y-52450D01*
G37*
G54D19*
X76995Y-52450D02*
X70687Y-52450D01*
X70687Y-51889D01*
X70687Y-51464D01*
X70652Y-51292D01*
X70555Y-51146D01*
X70409Y-51048D01*
X70237Y-51014D01*
X70064Y-51048D01*
X69918Y-51146D01*
X69821Y-51292D01*
X69787Y-51464D01*
X69787Y-51889D01*
X69821Y-52062D01*
X69918Y-52208D01*
X70064Y-52305D01*
X70237Y-52339D01*
X70409Y-52305D01*
X70555Y-52208D01*
X70652Y-52062D01*
X70687Y-51889D01*
X70687Y-52450D01*
X69687Y-52450D01*
X69687Y-51889D01*
X69687Y-51464D01*
X69652Y-51292D01*
X69555Y-51146D01*
X69409Y-51048D01*
X69237Y-51014D01*
X69064Y-51048D01*
X68918Y-51146D01*
X68821Y-51292D01*
X68787Y-51464D01*
X68787Y-51889D01*
X68821Y-52062D01*
X68918Y-52208D01*
X69064Y-52305D01*
X69237Y-52339D01*
X69409Y-52305D01*
X69555Y-52208D01*
X69652Y-52062D01*
X69687Y-51889D01*
X69687Y-52450D01*
X68687Y-52450D01*
X68687Y-51889D01*
X68687Y-51464D01*
X68652Y-51292D01*
X68555Y-51146D01*
X68409Y-51048D01*
X68237Y-51014D01*
X68064Y-51048D01*
X67918Y-51146D01*
X67821Y-51292D01*
X67787Y-51464D01*
X67787Y-51889D01*
X67821Y-52062D01*
X67918Y-52208D01*
X68064Y-52305D01*
X68237Y-52339D01*
X68409Y-52305D01*
X68555Y-52208D01*
X68652Y-52062D01*
X68687Y-51889D01*
X68687Y-52450D01*
X67687Y-52450D01*
X67687Y-51889D01*
X67687Y-51464D01*
X67652Y-51292D01*
X67555Y-51146D01*
X67409Y-51048D01*
X67237Y-51014D01*
X67064Y-51048D01*
X66918Y-51146D01*
X66821Y-51292D01*
X66787Y-51464D01*
X66787Y-51889D01*
X66821Y-52062D01*
X66918Y-52208D01*
X67064Y-52305D01*
X67237Y-52339D01*
X67409Y-52305D01*
X67555Y-52208D01*
X67652Y-52062D01*
X67687Y-51889D01*
X67687Y-52450D01*
X66687Y-52450D01*
X66687Y-51889D01*
X66687Y-51464D01*
X66652Y-51292D01*
X66555Y-51146D01*
X66409Y-51048D01*
X66237Y-51014D01*
X66064Y-51048D01*
X65918Y-51146D01*
X65821Y-51292D01*
X65787Y-51464D01*
X65787Y-51889D01*
X65821Y-52062D01*
X65918Y-52208D01*
X66064Y-52305D01*
X66237Y-52339D01*
X66409Y-52305D01*
X66555Y-52208D01*
X66652Y-52062D01*
X66687Y-51889D01*
X66687Y-52450D01*
X65687Y-52450D01*
X65687Y-51889D01*
X65687Y-51464D01*
X65652Y-51292D01*
X65555Y-51146D01*
X65409Y-51048D01*
X65237Y-51014D01*
X65064Y-51048D01*
X64918Y-51146D01*
X64821Y-51292D01*
X64787Y-51464D01*
X64787Y-51889D01*
X64821Y-52062D01*
X64918Y-52208D01*
X65064Y-52305D01*
X65237Y-52339D01*
X65409Y-52305D01*
X65555Y-52208D01*
X65652Y-52062D01*
X65687Y-51889D01*
X65687Y-52450D01*
X63687Y-52450D01*
X63687Y-51889D01*
X63687Y-51464D01*
X63652Y-51292D01*
X63555Y-51146D01*
X63409Y-51048D01*
X63237Y-51014D01*
X63064Y-51048D01*
X62918Y-51146D01*
X62821Y-51292D01*
X62787Y-51464D01*
X62787Y-51889D01*
X62821Y-52062D01*
X62918Y-52208D01*
X63064Y-52305D01*
X63237Y-52339D01*
X63409Y-52305D01*
X63555Y-52208D01*
X63652Y-52062D01*
X63687Y-51889D01*
X63687Y-52450D01*
X61709Y-52450D01*
X61749Y-52425D01*
X61912Y-52198D01*
X61918Y-52208D01*
X62064Y-52305D01*
X62237Y-52339D01*
X62409Y-52305D01*
X62555Y-52208D01*
X62652Y-52062D01*
X62687Y-51889D01*
X62687Y-51464D01*
X62652Y-51292D01*
X62555Y-51146D01*
X62409Y-51048D01*
X62237Y-51014D01*
X62064Y-51048D01*
X61918Y-51146D01*
X61912Y-51155D01*
X61749Y-50929D01*
X61500Y-50774D01*
X61378Y-50740D01*
X61262Y-50840D01*
X61262Y-51652D01*
X61269Y-51652D01*
X61269Y-51702D01*
X61262Y-51702D01*
X61262Y-51710D01*
X61212Y-51710D01*
X61212Y-51702D01*
X61204Y-51702D01*
X61204Y-51652D01*
X61212Y-51652D01*
X61212Y-50840D01*
X61095Y-50740D01*
X60973Y-50774D01*
X60724Y-50929D01*
X60561Y-51155D01*
X60555Y-51146D01*
X60487Y-51100D01*
X60487Y-50977D01*
X60467Y-50881D01*
X60413Y-50800D01*
X56639Y-47026D01*
X56639Y-44189D01*
X56725Y-44246D01*
X56901Y-44281D01*
X57077Y-44246D01*
X57105Y-44227D01*
X61756Y-48878D01*
X61837Y-48933D01*
X61837Y-48933D01*
X61933Y-48952D01*
X70654Y-48952D01*
X70453Y-49152D01*
X70312Y-49492D01*
X70311Y-49860D01*
X70452Y-50200D01*
X70712Y-50460D01*
X71052Y-50602D01*
X71420Y-50602D01*
X71760Y-50461D01*
X72020Y-50201D01*
X72161Y-49861D01*
X72162Y-49493D01*
X72021Y-49153D01*
X71820Y-48952D01*
X73297Y-48952D01*
X74966Y-50620D01*
X75047Y-50674D01*
X75142Y-50693D01*
X75262Y-50693D01*
X75319Y-50779D01*
X75473Y-50882D01*
X75655Y-50918D01*
X76030Y-50918D01*
X76212Y-50882D01*
X76366Y-50779D01*
X76469Y-50625D01*
X76505Y-50443D01*
X76469Y-50262D01*
X76366Y-50107D01*
X76212Y-50004D01*
X76030Y-49968D01*
X75655Y-49968D01*
X75473Y-50004D01*
X75319Y-50107D01*
X75262Y-50193D01*
X75246Y-50193D01*
X73704Y-48651D01*
X74373Y-48651D01*
X74965Y-49243D01*
X75046Y-49297D01*
X75142Y-49316D01*
X75261Y-49316D01*
X75318Y-49402D01*
X75472Y-49505D01*
X75654Y-49541D01*
X76029Y-49541D01*
X76211Y-49505D01*
X76365Y-49402D01*
X76468Y-49248D01*
X76504Y-49066D01*
X76468Y-48885D01*
X76365Y-48730D01*
X76211Y-48627D01*
X76029Y-48591D01*
X75654Y-48591D01*
X75472Y-48627D01*
X75318Y-48730D01*
X75261Y-48816D01*
X75245Y-48816D01*
X74757Y-48329D01*
X74840Y-48312D01*
X74921Y-48258D01*
X75244Y-47935D01*
X75260Y-47935D01*
X75317Y-48021D01*
X75471Y-48124D01*
X75653Y-48160D01*
X76028Y-48160D01*
X76210Y-48124D01*
X76364Y-48021D01*
X76467Y-47867D01*
X76503Y-47685D01*
X76467Y-47504D01*
X76364Y-47349D01*
X76210Y-47246D01*
X76028Y-47210D01*
X75653Y-47210D01*
X75471Y-47246D01*
X75317Y-47349D01*
X75260Y-47435D01*
X75141Y-47435D01*
X75045Y-47454D01*
X74964Y-47509D01*
X74641Y-47831D01*
X67711Y-47831D01*
X67761Y-47711D01*
X67764Y-47402D01*
X67648Y-47117D01*
X67641Y-47107D01*
X67484Y-47089D01*
X67449Y-47125D01*
X67449Y-47054D01*
X67432Y-46897D01*
X67148Y-46777D01*
X66839Y-46775D01*
X66554Y-46890D01*
X66544Y-46897D01*
X66526Y-47054D01*
X66988Y-47515D01*
X67449Y-47054D01*
X67449Y-47125D01*
X67023Y-47551D01*
X67029Y-47556D01*
X66993Y-47592D01*
X66988Y-47586D01*
X66982Y-47592D01*
X66947Y-47556D01*
X66952Y-47551D01*
X66491Y-47089D01*
X66334Y-47107D01*
X66214Y-47391D01*
X66212Y-47699D01*
X66265Y-47831D01*
X65559Y-47831D01*
X65559Y-46895D01*
X65443Y-46609D01*
X65437Y-46599D01*
X65280Y-46582D01*
X65258Y-46603D01*
X65258Y-45949D01*
X65186Y-45774D01*
X65052Y-45640D01*
X64878Y-45568D01*
X64689Y-45568D01*
X64514Y-45640D01*
X64381Y-45773D01*
X64308Y-45948D01*
X64308Y-46137D01*
X64380Y-46312D01*
X64422Y-46353D01*
X64349Y-46382D01*
X64339Y-46389D01*
X64322Y-46546D01*
X64783Y-47007D01*
X65244Y-46546D01*
X65227Y-46389D01*
X65144Y-46354D01*
X65185Y-46312D01*
X65258Y-46138D01*
X65258Y-45949D01*
X65258Y-46603D01*
X64818Y-47043D01*
X65280Y-47504D01*
X65437Y-47487D01*
X65557Y-47203D01*
X65559Y-46895D01*
X65559Y-47831D01*
X65244Y-47831D01*
X65244Y-47539D01*
X64783Y-47078D01*
X64748Y-47114D01*
X64748Y-47043D01*
X64286Y-46582D01*
X64129Y-46599D01*
X64009Y-46883D01*
X64007Y-47191D01*
X64123Y-47477D01*
X64129Y-47487D01*
X64286Y-47504D01*
X64748Y-47043D01*
X64748Y-47114D01*
X64322Y-47539D01*
X64339Y-47696D01*
X64623Y-47817D01*
X64931Y-47819D01*
X65217Y-47703D01*
X65227Y-47696D01*
X65244Y-47539D01*
X65244Y-47831D01*
X63416Y-47831D01*
X59858Y-44273D01*
X59901Y-44281D01*
X60077Y-44246D01*
X60105Y-44227D01*
X61075Y-45197D01*
X61156Y-45252D01*
X61252Y-45271D01*
X66596Y-45271D01*
X66585Y-45281D01*
X66513Y-45456D01*
X66513Y-45645D01*
X66585Y-45819D01*
X66718Y-45953D01*
X66893Y-46026D01*
X67082Y-46026D01*
X67256Y-45954D01*
X67390Y-45820D01*
X67463Y-45646D01*
X67463Y-45457D01*
X67391Y-45282D01*
X67379Y-45271D01*
X73750Y-45271D01*
X74965Y-46485D01*
X75046Y-46539D01*
X75046Y-46539D01*
X75142Y-46558D01*
X75261Y-46558D01*
X75318Y-46644D01*
X75472Y-46747D01*
X75654Y-46783D01*
X76029Y-46783D01*
X76211Y-46747D01*
X76365Y-46644D01*
X76468Y-46490D01*
X76504Y-46308D01*
X76468Y-46127D01*
X76365Y-45972D01*
X76211Y-45869D01*
X76029Y-45833D01*
X75654Y-45833D01*
X75472Y-45869D01*
X75318Y-45972D01*
X75261Y-46058D01*
X75245Y-46058D01*
X74149Y-44963D01*
X74820Y-44963D01*
X74965Y-45107D01*
X75046Y-45161D01*
X75142Y-45180D01*
X75261Y-45180D01*
X75318Y-45266D01*
X75472Y-45369D01*
X75654Y-45405D01*
X76029Y-45405D01*
X76211Y-45369D01*
X76365Y-45266D01*
X76468Y-45112D01*
X76504Y-44930D01*
X76468Y-44749D01*
X76365Y-44594D01*
X76211Y-44491D01*
X76029Y-44455D01*
X75654Y-44455D01*
X75472Y-44491D01*
X75318Y-44594D01*
X75261Y-44680D01*
X75245Y-44680D01*
X75101Y-44536D01*
X75020Y-44482D01*
X74924Y-44463D01*
X74587Y-44463D01*
X75245Y-43804D01*
X75261Y-43804D01*
X75318Y-43890D01*
X75472Y-43993D01*
X75654Y-44029D01*
X76029Y-44029D01*
X76211Y-43993D01*
X76365Y-43890D01*
X76468Y-43736D01*
X76504Y-43554D01*
X76468Y-43373D01*
X76365Y-43218D01*
X76211Y-43115D01*
X76029Y-43079D01*
X75654Y-43079D01*
X75472Y-43115D01*
X75318Y-43218D01*
X75261Y-43304D01*
X75142Y-43304D01*
X75046Y-43323D01*
X74965Y-43378D01*
X74272Y-44071D01*
X68277Y-44071D01*
X68326Y-43997D01*
X68361Y-43821D01*
X68361Y-43518D01*
X68326Y-43342D01*
X68226Y-43193D01*
X68077Y-43093D01*
X67901Y-43058D01*
X67725Y-43093D01*
X67576Y-43193D01*
X67476Y-43342D01*
X67441Y-43518D01*
X67441Y-43821D01*
X67476Y-43997D01*
X67525Y-44071D01*
X67277Y-44071D01*
X67326Y-43997D01*
X67361Y-43821D01*
X67361Y-43518D01*
X67326Y-43342D01*
X67226Y-43193D01*
X67077Y-43093D01*
X66901Y-43058D01*
X66725Y-43093D01*
X66576Y-43193D01*
X66476Y-43342D01*
X66441Y-43518D01*
X66441Y-43821D01*
X66476Y-43997D01*
X66525Y-44071D01*
X66277Y-44071D01*
X66326Y-43997D01*
X66361Y-43821D01*
X66361Y-43518D01*
X66326Y-43342D01*
X66226Y-43193D01*
X66077Y-43093D01*
X65901Y-43058D01*
X65725Y-43093D01*
X65576Y-43193D01*
X65476Y-43342D01*
X65441Y-43518D01*
X65441Y-43821D01*
X65476Y-43997D01*
X65525Y-44071D01*
X65277Y-44071D01*
X65326Y-43997D01*
X65361Y-43821D01*
X65361Y-43518D01*
X65326Y-43342D01*
X65226Y-43193D01*
X65077Y-43093D01*
X64901Y-43058D01*
X64858Y-43066D01*
X64973Y-42951D01*
X76255Y-42951D01*
X76351Y-42932D01*
X76432Y-42878D01*
X76719Y-42591D01*
X76774Y-42509D01*
X76774Y-42509D01*
X76793Y-42414D01*
X76793Y-40799D01*
X76777Y-40720D01*
X76777Y-34053D01*
X76777Y-33761D01*
X76741Y-33634D01*
X76581Y-33377D01*
X76335Y-33201D01*
X76041Y-33132D01*
X75866Y-33132D01*
X75866Y-33882D01*
X76678Y-33882D01*
X76777Y-33761D01*
X76777Y-34053D01*
X76678Y-33932D01*
X75866Y-33932D01*
X75866Y-34682D01*
X76041Y-34682D01*
X76335Y-34614D01*
X76581Y-34438D01*
X76741Y-34181D01*
X76777Y-34053D01*
X76777Y-40720D01*
X76774Y-40703D01*
X76719Y-40622D01*
X76718Y-40621D01*
X76636Y-40566D01*
X76541Y-40547D01*
X76503Y-40547D01*
X76503Y-39419D01*
X76503Y-38039D01*
X76503Y-36663D01*
X76502Y-36658D01*
X76502Y-35285D01*
X76466Y-35104D01*
X76363Y-34949D01*
X76209Y-34846D01*
X76027Y-34810D01*
X75816Y-34810D01*
X75816Y-34682D01*
X75816Y-33932D01*
X75816Y-33882D01*
X75816Y-33132D01*
X75641Y-33132D01*
X75346Y-33201D01*
X75100Y-33377D01*
X74940Y-33634D01*
X74904Y-33761D01*
X75004Y-33882D01*
X75816Y-33882D01*
X75816Y-33932D01*
X75004Y-33932D01*
X74904Y-34053D01*
X74940Y-34181D01*
X75100Y-34438D01*
X75346Y-34614D01*
X75641Y-34682D01*
X75816Y-34682D01*
X75816Y-34810D01*
X75652Y-34810D01*
X75470Y-34846D01*
X75316Y-34949D01*
X75259Y-35035D01*
X75140Y-35035D01*
X75044Y-35054D01*
X74963Y-35109D01*
X73649Y-36423D01*
X70687Y-36423D01*
X70687Y-32889D01*
X70687Y-32464D01*
X70652Y-32292D01*
X70555Y-32146D01*
X70409Y-32048D01*
X70237Y-32014D01*
X70064Y-32048D01*
X69918Y-32146D01*
X69821Y-32292D01*
X69787Y-32464D01*
X69787Y-32889D01*
X69821Y-33062D01*
X69918Y-33208D01*
X70064Y-33305D01*
X70237Y-33339D01*
X70409Y-33305D01*
X70555Y-33208D01*
X70652Y-33062D01*
X70687Y-32889D01*
X70687Y-36423D01*
X69687Y-36423D01*
X69687Y-32889D01*
X69687Y-32464D01*
X69652Y-32292D01*
X69555Y-32146D01*
X69409Y-32048D01*
X69237Y-32014D01*
X69064Y-32048D01*
X68918Y-32146D01*
X68821Y-32292D01*
X68787Y-32464D01*
X68787Y-32889D01*
X68821Y-33062D01*
X68918Y-33208D01*
X69064Y-33305D01*
X69237Y-33339D01*
X69409Y-33305D01*
X69555Y-33208D01*
X69652Y-33062D01*
X69687Y-32889D01*
X69687Y-36423D01*
X69604Y-36423D01*
X69655Y-36301D01*
X69658Y-35993D01*
X69542Y-35707D01*
X69535Y-35697D01*
X69378Y-35680D01*
X69343Y-35715D01*
X69343Y-35645D01*
X69325Y-35488D01*
X69041Y-35367D01*
X68733Y-35365D01*
X68687Y-35384D01*
X68687Y-32889D01*
X68687Y-32464D01*
X68652Y-32292D01*
X68555Y-32146D01*
X68409Y-32048D01*
X68237Y-32014D01*
X68064Y-32048D01*
X67918Y-32146D01*
X67821Y-32292D01*
X67787Y-32464D01*
X67787Y-32889D01*
X67821Y-33062D01*
X67918Y-33208D01*
X68064Y-33305D01*
X68237Y-33339D01*
X68409Y-33305D01*
X68555Y-33208D01*
X68652Y-33062D01*
X68687Y-32889D01*
X68687Y-35384D01*
X68447Y-35481D01*
X68437Y-35488D01*
X68420Y-35645D01*
X68881Y-36106D01*
X69343Y-35645D01*
X69343Y-35715D01*
X68917Y-36141D01*
X68922Y-36147D01*
X68887Y-36182D01*
X68881Y-36177D01*
X68876Y-36182D01*
X68840Y-36147D01*
X68846Y-36141D01*
X68385Y-35680D01*
X68228Y-35697D01*
X68108Y-35981D01*
X68105Y-36289D01*
X68159Y-36423D01*
X67687Y-36423D01*
X67687Y-32889D01*
X67687Y-32464D01*
X67652Y-32292D01*
X67555Y-32146D01*
X67409Y-32048D01*
X67237Y-32014D01*
X67064Y-32048D01*
X66918Y-32146D01*
X66821Y-32292D01*
X66787Y-32464D01*
X66787Y-32889D01*
X66821Y-33062D01*
X66918Y-33208D01*
X67064Y-33305D01*
X67237Y-33339D01*
X67409Y-33305D01*
X67555Y-33208D01*
X67652Y-33062D01*
X67687Y-32889D01*
X67687Y-36423D01*
X67442Y-36423D01*
X67494Y-36301D01*
X67496Y-35993D01*
X67380Y-35707D01*
X67374Y-35697D01*
X67217Y-35680D01*
X67181Y-35715D01*
X67181Y-35645D01*
X67164Y-35488D01*
X66880Y-35367D01*
X66687Y-35366D01*
X66687Y-32889D01*
X66687Y-32464D01*
X66652Y-32292D01*
X66555Y-32146D01*
X66409Y-32048D01*
X66237Y-32014D01*
X66064Y-32048D01*
X65918Y-32146D01*
X65821Y-32292D01*
X65787Y-32464D01*
X65787Y-32889D01*
X65821Y-33062D01*
X65918Y-33208D01*
X66064Y-33305D01*
X66237Y-33339D01*
X66409Y-33305D01*
X66555Y-33208D01*
X66652Y-33062D01*
X66687Y-32889D01*
X66687Y-35366D01*
X66572Y-35365D01*
X66286Y-35481D01*
X66276Y-35488D01*
X66259Y-35645D01*
X66720Y-36106D01*
X67181Y-35645D01*
X67181Y-35715D01*
X66755Y-36141D01*
X66761Y-36147D01*
X66726Y-36182D01*
X66720Y-36177D01*
X66538Y-36359D01*
X66502Y-36324D01*
X66685Y-36141D01*
X66223Y-35680D01*
X66066Y-35697D01*
X66010Y-35831D01*
X65687Y-35508D01*
X65687Y-32889D01*
X65687Y-32464D01*
X65652Y-32292D01*
X65555Y-32146D01*
X65409Y-32048D01*
X65237Y-32014D01*
X65064Y-32048D01*
X64918Y-32146D01*
X64821Y-32292D01*
X64787Y-32464D01*
X64787Y-32889D01*
X64821Y-33062D01*
X64918Y-33208D01*
X65064Y-33305D01*
X65237Y-33339D01*
X65409Y-33305D01*
X65555Y-33208D01*
X65652Y-33062D01*
X65687Y-32889D01*
X65687Y-35508D01*
X64487Y-34308D01*
X64487Y-33253D01*
X64555Y-33208D01*
X64652Y-33062D01*
X64687Y-32889D01*
X64687Y-32464D01*
X64652Y-32292D01*
X64555Y-32146D01*
X64409Y-32048D01*
X64237Y-32014D01*
X64064Y-32048D01*
X63918Y-32146D01*
X63821Y-32292D01*
X63787Y-32464D01*
X63787Y-32889D01*
X63821Y-33062D01*
X63918Y-33208D01*
X63987Y-33253D01*
X63987Y-34411D01*
X64006Y-34507D01*
X64060Y-34588D01*
X66321Y-36849D01*
X66402Y-36904D01*
X66402Y-36904D01*
X66498Y-36923D01*
X73752Y-36923D01*
X73848Y-36904D01*
X73929Y-36849D01*
X75243Y-35535D01*
X75259Y-35535D01*
X75316Y-35621D01*
X75470Y-35724D01*
X75652Y-35760D01*
X76027Y-35760D01*
X76209Y-35724D01*
X76363Y-35621D01*
X76466Y-35467D01*
X76502Y-35285D01*
X76502Y-36658D01*
X76467Y-36482D01*
X76364Y-36327D01*
X76210Y-36224D01*
X76028Y-36188D01*
X75653Y-36188D01*
X75471Y-36224D01*
X75317Y-36327D01*
X75214Y-36482D01*
X75178Y-36663D01*
X75214Y-36845D01*
X75317Y-36999D01*
X75471Y-37102D01*
X75653Y-37138D01*
X76028Y-37138D01*
X76210Y-37102D01*
X76364Y-36999D01*
X76467Y-36845D01*
X76503Y-36663D01*
X76503Y-38039D01*
X76467Y-37858D01*
X76364Y-37703D01*
X76210Y-37600D01*
X76028Y-37564D01*
X75653Y-37564D01*
X75471Y-37600D01*
X75317Y-37703D01*
X75214Y-37858D01*
X75178Y-38039D01*
X75214Y-38221D01*
X75317Y-38375D01*
X75471Y-38478D01*
X75653Y-38514D01*
X76028Y-38514D01*
X76210Y-38478D01*
X76364Y-38375D01*
X76467Y-38221D01*
X76503Y-38039D01*
X76503Y-39419D01*
X76467Y-39238D01*
X76364Y-39083D01*
X76210Y-38980D01*
X76028Y-38944D01*
X75653Y-38944D01*
X75471Y-38980D01*
X75317Y-39083D01*
X75214Y-39238D01*
X75178Y-39419D01*
X75214Y-39601D01*
X75317Y-39755D01*
X75471Y-39858D01*
X75653Y-39894D01*
X76028Y-39894D01*
X76210Y-39858D01*
X76364Y-39755D01*
X76467Y-39601D01*
X76503Y-39419D01*
X76503Y-40547D01*
X76422Y-40547D01*
X76364Y-40461D01*
X76210Y-40358D01*
X76028Y-40322D01*
X75653Y-40322D01*
X75471Y-40358D01*
X75317Y-40461D01*
X75214Y-40616D01*
X75178Y-40797D01*
X75214Y-40979D01*
X75317Y-41133D01*
X75471Y-41236D01*
X75653Y-41272D01*
X76028Y-41272D01*
X76210Y-41236D01*
X76293Y-41181D01*
X76293Y-41791D01*
X76211Y-41736D01*
X76029Y-41700D01*
X75654Y-41700D01*
X75472Y-41736D01*
X75318Y-41839D01*
X75261Y-41925D01*
X72162Y-41925D01*
X72162Y-38493D01*
X72021Y-38153D01*
X71761Y-37893D01*
X71421Y-37752D01*
X71053Y-37752D01*
X70713Y-37892D01*
X70453Y-38152D01*
X70312Y-38492D01*
X70311Y-38860D01*
X70452Y-39200D01*
X70712Y-39460D01*
X71052Y-39602D01*
X71420Y-39602D01*
X71760Y-39461D01*
X72020Y-39201D01*
X72161Y-38861D01*
X72162Y-38493D01*
X72162Y-41925D01*
X64395Y-41925D01*
X64395Y-41925D01*
X64300Y-41944D01*
X64219Y-41999D01*
X63105Y-43112D01*
X63077Y-43093D01*
X62901Y-43058D01*
X62725Y-43093D01*
X62576Y-43193D01*
X62476Y-43342D01*
X62441Y-43518D01*
X62441Y-43821D01*
X62450Y-43865D01*
X62361Y-43776D01*
X62361Y-43518D01*
X62326Y-43342D01*
X62226Y-43193D01*
X62077Y-43093D01*
X61901Y-43058D01*
X61725Y-43093D01*
X61576Y-43193D01*
X61476Y-43342D01*
X61441Y-43518D01*
X61441Y-43821D01*
X61450Y-43865D01*
X61361Y-43776D01*
X61361Y-43518D01*
X61326Y-43342D01*
X61226Y-43193D01*
X61077Y-43093D01*
X60901Y-43058D01*
X60725Y-43093D01*
X60576Y-43193D01*
X60476Y-43342D01*
X60441Y-43518D01*
X60441Y-43821D01*
X60450Y-43865D01*
X60361Y-43776D01*
X60361Y-43518D01*
X60326Y-43342D01*
X60226Y-43193D01*
X60077Y-43093D01*
X59901Y-43058D01*
X59725Y-43093D01*
X59576Y-43193D01*
X59476Y-43342D01*
X59441Y-43518D01*
X59441Y-43821D01*
X59450Y-43865D01*
X59361Y-43776D01*
X59361Y-43518D01*
X59326Y-43342D01*
X59226Y-43193D01*
X59077Y-43093D01*
X58901Y-43058D01*
X58725Y-43093D01*
X58576Y-43193D01*
X58476Y-43342D01*
X58441Y-43518D01*
X58441Y-43821D01*
X58450Y-43865D01*
X58361Y-43776D01*
X58361Y-43518D01*
X58326Y-43342D01*
X58226Y-43193D01*
X58077Y-43093D01*
X57901Y-43058D01*
X57725Y-43093D01*
X57576Y-43193D01*
X57476Y-43342D01*
X57441Y-43518D01*
X57441Y-43821D01*
X57450Y-43865D01*
X57361Y-43776D01*
X57361Y-43518D01*
X57326Y-43342D01*
X57226Y-43193D01*
X57077Y-43093D01*
X56963Y-43070D01*
X58468Y-41565D01*
X58510Y-41574D01*
X67247Y-41574D01*
X67342Y-41555D01*
X67424Y-41501D01*
X67655Y-41270D01*
X68241Y-41270D01*
X68296Y-41247D01*
X68338Y-41205D01*
X68361Y-41149D01*
X68361Y-41090D01*
X68361Y-40190D01*
X68338Y-40135D01*
X68296Y-40092D01*
X68241Y-40070D01*
X68181Y-40070D01*
X68151Y-40070D01*
X68151Y-40019D01*
X68151Y-38391D01*
X68471Y-38391D01*
X68478Y-38410D01*
X68612Y-38544D01*
X68786Y-38616D01*
X68975Y-38616D01*
X69150Y-38544D01*
X69284Y-38411D01*
X69356Y-38236D01*
X69356Y-38047D01*
X69284Y-37873D01*
X69151Y-37739D01*
X68976Y-37666D01*
X68787Y-37666D01*
X68613Y-37738D01*
X68479Y-37872D01*
X68471Y-37891D01*
X67901Y-37891D01*
X67131Y-37891D01*
X67123Y-37873D01*
X66989Y-37739D01*
X66815Y-37666D01*
X66626Y-37666D01*
X66451Y-37738D01*
X66318Y-37872D01*
X66245Y-38046D01*
X66245Y-38235D01*
X66317Y-38410D01*
X66451Y-38544D01*
X66625Y-38616D01*
X66814Y-38616D01*
X66989Y-38544D01*
X67122Y-38411D01*
X67130Y-38391D01*
X67651Y-38391D01*
X67651Y-40019D01*
X67651Y-40070D01*
X67561Y-40070D01*
X67506Y-40092D01*
X67506Y-40093D01*
X67421Y-39975D01*
X67169Y-39818D01*
X67045Y-39783D01*
X66926Y-39883D01*
X66926Y-40645D01*
X66934Y-40645D01*
X66934Y-40695D01*
X66926Y-40695D01*
X66926Y-40702D01*
X66876Y-40702D01*
X66876Y-40695D01*
X66868Y-40695D01*
X66868Y-40645D01*
X66876Y-40645D01*
X66876Y-39883D01*
X66758Y-39783D01*
X66633Y-39818D01*
X66381Y-39975D01*
X66225Y-40192D01*
X66077Y-40093D01*
X65901Y-40058D01*
X65725Y-40093D01*
X65577Y-40192D01*
X65421Y-39975D01*
X65169Y-39818D01*
X65045Y-39783D01*
X64926Y-39883D01*
X64926Y-40645D01*
X64934Y-40645D01*
X64934Y-40695D01*
X64926Y-40695D01*
X64926Y-40702D01*
X64876Y-40702D01*
X64876Y-40695D01*
X64868Y-40695D01*
X64868Y-40645D01*
X64876Y-40645D01*
X64876Y-39883D01*
X64758Y-39783D01*
X64633Y-39818D01*
X64381Y-39975D01*
X64225Y-40192D01*
X64077Y-40093D01*
X63901Y-40058D01*
X63725Y-40093D01*
X63697Y-40112D01*
X63687Y-40101D01*
X63687Y-32889D01*
X63687Y-32464D01*
X63652Y-32292D01*
X63555Y-32146D01*
X63409Y-32048D01*
X63237Y-32014D01*
X63064Y-32048D01*
X62918Y-32146D01*
X62821Y-32292D01*
X62787Y-32464D01*
X62787Y-32889D01*
X62821Y-33062D01*
X62918Y-33208D01*
X63064Y-33305D01*
X63237Y-33339D01*
X63409Y-33305D01*
X63555Y-33208D01*
X63652Y-33062D01*
X63687Y-32889D01*
X63687Y-40101D01*
X62087Y-38501D01*
X62087Y-32889D01*
X62087Y-32464D01*
X62052Y-32292D01*
X61955Y-32146D01*
X61809Y-32048D01*
X61637Y-32014D01*
X61464Y-32048D01*
X61318Y-32146D01*
X61221Y-32292D01*
X61187Y-32464D01*
X61187Y-32889D01*
X61221Y-33062D01*
X61318Y-33208D01*
X61464Y-33305D01*
X61637Y-33339D01*
X61809Y-33305D01*
X61955Y-33208D01*
X62052Y-33062D01*
X62087Y-32889D01*
X62087Y-38501D01*
X61609Y-38024D01*
X61609Y-35960D01*
X61560Y-35840D01*
X61468Y-35749D01*
X61349Y-35699D01*
X61313Y-35699D01*
X61087Y-35473D01*
X61087Y-32889D01*
X61087Y-32464D01*
X61052Y-32292D01*
X60955Y-32146D01*
X60809Y-32048D01*
X60637Y-32014D01*
X60464Y-32048D01*
X60318Y-32146D01*
X60221Y-32292D01*
X60187Y-32464D01*
X60187Y-32889D01*
X60221Y-33062D01*
X60318Y-33208D01*
X60464Y-33305D01*
X60637Y-33339D01*
X60809Y-33305D01*
X60955Y-33208D01*
X61052Y-33062D01*
X61087Y-32889D01*
X61087Y-35473D01*
X60087Y-34473D01*
X60087Y-32889D01*
X60087Y-32464D01*
X60052Y-32292D01*
X59955Y-32146D01*
X59809Y-32048D01*
X59637Y-32014D01*
X59464Y-32048D01*
X59318Y-32146D01*
X59221Y-32292D01*
X59187Y-32464D01*
X59187Y-32889D01*
X59221Y-33062D01*
X59318Y-33208D01*
X59464Y-33305D01*
X59637Y-33339D01*
X59809Y-33305D01*
X59955Y-33208D01*
X60052Y-33062D01*
X60087Y-32889D01*
X60087Y-34473D01*
X58887Y-33273D01*
X58887Y-33253D01*
X58955Y-33208D01*
X59052Y-33062D01*
X59087Y-32889D01*
X59087Y-32464D01*
X59052Y-32292D01*
X58955Y-32146D01*
X58809Y-32048D01*
X58637Y-32014D01*
X58464Y-32048D01*
X58318Y-32146D01*
X58221Y-32292D01*
X58187Y-32464D01*
X58187Y-32889D01*
X58221Y-33062D01*
X58318Y-33208D01*
X58387Y-33253D01*
X58387Y-33377D01*
X58406Y-33472D01*
X58460Y-33554D01*
X60959Y-36053D01*
X60959Y-36089D01*
X61008Y-36208D01*
X61100Y-36300D01*
X61219Y-36349D01*
X61348Y-36349D01*
X61468Y-36300D01*
X61559Y-36209D01*
X61609Y-36089D01*
X61609Y-35960D01*
X61609Y-38024D01*
X58087Y-34501D01*
X58087Y-32889D01*
X58087Y-32464D01*
X58052Y-32292D01*
X57955Y-32146D01*
X57809Y-32048D01*
X57637Y-32014D01*
X57464Y-32048D01*
X57318Y-32146D01*
X57221Y-32292D01*
X57187Y-32464D01*
X57187Y-32889D01*
X57221Y-33062D01*
X57318Y-33208D01*
X57464Y-33305D01*
X57637Y-33339D01*
X57809Y-33305D01*
X57955Y-33208D01*
X58052Y-33062D01*
X58087Y-32889D01*
X58087Y-34501D01*
X56887Y-33301D01*
X56887Y-33253D01*
X56955Y-33208D01*
X57052Y-33062D01*
X57087Y-32889D01*
X57087Y-32464D01*
X57052Y-32292D01*
X56955Y-32146D01*
X56809Y-32048D01*
X56637Y-32014D01*
X56464Y-32048D01*
X56318Y-32146D01*
X56221Y-32292D01*
X56187Y-32464D01*
X56187Y-32889D01*
X56221Y-33062D01*
X56318Y-33208D01*
X56387Y-33253D01*
X56387Y-33405D01*
X56406Y-33501D01*
X56460Y-33582D01*
X62944Y-40066D01*
X62901Y-40058D01*
X62725Y-40093D01*
X62576Y-40193D01*
X62476Y-40342D01*
X62441Y-40518D01*
X62441Y-40821D01*
X62476Y-40997D01*
X62527Y-41074D01*
X62275Y-41074D01*
X62326Y-40997D01*
X62361Y-40821D01*
X62361Y-40518D01*
X62326Y-40342D01*
X62226Y-40193D01*
X62077Y-40093D01*
X61901Y-40058D01*
X61725Y-40093D01*
X61576Y-40193D01*
X61476Y-40342D01*
X61441Y-40518D01*
X61441Y-40821D01*
X61476Y-40997D01*
X61527Y-41074D01*
X61275Y-41074D01*
X61326Y-40997D01*
X61361Y-40821D01*
X61361Y-40518D01*
X61326Y-40342D01*
X61226Y-40193D01*
X61077Y-40093D01*
X60901Y-40058D01*
X60725Y-40093D01*
X60576Y-40193D01*
X60476Y-40342D01*
X60441Y-40518D01*
X60441Y-40821D01*
X60476Y-40997D01*
X60527Y-41074D01*
X60275Y-41074D01*
X60326Y-40997D01*
X60361Y-40821D01*
X60361Y-40518D01*
X60326Y-40342D01*
X60226Y-40193D01*
X60077Y-40093D01*
X59901Y-40058D01*
X59725Y-40093D01*
X59576Y-40193D01*
X59476Y-40342D01*
X59441Y-40518D01*
X59441Y-40821D01*
X59476Y-40997D01*
X59527Y-41074D01*
X59275Y-41074D01*
X59326Y-40997D01*
X59361Y-40821D01*
X59361Y-40518D01*
X59326Y-40342D01*
X59226Y-40193D01*
X59077Y-40093D01*
X58901Y-40058D01*
X58725Y-40093D01*
X58576Y-40193D01*
X58476Y-40342D01*
X58441Y-40518D01*
X58441Y-40821D01*
X58450Y-40865D01*
X58361Y-40776D01*
X58361Y-40518D01*
X58326Y-40342D01*
X58226Y-40193D01*
X58077Y-40093D01*
X57901Y-40058D01*
X57725Y-40093D01*
X57577Y-40192D01*
X57421Y-39975D01*
X57169Y-39818D01*
X57045Y-39783D01*
X56926Y-39883D01*
X56926Y-40645D01*
X56934Y-40645D01*
X56934Y-40695D01*
X56926Y-40695D01*
X56926Y-41457D01*
X57045Y-41556D01*
X57169Y-41521D01*
X57421Y-41365D01*
X57577Y-41147D01*
X57725Y-41246D01*
X57901Y-41281D01*
X58077Y-41246D01*
X58086Y-41240D01*
X56876Y-42450D01*
X56876Y-41457D01*
X56876Y-40695D01*
X56876Y-40645D01*
X56876Y-39883D01*
X56758Y-39783D01*
X56633Y-39818D01*
X56381Y-39975D01*
X56208Y-40216D01*
X56141Y-40505D01*
X56141Y-40645D01*
X56876Y-40645D01*
X56876Y-40695D01*
X56141Y-40695D01*
X56141Y-40835D01*
X56208Y-41124D01*
X56381Y-41365D01*
X56633Y-41521D01*
X56758Y-41556D01*
X56876Y-41457D01*
X56876Y-42450D01*
X56213Y-43114D01*
X56158Y-43195D01*
X56139Y-43291D01*
X56139Y-47129D01*
X56158Y-47225D01*
X56213Y-47306D01*
X59987Y-51080D01*
X59987Y-51100D01*
X59918Y-51146D01*
X59821Y-51292D01*
X59787Y-51464D01*
X59787Y-51889D01*
X59821Y-52062D01*
X59918Y-52208D01*
X60064Y-52305D01*
X60237Y-52339D01*
X60409Y-52305D01*
X60555Y-52208D01*
X60561Y-52198D01*
X60724Y-52425D01*
X60764Y-52450D01*
X59687Y-52450D01*
X59687Y-51889D01*
X59687Y-51464D01*
X59652Y-51292D01*
X59555Y-51146D01*
X59409Y-51048D01*
X59237Y-51014D01*
X59064Y-51048D01*
X58918Y-51146D01*
X58821Y-51292D01*
X58787Y-51464D01*
X58787Y-51889D01*
X58821Y-52062D01*
X58918Y-52208D01*
X59064Y-52305D01*
X59237Y-52339D01*
X59409Y-52305D01*
X59555Y-52208D01*
X59652Y-52062D01*
X59687Y-51889D01*
X59687Y-52450D01*
X58687Y-52450D01*
X58687Y-51889D01*
X58687Y-51464D01*
X58652Y-51292D01*
X58555Y-51146D01*
X58409Y-51048D01*
X58237Y-51014D01*
X58064Y-51048D01*
X57918Y-51146D01*
X57821Y-51292D01*
X57787Y-51464D01*
X57787Y-51889D01*
X57821Y-52062D01*
X57918Y-52208D01*
X58064Y-52305D01*
X58237Y-52339D01*
X58409Y-52305D01*
X58555Y-52208D01*
X58652Y-52062D01*
X58687Y-51889D01*
X58687Y-52450D01*
X56087Y-52450D01*
X56087Y-32889D01*
X56087Y-32464D01*
X56052Y-32292D01*
X55955Y-32146D01*
X55809Y-32048D01*
X55637Y-32014D01*
X55464Y-32048D01*
X55318Y-32146D01*
X55221Y-32292D01*
X55187Y-32464D01*
X55187Y-32889D01*
X55221Y-33062D01*
X55318Y-33208D01*
X55464Y-33305D01*
X55637Y-33339D01*
X55809Y-33305D01*
X55955Y-33208D01*
X56052Y-33062D01*
X56087Y-32889D01*
X56087Y-52450D01*
X55087Y-52450D01*
X55087Y-32889D01*
X55087Y-32464D01*
X55052Y-32292D01*
X54955Y-32146D01*
X54809Y-32048D01*
X54637Y-32014D01*
X54464Y-32048D01*
X54318Y-32146D01*
X54221Y-32292D01*
X54187Y-32464D01*
X54187Y-32889D01*
X54221Y-33062D01*
X54318Y-33208D01*
X54464Y-33305D01*
X54637Y-33339D01*
X54809Y-33305D01*
X54955Y-33208D01*
X55052Y-33062D01*
X55087Y-32889D01*
X55087Y-52450D01*
X51272Y-52450D01*
X51520Y-52201D01*
X51661Y-51861D01*
X51662Y-51493D01*
X51521Y-51153D01*
X51261Y-50893D01*
X50921Y-50752D01*
X50553Y-50752D01*
X50213Y-50892D01*
X49953Y-51152D01*
X49812Y-51492D01*
X49811Y-51860D01*
X49952Y-52200D01*
X50201Y-52450D01*
X48950Y-52450D01*
X48950Y-31900D01*
X50706Y-31900D01*
X50453Y-32152D01*
X50312Y-32492D01*
X50311Y-32860D01*
X50452Y-33200D01*
X50712Y-33460D01*
X51052Y-33602D01*
X51420Y-33602D01*
X51760Y-33461D01*
X52020Y-33201D01*
X52161Y-32861D01*
X52162Y-32493D01*
X52021Y-32153D01*
X51768Y-31900D01*
X76995Y-31900D01*
X76995Y-52450D01*
M02*
