M48
;DRILL file {Pcbnew (2013-mar-13)-testing} date Sat 24 Aug 2013 02:49:29 PM PDT
;FORMAT={2:4/ absolute / inch / suppress trailing zeros}
FMAT,2
INCH,LZ
T1C0.025
T2C0.032
T3C0.035
T4C0.125
%
G90
G05
M72
T1
X061285Y-036025
T2
X054637Y-032677
X055637Y-032677
X056637Y-032677
X056902Y-04067
X056902Y-04367
X057637Y-032677
X057902Y-04067
X057902Y-04367
X058237Y-051677
X058637Y-032677
X058902Y-04067
X058902Y-04367
X059237Y-051677
X059637Y-032677
X059902Y-04067
X059902Y-04367
X060237Y-051677
X060637Y-032677
X060902Y-04067
X060902Y-04367
X061237Y-051677
X061637Y-032677
X061902Y-04067
X061902Y-04367
X062237Y-051677
X062902Y-04067
X062902Y-04367
X063237Y-032677
X063237Y-051677
X063902Y-04067
X063902Y-04367
X064237Y-032677
X064783Y-046043
X064783Y-047043
X064902Y-04067
X064902Y-04367
X065237Y-032677
X065237Y-051677
X065902Y-04067
X065902Y-04367
X066237Y-032677
X066237Y-051677
X06672Y-036142
X06672Y-038142
X066902Y-04067
X066902Y-04367
X066988Y-045551
X066988Y-047551
X067237Y-032677
X067237Y-051677
X067902Y-04067
X067902Y-04367
X068237Y-032677
X068237Y-051677
X068882Y-036142
X068882Y-038142
X069237Y-032677
X069237Y-051677
X070237Y-032677
X070237Y-051677
T3
X07584Y-035286
X075841Y-033908
X075841Y-036664
X075841Y-03804
X075841Y-03942
X075841Y-040798
X075841Y-047686
X075842Y-042176
X075842Y-043555
X075842Y-044931
X075842Y-046309
X075842Y-049067
X075843Y-050444
T4
X050737Y-051677
X051237Y-032677
X071237Y-038677
X071237Y-049677
T0
M30
