G04 (created by PCBNEW-RS274X (2011-aug-04)-testing) date Mon 24 Sep 2012 11:27:46 AM PDT*
G01*
G70*
G90*
%MOIN*%
G04 Gerber Fmt 3.4, Leading zero omitted, Abs format*
%FSLAX34Y34*%
G04 APERTURE LIST*
%ADD10C,0.006000*%
%ADD11O,0.060000X0.100000*%
%ADD12C,0.155000*%
%ADD13R,0.055000X0.055000*%
%ADD14C,0.055000*%
%ADD15C,0.060000*%
%ADD16C,0.015000*%
%ADD17C,0.010000*%
G04 APERTURE END LIST*
G54D10*
G54D11*
X70237Y-51677D03*
X69237Y-51677D03*
X68237Y-51677D03*
X65237Y-51677D03*
X66237Y-51677D03*
X67237Y-51677D03*
X63237Y-51677D03*
X62237Y-51677D03*
X61237Y-51677D03*
X59237Y-51677D03*
X58237Y-51677D03*
X70237Y-32677D03*
X69237Y-32677D03*
X68237Y-32677D03*
X67237Y-32677D03*
X66237Y-32677D03*
X65237Y-32677D03*
X64237Y-32677D03*
X63237Y-32677D03*
X61637Y-32677D03*
X60637Y-32677D03*
X59637Y-32677D03*
X58637Y-32677D03*
X57637Y-32677D03*
X56637Y-32677D03*
X55637Y-32677D03*
X54637Y-32677D03*
X60237Y-51677D03*
G54D12*
X71237Y-49677D03*
X71237Y-38677D03*
X51237Y-32677D03*
X50737Y-51677D03*
G54D13*
X67951Y-40675D03*
G54D14*
X66951Y-40675D03*
X65951Y-40675D03*
X64951Y-40675D03*
X63951Y-40675D03*
X62951Y-40675D03*
X61951Y-40675D03*
X60951Y-40675D03*
X59951Y-40675D03*
X58951Y-40675D03*
X57951Y-40675D03*
X56951Y-40675D03*
X56951Y-43675D03*
X57951Y-43675D03*
X58951Y-43675D03*
X59951Y-43675D03*
X60951Y-43675D03*
X61951Y-43675D03*
X62951Y-43675D03*
X63951Y-43675D03*
X64951Y-43675D03*
X65951Y-43675D03*
X66951Y-43675D03*
X67951Y-43675D03*
X67264Y-45280D03*
X67264Y-47280D03*
X67894Y-38815D03*
X67894Y-36815D03*
X66083Y-38776D03*
X66083Y-36776D03*
X64685Y-45425D03*
X64685Y-46425D03*
G54D15*
X74843Y-50444D03*
X74842Y-49067D03*
X74841Y-47686D03*
X74842Y-46309D03*
X74842Y-44931D03*
X74842Y-43555D03*
X74842Y-42176D03*
X74841Y-40798D03*
X74841Y-39420D03*
X74841Y-38040D03*
X74840Y-35286D03*
X74841Y-36664D03*
X74841Y-33908D03*
G54D16*
X67951Y-38872D02*
X67951Y-40675D01*
X67894Y-38815D02*
X67951Y-38872D01*
X63834Y-41629D02*
X60451Y-41629D01*
X64452Y-41011D02*
X63834Y-41629D01*
X64452Y-40407D02*
X64452Y-41011D01*
X66083Y-38776D02*
X64452Y-40407D01*
X58905Y-41629D02*
X57951Y-40675D01*
X60451Y-41629D02*
X58905Y-41629D01*
X60451Y-50785D02*
X60237Y-50999D01*
X60451Y-41629D02*
X60451Y-50785D01*
X60237Y-51677D02*
X60237Y-50999D01*
X62077Y-31999D02*
X59637Y-31999D01*
X62119Y-32041D02*
X62077Y-31999D01*
X62119Y-39843D02*
X62119Y-32041D01*
X62951Y-40675D02*
X62119Y-39843D01*
X59637Y-32677D02*
X59637Y-31999D01*
X72255Y-31999D02*
X68237Y-31999D01*
X75594Y-35338D02*
X72255Y-31999D01*
X75594Y-38667D02*
X75594Y-35338D01*
X74841Y-39420D02*
X75594Y-38667D01*
X68237Y-32677D02*
X68237Y-31999D01*
X67237Y-32677D02*
X67237Y-33355D01*
X75340Y-37541D02*
X74841Y-38040D01*
X75340Y-36463D02*
X75340Y-37541D01*
X72232Y-33355D02*
X75340Y-36463D01*
X67237Y-33355D02*
X72232Y-33355D01*
X68546Y-36664D02*
X65237Y-33355D01*
X74841Y-36664D02*
X68546Y-36664D01*
X65237Y-32677D02*
X65237Y-33355D01*
X58951Y-34669D02*
X57637Y-33355D01*
X58951Y-40675D02*
X58951Y-34669D01*
X57637Y-32677D02*
X57637Y-33355D01*
X60494Y-35212D02*
X58637Y-33355D01*
X60494Y-41114D02*
X60494Y-35212D01*
X60537Y-41157D02*
X60494Y-41114D01*
X61469Y-41157D02*
X60537Y-41157D01*
X61951Y-40675D02*
X61469Y-41157D01*
X58637Y-32677D02*
X58637Y-33355D01*
X60951Y-34041D02*
X61637Y-33355D01*
X60951Y-40675D02*
X60951Y-34041D01*
X61637Y-32677D02*
X61637Y-33355D01*
X66405Y-41221D02*
X66951Y-40675D01*
X65497Y-41221D02*
X66405Y-41221D01*
X65497Y-41221D02*
X64951Y-40675D01*
X61237Y-49873D02*
X61237Y-51677D01*
X64685Y-46425D02*
X61237Y-49873D01*
X65497Y-45613D02*
X64685Y-46425D01*
X65497Y-41221D02*
X65497Y-45613D01*
X67164Y-47280D02*
X67264Y-47280D01*
X65497Y-45613D02*
X67164Y-47280D01*
X66951Y-37286D02*
X66951Y-40675D01*
X67423Y-37286D02*
X66951Y-37286D01*
X67894Y-36815D02*
X67423Y-37286D01*
X66593Y-37286D02*
X66083Y-36776D01*
X66951Y-37286D02*
X66593Y-37286D01*
X64951Y-45159D02*
X64951Y-43675D01*
X64685Y-45425D02*
X64951Y-45159D01*
X66951Y-44967D02*
X66951Y-43675D01*
X67264Y-45280D02*
X66951Y-44967D01*
G54D10*
G36*
X60126Y-50650D02*
X60007Y-50769D01*
X59937Y-50875D01*
X59912Y-50999D01*
X59912Y-51024D01*
X59780Y-51157D01*
X59737Y-51259D01*
X59695Y-51157D01*
X59543Y-51006D01*
X59345Y-50923D01*
X59130Y-50923D01*
X58931Y-51005D01*
X58780Y-51157D01*
X58737Y-51259D01*
X58695Y-51157D01*
X58543Y-51006D01*
X58345Y-50923D01*
X58130Y-50923D01*
X57931Y-51005D01*
X57780Y-51157D01*
X57697Y-51355D01*
X57697Y-51570D01*
X57697Y-51998D01*
X57779Y-52197D01*
X57931Y-52348D01*
X57935Y-52350D01*
X51513Y-52350D01*
X51605Y-52258D01*
X51762Y-51882D01*
X51762Y-51474D01*
X51606Y-51097D01*
X51318Y-50809D01*
X50942Y-50652D01*
X50534Y-50652D01*
X50157Y-50808D01*
X49869Y-51096D01*
X49712Y-51472D01*
X49712Y-51880D01*
X49868Y-52257D01*
X49961Y-52350D01*
X49050Y-52350D01*
X49050Y-31998D01*
X50467Y-31998D01*
X50369Y-32096D01*
X50212Y-32472D01*
X50212Y-32880D01*
X50368Y-33257D01*
X50656Y-33545D01*
X51032Y-33702D01*
X51440Y-33702D01*
X51817Y-33546D01*
X52105Y-33258D01*
X52262Y-32882D01*
X52262Y-32474D01*
X52106Y-32097D01*
X52007Y-31998D01*
X54347Y-31998D01*
X54331Y-32005D01*
X54180Y-32157D01*
X54097Y-32355D01*
X54097Y-32570D01*
X54097Y-32998D01*
X54179Y-33197D01*
X54331Y-33348D01*
X54529Y-33431D01*
X54744Y-33431D01*
X54943Y-33349D01*
X55094Y-33197D01*
X55136Y-33094D01*
X55179Y-33197D01*
X55331Y-33348D01*
X55529Y-33431D01*
X55744Y-33431D01*
X55943Y-33349D01*
X56094Y-33197D01*
X56136Y-33094D01*
X56179Y-33197D01*
X56331Y-33348D01*
X56529Y-33431D01*
X56744Y-33431D01*
X56943Y-33349D01*
X57094Y-33197D01*
X57136Y-33094D01*
X57179Y-33197D01*
X57312Y-33329D01*
X57312Y-33355D01*
X57337Y-33479D01*
X57407Y-33585D01*
X58626Y-34804D01*
X58626Y-40257D01*
X58506Y-40377D01*
X58450Y-40510D01*
X58396Y-40378D01*
X58249Y-40230D01*
X58056Y-40150D01*
X57847Y-40150D01*
X57654Y-40230D01*
X57506Y-40377D01*
X57426Y-40570D01*
X57426Y-40779D01*
X57506Y-40972D01*
X57653Y-41120D01*
X57846Y-41200D01*
X58016Y-41200D01*
X58675Y-41859D01*
X58780Y-41929D01*
X58781Y-41929D01*
X58905Y-41954D01*
X60126Y-41954D01*
X60126Y-43179D01*
X60056Y-43150D01*
X59847Y-43150D01*
X59654Y-43230D01*
X59506Y-43377D01*
X59450Y-43510D01*
X59396Y-43378D01*
X59249Y-43230D01*
X59056Y-43150D01*
X58847Y-43150D01*
X58654Y-43230D01*
X58506Y-43377D01*
X58450Y-43510D01*
X58396Y-43378D01*
X58249Y-43230D01*
X58056Y-43150D01*
X57847Y-43150D01*
X57654Y-43230D01*
X57506Y-43377D01*
X57450Y-43510D01*
X57396Y-43378D01*
X57369Y-43350D01*
X57369Y-40604D01*
X57310Y-40449D01*
X57297Y-40430D01*
X57228Y-40405D01*
X57221Y-40412D01*
X57221Y-40398D01*
X57196Y-40329D01*
X57045Y-40261D01*
X56880Y-40257D01*
X56725Y-40316D01*
X56706Y-40329D01*
X56681Y-40398D01*
X56951Y-40668D01*
X57221Y-40398D01*
X57221Y-40412D01*
X56958Y-40675D01*
X57228Y-40945D01*
X57297Y-40920D01*
X57365Y-40769D01*
X57369Y-40604D01*
X57369Y-43350D01*
X57249Y-43230D01*
X57221Y-43218D01*
X57221Y-40952D01*
X56951Y-40682D01*
X56944Y-40689D01*
X56944Y-40675D01*
X56674Y-40405D01*
X56605Y-40430D01*
X56537Y-40581D01*
X56533Y-40746D01*
X56592Y-40901D01*
X56605Y-40920D01*
X56674Y-40945D01*
X56944Y-40675D01*
X56944Y-40689D01*
X56681Y-40952D01*
X56706Y-41021D01*
X56857Y-41089D01*
X57022Y-41093D01*
X57177Y-41034D01*
X57196Y-41021D01*
X57221Y-40952D01*
X57221Y-43218D01*
X57056Y-43150D01*
X56847Y-43150D01*
X56654Y-43230D01*
X56506Y-43377D01*
X56426Y-43570D01*
X56426Y-43779D01*
X56506Y-43972D01*
X56653Y-44120D01*
X56846Y-44200D01*
X57055Y-44200D01*
X57248Y-44120D01*
X57396Y-43973D01*
X57451Y-43839D01*
X57506Y-43972D01*
X57653Y-44120D01*
X57846Y-44200D01*
X58055Y-44200D01*
X58248Y-44120D01*
X58396Y-43973D01*
X58451Y-43839D01*
X58506Y-43972D01*
X58653Y-44120D01*
X58846Y-44200D01*
X59055Y-44200D01*
X59248Y-44120D01*
X59396Y-43973D01*
X59451Y-43839D01*
X59506Y-43972D01*
X59653Y-44120D01*
X59846Y-44200D01*
X60055Y-44200D01*
X60126Y-44170D01*
X60126Y-50650D01*
X60126Y-50650D01*
G37*
G54D17*
X60126Y-50650D02*
X60007Y-50769D01*
X59937Y-50875D01*
X59912Y-50999D01*
X59912Y-51024D01*
X59780Y-51157D01*
X59737Y-51259D01*
X59695Y-51157D01*
X59543Y-51006D01*
X59345Y-50923D01*
X59130Y-50923D01*
X58931Y-51005D01*
X58780Y-51157D01*
X58737Y-51259D01*
X58695Y-51157D01*
X58543Y-51006D01*
X58345Y-50923D01*
X58130Y-50923D01*
X57931Y-51005D01*
X57780Y-51157D01*
X57697Y-51355D01*
X57697Y-51570D01*
X57697Y-51998D01*
X57779Y-52197D01*
X57931Y-52348D01*
X57935Y-52350D01*
X51513Y-52350D01*
X51605Y-52258D01*
X51762Y-51882D01*
X51762Y-51474D01*
X51606Y-51097D01*
X51318Y-50809D01*
X50942Y-50652D01*
X50534Y-50652D01*
X50157Y-50808D01*
X49869Y-51096D01*
X49712Y-51472D01*
X49712Y-51880D01*
X49868Y-52257D01*
X49961Y-52350D01*
X49050Y-52350D01*
X49050Y-31998D01*
X50467Y-31998D01*
X50369Y-32096D01*
X50212Y-32472D01*
X50212Y-32880D01*
X50368Y-33257D01*
X50656Y-33545D01*
X51032Y-33702D01*
X51440Y-33702D01*
X51817Y-33546D01*
X52105Y-33258D01*
X52262Y-32882D01*
X52262Y-32474D01*
X52106Y-32097D01*
X52007Y-31998D01*
X54347Y-31998D01*
X54331Y-32005D01*
X54180Y-32157D01*
X54097Y-32355D01*
X54097Y-32570D01*
X54097Y-32998D01*
X54179Y-33197D01*
X54331Y-33348D01*
X54529Y-33431D01*
X54744Y-33431D01*
X54943Y-33349D01*
X55094Y-33197D01*
X55136Y-33094D01*
X55179Y-33197D01*
X55331Y-33348D01*
X55529Y-33431D01*
X55744Y-33431D01*
X55943Y-33349D01*
X56094Y-33197D01*
X56136Y-33094D01*
X56179Y-33197D01*
X56331Y-33348D01*
X56529Y-33431D01*
X56744Y-33431D01*
X56943Y-33349D01*
X57094Y-33197D01*
X57136Y-33094D01*
X57179Y-33197D01*
X57312Y-33329D01*
X57312Y-33355D01*
X57337Y-33479D01*
X57407Y-33585D01*
X58626Y-34804D01*
X58626Y-40257D01*
X58506Y-40377D01*
X58450Y-40510D01*
X58396Y-40378D01*
X58249Y-40230D01*
X58056Y-40150D01*
X57847Y-40150D01*
X57654Y-40230D01*
X57506Y-40377D01*
X57426Y-40570D01*
X57426Y-40779D01*
X57506Y-40972D01*
X57653Y-41120D01*
X57846Y-41200D01*
X58016Y-41200D01*
X58675Y-41859D01*
X58780Y-41929D01*
X58781Y-41929D01*
X58905Y-41954D01*
X60126Y-41954D01*
X60126Y-43179D01*
X60056Y-43150D01*
X59847Y-43150D01*
X59654Y-43230D01*
X59506Y-43377D01*
X59450Y-43510D01*
X59396Y-43378D01*
X59249Y-43230D01*
X59056Y-43150D01*
X58847Y-43150D01*
X58654Y-43230D01*
X58506Y-43377D01*
X58450Y-43510D01*
X58396Y-43378D01*
X58249Y-43230D01*
X58056Y-43150D01*
X57847Y-43150D01*
X57654Y-43230D01*
X57506Y-43377D01*
X57450Y-43510D01*
X57396Y-43378D01*
X57369Y-43350D01*
X57369Y-40604D01*
X57310Y-40449D01*
X57297Y-40430D01*
X57228Y-40405D01*
X57221Y-40412D01*
X57221Y-40398D01*
X57196Y-40329D01*
X57045Y-40261D01*
X56880Y-40257D01*
X56725Y-40316D01*
X56706Y-40329D01*
X56681Y-40398D01*
X56951Y-40668D01*
X57221Y-40398D01*
X57221Y-40412D01*
X56958Y-40675D01*
X57228Y-40945D01*
X57297Y-40920D01*
X57365Y-40769D01*
X57369Y-40604D01*
X57369Y-43350D01*
X57249Y-43230D01*
X57221Y-43218D01*
X57221Y-40952D01*
X56951Y-40682D01*
X56944Y-40689D01*
X56944Y-40675D01*
X56674Y-40405D01*
X56605Y-40430D01*
X56537Y-40581D01*
X56533Y-40746D01*
X56592Y-40901D01*
X56605Y-40920D01*
X56674Y-40945D01*
X56944Y-40675D01*
X56944Y-40689D01*
X56681Y-40952D01*
X56706Y-41021D01*
X56857Y-41089D01*
X57022Y-41093D01*
X57177Y-41034D01*
X57196Y-41021D01*
X57221Y-40952D01*
X57221Y-43218D01*
X57056Y-43150D01*
X56847Y-43150D01*
X56654Y-43230D01*
X56506Y-43377D01*
X56426Y-43570D01*
X56426Y-43779D01*
X56506Y-43972D01*
X56653Y-44120D01*
X56846Y-44200D01*
X57055Y-44200D01*
X57248Y-44120D01*
X57396Y-43973D01*
X57451Y-43839D01*
X57506Y-43972D01*
X57653Y-44120D01*
X57846Y-44200D01*
X58055Y-44200D01*
X58248Y-44120D01*
X58396Y-43973D01*
X58451Y-43839D01*
X58506Y-43972D01*
X58653Y-44120D01*
X58846Y-44200D01*
X59055Y-44200D01*
X59248Y-44120D01*
X59396Y-43973D01*
X59451Y-43839D01*
X59506Y-43972D01*
X59653Y-44120D01*
X59846Y-44200D01*
X60055Y-44200D01*
X60126Y-44170D01*
X60126Y-50650D01*
G54D10*
G36*
X75895Y-35218D02*
X75894Y-35214D01*
X75824Y-35108D01*
X75285Y-34569D01*
X75285Y-33833D01*
X75223Y-33669D01*
X75207Y-33648D01*
X75136Y-33620D01*
X75129Y-33627D01*
X75129Y-33613D01*
X75101Y-33542D01*
X74941Y-33470D01*
X74766Y-33464D01*
X74602Y-33526D01*
X74581Y-33542D01*
X74553Y-33613D01*
X74841Y-33901D01*
X75129Y-33613D01*
X75129Y-33627D01*
X74848Y-33908D01*
X75136Y-34196D01*
X75207Y-34168D01*
X75279Y-34008D01*
X75285Y-33833D01*
X75285Y-34569D01*
X75026Y-34310D01*
X75080Y-34290D01*
X75101Y-34274D01*
X75129Y-34203D01*
X74876Y-33950D01*
X74841Y-33915D01*
X74834Y-33908D01*
X74799Y-33873D01*
X74546Y-33620D01*
X74475Y-33648D01*
X74440Y-33724D01*
X72714Y-31998D01*
X75895Y-31998D01*
X75895Y-35218D01*
X75895Y-35218D01*
G37*
G54D17*
X75895Y-35218D02*
X75894Y-35214D01*
X75824Y-35108D01*
X75285Y-34569D01*
X75285Y-33833D01*
X75223Y-33669D01*
X75207Y-33648D01*
X75136Y-33620D01*
X75129Y-33627D01*
X75129Y-33613D01*
X75101Y-33542D01*
X74941Y-33470D01*
X74766Y-33464D01*
X74602Y-33526D01*
X74581Y-33542D01*
X74553Y-33613D01*
X74841Y-33901D01*
X75129Y-33613D01*
X75129Y-33627D01*
X74848Y-33908D01*
X75136Y-34196D01*
X75207Y-34168D01*
X75279Y-34008D01*
X75285Y-33833D01*
X75285Y-34569D01*
X75026Y-34310D01*
X75080Y-34290D01*
X75101Y-34274D01*
X75129Y-34203D01*
X74876Y-33950D01*
X74841Y-33915D01*
X74834Y-33908D01*
X74799Y-33873D01*
X74546Y-33620D01*
X74475Y-33648D01*
X74440Y-33724D01*
X72714Y-31998D01*
X75895Y-31998D01*
X75895Y-35218D01*
G54D10*
G36*
X75895Y-52350D02*
X75392Y-52350D01*
X75392Y-50553D01*
X75392Y-50335D01*
X75391Y-50332D01*
X75391Y-49176D01*
X75391Y-48958D01*
X75391Y-46418D01*
X75391Y-46200D01*
X75391Y-45040D01*
X75391Y-44822D01*
X75391Y-43664D01*
X75391Y-43446D01*
X75391Y-42285D01*
X75391Y-42067D01*
X75390Y-42064D01*
X75390Y-40907D01*
X75390Y-40689D01*
X75306Y-40487D01*
X75152Y-40333D01*
X74950Y-40249D01*
X74732Y-40249D01*
X74530Y-40333D01*
X74376Y-40487D01*
X74292Y-40689D01*
X74292Y-40907D01*
X74376Y-41109D01*
X74530Y-41263D01*
X74732Y-41347D01*
X74950Y-41347D01*
X75152Y-41263D01*
X75306Y-41109D01*
X75390Y-40907D01*
X75390Y-42064D01*
X75307Y-41865D01*
X75153Y-41711D01*
X74951Y-41627D01*
X74733Y-41627D01*
X74531Y-41711D01*
X74377Y-41865D01*
X74293Y-42067D01*
X74293Y-42285D01*
X74377Y-42487D01*
X74531Y-42641D01*
X74733Y-42725D01*
X74951Y-42725D01*
X75153Y-42641D01*
X75307Y-42487D01*
X75391Y-42285D01*
X75391Y-43446D01*
X75307Y-43244D01*
X75153Y-43090D01*
X74951Y-43006D01*
X74733Y-43006D01*
X74531Y-43090D01*
X74377Y-43244D01*
X74293Y-43446D01*
X74293Y-43664D01*
X74377Y-43866D01*
X74531Y-44020D01*
X74733Y-44104D01*
X74951Y-44104D01*
X75153Y-44020D01*
X75307Y-43866D01*
X75391Y-43664D01*
X75391Y-44822D01*
X75307Y-44620D01*
X75153Y-44466D01*
X74951Y-44382D01*
X74733Y-44382D01*
X74531Y-44466D01*
X74377Y-44620D01*
X74293Y-44822D01*
X74293Y-45040D01*
X74377Y-45242D01*
X74531Y-45396D01*
X74733Y-45480D01*
X74951Y-45480D01*
X75153Y-45396D01*
X75307Y-45242D01*
X75391Y-45040D01*
X75391Y-46200D01*
X75307Y-45998D01*
X75153Y-45844D01*
X74951Y-45760D01*
X74733Y-45760D01*
X74531Y-45844D01*
X74377Y-45998D01*
X74293Y-46200D01*
X74293Y-46418D01*
X74377Y-46620D01*
X74531Y-46774D01*
X74733Y-46858D01*
X74951Y-46858D01*
X75153Y-46774D01*
X75307Y-46620D01*
X75391Y-46418D01*
X75391Y-48958D01*
X75390Y-48955D01*
X75390Y-47795D01*
X75390Y-47577D01*
X75306Y-47375D01*
X75152Y-47221D01*
X74950Y-47137D01*
X74732Y-47137D01*
X74530Y-47221D01*
X74376Y-47375D01*
X74292Y-47577D01*
X74292Y-47795D01*
X74376Y-47997D01*
X74530Y-48151D01*
X74732Y-48235D01*
X74950Y-48235D01*
X75152Y-48151D01*
X75306Y-47997D01*
X75390Y-47795D01*
X75390Y-48955D01*
X75307Y-48756D01*
X75153Y-48602D01*
X74951Y-48518D01*
X74733Y-48518D01*
X74531Y-48602D01*
X74377Y-48756D01*
X74293Y-48958D01*
X74293Y-49176D01*
X74377Y-49378D01*
X74531Y-49532D01*
X74733Y-49616D01*
X74951Y-49616D01*
X75153Y-49532D01*
X75307Y-49378D01*
X75391Y-49176D01*
X75391Y-50332D01*
X75308Y-50133D01*
X75154Y-49979D01*
X74952Y-49895D01*
X74734Y-49895D01*
X74532Y-49979D01*
X74378Y-50133D01*
X74294Y-50335D01*
X74294Y-50553D01*
X74378Y-50755D01*
X74532Y-50909D01*
X74734Y-50993D01*
X74952Y-50993D01*
X75154Y-50909D01*
X75308Y-50755D01*
X75392Y-50553D01*
X75392Y-52350D01*
X72262Y-52350D01*
X72262Y-49882D01*
X72262Y-49474D01*
X72262Y-38882D01*
X72262Y-38474D01*
X72106Y-38097D01*
X71818Y-37809D01*
X71442Y-37652D01*
X71034Y-37652D01*
X70657Y-37808D01*
X70369Y-38096D01*
X70212Y-38472D01*
X70212Y-38880D01*
X70368Y-39257D01*
X70656Y-39545D01*
X71032Y-39702D01*
X71440Y-39702D01*
X71817Y-39546D01*
X72105Y-39258D01*
X72262Y-38882D01*
X72262Y-49474D01*
X72106Y-49097D01*
X71818Y-48809D01*
X71442Y-48652D01*
X71034Y-48652D01*
X70657Y-48808D01*
X70369Y-49096D01*
X70212Y-49472D01*
X70212Y-49880D01*
X70368Y-50257D01*
X70656Y-50545D01*
X71032Y-50702D01*
X71440Y-50702D01*
X71817Y-50546D01*
X72105Y-50258D01*
X72262Y-49882D01*
X72262Y-52350D01*
X70540Y-52350D01*
X70543Y-52349D01*
X70694Y-52197D01*
X70777Y-51999D01*
X70777Y-51784D01*
X70777Y-51356D01*
X70695Y-51157D01*
X70543Y-51006D01*
X70345Y-50923D01*
X70130Y-50923D01*
X69931Y-51005D01*
X69780Y-51157D01*
X69737Y-51259D01*
X69695Y-51157D01*
X69543Y-51006D01*
X69345Y-50923D01*
X69130Y-50923D01*
X68931Y-51005D01*
X68780Y-51157D01*
X68737Y-51259D01*
X68695Y-51157D01*
X68543Y-51006D01*
X68345Y-50923D01*
X68130Y-50923D01*
X67931Y-51005D01*
X67780Y-51157D01*
X67737Y-51259D01*
X67695Y-51157D01*
X67682Y-51144D01*
X67682Y-47209D01*
X67623Y-47054D01*
X67610Y-47035D01*
X67541Y-47010D01*
X67534Y-47017D01*
X67534Y-47003D01*
X67509Y-46934D01*
X67358Y-46866D01*
X67193Y-46862D01*
X67038Y-46921D01*
X67019Y-46934D01*
X66994Y-47003D01*
X67264Y-47273D01*
X67534Y-47003D01*
X67534Y-47017D01*
X67271Y-47280D01*
X67541Y-47550D01*
X67610Y-47525D01*
X67678Y-47374D01*
X67682Y-47209D01*
X67682Y-51144D01*
X67543Y-51006D01*
X67534Y-51002D01*
X67534Y-47557D01*
X67264Y-47287D01*
X67257Y-47294D01*
X67257Y-47280D01*
X66987Y-47010D01*
X66918Y-47035D01*
X66850Y-47186D01*
X66846Y-47351D01*
X66905Y-47506D01*
X66918Y-47525D01*
X66987Y-47550D01*
X67257Y-47280D01*
X67257Y-47294D01*
X66994Y-47557D01*
X67019Y-47626D01*
X67170Y-47694D01*
X67335Y-47698D01*
X67490Y-47639D01*
X67509Y-47626D01*
X67534Y-47557D01*
X67534Y-51002D01*
X67345Y-50923D01*
X67130Y-50923D01*
X66931Y-51005D01*
X66780Y-51157D01*
X66737Y-51259D01*
X66695Y-51157D01*
X66543Y-51006D01*
X66345Y-50923D01*
X66130Y-50923D01*
X65931Y-51005D01*
X65780Y-51157D01*
X65737Y-51259D01*
X65695Y-51157D01*
X65543Y-51006D01*
X65345Y-50923D01*
X65130Y-50923D01*
X65103Y-50934D01*
X65103Y-46354D01*
X65044Y-46199D01*
X65031Y-46180D01*
X64962Y-46155D01*
X64955Y-46162D01*
X64955Y-46148D01*
X64930Y-46079D01*
X64779Y-46011D01*
X64614Y-46007D01*
X64459Y-46066D01*
X64440Y-46079D01*
X64415Y-46148D01*
X64685Y-46418D01*
X64955Y-46148D01*
X64955Y-46162D01*
X64692Y-46425D01*
X64962Y-46695D01*
X65031Y-46670D01*
X65099Y-46519D01*
X65103Y-46354D01*
X65103Y-50934D01*
X64955Y-50995D01*
X64955Y-46702D01*
X64685Y-46432D01*
X64678Y-46439D01*
X64678Y-46425D01*
X64408Y-46155D01*
X64339Y-46180D01*
X64271Y-46331D01*
X64267Y-46496D01*
X64326Y-46651D01*
X64339Y-46670D01*
X64408Y-46695D01*
X64678Y-46425D01*
X64678Y-46439D01*
X64415Y-46702D01*
X64440Y-46771D01*
X64591Y-46839D01*
X64756Y-46843D01*
X64911Y-46784D01*
X64930Y-46771D01*
X64955Y-46702D01*
X64955Y-50995D01*
X64931Y-51005D01*
X64780Y-51157D01*
X64697Y-51355D01*
X64697Y-51570D01*
X64697Y-51998D01*
X64779Y-52197D01*
X64931Y-52348D01*
X64935Y-52350D01*
X63540Y-52350D01*
X63543Y-52349D01*
X63694Y-52197D01*
X63777Y-51999D01*
X63777Y-51784D01*
X63777Y-51356D01*
X63695Y-51157D01*
X63543Y-51006D01*
X63345Y-50923D01*
X63130Y-50923D01*
X62931Y-51005D01*
X62780Y-51157D01*
X62737Y-51259D01*
X62695Y-51157D01*
X62543Y-51006D01*
X62345Y-50923D01*
X62130Y-50923D01*
X61931Y-51005D01*
X61780Y-51157D01*
X61697Y-51355D01*
X61697Y-51570D01*
X61697Y-51998D01*
X61779Y-52197D01*
X61931Y-52348D01*
X61935Y-52350D01*
X61687Y-52350D01*
X61687Y-51972D01*
X61687Y-51682D01*
X61687Y-51672D01*
X61687Y-51382D01*
X61616Y-51217D01*
X61488Y-51092D01*
X61312Y-51034D01*
X61242Y-51065D01*
X61242Y-51672D01*
X61687Y-51672D01*
X61687Y-51682D01*
X61242Y-51682D01*
X61242Y-52289D01*
X61312Y-52320D01*
X61488Y-52262D01*
X61616Y-52137D01*
X61687Y-51972D01*
X61687Y-52350D01*
X61232Y-52350D01*
X61232Y-52289D01*
X61232Y-51682D01*
X61232Y-51672D01*
X61232Y-51065D01*
X61162Y-51034D01*
X60986Y-51092D01*
X60858Y-51217D01*
X60787Y-51382D01*
X60787Y-51672D01*
X61232Y-51672D01*
X61232Y-51682D01*
X60787Y-51682D01*
X60787Y-51972D01*
X60858Y-52137D01*
X60986Y-52262D01*
X61162Y-52320D01*
X61232Y-52289D01*
X61232Y-52350D01*
X60540Y-52350D01*
X60543Y-52349D01*
X60694Y-52197D01*
X60777Y-51999D01*
X60777Y-51784D01*
X60777Y-51356D01*
X60695Y-51157D01*
X60616Y-51078D01*
X60678Y-51016D01*
X60680Y-51015D01*
X60681Y-51015D01*
X60750Y-50910D01*
X60751Y-50909D01*
X60776Y-50785D01*
X60776Y-44170D01*
X60846Y-44200D01*
X61055Y-44200D01*
X61248Y-44120D01*
X61396Y-43973D01*
X61451Y-43839D01*
X61506Y-43972D01*
X61653Y-44120D01*
X61846Y-44200D01*
X62055Y-44200D01*
X62248Y-44120D01*
X62396Y-43973D01*
X62451Y-43839D01*
X62506Y-43972D01*
X62653Y-44120D01*
X62846Y-44200D01*
X63055Y-44200D01*
X63248Y-44120D01*
X63396Y-43973D01*
X63451Y-43839D01*
X63506Y-43972D01*
X63653Y-44120D01*
X63846Y-44200D01*
X64055Y-44200D01*
X64248Y-44120D01*
X64396Y-43973D01*
X64451Y-43839D01*
X64506Y-43972D01*
X64626Y-44092D01*
X64626Y-44900D01*
X64581Y-44900D01*
X64388Y-44980D01*
X64240Y-45127D01*
X64160Y-45320D01*
X64160Y-45529D01*
X64240Y-45722D01*
X64387Y-45870D01*
X64580Y-45950D01*
X64789Y-45950D01*
X64982Y-45870D01*
X65130Y-45723D01*
X65210Y-45530D01*
X65210Y-45345D01*
X65251Y-45284D01*
X65251Y-45283D01*
X65276Y-45159D01*
X65276Y-44092D01*
X65396Y-43973D01*
X65451Y-43839D01*
X65506Y-43972D01*
X65653Y-44120D01*
X65846Y-44200D01*
X66055Y-44200D01*
X66248Y-44120D01*
X66396Y-43973D01*
X66451Y-43839D01*
X66506Y-43972D01*
X66626Y-44092D01*
X66626Y-44967D01*
X66651Y-45091D01*
X66721Y-45197D01*
X66739Y-45214D01*
X66739Y-45384D01*
X66819Y-45577D01*
X66966Y-45725D01*
X67159Y-45805D01*
X67368Y-45805D01*
X67561Y-45725D01*
X67709Y-45578D01*
X67789Y-45385D01*
X67789Y-45176D01*
X67709Y-44983D01*
X67562Y-44835D01*
X67369Y-44755D01*
X67276Y-44755D01*
X67276Y-44092D01*
X67396Y-43973D01*
X67451Y-43839D01*
X67506Y-43972D01*
X67653Y-44120D01*
X67846Y-44200D01*
X68055Y-44200D01*
X68248Y-44120D01*
X68396Y-43973D01*
X68476Y-43780D01*
X68476Y-43571D01*
X68475Y-43568D01*
X68475Y-41000D01*
X68475Y-40901D01*
X68475Y-40351D01*
X68437Y-40259D01*
X68367Y-40189D01*
X68276Y-40151D01*
X68276Y-39175D01*
X68339Y-39113D01*
X68419Y-38920D01*
X68419Y-38711D01*
X68339Y-38518D01*
X68192Y-38370D01*
X68164Y-38358D01*
X68164Y-37092D01*
X67894Y-36822D01*
X67887Y-36829D01*
X67887Y-36815D01*
X67617Y-36545D01*
X67548Y-36570D01*
X67480Y-36721D01*
X67476Y-36886D01*
X67535Y-37041D01*
X67548Y-37060D01*
X67617Y-37085D01*
X67887Y-36815D01*
X67887Y-36829D01*
X67624Y-37092D01*
X67649Y-37161D01*
X67800Y-37229D01*
X67965Y-37233D01*
X68120Y-37174D01*
X68139Y-37161D01*
X68164Y-37092D01*
X68164Y-38358D01*
X67999Y-38290D01*
X67790Y-38290D01*
X67597Y-38370D01*
X67449Y-38517D01*
X67369Y-38710D01*
X67369Y-38919D01*
X67449Y-39112D01*
X67596Y-39260D01*
X67626Y-39272D01*
X67626Y-40151D01*
X67535Y-40189D01*
X67465Y-40259D01*
X67427Y-40350D01*
X67427Y-40449D01*
X67427Y-40999D01*
X67465Y-41091D01*
X67535Y-41161D01*
X67626Y-41199D01*
X67725Y-41199D01*
X68275Y-41199D01*
X68367Y-41161D01*
X68437Y-41091D01*
X68475Y-41000D01*
X68475Y-43568D01*
X68396Y-43378D01*
X68249Y-43230D01*
X68056Y-43150D01*
X67847Y-43150D01*
X67654Y-43230D01*
X67506Y-43377D01*
X67450Y-43510D01*
X67396Y-43378D01*
X67369Y-43350D01*
X67369Y-40604D01*
X67310Y-40449D01*
X67297Y-40430D01*
X67228Y-40405D01*
X67221Y-40412D01*
X67221Y-40398D01*
X67196Y-40329D01*
X67045Y-40261D01*
X66880Y-40257D01*
X66725Y-40316D01*
X66706Y-40329D01*
X66681Y-40398D01*
X66951Y-40668D01*
X67221Y-40398D01*
X67221Y-40412D01*
X66958Y-40675D01*
X67228Y-40945D01*
X67297Y-40920D01*
X67365Y-40769D01*
X67369Y-40604D01*
X67369Y-43350D01*
X67249Y-43230D01*
X67221Y-43218D01*
X67221Y-40952D01*
X66951Y-40682D01*
X66944Y-40689D01*
X66944Y-40675D01*
X66674Y-40405D01*
X66605Y-40430D01*
X66537Y-40581D01*
X66533Y-40746D01*
X66592Y-40901D01*
X66605Y-40920D01*
X66674Y-40945D01*
X66944Y-40675D01*
X66944Y-40689D01*
X66681Y-40952D01*
X66706Y-41021D01*
X66857Y-41089D01*
X67022Y-41093D01*
X67177Y-41034D01*
X67196Y-41021D01*
X67221Y-40952D01*
X67221Y-43218D01*
X67056Y-43150D01*
X66847Y-43150D01*
X66654Y-43230D01*
X66506Y-43377D01*
X66476Y-43448D01*
X66476Y-40780D01*
X66476Y-40571D01*
X66396Y-40378D01*
X66249Y-40230D01*
X66056Y-40150D01*
X65847Y-40150D01*
X65654Y-40230D01*
X65506Y-40377D01*
X65426Y-40570D01*
X65426Y-40779D01*
X65506Y-40972D01*
X65653Y-41120D01*
X65846Y-41200D01*
X66055Y-41200D01*
X66248Y-41120D01*
X66396Y-40973D01*
X66476Y-40780D01*
X66476Y-43448D01*
X66450Y-43510D01*
X66396Y-43378D01*
X66249Y-43230D01*
X66056Y-43150D01*
X65847Y-43150D01*
X65654Y-43230D01*
X65506Y-43377D01*
X65450Y-43510D01*
X65396Y-43378D01*
X65369Y-43350D01*
X65369Y-40604D01*
X65310Y-40449D01*
X65297Y-40430D01*
X65228Y-40405D01*
X64958Y-40675D01*
X65228Y-40945D01*
X65297Y-40920D01*
X65365Y-40769D01*
X65369Y-40604D01*
X65369Y-43350D01*
X65249Y-43230D01*
X65056Y-43150D01*
X64847Y-43150D01*
X64654Y-43230D01*
X64506Y-43377D01*
X64450Y-43510D01*
X64396Y-43378D01*
X64249Y-43230D01*
X64056Y-43150D01*
X63847Y-43150D01*
X63654Y-43230D01*
X63506Y-43377D01*
X63450Y-43510D01*
X63396Y-43378D01*
X63249Y-43230D01*
X63056Y-43150D01*
X62847Y-43150D01*
X62654Y-43230D01*
X62506Y-43377D01*
X62450Y-43510D01*
X62396Y-43378D01*
X62249Y-43230D01*
X62056Y-43150D01*
X61847Y-43150D01*
X61654Y-43230D01*
X61506Y-43377D01*
X61450Y-43510D01*
X61396Y-43378D01*
X61249Y-43230D01*
X61056Y-43150D01*
X60847Y-43150D01*
X60776Y-43179D01*
X60776Y-41954D01*
X63834Y-41954D01*
X63958Y-41929D01*
X64064Y-41859D01*
X64681Y-41242D01*
X64681Y-41241D01*
X64682Y-41241D01*
X64751Y-41136D01*
X64752Y-41135D01*
X64769Y-41049D01*
X64857Y-41089D01*
X65022Y-41093D01*
X65177Y-41034D01*
X65196Y-41021D01*
X65221Y-40952D01*
X64986Y-40717D01*
X64951Y-40682D01*
X64944Y-40675D01*
X64951Y-40668D01*
X64986Y-40633D01*
X65221Y-40398D01*
X65196Y-40329D01*
X65053Y-40264D01*
X66017Y-39301D01*
X66187Y-39301D01*
X66380Y-39221D01*
X66528Y-39074D01*
X66608Y-38881D01*
X66608Y-38672D01*
X66528Y-38479D01*
X66501Y-38451D01*
X66501Y-36705D01*
X66442Y-36550D01*
X66429Y-36531D01*
X66360Y-36506D01*
X66353Y-36513D01*
X66353Y-36499D01*
X66328Y-36430D01*
X66177Y-36362D01*
X66012Y-36358D01*
X65857Y-36417D01*
X65838Y-36430D01*
X65813Y-36499D01*
X66083Y-36769D01*
X66353Y-36499D01*
X66353Y-36513D01*
X66090Y-36776D01*
X66360Y-37046D01*
X66429Y-37021D01*
X66497Y-36870D01*
X66501Y-36705D01*
X66501Y-38451D01*
X66381Y-38331D01*
X66353Y-38319D01*
X66353Y-37053D01*
X66083Y-36783D01*
X66076Y-36790D01*
X66076Y-36776D01*
X65806Y-36506D01*
X65737Y-36531D01*
X65669Y-36682D01*
X65665Y-36847D01*
X65724Y-37002D01*
X65737Y-37021D01*
X65806Y-37046D01*
X66076Y-36776D01*
X66076Y-36790D01*
X65813Y-37053D01*
X65838Y-37122D01*
X65989Y-37190D01*
X66154Y-37194D01*
X66309Y-37135D01*
X66328Y-37122D01*
X66353Y-37053D01*
X66353Y-38319D01*
X66188Y-38251D01*
X65979Y-38251D01*
X65786Y-38331D01*
X65638Y-38478D01*
X65558Y-38671D01*
X65558Y-38841D01*
X64222Y-40177D01*
X64200Y-40209D01*
X64056Y-40150D01*
X63847Y-40150D01*
X63654Y-40230D01*
X63506Y-40377D01*
X63450Y-40510D01*
X63396Y-40378D01*
X63249Y-40230D01*
X63056Y-40150D01*
X62885Y-40150D01*
X62444Y-39708D01*
X62444Y-32041D01*
X62435Y-31998D01*
X62947Y-31998D01*
X62931Y-32005D01*
X62780Y-32157D01*
X62697Y-32355D01*
X62697Y-32570D01*
X62697Y-32998D01*
X62779Y-33197D01*
X62931Y-33348D01*
X63129Y-33431D01*
X63344Y-33431D01*
X63543Y-33349D01*
X63694Y-33197D01*
X63736Y-33094D01*
X63779Y-33197D01*
X63931Y-33348D01*
X64129Y-33431D01*
X64344Y-33431D01*
X64543Y-33349D01*
X64694Y-33197D01*
X64736Y-33094D01*
X64779Y-33197D01*
X64912Y-33329D01*
X64912Y-33355D01*
X64937Y-33479D01*
X65007Y-33585D01*
X67820Y-36397D01*
X67668Y-36456D01*
X67649Y-36469D01*
X67624Y-36538D01*
X67859Y-36773D01*
X67894Y-36808D01*
X67901Y-36815D01*
X67936Y-36850D01*
X68171Y-37085D01*
X68240Y-37060D01*
X68308Y-36909D01*
X68308Y-36885D01*
X68314Y-36891D01*
X68316Y-36894D01*
X68421Y-36963D01*
X68422Y-36964D01*
X68546Y-36989D01*
X74390Y-36989D01*
X74530Y-37129D01*
X74732Y-37213D01*
X74950Y-37213D01*
X75015Y-37185D01*
X75015Y-37406D01*
X74930Y-37491D01*
X74732Y-37491D01*
X74530Y-37575D01*
X74376Y-37729D01*
X74292Y-37931D01*
X74292Y-38149D01*
X74376Y-38351D01*
X74530Y-38505D01*
X74732Y-38589D01*
X74950Y-38589D01*
X75152Y-38505D01*
X75269Y-38388D01*
X75269Y-38532D01*
X74930Y-38871D01*
X74732Y-38871D01*
X74530Y-38955D01*
X74376Y-39109D01*
X74292Y-39311D01*
X74292Y-39529D01*
X74376Y-39731D01*
X74530Y-39885D01*
X74732Y-39969D01*
X74950Y-39969D01*
X75152Y-39885D01*
X75306Y-39731D01*
X75390Y-39529D01*
X75390Y-39330D01*
X75821Y-38898D01*
X75823Y-38897D01*
X75824Y-38897D01*
X75893Y-38792D01*
X75894Y-38791D01*
X75895Y-38786D01*
X75895Y-52350D01*
X75895Y-52350D01*
G37*
G54D17*
X75895Y-52350D02*
X75392Y-52350D01*
X75392Y-50553D01*
X75392Y-50335D01*
X75391Y-50332D01*
X75391Y-49176D01*
X75391Y-48958D01*
X75391Y-46418D01*
X75391Y-46200D01*
X75391Y-45040D01*
X75391Y-44822D01*
X75391Y-43664D01*
X75391Y-43446D01*
X75391Y-42285D01*
X75391Y-42067D01*
X75390Y-42064D01*
X75390Y-40907D01*
X75390Y-40689D01*
X75306Y-40487D01*
X75152Y-40333D01*
X74950Y-40249D01*
X74732Y-40249D01*
X74530Y-40333D01*
X74376Y-40487D01*
X74292Y-40689D01*
X74292Y-40907D01*
X74376Y-41109D01*
X74530Y-41263D01*
X74732Y-41347D01*
X74950Y-41347D01*
X75152Y-41263D01*
X75306Y-41109D01*
X75390Y-40907D01*
X75390Y-42064D01*
X75307Y-41865D01*
X75153Y-41711D01*
X74951Y-41627D01*
X74733Y-41627D01*
X74531Y-41711D01*
X74377Y-41865D01*
X74293Y-42067D01*
X74293Y-42285D01*
X74377Y-42487D01*
X74531Y-42641D01*
X74733Y-42725D01*
X74951Y-42725D01*
X75153Y-42641D01*
X75307Y-42487D01*
X75391Y-42285D01*
X75391Y-43446D01*
X75307Y-43244D01*
X75153Y-43090D01*
X74951Y-43006D01*
X74733Y-43006D01*
X74531Y-43090D01*
X74377Y-43244D01*
X74293Y-43446D01*
X74293Y-43664D01*
X74377Y-43866D01*
X74531Y-44020D01*
X74733Y-44104D01*
X74951Y-44104D01*
X75153Y-44020D01*
X75307Y-43866D01*
X75391Y-43664D01*
X75391Y-44822D01*
X75307Y-44620D01*
X75153Y-44466D01*
X74951Y-44382D01*
X74733Y-44382D01*
X74531Y-44466D01*
X74377Y-44620D01*
X74293Y-44822D01*
X74293Y-45040D01*
X74377Y-45242D01*
X74531Y-45396D01*
X74733Y-45480D01*
X74951Y-45480D01*
X75153Y-45396D01*
X75307Y-45242D01*
X75391Y-45040D01*
X75391Y-46200D01*
X75307Y-45998D01*
X75153Y-45844D01*
X74951Y-45760D01*
X74733Y-45760D01*
X74531Y-45844D01*
X74377Y-45998D01*
X74293Y-46200D01*
X74293Y-46418D01*
X74377Y-46620D01*
X74531Y-46774D01*
X74733Y-46858D01*
X74951Y-46858D01*
X75153Y-46774D01*
X75307Y-46620D01*
X75391Y-46418D01*
X75391Y-48958D01*
X75390Y-48955D01*
X75390Y-47795D01*
X75390Y-47577D01*
X75306Y-47375D01*
X75152Y-47221D01*
X74950Y-47137D01*
X74732Y-47137D01*
X74530Y-47221D01*
X74376Y-47375D01*
X74292Y-47577D01*
X74292Y-47795D01*
X74376Y-47997D01*
X74530Y-48151D01*
X74732Y-48235D01*
X74950Y-48235D01*
X75152Y-48151D01*
X75306Y-47997D01*
X75390Y-47795D01*
X75390Y-48955D01*
X75307Y-48756D01*
X75153Y-48602D01*
X74951Y-48518D01*
X74733Y-48518D01*
X74531Y-48602D01*
X74377Y-48756D01*
X74293Y-48958D01*
X74293Y-49176D01*
X74377Y-49378D01*
X74531Y-49532D01*
X74733Y-49616D01*
X74951Y-49616D01*
X75153Y-49532D01*
X75307Y-49378D01*
X75391Y-49176D01*
X75391Y-50332D01*
X75308Y-50133D01*
X75154Y-49979D01*
X74952Y-49895D01*
X74734Y-49895D01*
X74532Y-49979D01*
X74378Y-50133D01*
X74294Y-50335D01*
X74294Y-50553D01*
X74378Y-50755D01*
X74532Y-50909D01*
X74734Y-50993D01*
X74952Y-50993D01*
X75154Y-50909D01*
X75308Y-50755D01*
X75392Y-50553D01*
X75392Y-52350D01*
X72262Y-52350D01*
X72262Y-49882D01*
X72262Y-49474D01*
X72262Y-38882D01*
X72262Y-38474D01*
X72106Y-38097D01*
X71818Y-37809D01*
X71442Y-37652D01*
X71034Y-37652D01*
X70657Y-37808D01*
X70369Y-38096D01*
X70212Y-38472D01*
X70212Y-38880D01*
X70368Y-39257D01*
X70656Y-39545D01*
X71032Y-39702D01*
X71440Y-39702D01*
X71817Y-39546D01*
X72105Y-39258D01*
X72262Y-38882D01*
X72262Y-49474D01*
X72106Y-49097D01*
X71818Y-48809D01*
X71442Y-48652D01*
X71034Y-48652D01*
X70657Y-48808D01*
X70369Y-49096D01*
X70212Y-49472D01*
X70212Y-49880D01*
X70368Y-50257D01*
X70656Y-50545D01*
X71032Y-50702D01*
X71440Y-50702D01*
X71817Y-50546D01*
X72105Y-50258D01*
X72262Y-49882D01*
X72262Y-52350D01*
X70540Y-52350D01*
X70543Y-52349D01*
X70694Y-52197D01*
X70777Y-51999D01*
X70777Y-51784D01*
X70777Y-51356D01*
X70695Y-51157D01*
X70543Y-51006D01*
X70345Y-50923D01*
X70130Y-50923D01*
X69931Y-51005D01*
X69780Y-51157D01*
X69737Y-51259D01*
X69695Y-51157D01*
X69543Y-51006D01*
X69345Y-50923D01*
X69130Y-50923D01*
X68931Y-51005D01*
X68780Y-51157D01*
X68737Y-51259D01*
X68695Y-51157D01*
X68543Y-51006D01*
X68345Y-50923D01*
X68130Y-50923D01*
X67931Y-51005D01*
X67780Y-51157D01*
X67737Y-51259D01*
X67695Y-51157D01*
X67682Y-51144D01*
X67682Y-47209D01*
X67623Y-47054D01*
X67610Y-47035D01*
X67541Y-47010D01*
X67534Y-47017D01*
X67534Y-47003D01*
X67509Y-46934D01*
X67358Y-46866D01*
X67193Y-46862D01*
X67038Y-46921D01*
X67019Y-46934D01*
X66994Y-47003D01*
X67264Y-47273D01*
X67534Y-47003D01*
X67534Y-47017D01*
X67271Y-47280D01*
X67541Y-47550D01*
X67610Y-47525D01*
X67678Y-47374D01*
X67682Y-47209D01*
X67682Y-51144D01*
X67543Y-51006D01*
X67534Y-51002D01*
X67534Y-47557D01*
X67264Y-47287D01*
X67257Y-47294D01*
X67257Y-47280D01*
X66987Y-47010D01*
X66918Y-47035D01*
X66850Y-47186D01*
X66846Y-47351D01*
X66905Y-47506D01*
X66918Y-47525D01*
X66987Y-47550D01*
X67257Y-47280D01*
X67257Y-47294D01*
X66994Y-47557D01*
X67019Y-47626D01*
X67170Y-47694D01*
X67335Y-47698D01*
X67490Y-47639D01*
X67509Y-47626D01*
X67534Y-47557D01*
X67534Y-51002D01*
X67345Y-50923D01*
X67130Y-50923D01*
X66931Y-51005D01*
X66780Y-51157D01*
X66737Y-51259D01*
X66695Y-51157D01*
X66543Y-51006D01*
X66345Y-50923D01*
X66130Y-50923D01*
X65931Y-51005D01*
X65780Y-51157D01*
X65737Y-51259D01*
X65695Y-51157D01*
X65543Y-51006D01*
X65345Y-50923D01*
X65130Y-50923D01*
X65103Y-50934D01*
X65103Y-46354D01*
X65044Y-46199D01*
X65031Y-46180D01*
X64962Y-46155D01*
X64955Y-46162D01*
X64955Y-46148D01*
X64930Y-46079D01*
X64779Y-46011D01*
X64614Y-46007D01*
X64459Y-46066D01*
X64440Y-46079D01*
X64415Y-46148D01*
X64685Y-46418D01*
X64955Y-46148D01*
X64955Y-46162D01*
X64692Y-46425D01*
X64962Y-46695D01*
X65031Y-46670D01*
X65099Y-46519D01*
X65103Y-46354D01*
X65103Y-50934D01*
X64955Y-50995D01*
X64955Y-46702D01*
X64685Y-46432D01*
X64678Y-46439D01*
X64678Y-46425D01*
X64408Y-46155D01*
X64339Y-46180D01*
X64271Y-46331D01*
X64267Y-46496D01*
X64326Y-46651D01*
X64339Y-46670D01*
X64408Y-46695D01*
X64678Y-46425D01*
X64678Y-46439D01*
X64415Y-46702D01*
X64440Y-46771D01*
X64591Y-46839D01*
X64756Y-46843D01*
X64911Y-46784D01*
X64930Y-46771D01*
X64955Y-46702D01*
X64955Y-50995D01*
X64931Y-51005D01*
X64780Y-51157D01*
X64697Y-51355D01*
X64697Y-51570D01*
X64697Y-51998D01*
X64779Y-52197D01*
X64931Y-52348D01*
X64935Y-52350D01*
X63540Y-52350D01*
X63543Y-52349D01*
X63694Y-52197D01*
X63777Y-51999D01*
X63777Y-51784D01*
X63777Y-51356D01*
X63695Y-51157D01*
X63543Y-51006D01*
X63345Y-50923D01*
X63130Y-50923D01*
X62931Y-51005D01*
X62780Y-51157D01*
X62737Y-51259D01*
X62695Y-51157D01*
X62543Y-51006D01*
X62345Y-50923D01*
X62130Y-50923D01*
X61931Y-51005D01*
X61780Y-51157D01*
X61697Y-51355D01*
X61697Y-51570D01*
X61697Y-51998D01*
X61779Y-52197D01*
X61931Y-52348D01*
X61935Y-52350D01*
X61687Y-52350D01*
X61687Y-51972D01*
X61687Y-51682D01*
X61687Y-51672D01*
X61687Y-51382D01*
X61616Y-51217D01*
X61488Y-51092D01*
X61312Y-51034D01*
X61242Y-51065D01*
X61242Y-51672D01*
X61687Y-51672D01*
X61687Y-51682D01*
X61242Y-51682D01*
X61242Y-52289D01*
X61312Y-52320D01*
X61488Y-52262D01*
X61616Y-52137D01*
X61687Y-51972D01*
X61687Y-52350D01*
X61232Y-52350D01*
X61232Y-52289D01*
X61232Y-51682D01*
X61232Y-51672D01*
X61232Y-51065D01*
X61162Y-51034D01*
X60986Y-51092D01*
X60858Y-51217D01*
X60787Y-51382D01*
X60787Y-51672D01*
X61232Y-51672D01*
X61232Y-51682D01*
X60787Y-51682D01*
X60787Y-51972D01*
X60858Y-52137D01*
X60986Y-52262D01*
X61162Y-52320D01*
X61232Y-52289D01*
X61232Y-52350D01*
X60540Y-52350D01*
X60543Y-52349D01*
X60694Y-52197D01*
X60777Y-51999D01*
X60777Y-51784D01*
X60777Y-51356D01*
X60695Y-51157D01*
X60616Y-51078D01*
X60678Y-51016D01*
X60680Y-51015D01*
X60681Y-51015D01*
X60750Y-50910D01*
X60751Y-50909D01*
X60776Y-50785D01*
X60776Y-44170D01*
X60846Y-44200D01*
X61055Y-44200D01*
X61248Y-44120D01*
X61396Y-43973D01*
X61451Y-43839D01*
X61506Y-43972D01*
X61653Y-44120D01*
X61846Y-44200D01*
X62055Y-44200D01*
X62248Y-44120D01*
X62396Y-43973D01*
X62451Y-43839D01*
X62506Y-43972D01*
X62653Y-44120D01*
X62846Y-44200D01*
X63055Y-44200D01*
X63248Y-44120D01*
X63396Y-43973D01*
X63451Y-43839D01*
X63506Y-43972D01*
X63653Y-44120D01*
X63846Y-44200D01*
X64055Y-44200D01*
X64248Y-44120D01*
X64396Y-43973D01*
X64451Y-43839D01*
X64506Y-43972D01*
X64626Y-44092D01*
X64626Y-44900D01*
X64581Y-44900D01*
X64388Y-44980D01*
X64240Y-45127D01*
X64160Y-45320D01*
X64160Y-45529D01*
X64240Y-45722D01*
X64387Y-45870D01*
X64580Y-45950D01*
X64789Y-45950D01*
X64982Y-45870D01*
X65130Y-45723D01*
X65210Y-45530D01*
X65210Y-45345D01*
X65251Y-45284D01*
X65251Y-45283D01*
X65276Y-45159D01*
X65276Y-44092D01*
X65396Y-43973D01*
X65451Y-43839D01*
X65506Y-43972D01*
X65653Y-44120D01*
X65846Y-44200D01*
X66055Y-44200D01*
X66248Y-44120D01*
X66396Y-43973D01*
X66451Y-43839D01*
X66506Y-43972D01*
X66626Y-44092D01*
X66626Y-44967D01*
X66651Y-45091D01*
X66721Y-45197D01*
X66739Y-45214D01*
X66739Y-45384D01*
X66819Y-45577D01*
X66966Y-45725D01*
X67159Y-45805D01*
X67368Y-45805D01*
X67561Y-45725D01*
X67709Y-45578D01*
X67789Y-45385D01*
X67789Y-45176D01*
X67709Y-44983D01*
X67562Y-44835D01*
X67369Y-44755D01*
X67276Y-44755D01*
X67276Y-44092D01*
X67396Y-43973D01*
X67451Y-43839D01*
X67506Y-43972D01*
X67653Y-44120D01*
X67846Y-44200D01*
X68055Y-44200D01*
X68248Y-44120D01*
X68396Y-43973D01*
X68476Y-43780D01*
X68476Y-43571D01*
X68475Y-43568D01*
X68475Y-41000D01*
X68475Y-40901D01*
X68475Y-40351D01*
X68437Y-40259D01*
X68367Y-40189D01*
X68276Y-40151D01*
X68276Y-39175D01*
X68339Y-39113D01*
X68419Y-38920D01*
X68419Y-38711D01*
X68339Y-38518D01*
X68192Y-38370D01*
X68164Y-38358D01*
X68164Y-37092D01*
X67894Y-36822D01*
X67887Y-36829D01*
X67887Y-36815D01*
X67617Y-36545D01*
X67548Y-36570D01*
X67480Y-36721D01*
X67476Y-36886D01*
X67535Y-37041D01*
X67548Y-37060D01*
X67617Y-37085D01*
X67887Y-36815D01*
X67887Y-36829D01*
X67624Y-37092D01*
X67649Y-37161D01*
X67800Y-37229D01*
X67965Y-37233D01*
X68120Y-37174D01*
X68139Y-37161D01*
X68164Y-37092D01*
X68164Y-38358D01*
X67999Y-38290D01*
X67790Y-38290D01*
X67597Y-38370D01*
X67449Y-38517D01*
X67369Y-38710D01*
X67369Y-38919D01*
X67449Y-39112D01*
X67596Y-39260D01*
X67626Y-39272D01*
X67626Y-40151D01*
X67535Y-40189D01*
X67465Y-40259D01*
X67427Y-40350D01*
X67427Y-40449D01*
X67427Y-40999D01*
X67465Y-41091D01*
X67535Y-41161D01*
X67626Y-41199D01*
X67725Y-41199D01*
X68275Y-41199D01*
X68367Y-41161D01*
X68437Y-41091D01*
X68475Y-41000D01*
X68475Y-43568D01*
X68396Y-43378D01*
X68249Y-43230D01*
X68056Y-43150D01*
X67847Y-43150D01*
X67654Y-43230D01*
X67506Y-43377D01*
X67450Y-43510D01*
X67396Y-43378D01*
X67369Y-43350D01*
X67369Y-40604D01*
X67310Y-40449D01*
X67297Y-40430D01*
X67228Y-40405D01*
X67221Y-40412D01*
X67221Y-40398D01*
X67196Y-40329D01*
X67045Y-40261D01*
X66880Y-40257D01*
X66725Y-40316D01*
X66706Y-40329D01*
X66681Y-40398D01*
X66951Y-40668D01*
X67221Y-40398D01*
X67221Y-40412D01*
X66958Y-40675D01*
X67228Y-40945D01*
X67297Y-40920D01*
X67365Y-40769D01*
X67369Y-40604D01*
X67369Y-43350D01*
X67249Y-43230D01*
X67221Y-43218D01*
X67221Y-40952D01*
X66951Y-40682D01*
X66944Y-40689D01*
X66944Y-40675D01*
X66674Y-40405D01*
X66605Y-40430D01*
X66537Y-40581D01*
X66533Y-40746D01*
X66592Y-40901D01*
X66605Y-40920D01*
X66674Y-40945D01*
X66944Y-40675D01*
X66944Y-40689D01*
X66681Y-40952D01*
X66706Y-41021D01*
X66857Y-41089D01*
X67022Y-41093D01*
X67177Y-41034D01*
X67196Y-41021D01*
X67221Y-40952D01*
X67221Y-43218D01*
X67056Y-43150D01*
X66847Y-43150D01*
X66654Y-43230D01*
X66506Y-43377D01*
X66476Y-43448D01*
X66476Y-40780D01*
X66476Y-40571D01*
X66396Y-40378D01*
X66249Y-40230D01*
X66056Y-40150D01*
X65847Y-40150D01*
X65654Y-40230D01*
X65506Y-40377D01*
X65426Y-40570D01*
X65426Y-40779D01*
X65506Y-40972D01*
X65653Y-41120D01*
X65846Y-41200D01*
X66055Y-41200D01*
X66248Y-41120D01*
X66396Y-40973D01*
X66476Y-40780D01*
X66476Y-43448D01*
X66450Y-43510D01*
X66396Y-43378D01*
X66249Y-43230D01*
X66056Y-43150D01*
X65847Y-43150D01*
X65654Y-43230D01*
X65506Y-43377D01*
X65450Y-43510D01*
X65396Y-43378D01*
X65369Y-43350D01*
X65369Y-40604D01*
X65310Y-40449D01*
X65297Y-40430D01*
X65228Y-40405D01*
X64958Y-40675D01*
X65228Y-40945D01*
X65297Y-40920D01*
X65365Y-40769D01*
X65369Y-40604D01*
X65369Y-43350D01*
X65249Y-43230D01*
X65056Y-43150D01*
X64847Y-43150D01*
X64654Y-43230D01*
X64506Y-43377D01*
X64450Y-43510D01*
X64396Y-43378D01*
X64249Y-43230D01*
X64056Y-43150D01*
X63847Y-43150D01*
X63654Y-43230D01*
X63506Y-43377D01*
X63450Y-43510D01*
X63396Y-43378D01*
X63249Y-43230D01*
X63056Y-43150D01*
X62847Y-43150D01*
X62654Y-43230D01*
X62506Y-43377D01*
X62450Y-43510D01*
X62396Y-43378D01*
X62249Y-43230D01*
X62056Y-43150D01*
X61847Y-43150D01*
X61654Y-43230D01*
X61506Y-43377D01*
X61450Y-43510D01*
X61396Y-43378D01*
X61249Y-43230D01*
X61056Y-43150D01*
X60847Y-43150D01*
X60776Y-43179D01*
X60776Y-41954D01*
X63834Y-41954D01*
X63958Y-41929D01*
X64064Y-41859D01*
X64681Y-41242D01*
X64681Y-41241D01*
X64682Y-41241D01*
X64751Y-41136D01*
X64752Y-41135D01*
X64769Y-41049D01*
X64857Y-41089D01*
X65022Y-41093D01*
X65177Y-41034D01*
X65196Y-41021D01*
X65221Y-40952D01*
X64986Y-40717D01*
X64951Y-40682D01*
X64944Y-40675D01*
X64951Y-40668D01*
X64986Y-40633D01*
X65221Y-40398D01*
X65196Y-40329D01*
X65053Y-40264D01*
X66017Y-39301D01*
X66187Y-39301D01*
X66380Y-39221D01*
X66528Y-39074D01*
X66608Y-38881D01*
X66608Y-38672D01*
X66528Y-38479D01*
X66501Y-38451D01*
X66501Y-36705D01*
X66442Y-36550D01*
X66429Y-36531D01*
X66360Y-36506D01*
X66353Y-36513D01*
X66353Y-36499D01*
X66328Y-36430D01*
X66177Y-36362D01*
X66012Y-36358D01*
X65857Y-36417D01*
X65838Y-36430D01*
X65813Y-36499D01*
X66083Y-36769D01*
X66353Y-36499D01*
X66353Y-36513D01*
X66090Y-36776D01*
X66360Y-37046D01*
X66429Y-37021D01*
X66497Y-36870D01*
X66501Y-36705D01*
X66501Y-38451D01*
X66381Y-38331D01*
X66353Y-38319D01*
X66353Y-37053D01*
X66083Y-36783D01*
X66076Y-36790D01*
X66076Y-36776D01*
X65806Y-36506D01*
X65737Y-36531D01*
X65669Y-36682D01*
X65665Y-36847D01*
X65724Y-37002D01*
X65737Y-37021D01*
X65806Y-37046D01*
X66076Y-36776D01*
X66076Y-36790D01*
X65813Y-37053D01*
X65838Y-37122D01*
X65989Y-37190D01*
X66154Y-37194D01*
X66309Y-37135D01*
X66328Y-37122D01*
X66353Y-37053D01*
X66353Y-38319D01*
X66188Y-38251D01*
X65979Y-38251D01*
X65786Y-38331D01*
X65638Y-38478D01*
X65558Y-38671D01*
X65558Y-38841D01*
X64222Y-40177D01*
X64200Y-40209D01*
X64056Y-40150D01*
X63847Y-40150D01*
X63654Y-40230D01*
X63506Y-40377D01*
X63450Y-40510D01*
X63396Y-40378D01*
X63249Y-40230D01*
X63056Y-40150D01*
X62885Y-40150D01*
X62444Y-39708D01*
X62444Y-32041D01*
X62435Y-31998D01*
X62947Y-31998D01*
X62931Y-32005D01*
X62780Y-32157D01*
X62697Y-32355D01*
X62697Y-32570D01*
X62697Y-32998D01*
X62779Y-33197D01*
X62931Y-33348D01*
X63129Y-33431D01*
X63344Y-33431D01*
X63543Y-33349D01*
X63694Y-33197D01*
X63736Y-33094D01*
X63779Y-33197D01*
X63931Y-33348D01*
X64129Y-33431D01*
X64344Y-33431D01*
X64543Y-33349D01*
X64694Y-33197D01*
X64736Y-33094D01*
X64779Y-33197D01*
X64912Y-33329D01*
X64912Y-33355D01*
X64937Y-33479D01*
X65007Y-33585D01*
X67820Y-36397D01*
X67668Y-36456D01*
X67649Y-36469D01*
X67624Y-36538D01*
X67859Y-36773D01*
X67894Y-36808D01*
X67901Y-36815D01*
X67936Y-36850D01*
X68171Y-37085D01*
X68240Y-37060D01*
X68308Y-36909D01*
X68308Y-36885D01*
X68314Y-36891D01*
X68316Y-36894D01*
X68421Y-36963D01*
X68422Y-36964D01*
X68546Y-36989D01*
X74390Y-36989D01*
X74530Y-37129D01*
X74732Y-37213D01*
X74950Y-37213D01*
X75015Y-37185D01*
X75015Y-37406D01*
X74930Y-37491D01*
X74732Y-37491D01*
X74530Y-37575D01*
X74376Y-37729D01*
X74292Y-37931D01*
X74292Y-38149D01*
X74376Y-38351D01*
X74530Y-38505D01*
X74732Y-38589D01*
X74950Y-38589D01*
X75152Y-38505D01*
X75269Y-38388D01*
X75269Y-38532D01*
X74930Y-38871D01*
X74732Y-38871D01*
X74530Y-38955D01*
X74376Y-39109D01*
X74292Y-39311D01*
X74292Y-39529D01*
X74376Y-39731D01*
X74530Y-39885D01*
X74732Y-39969D01*
X74950Y-39969D01*
X75152Y-39885D01*
X75306Y-39731D01*
X75390Y-39529D01*
X75390Y-39330D01*
X75821Y-38898D01*
X75823Y-38897D01*
X75824Y-38897D01*
X75893Y-38792D01*
X75894Y-38791D01*
X75895Y-38786D01*
X75895Y-52350D01*
M02*
