M48
;DRILL file {PCBnew (2011-aug-04)-testing} date Mon 24 Sep 2012 02:42:27 PM PDT
;FORMAT={2:4/ absolute / inch / suppress trailing zeros}
FMAT,2
INCH,LZ
T1C0.032
T2C0.035
T3C0.125
%
G90
G05
M72
T1
X054637Y-032677
X055637Y-032677
X056637Y-032677
X056951Y-040675
X056951Y-043675
X057637Y-032677
X057951Y-040675
X057951Y-043675
X058237Y-051677
X058637Y-032677
X058951Y-040675
X058951Y-043675
X059237Y-051677
X059637Y-032677
X059951Y-040675
X059951Y-043675
X060237Y-051677
X060637Y-032677
X060951Y-040675
X060951Y-043675
X061237Y-051677
X061637Y-032677
X061951Y-040675
X061951Y-043675
X062237Y-051677
X062951Y-040675
X062951Y-043675
X063237Y-032677
X063237Y-051677
X063951Y-040675
X063951Y-043675
X064237Y-032677
X064685Y-045425
X064685Y-046425
X064951Y-040675
X064951Y-043675
X065237Y-032677
X065237Y-051677
X065951Y-040675
X065951Y-043675
X066083Y-036776
X066083Y-038776
X066237Y-032677
X066237Y-051677
X066951Y-040675
X066951Y-043675
X067237Y-032677
X067237Y-051677
X067264Y-04528
X067264Y-04728
X067894Y-036815
X067894Y-038815
X067951Y-040675
X067951Y-043675
X068237Y-032677
X068237Y-051677
X069237Y-032677
X069237Y-051677
X070237Y-032677
X070237Y-051677
T2
X07484Y-035286
X074841Y-033908
X074841Y-036664
X074841Y-03804
X074841Y-03942
X074841Y-040798
X074841Y-047686
X074842Y-042176
X074842Y-043555
X074842Y-044931
X074842Y-046309
X074842Y-049067
X074843Y-050444
T3
X050737Y-051677
X051237Y-032677
X071237Y-038677
X071237Y-049677
T0
M30
