G04 (created by PCBNEW-RS274X (2011-aug-04)-testing) date Mon 24 Sep 2012 11:27:46 AM PDT*
G01*
G70*
G90*
%MOIN*%
G04 Gerber Fmt 3.4, Leading zero omitted, Abs format*
%FSLAX34Y34*%
G04 APERTURE LIST*
%ADD10C,0.006000*%
%ADD11O,0.080000X0.120000*%
%ADD12C,0.175000*%
%ADD13R,0.075000X0.075000*%
%ADD14C,0.075000*%
%ADD15C,0.080000*%
G04 APERTURE END LIST*
G54D10*
G54D11*
X70237Y-51677D03*
X69237Y-51677D03*
X68237Y-51677D03*
X65237Y-51677D03*
X66237Y-51677D03*
X67237Y-51677D03*
X63237Y-51677D03*
X62237Y-51677D03*
X61237Y-51677D03*
X59237Y-51677D03*
X58237Y-51677D03*
X70237Y-32677D03*
X69237Y-32677D03*
X68237Y-32677D03*
X67237Y-32677D03*
X66237Y-32677D03*
X65237Y-32677D03*
X64237Y-32677D03*
X63237Y-32677D03*
X61637Y-32677D03*
X60637Y-32677D03*
X59637Y-32677D03*
X58637Y-32677D03*
X57637Y-32677D03*
X56637Y-32677D03*
X55637Y-32677D03*
X54637Y-32677D03*
X60237Y-51677D03*
G54D12*
X71237Y-49677D03*
X71237Y-38677D03*
X51237Y-32677D03*
X50737Y-51677D03*
G54D13*
X67951Y-40675D03*
G54D14*
X66951Y-40675D03*
X65951Y-40675D03*
X64951Y-40675D03*
X63951Y-40675D03*
X62951Y-40675D03*
X61951Y-40675D03*
X60951Y-40675D03*
X59951Y-40675D03*
X58951Y-40675D03*
X57951Y-40675D03*
X56951Y-40675D03*
X56951Y-43675D03*
X57951Y-43675D03*
X58951Y-43675D03*
X59951Y-43675D03*
X60951Y-43675D03*
X61951Y-43675D03*
X62951Y-43675D03*
X63951Y-43675D03*
X64951Y-43675D03*
X65951Y-43675D03*
X66951Y-43675D03*
X67951Y-43675D03*
X67264Y-45280D03*
X67264Y-47280D03*
X67894Y-38815D03*
X67894Y-36815D03*
X66083Y-38776D03*
X66083Y-36776D03*
X64685Y-45425D03*
X64685Y-46425D03*
G54D15*
X74843Y-50444D03*
X74842Y-49067D03*
X74841Y-47686D03*
X74842Y-46309D03*
X74842Y-44931D03*
X74842Y-43555D03*
X74842Y-42176D03*
X74841Y-40798D03*
X74841Y-39420D03*
X74841Y-38040D03*
X74840Y-35286D03*
X74841Y-36664D03*
X74841Y-33908D03*
M02*
