M48
;DRILL file {Pcbnew (2013-jul-07)-stable} date Thu 21 Dec 2017 03:26:56 PM PST
;FORMAT={-:-/ absolute / inch / decimal}
FMAT,2
INCH,TZ
T1C0.025
T2C0.032
T3C0.035
T4C0.125
%
G90
G05
M72
T1
X6.1285Y-3.6025
T2
X5.4637Y-3.2677
X5.5637Y-3.2677
X5.6637Y-3.2677
X5.6902Y-4.067
X5.6902Y-4.367
X5.7637Y-3.2677
X5.7902Y-4.067
X5.7902Y-4.367
X5.8237Y-5.1677
X5.8637Y-3.2677
X5.8902Y-4.067
X5.8902Y-4.367
X5.9237Y-5.1677
X5.9637Y-3.2677
X5.9902Y-4.067
X5.9902Y-4.367
X6.0237Y-5.1677
X6.0637Y-3.2677
X6.0902Y-4.067
X6.0902Y-4.367
X6.1237Y-5.1677
X6.1637Y-3.2677
X6.1902Y-4.067
X6.1902Y-4.367
X6.2237Y-5.1677
X6.2902Y-4.067
X6.2902Y-4.367
X6.3237Y-3.2677
X6.3237Y-5.1677
X6.3902Y-4.067
X6.3902Y-4.367
X6.4237Y-3.2677
X6.4783Y-4.6043
X6.4783Y-4.7043
X6.4902Y-4.067
X6.4902Y-4.367
X6.5237Y-3.2677
X6.5237Y-5.1677
X6.5902Y-4.067
X6.5902Y-4.367
X6.6237Y-3.2677
X6.6237Y-5.1677
X6.672Y-3.6142
X6.672Y-3.8142
X6.6902Y-4.067
X6.6902Y-4.367
X6.6988Y-4.5551
X6.6988Y-4.7551
X6.7237Y-3.2677
X6.7237Y-5.1677
X6.7902Y-4.067
X6.7902Y-4.367
X6.8237Y-3.2677
X6.8237Y-5.1677
X6.8882Y-3.6142
X6.8882Y-3.8142
X6.9237Y-3.2677
X6.9237Y-5.1677
X7.0237Y-3.2677
X7.0237Y-5.1677
T3
X7.584Y-3.5286
X7.5841Y-3.3908
X7.5841Y-3.6664
X7.5841Y-3.804
X7.5841Y-3.942
X7.5841Y-4.0798
X7.5841Y-4.7686
X7.5842Y-4.2176
X7.5842Y-4.3555
X7.5842Y-4.4931
X7.5842Y-4.6309
X7.5842Y-4.9067
X7.5843Y-5.0444
T4
X5.0737Y-5.1677
X5.1237Y-3.2677
X7.1237Y-3.8677
X7.1237Y-4.9677
T0
M30
