G04 (created by PCBNEW (2013-jul-07)-stable) date Thu 21 Dec 2017 03:26:52 PM PST*
%MOIN*%
G04 Gerber Fmt 3.4, Leading zero omitted, Abs format*
%FSLAX34Y34*%
G01*
G70*
G90*
G04 APERTURE LIST*
%ADD10C,0.00590551*%
%ADD11O,0.08X0.12*%
%ADD12C,0.175*%
%ADD13R,0.082X0.11*%
%ADD14O,0.082X0.11*%
%ADD15O,0.12X0.085*%
%ADD16C,0.085*%
G04 APERTURE END LIST*
G54D10*
G54D11*
X70237Y-51677D03*
X69237Y-51677D03*
X68237Y-51677D03*
X65237Y-51677D03*
X66237Y-51677D03*
X67237Y-51677D03*
X63237Y-51677D03*
X62237Y-51677D03*
X61237Y-51677D03*
X59237Y-51677D03*
X58237Y-51677D03*
X70237Y-32677D03*
X69237Y-32677D03*
X68237Y-32677D03*
X67237Y-32677D03*
X66237Y-32677D03*
X65237Y-32677D03*
X64237Y-32677D03*
X63237Y-32677D03*
X61637Y-32677D03*
X60637Y-32677D03*
X59637Y-32677D03*
X58637Y-32677D03*
X57637Y-32677D03*
X56637Y-32677D03*
X55637Y-32677D03*
X54637Y-32677D03*
X60237Y-51677D03*
G54D12*
X71237Y-49677D03*
X71237Y-38677D03*
X51237Y-32677D03*
X50737Y-51677D03*
G54D13*
X67901Y-40670D03*
G54D14*
X66901Y-40670D03*
X65901Y-40670D03*
X64901Y-40670D03*
X63901Y-40670D03*
X62901Y-40670D03*
X61901Y-40670D03*
X60901Y-40670D03*
X59901Y-40670D03*
X58901Y-40670D03*
X57901Y-40670D03*
X56901Y-40670D03*
X56901Y-43670D03*
X57901Y-43670D03*
X58901Y-43670D03*
X59901Y-43670D03*
X60901Y-43670D03*
X61901Y-43670D03*
X62901Y-43670D03*
X63901Y-43670D03*
X64901Y-43670D03*
X65901Y-43670D03*
X66901Y-43670D03*
X67901Y-43670D03*
G54D15*
X75843Y-50443D03*
X75842Y-49066D03*
X75841Y-47685D03*
X75842Y-46308D03*
X75842Y-44930D03*
X75842Y-43554D03*
X75842Y-42175D03*
X75841Y-40797D03*
X75841Y-39419D03*
X75841Y-38039D03*
X75840Y-35285D03*
X75841Y-36663D03*
X75841Y-33907D03*
G54D16*
X64783Y-46043D03*
X64783Y-47043D03*
X66988Y-45551D03*
X66988Y-47551D03*
X68881Y-38141D03*
X68881Y-36141D03*
X66720Y-38141D03*
X66720Y-36141D03*
M02*
