G04 (created by PCBNEW (2013-jul-07)-stable) date Thu 21 Dec 2017 03:26:52 PM PST*
%MOIN*%
G04 Gerber Fmt 3.4, Leading zero omitted, Abs format*
%FSLAX34Y34*%
G01*
G70*
G90*
G04 APERTURE LIST*
%ADD10C,0.00590551*%
%ADD11O,0.06X0.1*%
%ADD12C,0.155*%
%ADD13R,0.062X0.09*%
%ADD14O,0.062X0.09*%
%ADD15O,0.1X0.065*%
%ADD16C,0.065*%
%ADD17C,0.035*%
%ADD18C,0.02*%
%ADD19C,0.01*%
G04 APERTURE END LIST*
G54D10*
G54D11*
X70237Y-51677D03*
X69237Y-51677D03*
X68237Y-51677D03*
X65237Y-51677D03*
X66237Y-51677D03*
X67237Y-51677D03*
X63237Y-51677D03*
X62237Y-51677D03*
X61237Y-51677D03*
X59237Y-51677D03*
X58237Y-51677D03*
X70237Y-32677D03*
X69237Y-32677D03*
X68237Y-32677D03*
X67237Y-32677D03*
X66237Y-32677D03*
X65237Y-32677D03*
X64237Y-32677D03*
X63237Y-32677D03*
X61637Y-32677D03*
X60637Y-32677D03*
X59637Y-32677D03*
X58637Y-32677D03*
X57637Y-32677D03*
X56637Y-32677D03*
X55637Y-32677D03*
X54637Y-32677D03*
X60237Y-51677D03*
G54D12*
X71237Y-49677D03*
X71237Y-38677D03*
X51237Y-32677D03*
X50737Y-51677D03*
G54D13*
X67901Y-40670D03*
G54D14*
X66901Y-40670D03*
X65901Y-40670D03*
X64901Y-40670D03*
X63901Y-40670D03*
X62901Y-40670D03*
X61901Y-40670D03*
X60901Y-40670D03*
X59901Y-40670D03*
X58901Y-40670D03*
X57901Y-40670D03*
X56901Y-40670D03*
X56901Y-43670D03*
X57901Y-43670D03*
X58901Y-43670D03*
X59901Y-43670D03*
X60901Y-43670D03*
X61901Y-43670D03*
X62901Y-43670D03*
X63901Y-43670D03*
X64901Y-43670D03*
X65901Y-43670D03*
X66901Y-43670D03*
X67901Y-43670D03*
G54D15*
X75843Y-50443D03*
X75842Y-49066D03*
X75841Y-47685D03*
X75842Y-46308D03*
X75842Y-44930D03*
X75842Y-43554D03*
X75842Y-42175D03*
X75841Y-40797D03*
X75841Y-39419D03*
X75841Y-38039D03*
X75840Y-35285D03*
X75841Y-36663D03*
X75841Y-33907D03*
G54D16*
X64783Y-46043D03*
X64783Y-47043D03*
X66988Y-45551D03*
X66988Y-47551D03*
X68881Y-38141D03*
X68881Y-36141D03*
X66720Y-38141D03*
X66720Y-36141D03*
G54D17*
X61284Y-36024D03*
G54D18*
X59637Y-32677D02*
X59637Y-31977D01*
X61846Y-31977D02*
X59637Y-31977D01*
X62223Y-32353D02*
X61846Y-31977D01*
X62223Y-39991D02*
X62223Y-32353D01*
X62901Y-40670D02*
X62223Y-39991D01*
X73920Y-33377D02*
X68237Y-33377D01*
X75139Y-34596D02*
X73920Y-33377D01*
X76097Y-34596D02*
X75139Y-34596D01*
X76843Y-35343D02*
X76097Y-34596D01*
X76843Y-39117D02*
X76843Y-35343D01*
X76541Y-39419D02*
X76843Y-39117D01*
X75841Y-39419D02*
X76541Y-39419D01*
X68237Y-32677D02*
X68237Y-33377D01*
X67863Y-34003D02*
X67237Y-33377D01*
X73169Y-34003D02*
X67863Y-34003D01*
X75141Y-35974D02*
X73169Y-34003D01*
X76083Y-35974D02*
X75141Y-35974D01*
X76541Y-36432D02*
X76083Y-35974D01*
X76541Y-38039D02*
X76541Y-36432D01*
X75841Y-38039D02*
X76541Y-38039D01*
X67237Y-32677D02*
X67237Y-33377D01*
X75841Y-36663D02*
X75141Y-36663D01*
X65237Y-32677D02*
X65237Y-33377D01*
X73912Y-35435D02*
X75141Y-36663D01*
X67294Y-35435D02*
X73912Y-35435D01*
X65237Y-33377D02*
X67294Y-35435D01*
X57637Y-32677D02*
X57637Y-33377D01*
X58901Y-34641D02*
X58901Y-40670D01*
X57637Y-33377D02*
X58901Y-34641D01*
X61901Y-40670D02*
X61901Y-40019D01*
X61284Y-39402D02*
X61284Y-36024D01*
X61901Y-40019D02*
X61284Y-39402D01*
X60901Y-34112D02*
X61637Y-33377D01*
X60901Y-40670D02*
X60901Y-34112D01*
X61637Y-32677D02*
X61637Y-33377D01*
X66191Y-36670D02*
X66191Y-39960D01*
X66720Y-36141D02*
X66191Y-36670D01*
X66191Y-39960D02*
X66901Y-40670D01*
X66901Y-41808D02*
X66901Y-40670D01*
X68411Y-43318D02*
X66901Y-41808D01*
X68411Y-46127D02*
X68411Y-43318D01*
X66988Y-47551D02*
X68411Y-46127D01*
X61237Y-50589D02*
X61237Y-51677D01*
X64783Y-47043D02*
X61237Y-50589D01*
X65611Y-39960D02*
X64901Y-40670D01*
X66191Y-39960D02*
X65611Y-39960D01*
X57564Y-41332D02*
X56901Y-40670D01*
X64238Y-41332D02*
X57564Y-41332D01*
X64901Y-40670D02*
X64238Y-41332D01*
X64901Y-45925D02*
X64901Y-43670D01*
X64783Y-46043D02*
X64901Y-45925D01*
X66901Y-45464D02*
X66901Y-43670D01*
X66988Y-45551D02*
X66901Y-45464D01*
G54D10*
G36*
X76995Y-52450D02*
X76505Y-52450D01*
X76505Y-50443D01*
X76504Y-50438D01*
X76504Y-49066D01*
X76504Y-46308D01*
X76504Y-44930D01*
X76504Y-43554D01*
X76504Y-42175D01*
X76503Y-42170D01*
X76503Y-40797D01*
X76467Y-40616D01*
X76364Y-40461D01*
X76210Y-40358D01*
X76028Y-40322D01*
X75653Y-40322D01*
X75471Y-40358D01*
X75317Y-40461D01*
X75214Y-40616D01*
X75178Y-40797D01*
X75214Y-40979D01*
X75317Y-41133D01*
X75471Y-41236D01*
X75653Y-41272D01*
X76028Y-41272D01*
X76210Y-41236D01*
X76364Y-41133D01*
X76467Y-40979D01*
X76503Y-40797D01*
X76503Y-42170D01*
X76468Y-41994D01*
X76365Y-41839D01*
X76211Y-41736D01*
X76029Y-41700D01*
X75654Y-41700D01*
X75472Y-41736D01*
X75318Y-41839D01*
X75215Y-41994D01*
X75179Y-42175D01*
X75215Y-42357D01*
X75318Y-42511D01*
X75472Y-42614D01*
X75654Y-42650D01*
X76029Y-42650D01*
X76211Y-42614D01*
X76365Y-42511D01*
X76468Y-42357D01*
X76504Y-42175D01*
X76504Y-43554D01*
X76468Y-43373D01*
X76365Y-43218D01*
X76211Y-43115D01*
X76029Y-43079D01*
X75654Y-43079D01*
X75472Y-43115D01*
X75318Y-43218D01*
X75215Y-43373D01*
X75179Y-43554D01*
X75215Y-43736D01*
X75318Y-43890D01*
X75472Y-43993D01*
X75654Y-44029D01*
X76029Y-44029D01*
X76211Y-43993D01*
X76365Y-43890D01*
X76468Y-43736D01*
X76504Y-43554D01*
X76504Y-44930D01*
X76468Y-44749D01*
X76365Y-44594D01*
X76211Y-44491D01*
X76029Y-44455D01*
X75654Y-44455D01*
X75472Y-44491D01*
X75318Y-44594D01*
X75215Y-44749D01*
X75179Y-44930D01*
X75215Y-45112D01*
X75318Y-45266D01*
X75472Y-45369D01*
X75654Y-45405D01*
X76029Y-45405D01*
X76211Y-45369D01*
X76365Y-45266D01*
X76468Y-45112D01*
X76504Y-44930D01*
X76504Y-46308D01*
X76468Y-46127D01*
X76365Y-45972D01*
X76211Y-45869D01*
X76029Y-45833D01*
X75654Y-45833D01*
X75472Y-45869D01*
X75318Y-45972D01*
X75215Y-46127D01*
X75179Y-46308D01*
X75215Y-46490D01*
X75318Y-46644D01*
X75472Y-46747D01*
X75654Y-46783D01*
X76029Y-46783D01*
X76211Y-46747D01*
X76365Y-46644D01*
X76468Y-46490D01*
X76504Y-46308D01*
X76504Y-49066D01*
X76503Y-49061D01*
X76503Y-47685D01*
X76467Y-47504D01*
X76364Y-47349D01*
X76210Y-47246D01*
X76028Y-47210D01*
X75653Y-47210D01*
X75471Y-47246D01*
X75317Y-47349D01*
X75214Y-47504D01*
X75178Y-47685D01*
X75214Y-47867D01*
X75317Y-48021D01*
X75471Y-48124D01*
X75653Y-48160D01*
X76028Y-48160D01*
X76210Y-48124D01*
X76364Y-48021D01*
X76467Y-47867D01*
X76503Y-47685D01*
X76503Y-49061D01*
X76468Y-48885D01*
X76365Y-48730D01*
X76211Y-48627D01*
X76029Y-48591D01*
X75654Y-48591D01*
X75472Y-48627D01*
X75318Y-48730D01*
X75215Y-48885D01*
X75179Y-49066D01*
X75215Y-49248D01*
X75318Y-49402D01*
X75472Y-49505D01*
X75654Y-49541D01*
X76029Y-49541D01*
X76211Y-49505D01*
X76365Y-49402D01*
X76468Y-49248D01*
X76504Y-49066D01*
X76504Y-50438D01*
X76469Y-50262D01*
X76366Y-50107D01*
X76212Y-50004D01*
X76030Y-49968D01*
X75655Y-49968D01*
X75473Y-50004D01*
X75319Y-50107D01*
X75216Y-50262D01*
X75180Y-50443D01*
X75216Y-50625D01*
X75319Y-50779D01*
X75473Y-50882D01*
X75655Y-50918D01*
X76030Y-50918D01*
X76212Y-50882D01*
X76366Y-50779D01*
X76469Y-50625D01*
X76505Y-50443D01*
X76505Y-52450D01*
X72162Y-52450D01*
X72162Y-49493D01*
X72162Y-38493D01*
X72021Y-38153D01*
X71761Y-37893D01*
X71421Y-37752D01*
X71053Y-37752D01*
X70713Y-37892D01*
X70453Y-38152D01*
X70312Y-38492D01*
X70311Y-38860D01*
X70452Y-39200D01*
X70712Y-39460D01*
X71052Y-39602D01*
X71420Y-39602D01*
X71760Y-39461D01*
X72020Y-39201D01*
X72161Y-38861D01*
X72162Y-38493D01*
X72162Y-49493D01*
X72021Y-49153D01*
X71761Y-48893D01*
X71421Y-48752D01*
X71053Y-48752D01*
X70713Y-48892D01*
X70453Y-49152D01*
X70312Y-49492D01*
X70311Y-49860D01*
X70452Y-50200D01*
X70712Y-50460D01*
X71052Y-50602D01*
X71420Y-50602D01*
X71760Y-50461D01*
X72020Y-50201D01*
X72161Y-49861D01*
X72162Y-49493D01*
X72162Y-52450D01*
X70687Y-52450D01*
X70687Y-51889D01*
X70687Y-51464D01*
X70652Y-51292D01*
X70555Y-51146D01*
X70409Y-51048D01*
X70237Y-51014D01*
X70064Y-51048D01*
X69918Y-51146D01*
X69821Y-51292D01*
X69787Y-51464D01*
X69787Y-51889D01*
X69821Y-52062D01*
X69918Y-52208D01*
X70064Y-52305D01*
X70237Y-52339D01*
X70409Y-52305D01*
X70555Y-52208D01*
X70652Y-52062D01*
X70687Y-51889D01*
X70687Y-52450D01*
X69687Y-52450D01*
X69687Y-51889D01*
X69687Y-51464D01*
X69652Y-51292D01*
X69555Y-51146D01*
X69409Y-51048D01*
X69356Y-51038D01*
X69356Y-38047D01*
X69343Y-38014D01*
X69343Y-36638D01*
X68881Y-36177D01*
X68420Y-36638D01*
X68437Y-36795D01*
X68721Y-36915D01*
X69030Y-36917D01*
X69315Y-36802D01*
X69325Y-36795D01*
X69343Y-36638D01*
X69343Y-38014D01*
X69284Y-37873D01*
X69151Y-37739D01*
X68976Y-37666D01*
X68787Y-37666D01*
X68613Y-37738D01*
X68479Y-37872D01*
X68406Y-38046D01*
X68406Y-38235D01*
X68478Y-38410D01*
X68612Y-38544D01*
X68786Y-38616D01*
X68975Y-38616D01*
X69150Y-38544D01*
X69284Y-38411D01*
X69356Y-38236D01*
X69356Y-38047D01*
X69356Y-51038D01*
X69237Y-51014D01*
X69064Y-51048D01*
X68918Y-51146D01*
X68821Y-51292D01*
X68787Y-51464D01*
X68787Y-51889D01*
X68821Y-52062D01*
X68918Y-52208D01*
X69064Y-52305D01*
X69237Y-52339D01*
X69409Y-52305D01*
X69555Y-52208D01*
X69652Y-52062D01*
X69687Y-51889D01*
X69687Y-52450D01*
X68687Y-52450D01*
X68687Y-51889D01*
X68687Y-51464D01*
X68652Y-51292D01*
X68555Y-51146D01*
X68409Y-51048D01*
X68361Y-51039D01*
X68361Y-43821D01*
X68361Y-43518D01*
X68361Y-41149D01*
X68361Y-41090D01*
X68361Y-40190D01*
X68338Y-40135D01*
X68296Y-40092D01*
X68241Y-40070D01*
X68181Y-40070D01*
X67561Y-40070D01*
X67506Y-40092D01*
X67506Y-40093D01*
X67496Y-40080D01*
X67421Y-39975D01*
X67195Y-39834D01*
X67195Y-38047D01*
X67181Y-38014D01*
X67181Y-36638D01*
X66720Y-36177D01*
X66685Y-36212D01*
X66685Y-36141D01*
X66223Y-35680D01*
X66066Y-35697D01*
X65946Y-35981D01*
X65944Y-36289D01*
X66060Y-36575D01*
X66066Y-36585D01*
X66223Y-36602D01*
X66685Y-36141D01*
X66685Y-36212D01*
X66259Y-36638D01*
X66276Y-36795D01*
X66560Y-36915D01*
X66868Y-36917D01*
X67154Y-36802D01*
X67164Y-36795D01*
X67181Y-36638D01*
X67181Y-38014D01*
X67123Y-37873D01*
X66989Y-37739D01*
X66815Y-37666D01*
X66626Y-37666D01*
X66451Y-37738D01*
X66318Y-37872D01*
X66245Y-38046D01*
X66245Y-38235D01*
X66317Y-38410D01*
X66451Y-38544D01*
X66625Y-38616D01*
X66814Y-38616D01*
X66989Y-38544D01*
X67122Y-38411D01*
X67195Y-38236D01*
X67195Y-38047D01*
X67195Y-39834D01*
X67169Y-39818D01*
X67045Y-39783D01*
X66926Y-39883D01*
X66926Y-40645D01*
X66934Y-40645D01*
X66934Y-40695D01*
X66926Y-40695D01*
X66926Y-41457D01*
X67045Y-41556D01*
X67169Y-41521D01*
X67421Y-41365D01*
X67506Y-41246D01*
X67506Y-41247D01*
X67561Y-41270D01*
X67621Y-41270D01*
X68241Y-41270D01*
X68296Y-41247D01*
X68338Y-41205D01*
X68361Y-41149D01*
X68361Y-43518D01*
X68326Y-43342D01*
X68226Y-43193D01*
X68077Y-43093D01*
X67901Y-43058D01*
X67725Y-43093D01*
X67576Y-43193D01*
X67476Y-43342D01*
X67441Y-43518D01*
X67441Y-43821D01*
X67476Y-43997D01*
X67576Y-44147D01*
X67725Y-44246D01*
X67901Y-44281D01*
X68077Y-44246D01*
X68226Y-44147D01*
X68326Y-43997D01*
X68361Y-43821D01*
X68361Y-51039D01*
X68237Y-51014D01*
X68064Y-51048D01*
X67918Y-51146D01*
X67821Y-51292D01*
X67787Y-51464D01*
X67787Y-51889D01*
X67821Y-52062D01*
X67918Y-52208D01*
X68064Y-52305D01*
X68237Y-52339D01*
X68409Y-52305D01*
X68555Y-52208D01*
X68652Y-52062D01*
X68687Y-51889D01*
X68687Y-52450D01*
X67764Y-52450D01*
X67764Y-47402D01*
X67648Y-47117D01*
X67641Y-47107D01*
X67484Y-47089D01*
X67463Y-47111D01*
X67463Y-45457D01*
X67391Y-45282D01*
X67257Y-45148D01*
X67151Y-45104D01*
X67151Y-44197D01*
X67226Y-44147D01*
X67326Y-43997D01*
X67361Y-43821D01*
X67361Y-43518D01*
X67326Y-43342D01*
X67226Y-43193D01*
X67077Y-43093D01*
X66901Y-43058D01*
X66876Y-43063D01*
X66876Y-41457D01*
X66876Y-40695D01*
X66868Y-40695D01*
X66868Y-40645D01*
X66876Y-40645D01*
X66876Y-39883D01*
X66758Y-39783D01*
X66633Y-39818D01*
X66381Y-39975D01*
X66225Y-40192D01*
X66077Y-40093D01*
X65901Y-40058D01*
X65725Y-40093D01*
X65577Y-40192D01*
X65421Y-39975D01*
X65169Y-39818D01*
X65045Y-39783D01*
X64926Y-39883D01*
X64926Y-40645D01*
X64934Y-40645D01*
X64934Y-40695D01*
X64926Y-40695D01*
X64926Y-41457D01*
X65045Y-41556D01*
X65169Y-41521D01*
X65421Y-41365D01*
X65577Y-41147D01*
X65725Y-41246D01*
X65901Y-41281D01*
X66077Y-41246D01*
X66225Y-41147D01*
X66381Y-41365D01*
X66633Y-41521D01*
X66758Y-41556D01*
X66876Y-41457D01*
X66876Y-43063D01*
X66725Y-43093D01*
X66576Y-43193D01*
X66476Y-43342D01*
X66441Y-43518D01*
X66441Y-43821D01*
X66476Y-43997D01*
X66576Y-44147D01*
X66651Y-44197D01*
X66651Y-45216D01*
X66585Y-45281D01*
X66513Y-45456D01*
X66513Y-45645D01*
X66585Y-45819D01*
X66718Y-45953D01*
X66893Y-46026D01*
X67082Y-46026D01*
X67256Y-45954D01*
X67390Y-45820D01*
X67463Y-45646D01*
X67463Y-45457D01*
X67463Y-47111D01*
X67449Y-47125D01*
X67449Y-47054D01*
X67432Y-46897D01*
X67148Y-46777D01*
X66839Y-46775D01*
X66554Y-46890D01*
X66544Y-46897D01*
X66526Y-47054D01*
X66988Y-47515D01*
X67449Y-47054D01*
X67449Y-47125D01*
X67023Y-47551D01*
X67484Y-48012D01*
X67641Y-47995D01*
X67761Y-47711D01*
X67764Y-47402D01*
X67764Y-52450D01*
X67687Y-52450D01*
X67687Y-51889D01*
X67687Y-51464D01*
X67652Y-51292D01*
X67555Y-51146D01*
X67449Y-51075D01*
X67449Y-48047D01*
X66988Y-47586D01*
X66952Y-47621D01*
X66952Y-47551D01*
X66491Y-47089D01*
X66361Y-47104D01*
X66361Y-43821D01*
X66361Y-43518D01*
X66326Y-43342D01*
X66226Y-43193D01*
X66077Y-43093D01*
X65901Y-43058D01*
X65725Y-43093D01*
X65576Y-43193D01*
X65476Y-43342D01*
X65441Y-43518D01*
X65441Y-43821D01*
X65476Y-43997D01*
X65576Y-44147D01*
X65725Y-44246D01*
X65901Y-44281D01*
X66077Y-44246D01*
X66226Y-44147D01*
X66326Y-43997D01*
X66361Y-43821D01*
X66361Y-47104D01*
X66334Y-47107D01*
X66214Y-47391D01*
X66212Y-47699D01*
X66327Y-47985D01*
X66334Y-47995D01*
X66491Y-48012D01*
X66952Y-47551D01*
X66952Y-47621D01*
X66526Y-48047D01*
X66544Y-48204D01*
X66828Y-48324D01*
X67136Y-48327D01*
X67422Y-48211D01*
X67432Y-48204D01*
X67449Y-48047D01*
X67449Y-51075D01*
X67409Y-51048D01*
X67237Y-51014D01*
X67064Y-51048D01*
X66918Y-51146D01*
X66821Y-51292D01*
X66787Y-51464D01*
X66787Y-51889D01*
X66821Y-52062D01*
X66918Y-52208D01*
X67064Y-52305D01*
X67237Y-52339D01*
X67409Y-52305D01*
X67555Y-52208D01*
X67652Y-52062D01*
X67687Y-51889D01*
X67687Y-52450D01*
X66687Y-52450D01*
X66687Y-51889D01*
X66687Y-51464D01*
X66652Y-51292D01*
X66555Y-51146D01*
X66409Y-51048D01*
X66237Y-51014D01*
X66064Y-51048D01*
X65918Y-51146D01*
X65821Y-51292D01*
X65787Y-51464D01*
X65787Y-51889D01*
X65821Y-52062D01*
X65918Y-52208D01*
X66064Y-52305D01*
X66237Y-52339D01*
X66409Y-52305D01*
X66555Y-52208D01*
X66652Y-52062D01*
X66687Y-51889D01*
X66687Y-52450D01*
X65687Y-52450D01*
X65687Y-51889D01*
X65687Y-51464D01*
X65652Y-51292D01*
X65559Y-51152D01*
X65559Y-46895D01*
X65443Y-46609D01*
X65437Y-46599D01*
X65361Y-46591D01*
X65361Y-43821D01*
X65361Y-43518D01*
X65326Y-43342D01*
X65226Y-43193D01*
X65077Y-43093D01*
X64901Y-43058D01*
X64876Y-43063D01*
X64876Y-41457D01*
X64876Y-40695D01*
X64868Y-40695D01*
X64868Y-40645D01*
X64876Y-40645D01*
X64876Y-39883D01*
X64758Y-39783D01*
X64687Y-39803D01*
X64687Y-32889D01*
X64687Y-32464D01*
X64652Y-32292D01*
X64555Y-32146D01*
X64409Y-32048D01*
X64237Y-32014D01*
X64064Y-32048D01*
X63918Y-32146D01*
X63821Y-32292D01*
X63787Y-32464D01*
X63787Y-32889D01*
X63821Y-33062D01*
X63918Y-33208D01*
X64064Y-33305D01*
X64237Y-33339D01*
X64409Y-33305D01*
X64555Y-33208D01*
X64652Y-33062D01*
X64687Y-32889D01*
X64687Y-39803D01*
X64633Y-39818D01*
X64381Y-39975D01*
X64225Y-40192D01*
X64077Y-40093D01*
X63901Y-40058D01*
X63725Y-40093D01*
X63687Y-40119D01*
X63687Y-32889D01*
X63687Y-32464D01*
X63652Y-32292D01*
X63555Y-32146D01*
X63409Y-32048D01*
X63237Y-32014D01*
X63064Y-32048D01*
X62918Y-32146D01*
X62821Y-32292D01*
X62787Y-32464D01*
X62787Y-32889D01*
X62821Y-33062D01*
X62918Y-33208D01*
X63064Y-33305D01*
X63237Y-33339D01*
X63409Y-33305D01*
X63555Y-33208D01*
X63652Y-33062D01*
X63687Y-32889D01*
X63687Y-40119D01*
X63576Y-40193D01*
X63476Y-40342D01*
X63441Y-40518D01*
X63441Y-40821D01*
X63476Y-40997D01*
X63576Y-41147D01*
X63725Y-41246D01*
X63901Y-41281D01*
X64077Y-41246D01*
X64225Y-41147D01*
X64381Y-41365D01*
X64633Y-41521D01*
X64758Y-41556D01*
X64876Y-41457D01*
X64876Y-43063D01*
X64725Y-43093D01*
X64576Y-43193D01*
X64476Y-43342D01*
X64441Y-43518D01*
X64441Y-43821D01*
X64476Y-43997D01*
X64576Y-44147D01*
X64651Y-44197D01*
X64651Y-45583D01*
X64514Y-45640D01*
X64381Y-45773D01*
X64361Y-45820D01*
X64361Y-43821D01*
X64361Y-43518D01*
X64326Y-43342D01*
X64226Y-43193D01*
X64077Y-43093D01*
X63901Y-43058D01*
X63725Y-43093D01*
X63576Y-43193D01*
X63476Y-43342D01*
X63441Y-43518D01*
X63441Y-43821D01*
X63476Y-43997D01*
X63576Y-44147D01*
X63725Y-44246D01*
X63901Y-44281D01*
X64077Y-44246D01*
X64226Y-44147D01*
X64326Y-43997D01*
X64361Y-43821D01*
X64361Y-45820D01*
X64308Y-45948D01*
X64308Y-46137D01*
X64380Y-46312D01*
X64422Y-46353D01*
X64349Y-46382D01*
X64339Y-46389D01*
X64322Y-46546D01*
X64783Y-47007D01*
X65244Y-46546D01*
X65227Y-46389D01*
X65144Y-46354D01*
X65185Y-46312D01*
X65258Y-46138D01*
X65258Y-45949D01*
X65186Y-45774D01*
X65151Y-45739D01*
X65151Y-44197D01*
X65226Y-44147D01*
X65326Y-43997D01*
X65361Y-43821D01*
X65361Y-46591D01*
X65280Y-46582D01*
X64818Y-47043D01*
X65280Y-47504D01*
X65437Y-47487D01*
X65557Y-47203D01*
X65559Y-46895D01*
X65559Y-51152D01*
X65555Y-51146D01*
X65409Y-51048D01*
X65244Y-51015D01*
X65244Y-47539D01*
X64783Y-47078D01*
X64748Y-47114D01*
X64748Y-47043D01*
X64286Y-46582D01*
X64129Y-46599D01*
X64009Y-46883D01*
X64007Y-47191D01*
X64123Y-47477D01*
X64129Y-47487D01*
X64286Y-47504D01*
X64748Y-47043D01*
X64748Y-47114D01*
X64322Y-47539D01*
X64339Y-47696D01*
X64623Y-47817D01*
X64931Y-47819D01*
X65217Y-47703D01*
X65227Y-47696D01*
X65244Y-47539D01*
X65244Y-51015D01*
X65237Y-51014D01*
X65064Y-51048D01*
X64918Y-51146D01*
X64821Y-51292D01*
X64787Y-51464D01*
X64787Y-51889D01*
X64821Y-52062D01*
X64918Y-52208D01*
X65064Y-52305D01*
X65237Y-52339D01*
X65409Y-52305D01*
X65555Y-52208D01*
X65652Y-52062D01*
X65687Y-51889D01*
X65687Y-52450D01*
X63687Y-52450D01*
X63687Y-51889D01*
X63687Y-51464D01*
X63652Y-51292D01*
X63555Y-51146D01*
X63409Y-51048D01*
X63361Y-51039D01*
X63361Y-43821D01*
X63361Y-43518D01*
X63326Y-43342D01*
X63226Y-43193D01*
X63077Y-43093D01*
X62901Y-43058D01*
X62725Y-43093D01*
X62576Y-43193D01*
X62476Y-43342D01*
X62441Y-43518D01*
X62441Y-43821D01*
X62476Y-43997D01*
X62576Y-44147D01*
X62725Y-44246D01*
X62901Y-44281D01*
X63077Y-44246D01*
X63226Y-44147D01*
X63326Y-43997D01*
X63361Y-43821D01*
X63361Y-51039D01*
X63237Y-51014D01*
X63064Y-51048D01*
X62918Y-51146D01*
X62821Y-51292D01*
X62787Y-51464D01*
X62787Y-51889D01*
X62821Y-52062D01*
X62918Y-52208D01*
X63064Y-52305D01*
X63237Y-52339D01*
X63409Y-52305D01*
X63555Y-52208D01*
X63652Y-52062D01*
X63687Y-51889D01*
X63687Y-52450D01*
X61709Y-52450D01*
X61749Y-52425D01*
X61912Y-52198D01*
X61918Y-52208D01*
X62064Y-52305D01*
X62237Y-52339D01*
X62409Y-52305D01*
X62555Y-52208D01*
X62652Y-52062D01*
X62687Y-51889D01*
X62687Y-51464D01*
X62652Y-51292D01*
X62555Y-51146D01*
X62409Y-51048D01*
X62361Y-51039D01*
X62361Y-43821D01*
X62361Y-43518D01*
X62326Y-43342D01*
X62226Y-43193D01*
X62077Y-43093D01*
X61901Y-43058D01*
X61725Y-43093D01*
X61576Y-43193D01*
X61476Y-43342D01*
X61441Y-43518D01*
X61441Y-43821D01*
X61476Y-43997D01*
X61576Y-44147D01*
X61725Y-44246D01*
X61901Y-44281D01*
X62077Y-44246D01*
X62226Y-44147D01*
X62326Y-43997D01*
X62361Y-43821D01*
X62361Y-51039D01*
X62237Y-51014D01*
X62064Y-51048D01*
X61918Y-51146D01*
X61912Y-51155D01*
X61749Y-50929D01*
X61500Y-50774D01*
X61378Y-50740D01*
X61361Y-50755D01*
X61361Y-43821D01*
X61361Y-43518D01*
X61326Y-43342D01*
X61226Y-43193D01*
X61077Y-43093D01*
X60901Y-43058D01*
X60725Y-43093D01*
X60576Y-43193D01*
X60476Y-43342D01*
X60441Y-43518D01*
X60441Y-43821D01*
X60476Y-43997D01*
X60576Y-44147D01*
X60725Y-44246D01*
X60901Y-44281D01*
X61077Y-44246D01*
X61226Y-44147D01*
X61326Y-43997D01*
X61361Y-43821D01*
X61361Y-50755D01*
X61262Y-50840D01*
X61262Y-51652D01*
X61269Y-51652D01*
X61269Y-51702D01*
X61262Y-51702D01*
X61262Y-51710D01*
X61212Y-51710D01*
X61212Y-51702D01*
X61204Y-51702D01*
X61204Y-51652D01*
X61212Y-51652D01*
X61212Y-50840D01*
X61095Y-50740D01*
X60973Y-50774D01*
X60724Y-50929D01*
X60561Y-51155D01*
X60555Y-51146D01*
X60409Y-51048D01*
X60361Y-51039D01*
X60361Y-43821D01*
X60361Y-43518D01*
X60361Y-40821D01*
X60361Y-40518D01*
X60326Y-40342D01*
X60226Y-40193D01*
X60077Y-40093D01*
X59901Y-40058D01*
X59725Y-40093D01*
X59576Y-40193D01*
X59476Y-40342D01*
X59441Y-40518D01*
X59441Y-40821D01*
X59476Y-40997D01*
X59576Y-41147D01*
X59725Y-41246D01*
X59901Y-41281D01*
X60077Y-41246D01*
X60226Y-41147D01*
X60326Y-40997D01*
X60361Y-40821D01*
X60361Y-43518D01*
X60326Y-43342D01*
X60226Y-43193D01*
X60077Y-43093D01*
X59901Y-43058D01*
X59725Y-43093D01*
X59576Y-43193D01*
X59476Y-43342D01*
X59441Y-43518D01*
X59441Y-43821D01*
X59476Y-43997D01*
X59576Y-44147D01*
X59725Y-44246D01*
X59901Y-44281D01*
X60077Y-44246D01*
X60226Y-44147D01*
X60326Y-43997D01*
X60361Y-43821D01*
X60361Y-51039D01*
X60237Y-51014D01*
X60064Y-51048D01*
X59918Y-51146D01*
X59821Y-51292D01*
X59787Y-51464D01*
X59787Y-51889D01*
X59821Y-52062D01*
X59918Y-52208D01*
X60064Y-52305D01*
X60237Y-52339D01*
X60409Y-52305D01*
X60555Y-52208D01*
X60561Y-52198D01*
X60724Y-52425D01*
X60764Y-52450D01*
X59687Y-52450D01*
X59687Y-51889D01*
X59687Y-51464D01*
X59652Y-51292D01*
X59555Y-51146D01*
X59409Y-51048D01*
X59361Y-51039D01*
X59361Y-43821D01*
X59361Y-43518D01*
X59361Y-40821D01*
X59361Y-40518D01*
X59326Y-40342D01*
X59226Y-40193D01*
X59151Y-40142D01*
X59151Y-34641D01*
X59132Y-34546D01*
X59087Y-34478D01*
X59087Y-32889D01*
X59087Y-32464D01*
X59052Y-32292D01*
X58955Y-32146D01*
X58809Y-32048D01*
X58637Y-32014D01*
X58464Y-32048D01*
X58318Y-32146D01*
X58221Y-32292D01*
X58187Y-32464D01*
X58187Y-32889D01*
X58221Y-33062D01*
X58318Y-33208D01*
X58464Y-33305D01*
X58637Y-33339D01*
X58809Y-33305D01*
X58955Y-33208D01*
X59052Y-33062D01*
X59087Y-32889D01*
X59087Y-34478D01*
X59078Y-34465D01*
X57887Y-33273D01*
X57887Y-33253D01*
X57955Y-33208D01*
X58052Y-33062D01*
X58087Y-32889D01*
X58087Y-32464D01*
X58052Y-32292D01*
X57955Y-32146D01*
X57809Y-32048D01*
X57637Y-32014D01*
X57464Y-32048D01*
X57318Y-32146D01*
X57221Y-32292D01*
X57187Y-32464D01*
X57187Y-32889D01*
X57221Y-33062D01*
X57318Y-33208D01*
X57387Y-33253D01*
X57387Y-33377D01*
X57406Y-33472D01*
X57460Y-33554D01*
X58651Y-34745D01*
X58651Y-40142D01*
X58576Y-40193D01*
X58476Y-40342D01*
X58441Y-40518D01*
X58441Y-40821D01*
X58476Y-40997D01*
X58576Y-41147D01*
X58725Y-41246D01*
X58901Y-41281D01*
X59077Y-41246D01*
X59226Y-41147D01*
X59326Y-40997D01*
X59361Y-40821D01*
X59361Y-43518D01*
X59326Y-43342D01*
X59226Y-43193D01*
X59077Y-43093D01*
X58901Y-43058D01*
X58725Y-43093D01*
X58576Y-43193D01*
X58476Y-43342D01*
X58441Y-43518D01*
X58441Y-43821D01*
X58476Y-43997D01*
X58576Y-44147D01*
X58725Y-44246D01*
X58901Y-44281D01*
X59077Y-44246D01*
X59226Y-44147D01*
X59326Y-43997D01*
X59361Y-43821D01*
X59361Y-51039D01*
X59237Y-51014D01*
X59064Y-51048D01*
X58918Y-51146D01*
X58821Y-51292D01*
X58787Y-51464D01*
X58787Y-51889D01*
X58821Y-52062D01*
X58918Y-52208D01*
X59064Y-52305D01*
X59237Y-52339D01*
X59409Y-52305D01*
X59555Y-52208D01*
X59652Y-52062D01*
X59687Y-51889D01*
X59687Y-52450D01*
X58687Y-52450D01*
X58687Y-51889D01*
X58687Y-51464D01*
X58652Y-51292D01*
X58555Y-51146D01*
X58409Y-51048D01*
X58361Y-51039D01*
X58361Y-43821D01*
X58361Y-43518D01*
X58361Y-40821D01*
X58361Y-40518D01*
X58326Y-40342D01*
X58226Y-40193D01*
X58077Y-40093D01*
X57901Y-40058D01*
X57725Y-40093D01*
X57577Y-40192D01*
X57421Y-39975D01*
X57169Y-39818D01*
X57087Y-39795D01*
X57087Y-32889D01*
X57087Y-32464D01*
X57052Y-32292D01*
X56955Y-32146D01*
X56809Y-32048D01*
X56637Y-32014D01*
X56464Y-32048D01*
X56318Y-32146D01*
X56221Y-32292D01*
X56187Y-32464D01*
X56187Y-32889D01*
X56221Y-33062D01*
X56318Y-33208D01*
X56464Y-33305D01*
X56637Y-33339D01*
X56809Y-33305D01*
X56955Y-33208D01*
X57052Y-33062D01*
X57087Y-32889D01*
X57087Y-39795D01*
X57045Y-39783D01*
X56926Y-39883D01*
X56926Y-40645D01*
X56934Y-40645D01*
X56934Y-40695D01*
X56926Y-40695D01*
X56926Y-41457D01*
X57045Y-41556D01*
X57169Y-41521D01*
X57421Y-41365D01*
X57577Y-41147D01*
X57725Y-41246D01*
X57901Y-41281D01*
X58077Y-41246D01*
X58226Y-41147D01*
X58326Y-40997D01*
X58361Y-40821D01*
X58361Y-43518D01*
X58326Y-43342D01*
X58226Y-43193D01*
X58077Y-43093D01*
X57901Y-43058D01*
X57725Y-43093D01*
X57576Y-43193D01*
X57476Y-43342D01*
X57441Y-43518D01*
X57441Y-43821D01*
X57476Y-43997D01*
X57576Y-44147D01*
X57725Y-44246D01*
X57901Y-44281D01*
X58077Y-44246D01*
X58226Y-44147D01*
X58326Y-43997D01*
X58361Y-43821D01*
X58361Y-51039D01*
X58237Y-51014D01*
X58064Y-51048D01*
X57918Y-51146D01*
X57821Y-51292D01*
X57787Y-51464D01*
X57787Y-51889D01*
X57821Y-52062D01*
X57918Y-52208D01*
X58064Y-52305D01*
X58237Y-52339D01*
X58409Y-52305D01*
X58555Y-52208D01*
X58652Y-52062D01*
X58687Y-51889D01*
X58687Y-52450D01*
X57361Y-52450D01*
X57361Y-43821D01*
X57361Y-43518D01*
X57326Y-43342D01*
X57226Y-43193D01*
X57077Y-43093D01*
X56901Y-43058D01*
X56876Y-43063D01*
X56876Y-41457D01*
X56876Y-40695D01*
X56876Y-40645D01*
X56876Y-39883D01*
X56758Y-39783D01*
X56633Y-39818D01*
X56381Y-39975D01*
X56208Y-40216D01*
X56141Y-40505D01*
X56141Y-40645D01*
X56876Y-40645D01*
X56876Y-40695D01*
X56141Y-40695D01*
X56141Y-40835D01*
X56208Y-41124D01*
X56381Y-41365D01*
X56633Y-41521D01*
X56758Y-41556D01*
X56876Y-41457D01*
X56876Y-43063D01*
X56725Y-43093D01*
X56576Y-43193D01*
X56476Y-43342D01*
X56441Y-43518D01*
X56441Y-43821D01*
X56476Y-43997D01*
X56576Y-44147D01*
X56725Y-44246D01*
X56901Y-44281D01*
X57077Y-44246D01*
X57226Y-44147D01*
X57326Y-43997D01*
X57361Y-43821D01*
X57361Y-52450D01*
X56087Y-52450D01*
X56087Y-32889D01*
X56087Y-32464D01*
X56052Y-32292D01*
X55955Y-32146D01*
X55809Y-32048D01*
X55637Y-32014D01*
X55464Y-32048D01*
X55318Y-32146D01*
X55221Y-32292D01*
X55187Y-32464D01*
X55187Y-32889D01*
X55221Y-33062D01*
X55318Y-33208D01*
X55464Y-33305D01*
X55637Y-33339D01*
X55809Y-33305D01*
X55955Y-33208D01*
X56052Y-33062D01*
X56087Y-32889D01*
X56087Y-52450D01*
X55087Y-52450D01*
X55087Y-32889D01*
X55087Y-32464D01*
X55052Y-32292D01*
X54955Y-32146D01*
X54809Y-32048D01*
X54637Y-32014D01*
X54464Y-32048D01*
X54318Y-32146D01*
X54221Y-32292D01*
X54187Y-32464D01*
X54187Y-32889D01*
X54221Y-33062D01*
X54318Y-33208D01*
X54464Y-33305D01*
X54637Y-33339D01*
X54809Y-33305D01*
X54955Y-33208D01*
X55052Y-33062D01*
X55087Y-32889D01*
X55087Y-52450D01*
X51272Y-52450D01*
X51520Y-52201D01*
X51661Y-51861D01*
X51662Y-51493D01*
X51521Y-51153D01*
X51261Y-50893D01*
X50921Y-50752D01*
X50553Y-50752D01*
X50213Y-50892D01*
X49953Y-51152D01*
X49812Y-51492D01*
X49811Y-51860D01*
X49952Y-52200D01*
X50201Y-52450D01*
X48950Y-52450D01*
X48950Y-31900D01*
X50706Y-31900D01*
X50453Y-32152D01*
X50312Y-32492D01*
X50311Y-32860D01*
X50452Y-33200D01*
X50712Y-33460D01*
X51052Y-33602D01*
X51420Y-33602D01*
X51760Y-33461D01*
X52020Y-33201D01*
X52161Y-32861D01*
X52162Y-32493D01*
X52021Y-32153D01*
X51768Y-31900D01*
X59402Y-31900D01*
X59387Y-31977D01*
X59387Y-32100D01*
X59318Y-32146D01*
X59221Y-32292D01*
X59187Y-32464D01*
X59187Y-32889D01*
X59221Y-33062D01*
X59318Y-33208D01*
X59464Y-33305D01*
X59637Y-33339D01*
X59809Y-33305D01*
X59955Y-33208D01*
X60052Y-33062D01*
X60087Y-32889D01*
X60087Y-32464D01*
X60052Y-32292D01*
X60009Y-32227D01*
X60264Y-32227D01*
X60221Y-32292D01*
X60187Y-32464D01*
X60187Y-32889D01*
X60221Y-33062D01*
X60318Y-33208D01*
X60464Y-33305D01*
X60637Y-33339D01*
X60809Y-33305D01*
X60955Y-33208D01*
X61052Y-33062D01*
X61087Y-32889D01*
X61087Y-32464D01*
X61052Y-32292D01*
X61009Y-32227D01*
X61264Y-32227D01*
X61221Y-32292D01*
X61187Y-32464D01*
X61187Y-32889D01*
X61221Y-33062D01*
X61318Y-33208D01*
X61387Y-33253D01*
X61387Y-33273D01*
X60724Y-33935D01*
X60670Y-34017D01*
X60651Y-34112D01*
X60651Y-40142D01*
X60576Y-40193D01*
X60476Y-40342D01*
X60441Y-40518D01*
X60441Y-40821D01*
X60476Y-40997D01*
X60576Y-41147D01*
X60725Y-41246D01*
X60901Y-41281D01*
X61077Y-41246D01*
X61226Y-41147D01*
X61326Y-40997D01*
X61361Y-40821D01*
X61361Y-40518D01*
X61326Y-40342D01*
X61226Y-40193D01*
X61151Y-40142D01*
X61151Y-39623D01*
X61651Y-40123D01*
X61651Y-40142D01*
X61576Y-40193D01*
X61476Y-40342D01*
X61441Y-40518D01*
X61441Y-40821D01*
X61476Y-40997D01*
X61576Y-41147D01*
X61725Y-41246D01*
X61901Y-41281D01*
X62077Y-41246D01*
X62226Y-41147D01*
X62326Y-40997D01*
X62361Y-40821D01*
X62361Y-40518D01*
X62352Y-40475D01*
X62441Y-40563D01*
X62441Y-40821D01*
X62476Y-40997D01*
X62576Y-41147D01*
X62725Y-41246D01*
X62901Y-41281D01*
X63077Y-41246D01*
X63226Y-41147D01*
X63326Y-40997D01*
X63361Y-40821D01*
X63361Y-40518D01*
X63326Y-40342D01*
X63226Y-40193D01*
X63077Y-40093D01*
X62901Y-40058D01*
X62725Y-40093D01*
X62697Y-40112D01*
X62473Y-39888D01*
X62473Y-32353D01*
X62454Y-32257D01*
X62399Y-32176D01*
X62122Y-31900D01*
X76995Y-31900D01*
X76995Y-35140D01*
X76413Y-34558D01*
X76581Y-34438D01*
X76741Y-34181D01*
X76777Y-34053D01*
X76777Y-33761D01*
X76741Y-33634D01*
X76581Y-33377D01*
X76335Y-33201D01*
X76041Y-33132D01*
X75866Y-33132D01*
X75866Y-33882D01*
X76678Y-33882D01*
X76777Y-33761D01*
X76777Y-34053D01*
X76678Y-33932D01*
X75866Y-33932D01*
X75866Y-33940D01*
X75816Y-33940D01*
X75816Y-33932D01*
X75816Y-33882D01*
X75816Y-33132D01*
X75641Y-33132D01*
X75346Y-33201D01*
X75100Y-33377D01*
X74940Y-33634D01*
X74904Y-33761D01*
X75004Y-33882D01*
X75816Y-33882D01*
X75816Y-33932D01*
X75004Y-33932D01*
X74925Y-34028D01*
X74097Y-33200D01*
X74016Y-33146D01*
X73920Y-33127D01*
X70609Y-33127D01*
X70652Y-33062D01*
X70687Y-32889D01*
X70687Y-32464D01*
X70652Y-32292D01*
X70555Y-32146D01*
X70409Y-32048D01*
X70237Y-32014D01*
X70064Y-32048D01*
X69918Y-32146D01*
X69821Y-32292D01*
X69787Y-32464D01*
X69787Y-32889D01*
X69821Y-33062D01*
X69864Y-33127D01*
X69609Y-33127D01*
X69652Y-33062D01*
X69687Y-32889D01*
X69687Y-32464D01*
X69652Y-32292D01*
X69555Y-32146D01*
X69409Y-32048D01*
X69237Y-32014D01*
X69064Y-32048D01*
X68918Y-32146D01*
X68821Y-32292D01*
X68787Y-32464D01*
X68787Y-32889D01*
X68821Y-33062D01*
X68864Y-33127D01*
X68609Y-33127D01*
X68652Y-33062D01*
X68687Y-32889D01*
X68687Y-32464D01*
X68652Y-32292D01*
X68555Y-32146D01*
X68409Y-32048D01*
X68237Y-32014D01*
X68064Y-32048D01*
X67918Y-32146D01*
X67821Y-32292D01*
X67787Y-32464D01*
X67787Y-32889D01*
X67821Y-33062D01*
X67918Y-33208D01*
X67987Y-33253D01*
X67987Y-33377D01*
X68006Y-33472D01*
X68060Y-33554D01*
X68141Y-33608D01*
X68237Y-33627D01*
X73817Y-33627D01*
X74963Y-34773D01*
X75044Y-34827D01*
X75139Y-34846D01*
X75474Y-34846D01*
X75470Y-34846D01*
X75316Y-34949D01*
X75213Y-35104D01*
X75177Y-35285D01*
X75213Y-35467D01*
X75316Y-35621D01*
X75470Y-35724D01*
X75471Y-35724D01*
X75244Y-35724D01*
X73346Y-33826D01*
X73265Y-33772D01*
X73169Y-33753D01*
X67966Y-33753D01*
X67487Y-33273D01*
X67487Y-33253D01*
X67555Y-33208D01*
X67652Y-33062D01*
X67687Y-32889D01*
X67687Y-32464D01*
X67652Y-32292D01*
X67555Y-32146D01*
X67409Y-32048D01*
X67237Y-32014D01*
X67064Y-32048D01*
X66918Y-32146D01*
X66821Y-32292D01*
X66787Y-32464D01*
X66787Y-32889D01*
X66821Y-33062D01*
X66918Y-33208D01*
X66987Y-33253D01*
X66987Y-33377D01*
X67006Y-33472D01*
X67060Y-33554D01*
X67686Y-34180D01*
X67767Y-34234D01*
X67863Y-34253D01*
X73066Y-34253D01*
X74034Y-35221D01*
X74008Y-35204D01*
X73912Y-35185D01*
X67398Y-35185D01*
X66687Y-34473D01*
X66687Y-32889D01*
X66687Y-32464D01*
X66652Y-32292D01*
X66555Y-32146D01*
X66409Y-32048D01*
X66237Y-32014D01*
X66064Y-32048D01*
X65918Y-32146D01*
X65821Y-32292D01*
X65787Y-32464D01*
X65787Y-32889D01*
X65821Y-33062D01*
X65918Y-33208D01*
X66064Y-33305D01*
X66237Y-33339D01*
X66409Y-33305D01*
X66555Y-33208D01*
X66652Y-33062D01*
X66687Y-32889D01*
X66687Y-34473D01*
X65487Y-33273D01*
X65487Y-33253D01*
X65555Y-33208D01*
X65652Y-33062D01*
X65687Y-32889D01*
X65687Y-32464D01*
X65652Y-32292D01*
X65555Y-32146D01*
X65409Y-32048D01*
X65237Y-32014D01*
X65064Y-32048D01*
X64918Y-32146D01*
X64821Y-32292D01*
X64787Y-32464D01*
X64787Y-32889D01*
X64821Y-33062D01*
X64918Y-33208D01*
X64987Y-33253D01*
X64987Y-33377D01*
X65006Y-33472D01*
X65060Y-33554D01*
X66874Y-35367D01*
X66572Y-35365D01*
X66286Y-35481D01*
X66276Y-35488D01*
X66259Y-35645D01*
X66720Y-36106D01*
X66726Y-36100D01*
X66761Y-36136D01*
X66755Y-36141D01*
X67217Y-36602D01*
X67374Y-36585D01*
X67494Y-36301D01*
X67496Y-35993D01*
X67380Y-35707D01*
X67374Y-35697D01*
X67217Y-35680D01*
X67226Y-35671D01*
X67294Y-35685D01*
X68342Y-35685D01*
X68228Y-35697D01*
X68108Y-35981D01*
X68105Y-36289D01*
X68221Y-36575D01*
X68228Y-36585D01*
X68385Y-36602D01*
X68846Y-36141D01*
X68840Y-36136D01*
X68876Y-36100D01*
X68881Y-36106D01*
X68887Y-36100D01*
X68922Y-36136D01*
X68917Y-36141D01*
X69378Y-36602D01*
X69535Y-36585D01*
X69655Y-36301D01*
X69658Y-35993D01*
X69542Y-35707D01*
X69535Y-35697D01*
X69420Y-35685D01*
X73808Y-35685D01*
X74964Y-36840D01*
X75045Y-36894D01*
X75045Y-36894D01*
X75141Y-36913D01*
X75260Y-36913D01*
X75317Y-36999D01*
X75471Y-37102D01*
X75653Y-37138D01*
X76028Y-37138D01*
X76210Y-37102D01*
X76291Y-37048D01*
X76291Y-37654D01*
X76210Y-37600D01*
X76028Y-37564D01*
X75653Y-37564D01*
X75471Y-37600D01*
X75317Y-37703D01*
X75214Y-37858D01*
X75178Y-38039D01*
X75214Y-38221D01*
X75317Y-38375D01*
X75471Y-38478D01*
X75653Y-38514D01*
X76028Y-38514D01*
X76210Y-38478D01*
X76364Y-38375D01*
X76422Y-38289D01*
X76541Y-38289D01*
X76593Y-38279D01*
X76593Y-39013D01*
X76437Y-39169D01*
X76422Y-39169D01*
X76364Y-39083D01*
X76210Y-38980D01*
X76028Y-38944D01*
X75653Y-38944D01*
X75471Y-38980D01*
X75317Y-39083D01*
X75214Y-39238D01*
X75178Y-39419D01*
X75214Y-39601D01*
X75317Y-39755D01*
X75471Y-39858D01*
X75653Y-39894D01*
X76028Y-39894D01*
X76210Y-39858D01*
X76364Y-39755D01*
X76422Y-39669D01*
X76541Y-39669D01*
X76636Y-39650D01*
X76718Y-39596D01*
X76995Y-39319D01*
X76995Y-52450D01*
X76995Y-52450D01*
G37*
G54D19*
X76995Y-52450D02*
X76505Y-52450D01*
X76505Y-50443D01*
X76504Y-50438D01*
X76504Y-49066D01*
X76504Y-46308D01*
X76504Y-44930D01*
X76504Y-43554D01*
X76504Y-42175D01*
X76503Y-42170D01*
X76503Y-40797D01*
X76467Y-40616D01*
X76364Y-40461D01*
X76210Y-40358D01*
X76028Y-40322D01*
X75653Y-40322D01*
X75471Y-40358D01*
X75317Y-40461D01*
X75214Y-40616D01*
X75178Y-40797D01*
X75214Y-40979D01*
X75317Y-41133D01*
X75471Y-41236D01*
X75653Y-41272D01*
X76028Y-41272D01*
X76210Y-41236D01*
X76364Y-41133D01*
X76467Y-40979D01*
X76503Y-40797D01*
X76503Y-42170D01*
X76468Y-41994D01*
X76365Y-41839D01*
X76211Y-41736D01*
X76029Y-41700D01*
X75654Y-41700D01*
X75472Y-41736D01*
X75318Y-41839D01*
X75215Y-41994D01*
X75179Y-42175D01*
X75215Y-42357D01*
X75318Y-42511D01*
X75472Y-42614D01*
X75654Y-42650D01*
X76029Y-42650D01*
X76211Y-42614D01*
X76365Y-42511D01*
X76468Y-42357D01*
X76504Y-42175D01*
X76504Y-43554D01*
X76468Y-43373D01*
X76365Y-43218D01*
X76211Y-43115D01*
X76029Y-43079D01*
X75654Y-43079D01*
X75472Y-43115D01*
X75318Y-43218D01*
X75215Y-43373D01*
X75179Y-43554D01*
X75215Y-43736D01*
X75318Y-43890D01*
X75472Y-43993D01*
X75654Y-44029D01*
X76029Y-44029D01*
X76211Y-43993D01*
X76365Y-43890D01*
X76468Y-43736D01*
X76504Y-43554D01*
X76504Y-44930D01*
X76468Y-44749D01*
X76365Y-44594D01*
X76211Y-44491D01*
X76029Y-44455D01*
X75654Y-44455D01*
X75472Y-44491D01*
X75318Y-44594D01*
X75215Y-44749D01*
X75179Y-44930D01*
X75215Y-45112D01*
X75318Y-45266D01*
X75472Y-45369D01*
X75654Y-45405D01*
X76029Y-45405D01*
X76211Y-45369D01*
X76365Y-45266D01*
X76468Y-45112D01*
X76504Y-44930D01*
X76504Y-46308D01*
X76468Y-46127D01*
X76365Y-45972D01*
X76211Y-45869D01*
X76029Y-45833D01*
X75654Y-45833D01*
X75472Y-45869D01*
X75318Y-45972D01*
X75215Y-46127D01*
X75179Y-46308D01*
X75215Y-46490D01*
X75318Y-46644D01*
X75472Y-46747D01*
X75654Y-46783D01*
X76029Y-46783D01*
X76211Y-46747D01*
X76365Y-46644D01*
X76468Y-46490D01*
X76504Y-46308D01*
X76504Y-49066D01*
X76503Y-49061D01*
X76503Y-47685D01*
X76467Y-47504D01*
X76364Y-47349D01*
X76210Y-47246D01*
X76028Y-47210D01*
X75653Y-47210D01*
X75471Y-47246D01*
X75317Y-47349D01*
X75214Y-47504D01*
X75178Y-47685D01*
X75214Y-47867D01*
X75317Y-48021D01*
X75471Y-48124D01*
X75653Y-48160D01*
X76028Y-48160D01*
X76210Y-48124D01*
X76364Y-48021D01*
X76467Y-47867D01*
X76503Y-47685D01*
X76503Y-49061D01*
X76468Y-48885D01*
X76365Y-48730D01*
X76211Y-48627D01*
X76029Y-48591D01*
X75654Y-48591D01*
X75472Y-48627D01*
X75318Y-48730D01*
X75215Y-48885D01*
X75179Y-49066D01*
X75215Y-49248D01*
X75318Y-49402D01*
X75472Y-49505D01*
X75654Y-49541D01*
X76029Y-49541D01*
X76211Y-49505D01*
X76365Y-49402D01*
X76468Y-49248D01*
X76504Y-49066D01*
X76504Y-50438D01*
X76469Y-50262D01*
X76366Y-50107D01*
X76212Y-50004D01*
X76030Y-49968D01*
X75655Y-49968D01*
X75473Y-50004D01*
X75319Y-50107D01*
X75216Y-50262D01*
X75180Y-50443D01*
X75216Y-50625D01*
X75319Y-50779D01*
X75473Y-50882D01*
X75655Y-50918D01*
X76030Y-50918D01*
X76212Y-50882D01*
X76366Y-50779D01*
X76469Y-50625D01*
X76505Y-50443D01*
X76505Y-52450D01*
X72162Y-52450D01*
X72162Y-49493D01*
X72162Y-38493D01*
X72021Y-38153D01*
X71761Y-37893D01*
X71421Y-37752D01*
X71053Y-37752D01*
X70713Y-37892D01*
X70453Y-38152D01*
X70312Y-38492D01*
X70311Y-38860D01*
X70452Y-39200D01*
X70712Y-39460D01*
X71052Y-39602D01*
X71420Y-39602D01*
X71760Y-39461D01*
X72020Y-39201D01*
X72161Y-38861D01*
X72162Y-38493D01*
X72162Y-49493D01*
X72021Y-49153D01*
X71761Y-48893D01*
X71421Y-48752D01*
X71053Y-48752D01*
X70713Y-48892D01*
X70453Y-49152D01*
X70312Y-49492D01*
X70311Y-49860D01*
X70452Y-50200D01*
X70712Y-50460D01*
X71052Y-50602D01*
X71420Y-50602D01*
X71760Y-50461D01*
X72020Y-50201D01*
X72161Y-49861D01*
X72162Y-49493D01*
X72162Y-52450D01*
X70687Y-52450D01*
X70687Y-51889D01*
X70687Y-51464D01*
X70652Y-51292D01*
X70555Y-51146D01*
X70409Y-51048D01*
X70237Y-51014D01*
X70064Y-51048D01*
X69918Y-51146D01*
X69821Y-51292D01*
X69787Y-51464D01*
X69787Y-51889D01*
X69821Y-52062D01*
X69918Y-52208D01*
X70064Y-52305D01*
X70237Y-52339D01*
X70409Y-52305D01*
X70555Y-52208D01*
X70652Y-52062D01*
X70687Y-51889D01*
X70687Y-52450D01*
X69687Y-52450D01*
X69687Y-51889D01*
X69687Y-51464D01*
X69652Y-51292D01*
X69555Y-51146D01*
X69409Y-51048D01*
X69356Y-51038D01*
X69356Y-38047D01*
X69343Y-38014D01*
X69343Y-36638D01*
X68881Y-36177D01*
X68420Y-36638D01*
X68437Y-36795D01*
X68721Y-36915D01*
X69030Y-36917D01*
X69315Y-36802D01*
X69325Y-36795D01*
X69343Y-36638D01*
X69343Y-38014D01*
X69284Y-37873D01*
X69151Y-37739D01*
X68976Y-37666D01*
X68787Y-37666D01*
X68613Y-37738D01*
X68479Y-37872D01*
X68406Y-38046D01*
X68406Y-38235D01*
X68478Y-38410D01*
X68612Y-38544D01*
X68786Y-38616D01*
X68975Y-38616D01*
X69150Y-38544D01*
X69284Y-38411D01*
X69356Y-38236D01*
X69356Y-38047D01*
X69356Y-51038D01*
X69237Y-51014D01*
X69064Y-51048D01*
X68918Y-51146D01*
X68821Y-51292D01*
X68787Y-51464D01*
X68787Y-51889D01*
X68821Y-52062D01*
X68918Y-52208D01*
X69064Y-52305D01*
X69237Y-52339D01*
X69409Y-52305D01*
X69555Y-52208D01*
X69652Y-52062D01*
X69687Y-51889D01*
X69687Y-52450D01*
X68687Y-52450D01*
X68687Y-51889D01*
X68687Y-51464D01*
X68652Y-51292D01*
X68555Y-51146D01*
X68409Y-51048D01*
X68361Y-51039D01*
X68361Y-43821D01*
X68361Y-43518D01*
X68361Y-41149D01*
X68361Y-41090D01*
X68361Y-40190D01*
X68338Y-40135D01*
X68296Y-40092D01*
X68241Y-40070D01*
X68181Y-40070D01*
X67561Y-40070D01*
X67506Y-40092D01*
X67506Y-40093D01*
X67496Y-40080D01*
X67421Y-39975D01*
X67195Y-39834D01*
X67195Y-38047D01*
X67181Y-38014D01*
X67181Y-36638D01*
X66720Y-36177D01*
X66685Y-36212D01*
X66685Y-36141D01*
X66223Y-35680D01*
X66066Y-35697D01*
X65946Y-35981D01*
X65944Y-36289D01*
X66060Y-36575D01*
X66066Y-36585D01*
X66223Y-36602D01*
X66685Y-36141D01*
X66685Y-36212D01*
X66259Y-36638D01*
X66276Y-36795D01*
X66560Y-36915D01*
X66868Y-36917D01*
X67154Y-36802D01*
X67164Y-36795D01*
X67181Y-36638D01*
X67181Y-38014D01*
X67123Y-37873D01*
X66989Y-37739D01*
X66815Y-37666D01*
X66626Y-37666D01*
X66451Y-37738D01*
X66318Y-37872D01*
X66245Y-38046D01*
X66245Y-38235D01*
X66317Y-38410D01*
X66451Y-38544D01*
X66625Y-38616D01*
X66814Y-38616D01*
X66989Y-38544D01*
X67122Y-38411D01*
X67195Y-38236D01*
X67195Y-38047D01*
X67195Y-39834D01*
X67169Y-39818D01*
X67045Y-39783D01*
X66926Y-39883D01*
X66926Y-40645D01*
X66934Y-40645D01*
X66934Y-40695D01*
X66926Y-40695D01*
X66926Y-41457D01*
X67045Y-41556D01*
X67169Y-41521D01*
X67421Y-41365D01*
X67506Y-41246D01*
X67506Y-41247D01*
X67561Y-41270D01*
X67621Y-41270D01*
X68241Y-41270D01*
X68296Y-41247D01*
X68338Y-41205D01*
X68361Y-41149D01*
X68361Y-43518D01*
X68326Y-43342D01*
X68226Y-43193D01*
X68077Y-43093D01*
X67901Y-43058D01*
X67725Y-43093D01*
X67576Y-43193D01*
X67476Y-43342D01*
X67441Y-43518D01*
X67441Y-43821D01*
X67476Y-43997D01*
X67576Y-44147D01*
X67725Y-44246D01*
X67901Y-44281D01*
X68077Y-44246D01*
X68226Y-44147D01*
X68326Y-43997D01*
X68361Y-43821D01*
X68361Y-51039D01*
X68237Y-51014D01*
X68064Y-51048D01*
X67918Y-51146D01*
X67821Y-51292D01*
X67787Y-51464D01*
X67787Y-51889D01*
X67821Y-52062D01*
X67918Y-52208D01*
X68064Y-52305D01*
X68237Y-52339D01*
X68409Y-52305D01*
X68555Y-52208D01*
X68652Y-52062D01*
X68687Y-51889D01*
X68687Y-52450D01*
X67764Y-52450D01*
X67764Y-47402D01*
X67648Y-47117D01*
X67641Y-47107D01*
X67484Y-47089D01*
X67463Y-47111D01*
X67463Y-45457D01*
X67391Y-45282D01*
X67257Y-45148D01*
X67151Y-45104D01*
X67151Y-44197D01*
X67226Y-44147D01*
X67326Y-43997D01*
X67361Y-43821D01*
X67361Y-43518D01*
X67326Y-43342D01*
X67226Y-43193D01*
X67077Y-43093D01*
X66901Y-43058D01*
X66876Y-43063D01*
X66876Y-41457D01*
X66876Y-40695D01*
X66868Y-40695D01*
X66868Y-40645D01*
X66876Y-40645D01*
X66876Y-39883D01*
X66758Y-39783D01*
X66633Y-39818D01*
X66381Y-39975D01*
X66225Y-40192D01*
X66077Y-40093D01*
X65901Y-40058D01*
X65725Y-40093D01*
X65577Y-40192D01*
X65421Y-39975D01*
X65169Y-39818D01*
X65045Y-39783D01*
X64926Y-39883D01*
X64926Y-40645D01*
X64934Y-40645D01*
X64934Y-40695D01*
X64926Y-40695D01*
X64926Y-41457D01*
X65045Y-41556D01*
X65169Y-41521D01*
X65421Y-41365D01*
X65577Y-41147D01*
X65725Y-41246D01*
X65901Y-41281D01*
X66077Y-41246D01*
X66225Y-41147D01*
X66381Y-41365D01*
X66633Y-41521D01*
X66758Y-41556D01*
X66876Y-41457D01*
X66876Y-43063D01*
X66725Y-43093D01*
X66576Y-43193D01*
X66476Y-43342D01*
X66441Y-43518D01*
X66441Y-43821D01*
X66476Y-43997D01*
X66576Y-44147D01*
X66651Y-44197D01*
X66651Y-45216D01*
X66585Y-45281D01*
X66513Y-45456D01*
X66513Y-45645D01*
X66585Y-45819D01*
X66718Y-45953D01*
X66893Y-46026D01*
X67082Y-46026D01*
X67256Y-45954D01*
X67390Y-45820D01*
X67463Y-45646D01*
X67463Y-45457D01*
X67463Y-47111D01*
X67449Y-47125D01*
X67449Y-47054D01*
X67432Y-46897D01*
X67148Y-46777D01*
X66839Y-46775D01*
X66554Y-46890D01*
X66544Y-46897D01*
X66526Y-47054D01*
X66988Y-47515D01*
X67449Y-47054D01*
X67449Y-47125D01*
X67023Y-47551D01*
X67484Y-48012D01*
X67641Y-47995D01*
X67761Y-47711D01*
X67764Y-47402D01*
X67764Y-52450D01*
X67687Y-52450D01*
X67687Y-51889D01*
X67687Y-51464D01*
X67652Y-51292D01*
X67555Y-51146D01*
X67449Y-51075D01*
X67449Y-48047D01*
X66988Y-47586D01*
X66952Y-47621D01*
X66952Y-47551D01*
X66491Y-47089D01*
X66361Y-47104D01*
X66361Y-43821D01*
X66361Y-43518D01*
X66326Y-43342D01*
X66226Y-43193D01*
X66077Y-43093D01*
X65901Y-43058D01*
X65725Y-43093D01*
X65576Y-43193D01*
X65476Y-43342D01*
X65441Y-43518D01*
X65441Y-43821D01*
X65476Y-43997D01*
X65576Y-44147D01*
X65725Y-44246D01*
X65901Y-44281D01*
X66077Y-44246D01*
X66226Y-44147D01*
X66326Y-43997D01*
X66361Y-43821D01*
X66361Y-47104D01*
X66334Y-47107D01*
X66214Y-47391D01*
X66212Y-47699D01*
X66327Y-47985D01*
X66334Y-47995D01*
X66491Y-48012D01*
X66952Y-47551D01*
X66952Y-47621D01*
X66526Y-48047D01*
X66544Y-48204D01*
X66828Y-48324D01*
X67136Y-48327D01*
X67422Y-48211D01*
X67432Y-48204D01*
X67449Y-48047D01*
X67449Y-51075D01*
X67409Y-51048D01*
X67237Y-51014D01*
X67064Y-51048D01*
X66918Y-51146D01*
X66821Y-51292D01*
X66787Y-51464D01*
X66787Y-51889D01*
X66821Y-52062D01*
X66918Y-52208D01*
X67064Y-52305D01*
X67237Y-52339D01*
X67409Y-52305D01*
X67555Y-52208D01*
X67652Y-52062D01*
X67687Y-51889D01*
X67687Y-52450D01*
X66687Y-52450D01*
X66687Y-51889D01*
X66687Y-51464D01*
X66652Y-51292D01*
X66555Y-51146D01*
X66409Y-51048D01*
X66237Y-51014D01*
X66064Y-51048D01*
X65918Y-51146D01*
X65821Y-51292D01*
X65787Y-51464D01*
X65787Y-51889D01*
X65821Y-52062D01*
X65918Y-52208D01*
X66064Y-52305D01*
X66237Y-52339D01*
X66409Y-52305D01*
X66555Y-52208D01*
X66652Y-52062D01*
X66687Y-51889D01*
X66687Y-52450D01*
X65687Y-52450D01*
X65687Y-51889D01*
X65687Y-51464D01*
X65652Y-51292D01*
X65559Y-51152D01*
X65559Y-46895D01*
X65443Y-46609D01*
X65437Y-46599D01*
X65361Y-46591D01*
X65361Y-43821D01*
X65361Y-43518D01*
X65326Y-43342D01*
X65226Y-43193D01*
X65077Y-43093D01*
X64901Y-43058D01*
X64876Y-43063D01*
X64876Y-41457D01*
X64876Y-40695D01*
X64868Y-40695D01*
X64868Y-40645D01*
X64876Y-40645D01*
X64876Y-39883D01*
X64758Y-39783D01*
X64687Y-39803D01*
X64687Y-32889D01*
X64687Y-32464D01*
X64652Y-32292D01*
X64555Y-32146D01*
X64409Y-32048D01*
X64237Y-32014D01*
X64064Y-32048D01*
X63918Y-32146D01*
X63821Y-32292D01*
X63787Y-32464D01*
X63787Y-32889D01*
X63821Y-33062D01*
X63918Y-33208D01*
X64064Y-33305D01*
X64237Y-33339D01*
X64409Y-33305D01*
X64555Y-33208D01*
X64652Y-33062D01*
X64687Y-32889D01*
X64687Y-39803D01*
X64633Y-39818D01*
X64381Y-39975D01*
X64225Y-40192D01*
X64077Y-40093D01*
X63901Y-40058D01*
X63725Y-40093D01*
X63687Y-40119D01*
X63687Y-32889D01*
X63687Y-32464D01*
X63652Y-32292D01*
X63555Y-32146D01*
X63409Y-32048D01*
X63237Y-32014D01*
X63064Y-32048D01*
X62918Y-32146D01*
X62821Y-32292D01*
X62787Y-32464D01*
X62787Y-32889D01*
X62821Y-33062D01*
X62918Y-33208D01*
X63064Y-33305D01*
X63237Y-33339D01*
X63409Y-33305D01*
X63555Y-33208D01*
X63652Y-33062D01*
X63687Y-32889D01*
X63687Y-40119D01*
X63576Y-40193D01*
X63476Y-40342D01*
X63441Y-40518D01*
X63441Y-40821D01*
X63476Y-40997D01*
X63576Y-41147D01*
X63725Y-41246D01*
X63901Y-41281D01*
X64077Y-41246D01*
X64225Y-41147D01*
X64381Y-41365D01*
X64633Y-41521D01*
X64758Y-41556D01*
X64876Y-41457D01*
X64876Y-43063D01*
X64725Y-43093D01*
X64576Y-43193D01*
X64476Y-43342D01*
X64441Y-43518D01*
X64441Y-43821D01*
X64476Y-43997D01*
X64576Y-44147D01*
X64651Y-44197D01*
X64651Y-45583D01*
X64514Y-45640D01*
X64381Y-45773D01*
X64361Y-45820D01*
X64361Y-43821D01*
X64361Y-43518D01*
X64326Y-43342D01*
X64226Y-43193D01*
X64077Y-43093D01*
X63901Y-43058D01*
X63725Y-43093D01*
X63576Y-43193D01*
X63476Y-43342D01*
X63441Y-43518D01*
X63441Y-43821D01*
X63476Y-43997D01*
X63576Y-44147D01*
X63725Y-44246D01*
X63901Y-44281D01*
X64077Y-44246D01*
X64226Y-44147D01*
X64326Y-43997D01*
X64361Y-43821D01*
X64361Y-45820D01*
X64308Y-45948D01*
X64308Y-46137D01*
X64380Y-46312D01*
X64422Y-46353D01*
X64349Y-46382D01*
X64339Y-46389D01*
X64322Y-46546D01*
X64783Y-47007D01*
X65244Y-46546D01*
X65227Y-46389D01*
X65144Y-46354D01*
X65185Y-46312D01*
X65258Y-46138D01*
X65258Y-45949D01*
X65186Y-45774D01*
X65151Y-45739D01*
X65151Y-44197D01*
X65226Y-44147D01*
X65326Y-43997D01*
X65361Y-43821D01*
X65361Y-46591D01*
X65280Y-46582D01*
X64818Y-47043D01*
X65280Y-47504D01*
X65437Y-47487D01*
X65557Y-47203D01*
X65559Y-46895D01*
X65559Y-51152D01*
X65555Y-51146D01*
X65409Y-51048D01*
X65244Y-51015D01*
X65244Y-47539D01*
X64783Y-47078D01*
X64748Y-47114D01*
X64748Y-47043D01*
X64286Y-46582D01*
X64129Y-46599D01*
X64009Y-46883D01*
X64007Y-47191D01*
X64123Y-47477D01*
X64129Y-47487D01*
X64286Y-47504D01*
X64748Y-47043D01*
X64748Y-47114D01*
X64322Y-47539D01*
X64339Y-47696D01*
X64623Y-47817D01*
X64931Y-47819D01*
X65217Y-47703D01*
X65227Y-47696D01*
X65244Y-47539D01*
X65244Y-51015D01*
X65237Y-51014D01*
X65064Y-51048D01*
X64918Y-51146D01*
X64821Y-51292D01*
X64787Y-51464D01*
X64787Y-51889D01*
X64821Y-52062D01*
X64918Y-52208D01*
X65064Y-52305D01*
X65237Y-52339D01*
X65409Y-52305D01*
X65555Y-52208D01*
X65652Y-52062D01*
X65687Y-51889D01*
X65687Y-52450D01*
X63687Y-52450D01*
X63687Y-51889D01*
X63687Y-51464D01*
X63652Y-51292D01*
X63555Y-51146D01*
X63409Y-51048D01*
X63361Y-51039D01*
X63361Y-43821D01*
X63361Y-43518D01*
X63326Y-43342D01*
X63226Y-43193D01*
X63077Y-43093D01*
X62901Y-43058D01*
X62725Y-43093D01*
X62576Y-43193D01*
X62476Y-43342D01*
X62441Y-43518D01*
X62441Y-43821D01*
X62476Y-43997D01*
X62576Y-44147D01*
X62725Y-44246D01*
X62901Y-44281D01*
X63077Y-44246D01*
X63226Y-44147D01*
X63326Y-43997D01*
X63361Y-43821D01*
X63361Y-51039D01*
X63237Y-51014D01*
X63064Y-51048D01*
X62918Y-51146D01*
X62821Y-51292D01*
X62787Y-51464D01*
X62787Y-51889D01*
X62821Y-52062D01*
X62918Y-52208D01*
X63064Y-52305D01*
X63237Y-52339D01*
X63409Y-52305D01*
X63555Y-52208D01*
X63652Y-52062D01*
X63687Y-51889D01*
X63687Y-52450D01*
X61709Y-52450D01*
X61749Y-52425D01*
X61912Y-52198D01*
X61918Y-52208D01*
X62064Y-52305D01*
X62237Y-52339D01*
X62409Y-52305D01*
X62555Y-52208D01*
X62652Y-52062D01*
X62687Y-51889D01*
X62687Y-51464D01*
X62652Y-51292D01*
X62555Y-51146D01*
X62409Y-51048D01*
X62361Y-51039D01*
X62361Y-43821D01*
X62361Y-43518D01*
X62326Y-43342D01*
X62226Y-43193D01*
X62077Y-43093D01*
X61901Y-43058D01*
X61725Y-43093D01*
X61576Y-43193D01*
X61476Y-43342D01*
X61441Y-43518D01*
X61441Y-43821D01*
X61476Y-43997D01*
X61576Y-44147D01*
X61725Y-44246D01*
X61901Y-44281D01*
X62077Y-44246D01*
X62226Y-44147D01*
X62326Y-43997D01*
X62361Y-43821D01*
X62361Y-51039D01*
X62237Y-51014D01*
X62064Y-51048D01*
X61918Y-51146D01*
X61912Y-51155D01*
X61749Y-50929D01*
X61500Y-50774D01*
X61378Y-50740D01*
X61361Y-50755D01*
X61361Y-43821D01*
X61361Y-43518D01*
X61326Y-43342D01*
X61226Y-43193D01*
X61077Y-43093D01*
X60901Y-43058D01*
X60725Y-43093D01*
X60576Y-43193D01*
X60476Y-43342D01*
X60441Y-43518D01*
X60441Y-43821D01*
X60476Y-43997D01*
X60576Y-44147D01*
X60725Y-44246D01*
X60901Y-44281D01*
X61077Y-44246D01*
X61226Y-44147D01*
X61326Y-43997D01*
X61361Y-43821D01*
X61361Y-50755D01*
X61262Y-50840D01*
X61262Y-51652D01*
X61269Y-51652D01*
X61269Y-51702D01*
X61262Y-51702D01*
X61262Y-51710D01*
X61212Y-51710D01*
X61212Y-51702D01*
X61204Y-51702D01*
X61204Y-51652D01*
X61212Y-51652D01*
X61212Y-50840D01*
X61095Y-50740D01*
X60973Y-50774D01*
X60724Y-50929D01*
X60561Y-51155D01*
X60555Y-51146D01*
X60409Y-51048D01*
X60361Y-51039D01*
X60361Y-43821D01*
X60361Y-43518D01*
X60361Y-40821D01*
X60361Y-40518D01*
X60326Y-40342D01*
X60226Y-40193D01*
X60077Y-40093D01*
X59901Y-40058D01*
X59725Y-40093D01*
X59576Y-40193D01*
X59476Y-40342D01*
X59441Y-40518D01*
X59441Y-40821D01*
X59476Y-40997D01*
X59576Y-41147D01*
X59725Y-41246D01*
X59901Y-41281D01*
X60077Y-41246D01*
X60226Y-41147D01*
X60326Y-40997D01*
X60361Y-40821D01*
X60361Y-43518D01*
X60326Y-43342D01*
X60226Y-43193D01*
X60077Y-43093D01*
X59901Y-43058D01*
X59725Y-43093D01*
X59576Y-43193D01*
X59476Y-43342D01*
X59441Y-43518D01*
X59441Y-43821D01*
X59476Y-43997D01*
X59576Y-44147D01*
X59725Y-44246D01*
X59901Y-44281D01*
X60077Y-44246D01*
X60226Y-44147D01*
X60326Y-43997D01*
X60361Y-43821D01*
X60361Y-51039D01*
X60237Y-51014D01*
X60064Y-51048D01*
X59918Y-51146D01*
X59821Y-51292D01*
X59787Y-51464D01*
X59787Y-51889D01*
X59821Y-52062D01*
X59918Y-52208D01*
X60064Y-52305D01*
X60237Y-52339D01*
X60409Y-52305D01*
X60555Y-52208D01*
X60561Y-52198D01*
X60724Y-52425D01*
X60764Y-52450D01*
X59687Y-52450D01*
X59687Y-51889D01*
X59687Y-51464D01*
X59652Y-51292D01*
X59555Y-51146D01*
X59409Y-51048D01*
X59361Y-51039D01*
X59361Y-43821D01*
X59361Y-43518D01*
X59361Y-40821D01*
X59361Y-40518D01*
X59326Y-40342D01*
X59226Y-40193D01*
X59151Y-40142D01*
X59151Y-34641D01*
X59132Y-34546D01*
X59087Y-34478D01*
X59087Y-32889D01*
X59087Y-32464D01*
X59052Y-32292D01*
X58955Y-32146D01*
X58809Y-32048D01*
X58637Y-32014D01*
X58464Y-32048D01*
X58318Y-32146D01*
X58221Y-32292D01*
X58187Y-32464D01*
X58187Y-32889D01*
X58221Y-33062D01*
X58318Y-33208D01*
X58464Y-33305D01*
X58637Y-33339D01*
X58809Y-33305D01*
X58955Y-33208D01*
X59052Y-33062D01*
X59087Y-32889D01*
X59087Y-34478D01*
X59078Y-34465D01*
X57887Y-33273D01*
X57887Y-33253D01*
X57955Y-33208D01*
X58052Y-33062D01*
X58087Y-32889D01*
X58087Y-32464D01*
X58052Y-32292D01*
X57955Y-32146D01*
X57809Y-32048D01*
X57637Y-32014D01*
X57464Y-32048D01*
X57318Y-32146D01*
X57221Y-32292D01*
X57187Y-32464D01*
X57187Y-32889D01*
X57221Y-33062D01*
X57318Y-33208D01*
X57387Y-33253D01*
X57387Y-33377D01*
X57406Y-33472D01*
X57460Y-33554D01*
X58651Y-34745D01*
X58651Y-40142D01*
X58576Y-40193D01*
X58476Y-40342D01*
X58441Y-40518D01*
X58441Y-40821D01*
X58476Y-40997D01*
X58576Y-41147D01*
X58725Y-41246D01*
X58901Y-41281D01*
X59077Y-41246D01*
X59226Y-41147D01*
X59326Y-40997D01*
X59361Y-40821D01*
X59361Y-43518D01*
X59326Y-43342D01*
X59226Y-43193D01*
X59077Y-43093D01*
X58901Y-43058D01*
X58725Y-43093D01*
X58576Y-43193D01*
X58476Y-43342D01*
X58441Y-43518D01*
X58441Y-43821D01*
X58476Y-43997D01*
X58576Y-44147D01*
X58725Y-44246D01*
X58901Y-44281D01*
X59077Y-44246D01*
X59226Y-44147D01*
X59326Y-43997D01*
X59361Y-43821D01*
X59361Y-51039D01*
X59237Y-51014D01*
X59064Y-51048D01*
X58918Y-51146D01*
X58821Y-51292D01*
X58787Y-51464D01*
X58787Y-51889D01*
X58821Y-52062D01*
X58918Y-52208D01*
X59064Y-52305D01*
X59237Y-52339D01*
X59409Y-52305D01*
X59555Y-52208D01*
X59652Y-52062D01*
X59687Y-51889D01*
X59687Y-52450D01*
X58687Y-52450D01*
X58687Y-51889D01*
X58687Y-51464D01*
X58652Y-51292D01*
X58555Y-51146D01*
X58409Y-51048D01*
X58361Y-51039D01*
X58361Y-43821D01*
X58361Y-43518D01*
X58361Y-40821D01*
X58361Y-40518D01*
X58326Y-40342D01*
X58226Y-40193D01*
X58077Y-40093D01*
X57901Y-40058D01*
X57725Y-40093D01*
X57577Y-40192D01*
X57421Y-39975D01*
X57169Y-39818D01*
X57087Y-39795D01*
X57087Y-32889D01*
X57087Y-32464D01*
X57052Y-32292D01*
X56955Y-32146D01*
X56809Y-32048D01*
X56637Y-32014D01*
X56464Y-32048D01*
X56318Y-32146D01*
X56221Y-32292D01*
X56187Y-32464D01*
X56187Y-32889D01*
X56221Y-33062D01*
X56318Y-33208D01*
X56464Y-33305D01*
X56637Y-33339D01*
X56809Y-33305D01*
X56955Y-33208D01*
X57052Y-33062D01*
X57087Y-32889D01*
X57087Y-39795D01*
X57045Y-39783D01*
X56926Y-39883D01*
X56926Y-40645D01*
X56934Y-40645D01*
X56934Y-40695D01*
X56926Y-40695D01*
X56926Y-41457D01*
X57045Y-41556D01*
X57169Y-41521D01*
X57421Y-41365D01*
X57577Y-41147D01*
X57725Y-41246D01*
X57901Y-41281D01*
X58077Y-41246D01*
X58226Y-41147D01*
X58326Y-40997D01*
X58361Y-40821D01*
X58361Y-43518D01*
X58326Y-43342D01*
X58226Y-43193D01*
X58077Y-43093D01*
X57901Y-43058D01*
X57725Y-43093D01*
X57576Y-43193D01*
X57476Y-43342D01*
X57441Y-43518D01*
X57441Y-43821D01*
X57476Y-43997D01*
X57576Y-44147D01*
X57725Y-44246D01*
X57901Y-44281D01*
X58077Y-44246D01*
X58226Y-44147D01*
X58326Y-43997D01*
X58361Y-43821D01*
X58361Y-51039D01*
X58237Y-51014D01*
X58064Y-51048D01*
X57918Y-51146D01*
X57821Y-51292D01*
X57787Y-51464D01*
X57787Y-51889D01*
X57821Y-52062D01*
X57918Y-52208D01*
X58064Y-52305D01*
X58237Y-52339D01*
X58409Y-52305D01*
X58555Y-52208D01*
X58652Y-52062D01*
X58687Y-51889D01*
X58687Y-52450D01*
X57361Y-52450D01*
X57361Y-43821D01*
X57361Y-43518D01*
X57326Y-43342D01*
X57226Y-43193D01*
X57077Y-43093D01*
X56901Y-43058D01*
X56876Y-43063D01*
X56876Y-41457D01*
X56876Y-40695D01*
X56876Y-40645D01*
X56876Y-39883D01*
X56758Y-39783D01*
X56633Y-39818D01*
X56381Y-39975D01*
X56208Y-40216D01*
X56141Y-40505D01*
X56141Y-40645D01*
X56876Y-40645D01*
X56876Y-40695D01*
X56141Y-40695D01*
X56141Y-40835D01*
X56208Y-41124D01*
X56381Y-41365D01*
X56633Y-41521D01*
X56758Y-41556D01*
X56876Y-41457D01*
X56876Y-43063D01*
X56725Y-43093D01*
X56576Y-43193D01*
X56476Y-43342D01*
X56441Y-43518D01*
X56441Y-43821D01*
X56476Y-43997D01*
X56576Y-44147D01*
X56725Y-44246D01*
X56901Y-44281D01*
X57077Y-44246D01*
X57226Y-44147D01*
X57326Y-43997D01*
X57361Y-43821D01*
X57361Y-52450D01*
X56087Y-52450D01*
X56087Y-32889D01*
X56087Y-32464D01*
X56052Y-32292D01*
X55955Y-32146D01*
X55809Y-32048D01*
X55637Y-32014D01*
X55464Y-32048D01*
X55318Y-32146D01*
X55221Y-32292D01*
X55187Y-32464D01*
X55187Y-32889D01*
X55221Y-33062D01*
X55318Y-33208D01*
X55464Y-33305D01*
X55637Y-33339D01*
X55809Y-33305D01*
X55955Y-33208D01*
X56052Y-33062D01*
X56087Y-32889D01*
X56087Y-52450D01*
X55087Y-52450D01*
X55087Y-32889D01*
X55087Y-32464D01*
X55052Y-32292D01*
X54955Y-32146D01*
X54809Y-32048D01*
X54637Y-32014D01*
X54464Y-32048D01*
X54318Y-32146D01*
X54221Y-32292D01*
X54187Y-32464D01*
X54187Y-32889D01*
X54221Y-33062D01*
X54318Y-33208D01*
X54464Y-33305D01*
X54637Y-33339D01*
X54809Y-33305D01*
X54955Y-33208D01*
X55052Y-33062D01*
X55087Y-32889D01*
X55087Y-52450D01*
X51272Y-52450D01*
X51520Y-52201D01*
X51661Y-51861D01*
X51662Y-51493D01*
X51521Y-51153D01*
X51261Y-50893D01*
X50921Y-50752D01*
X50553Y-50752D01*
X50213Y-50892D01*
X49953Y-51152D01*
X49812Y-51492D01*
X49811Y-51860D01*
X49952Y-52200D01*
X50201Y-52450D01*
X48950Y-52450D01*
X48950Y-31900D01*
X50706Y-31900D01*
X50453Y-32152D01*
X50312Y-32492D01*
X50311Y-32860D01*
X50452Y-33200D01*
X50712Y-33460D01*
X51052Y-33602D01*
X51420Y-33602D01*
X51760Y-33461D01*
X52020Y-33201D01*
X52161Y-32861D01*
X52162Y-32493D01*
X52021Y-32153D01*
X51768Y-31900D01*
X59402Y-31900D01*
X59387Y-31977D01*
X59387Y-32100D01*
X59318Y-32146D01*
X59221Y-32292D01*
X59187Y-32464D01*
X59187Y-32889D01*
X59221Y-33062D01*
X59318Y-33208D01*
X59464Y-33305D01*
X59637Y-33339D01*
X59809Y-33305D01*
X59955Y-33208D01*
X60052Y-33062D01*
X60087Y-32889D01*
X60087Y-32464D01*
X60052Y-32292D01*
X60009Y-32227D01*
X60264Y-32227D01*
X60221Y-32292D01*
X60187Y-32464D01*
X60187Y-32889D01*
X60221Y-33062D01*
X60318Y-33208D01*
X60464Y-33305D01*
X60637Y-33339D01*
X60809Y-33305D01*
X60955Y-33208D01*
X61052Y-33062D01*
X61087Y-32889D01*
X61087Y-32464D01*
X61052Y-32292D01*
X61009Y-32227D01*
X61264Y-32227D01*
X61221Y-32292D01*
X61187Y-32464D01*
X61187Y-32889D01*
X61221Y-33062D01*
X61318Y-33208D01*
X61387Y-33253D01*
X61387Y-33273D01*
X60724Y-33935D01*
X60670Y-34017D01*
X60651Y-34112D01*
X60651Y-40142D01*
X60576Y-40193D01*
X60476Y-40342D01*
X60441Y-40518D01*
X60441Y-40821D01*
X60476Y-40997D01*
X60576Y-41147D01*
X60725Y-41246D01*
X60901Y-41281D01*
X61077Y-41246D01*
X61226Y-41147D01*
X61326Y-40997D01*
X61361Y-40821D01*
X61361Y-40518D01*
X61326Y-40342D01*
X61226Y-40193D01*
X61151Y-40142D01*
X61151Y-39623D01*
X61651Y-40123D01*
X61651Y-40142D01*
X61576Y-40193D01*
X61476Y-40342D01*
X61441Y-40518D01*
X61441Y-40821D01*
X61476Y-40997D01*
X61576Y-41147D01*
X61725Y-41246D01*
X61901Y-41281D01*
X62077Y-41246D01*
X62226Y-41147D01*
X62326Y-40997D01*
X62361Y-40821D01*
X62361Y-40518D01*
X62352Y-40475D01*
X62441Y-40563D01*
X62441Y-40821D01*
X62476Y-40997D01*
X62576Y-41147D01*
X62725Y-41246D01*
X62901Y-41281D01*
X63077Y-41246D01*
X63226Y-41147D01*
X63326Y-40997D01*
X63361Y-40821D01*
X63361Y-40518D01*
X63326Y-40342D01*
X63226Y-40193D01*
X63077Y-40093D01*
X62901Y-40058D01*
X62725Y-40093D01*
X62697Y-40112D01*
X62473Y-39888D01*
X62473Y-32353D01*
X62454Y-32257D01*
X62399Y-32176D01*
X62122Y-31900D01*
X76995Y-31900D01*
X76995Y-35140D01*
X76413Y-34558D01*
X76581Y-34438D01*
X76741Y-34181D01*
X76777Y-34053D01*
X76777Y-33761D01*
X76741Y-33634D01*
X76581Y-33377D01*
X76335Y-33201D01*
X76041Y-33132D01*
X75866Y-33132D01*
X75866Y-33882D01*
X76678Y-33882D01*
X76777Y-33761D01*
X76777Y-34053D01*
X76678Y-33932D01*
X75866Y-33932D01*
X75866Y-33940D01*
X75816Y-33940D01*
X75816Y-33932D01*
X75816Y-33882D01*
X75816Y-33132D01*
X75641Y-33132D01*
X75346Y-33201D01*
X75100Y-33377D01*
X74940Y-33634D01*
X74904Y-33761D01*
X75004Y-33882D01*
X75816Y-33882D01*
X75816Y-33932D01*
X75004Y-33932D01*
X74925Y-34028D01*
X74097Y-33200D01*
X74016Y-33146D01*
X73920Y-33127D01*
X70609Y-33127D01*
X70652Y-33062D01*
X70687Y-32889D01*
X70687Y-32464D01*
X70652Y-32292D01*
X70555Y-32146D01*
X70409Y-32048D01*
X70237Y-32014D01*
X70064Y-32048D01*
X69918Y-32146D01*
X69821Y-32292D01*
X69787Y-32464D01*
X69787Y-32889D01*
X69821Y-33062D01*
X69864Y-33127D01*
X69609Y-33127D01*
X69652Y-33062D01*
X69687Y-32889D01*
X69687Y-32464D01*
X69652Y-32292D01*
X69555Y-32146D01*
X69409Y-32048D01*
X69237Y-32014D01*
X69064Y-32048D01*
X68918Y-32146D01*
X68821Y-32292D01*
X68787Y-32464D01*
X68787Y-32889D01*
X68821Y-33062D01*
X68864Y-33127D01*
X68609Y-33127D01*
X68652Y-33062D01*
X68687Y-32889D01*
X68687Y-32464D01*
X68652Y-32292D01*
X68555Y-32146D01*
X68409Y-32048D01*
X68237Y-32014D01*
X68064Y-32048D01*
X67918Y-32146D01*
X67821Y-32292D01*
X67787Y-32464D01*
X67787Y-32889D01*
X67821Y-33062D01*
X67918Y-33208D01*
X67987Y-33253D01*
X67987Y-33377D01*
X68006Y-33472D01*
X68060Y-33554D01*
X68141Y-33608D01*
X68237Y-33627D01*
X73817Y-33627D01*
X74963Y-34773D01*
X75044Y-34827D01*
X75139Y-34846D01*
X75474Y-34846D01*
X75470Y-34846D01*
X75316Y-34949D01*
X75213Y-35104D01*
X75177Y-35285D01*
X75213Y-35467D01*
X75316Y-35621D01*
X75470Y-35724D01*
X75471Y-35724D01*
X75244Y-35724D01*
X73346Y-33826D01*
X73265Y-33772D01*
X73169Y-33753D01*
X67966Y-33753D01*
X67487Y-33273D01*
X67487Y-33253D01*
X67555Y-33208D01*
X67652Y-33062D01*
X67687Y-32889D01*
X67687Y-32464D01*
X67652Y-32292D01*
X67555Y-32146D01*
X67409Y-32048D01*
X67237Y-32014D01*
X67064Y-32048D01*
X66918Y-32146D01*
X66821Y-32292D01*
X66787Y-32464D01*
X66787Y-32889D01*
X66821Y-33062D01*
X66918Y-33208D01*
X66987Y-33253D01*
X66987Y-33377D01*
X67006Y-33472D01*
X67060Y-33554D01*
X67686Y-34180D01*
X67767Y-34234D01*
X67863Y-34253D01*
X73066Y-34253D01*
X74034Y-35221D01*
X74008Y-35204D01*
X73912Y-35185D01*
X67398Y-35185D01*
X66687Y-34473D01*
X66687Y-32889D01*
X66687Y-32464D01*
X66652Y-32292D01*
X66555Y-32146D01*
X66409Y-32048D01*
X66237Y-32014D01*
X66064Y-32048D01*
X65918Y-32146D01*
X65821Y-32292D01*
X65787Y-32464D01*
X65787Y-32889D01*
X65821Y-33062D01*
X65918Y-33208D01*
X66064Y-33305D01*
X66237Y-33339D01*
X66409Y-33305D01*
X66555Y-33208D01*
X66652Y-33062D01*
X66687Y-32889D01*
X66687Y-34473D01*
X65487Y-33273D01*
X65487Y-33253D01*
X65555Y-33208D01*
X65652Y-33062D01*
X65687Y-32889D01*
X65687Y-32464D01*
X65652Y-32292D01*
X65555Y-32146D01*
X65409Y-32048D01*
X65237Y-32014D01*
X65064Y-32048D01*
X64918Y-32146D01*
X64821Y-32292D01*
X64787Y-32464D01*
X64787Y-32889D01*
X64821Y-33062D01*
X64918Y-33208D01*
X64987Y-33253D01*
X64987Y-33377D01*
X65006Y-33472D01*
X65060Y-33554D01*
X66874Y-35367D01*
X66572Y-35365D01*
X66286Y-35481D01*
X66276Y-35488D01*
X66259Y-35645D01*
X66720Y-36106D01*
X66726Y-36100D01*
X66761Y-36136D01*
X66755Y-36141D01*
X67217Y-36602D01*
X67374Y-36585D01*
X67494Y-36301D01*
X67496Y-35993D01*
X67380Y-35707D01*
X67374Y-35697D01*
X67217Y-35680D01*
X67226Y-35671D01*
X67294Y-35685D01*
X68342Y-35685D01*
X68228Y-35697D01*
X68108Y-35981D01*
X68105Y-36289D01*
X68221Y-36575D01*
X68228Y-36585D01*
X68385Y-36602D01*
X68846Y-36141D01*
X68840Y-36136D01*
X68876Y-36100D01*
X68881Y-36106D01*
X68887Y-36100D01*
X68922Y-36136D01*
X68917Y-36141D01*
X69378Y-36602D01*
X69535Y-36585D01*
X69655Y-36301D01*
X69658Y-35993D01*
X69542Y-35707D01*
X69535Y-35697D01*
X69420Y-35685D01*
X73808Y-35685D01*
X74964Y-36840D01*
X75045Y-36894D01*
X75045Y-36894D01*
X75141Y-36913D01*
X75260Y-36913D01*
X75317Y-36999D01*
X75471Y-37102D01*
X75653Y-37138D01*
X76028Y-37138D01*
X76210Y-37102D01*
X76291Y-37048D01*
X76291Y-37654D01*
X76210Y-37600D01*
X76028Y-37564D01*
X75653Y-37564D01*
X75471Y-37600D01*
X75317Y-37703D01*
X75214Y-37858D01*
X75178Y-38039D01*
X75214Y-38221D01*
X75317Y-38375D01*
X75471Y-38478D01*
X75653Y-38514D01*
X76028Y-38514D01*
X76210Y-38478D01*
X76364Y-38375D01*
X76422Y-38289D01*
X76541Y-38289D01*
X76593Y-38279D01*
X76593Y-39013D01*
X76437Y-39169D01*
X76422Y-39169D01*
X76364Y-39083D01*
X76210Y-38980D01*
X76028Y-38944D01*
X75653Y-38944D01*
X75471Y-38980D01*
X75317Y-39083D01*
X75214Y-39238D01*
X75178Y-39419D01*
X75214Y-39601D01*
X75317Y-39755D01*
X75471Y-39858D01*
X75653Y-39894D01*
X76028Y-39894D01*
X76210Y-39858D01*
X76364Y-39755D01*
X76422Y-39669D01*
X76541Y-39669D01*
X76636Y-39650D01*
X76718Y-39596D01*
X76995Y-39319D01*
X76995Y-52450D01*
M02*
