G04 (created by PCBNEW (2013-jul-07)-stable) date Thu 21 Dec 2017 03:26:52 PM PST*
%MOIN*%
G04 Gerber Fmt 3.4, Leading zero omitted, Abs format*
%FSLAX34Y34*%
G01*
G70*
G90*
G04 APERTURE LIST*
%ADD10C,0.00590551*%
%ADD11C,0.006*%
%ADD12C,0.012*%
%ADD13C,0.015*%
%ADD14C,0.008*%
G04 APERTURE END LIST*
G54D10*
G54D11*
X61871Y-34045D02*
X61471Y-34045D01*
X61471Y-33949D01*
X61490Y-33892D01*
X61529Y-33854D01*
X61567Y-33835D01*
X61643Y-33816D01*
X61700Y-33816D01*
X61776Y-33835D01*
X61814Y-33854D01*
X61852Y-33892D01*
X61871Y-33949D01*
X61871Y-34045D01*
X61643Y-33588D02*
X61624Y-33626D01*
X61605Y-33645D01*
X61567Y-33664D01*
X61548Y-33664D01*
X61510Y-33645D01*
X61490Y-33626D01*
X61471Y-33588D01*
X61471Y-33511D01*
X61490Y-33473D01*
X61510Y-33454D01*
X61548Y-33435D01*
X61567Y-33435D01*
X61605Y-33454D01*
X61624Y-33473D01*
X61643Y-33511D01*
X61643Y-33588D01*
X61662Y-33626D01*
X61681Y-33645D01*
X61719Y-33664D01*
X61795Y-33664D01*
X61833Y-33645D01*
X61852Y-33626D01*
X61871Y-33588D01*
X61871Y-33511D01*
X61852Y-33473D01*
X61833Y-33454D01*
X61795Y-33435D01*
X61719Y-33435D01*
X61681Y-33454D01*
X61662Y-33473D01*
X61643Y-33511D01*
X60881Y-34045D02*
X60481Y-34045D01*
X60481Y-33949D01*
X60500Y-33892D01*
X60539Y-33854D01*
X60577Y-33835D01*
X60653Y-33816D01*
X60710Y-33816D01*
X60786Y-33835D01*
X60824Y-33854D01*
X60862Y-33892D01*
X60881Y-33949D01*
X60881Y-34045D01*
X60881Y-33626D02*
X60881Y-33549D01*
X60862Y-33511D01*
X60843Y-33492D01*
X60786Y-33454D01*
X60710Y-33435D01*
X60558Y-33435D01*
X60520Y-33454D01*
X60500Y-33473D01*
X60481Y-33511D01*
X60481Y-33588D01*
X60500Y-33626D01*
X60520Y-33645D01*
X60558Y-33664D01*
X60653Y-33664D01*
X60691Y-33645D01*
X60710Y-33626D01*
X60729Y-33588D01*
X60729Y-33511D01*
X60710Y-33473D01*
X60691Y-33454D01*
X60653Y-33435D01*
X59811Y-34425D02*
X59411Y-34425D01*
X59411Y-34330D01*
X59430Y-34273D01*
X59469Y-34235D01*
X59507Y-34216D01*
X59583Y-34197D01*
X59640Y-34197D01*
X59716Y-34216D01*
X59754Y-34235D01*
X59792Y-34273D01*
X59811Y-34330D01*
X59811Y-34425D01*
X59811Y-33816D02*
X59811Y-34044D01*
X59811Y-33930D02*
X59411Y-33930D01*
X59469Y-33968D01*
X59507Y-34006D01*
X59526Y-34044D01*
X59411Y-33568D02*
X59411Y-33530D01*
X59430Y-33492D01*
X59450Y-33473D01*
X59488Y-33454D01*
X59564Y-33435D01*
X59659Y-33435D01*
X59735Y-33454D01*
X59773Y-33473D01*
X59792Y-33492D01*
X59811Y-33530D01*
X59811Y-33568D01*
X59792Y-33606D01*
X59773Y-33625D01*
X59735Y-33644D01*
X59659Y-33663D01*
X59564Y-33663D01*
X59488Y-33644D01*
X59450Y-33625D01*
X59430Y-33606D01*
X59411Y-33568D01*
X58801Y-34385D02*
X58401Y-34385D01*
X58401Y-34290D01*
X58420Y-34233D01*
X58459Y-34195D01*
X58497Y-34176D01*
X58573Y-34157D01*
X58630Y-34157D01*
X58706Y-34176D01*
X58744Y-34195D01*
X58782Y-34233D01*
X58801Y-34290D01*
X58801Y-34385D01*
X58801Y-33776D02*
X58801Y-34004D01*
X58801Y-33890D02*
X58401Y-33890D01*
X58459Y-33928D01*
X58497Y-33966D01*
X58516Y-34004D01*
X58801Y-33395D02*
X58801Y-33623D01*
X58801Y-33509D02*
X58401Y-33509D01*
X58459Y-33547D01*
X58497Y-33585D01*
X58516Y-33623D01*
X57801Y-34395D02*
X57401Y-34395D01*
X57401Y-34300D01*
X57420Y-34243D01*
X57459Y-34205D01*
X57497Y-34186D01*
X57573Y-34167D01*
X57630Y-34167D01*
X57706Y-34186D01*
X57744Y-34205D01*
X57782Y-34243D01*
X57801Y-34300D01*
X57801Y-34395D01*
X57801Y-33786D02*
X57801Y-34014D01*
X57801Y-33900D02*
X57401Y-33900D01*
X57459Y-33938D01*
X57497Y-33976D01*
X57516Y-34014D01*
X57440Y-33633D02*
X57420Y-33614D01*
X57401Y-33576D01*
X57401Y-33481D01*
X57420Y-33443D01*
X57440Y-33424D01*
X57478Y-33405D01*
X57516Y-33405D01*
X57573Y-33424D01*
X57801Y-33652D01*
X57801Y-33405D01*
X56811Y-34375D02*
X56411Y-34375D01*
X56411Y-34280D01*
X56430Y-34223D01*
X56469Y-34185D01*
X56507Y-34166D01*
X56583Y-34147D01*
X56640Y-34147D01*
X56716Y-34166D01*
X56754Y-34185D01*
X56792Y-34223D01*
X56811Y-34280D01*
X56811Y-34375D01*
X56811Y-33766D02*
X56811Y-33994D01*
X56811Y-33880D02*
X56411Y-33880D01*
X56469Y-33918D01*
X56507Y-33956D01*
X56526Y-33994D01*
X56411Y-33632D02*
X56411Y-33385D01*
X56564Y-33518D01*
X56564Y-33461D01*
X56583Y-33423D01*
X56602Y-33404D01*
X56640Y-33385D01*
X56735Y-33385D01*
X56773Y-33404D01*
X56792Y-33423D01*
X56811Y-33461D01*
X56811Y-33575D01*
X56792Y-33613D01*
X56773Y-33632D01*
X70421Y-33826D02*
X70231Y-33959D01*
X70421Y-34055D02*
X70021Y-34055D01*
X70021Y-33902D01*
X70040Y-33864D01*
X70060Y-33845D01*
X70098Y-33826D01*
X70155Y-33826D01*
X70193Y-33845D01*
X70212Y-33864D01*
X70231Y-33902D01*
X70231Y-34055D01*
X70021Y-33693D02*
X70421Y-33426D01*
X70021Y-33426D02*
X70421Y-33693D01*
X69021Y-34054D02*
X69021Y-33826D01*
X69421Y-33940D02*
X69021Y-33940D01*
X69021Y-33730D02*
X69421Y-33464D01*
X69021Y-33464D02*
X69421Y-33730D01*
X66421Y-34055D02*
X66021Y-34055D01*
X66021Y-33959D01*
X66040Y-33902D01*
X66079Y-33864D01*
X66117Y-33845D01*
X66193Y-33826D01*
X66250Y-33826D01*
X66326Y-33845D01*
X66364Y-33864D01*
X66402Y-33902D01*
X66421Y-33959D01*
X66421Y-34055D01*
X66155Y-33483D02*
X66421Y-33483D01*
X66002Y-33579D02*
X66288Y-33674D01*
X66288Y-33426D01*
X63451Y-34055D02*
X63051Y-34055D01*
X63051Y-33959D01*
X63070Y-33902D01*
X63109Y-33864D01*
X63147Y-33845D01*
X63223Y-33826D01*
X63280Y-33826D01*
X63356Y-33845D01*
X63394Y-33864D01*
X63432Y-33902D01*
X63451Y-33959D01*
X63451Y-34055D01*
X63051Y-33693D02*
X63051Y-33426D01*
X63451Y-33598D01*
G54D12*
X50393Y-48985D02*
X49593Y-48985D01*
X50165Y-48785D01*
X49593Y-48585D01*
X50393Y-48585D01*
X50165Y-48328D02*
X50165Y-48042D01*
X50393Y-48385D02*
X49593Y-48185D01*
X50393Y-47985D01*
X49593Y-47842D02*
X50393Y-47442D01*
X49593Y-47442D02*
X50393Y-47842D01*
X50393Y-46900D02*
X50393Y-47242D01*
X50393Y-47071D02*
X49593Y-47071D01*
X49708Y-47128D01*
X49784Y-47185D01*
X49822Y-47242D01*
X49670Y-46671D02*
X49631Y-46642D01*
X49593Y-46585D01*
X49593Y-46442D01*
X49631Y-46385D01*
X49670Y-46357D01*
X49746Y-46328D01*
X49822Y-46328D01*
X49936Y-46357D01*
X50393Y-46700D01*
X50393Y-46328D01*
X49593Y-46128D02*
X49593Y-45728D01*
X50393Y-45985D01*
X49593Y-45385D02*
X49593Y-45328D01*
X49631Y-45271D01*
X49670Y-45242D01*
X49746Y-45214D01*
X49898Y-45185D01*
X50089Y-45185D01*
X50241Y-45214D01*
X50317Y-45242D01*
X50355Y-45271D01*
X50393Y-45328D01*
X50393Y-45385D01*
X50355Y-45442D01*
X50317Y-45471D01*
X50241Y-45499D01*
X50089Y-45528D01*
X49898Y-45528D01*
X49746Y-45499D01*
X49670Y-45471D01*
X49631Y-45442D01*
X49593Y-45385D01*
X50165Y-44499D02*
X50165Y-44214D01*
X50393Y-44557D02*
X49593Y-44357D01*
X50393Y-44157D01*
X49860Y-43957D02*
X50393Y-43957D01*
X49936Y-43957D02*
X49898Y-43928D01*
X49860Y-43871D01*
X49860Y-43785D01*
X49898Y-43728D01*
X49974Y-43699D01*
X50393Y-43699D01*
X50393Y-43157D02*
X49974Y-43157D01*
X49898Y-43185D01*
X49860Y-43242D01*
X49860Y-43357D01*
X49898Y-43414D01*
X50355Y-43157D02*
X50393Y-43214D01*
X50393Y-43357D01*
X50355Y-43414D01*
X50279Y-43442D01*
X50203Y-43442D01*
X50127Y-43414D01*
X50089Y-43357D01*
X50089Y-43214D01*
X50050Y-43157D01*
X50393Y-42785D02*
X50355Y-42842D01*
X50279Y-42871D01*
X49593Y-42871D01*
X50393Y-42471D02*
X50355Y-42528D01*
X50317Y-42557D01*
X50241Y-42585D01*
X50012Y-42585D01*
X49936Y-42557D01*
X49898Y-42528D01*
X49860Y-42471D01*
X49860Y-42385D01*
X49898Y-42328D01*
X49936Y-42299D01*
X50012Y-42271D01*
X50241Y-42271D01*
X50317Y-42299D01*
X50355Y-42328D01*
X50393Y-42385D01*
X50393Y-42471D01*
X49860Y-41757D02*
X50508Y-41757D01*
X50584Y-41785D01*
X50622Y-41814D01*
X50660Y-41871D01*
X50660Y-41957D01*
X50622Y-42014D01*
X50355Y-41757D02*
X50393Y-41814D01*
X50393Y-41928D01*
X50355Y-41985D01*
X50317Y-42014D01*
X50241Y-42042D01*
X50012Y-42042D01*
X49936Y-42014D01*
X49898Y-41985D01*
X49860Y-41928D01*
X49860Y-41814D01*
X49898Y-41757D01*
X50393Y-41014D02*
X49593Y-41014D01*
X49860Y-40728D02*
X50393Y-40728D01*
X49936Y-40728D02*
X49898Y-40699D01*
X49860Y-40642D01*
X49860Y-40557D01*
X49898Y-40499D01*
X49974Y-40471D01*
X50393Y-40471D01*
X49860Y-40185D02*
X50660Y-40185D01*
X49898Y-40185D02*
X49860Y-40128D01*
X49860Y-40014D01*
X49898Y-39957D01*
X49936Y-39928D01*
X50012Y-39899D01*
X50241Y-39899D01*
X50317Y-39928D01*
X50355Y-39957D01*
X50393Y-40014D01*
X50393Y-40128D01*
X50355Y-40185D01*
X49860Y-39385D02*
X50393Y-39385D01*
X49860Y-39642D02*
X50279Y-39642D01*
X50355Y-39614D01*
X50393Y-39557D01*
X50393Y-39471D01*
X50355Y-39414D01*
X50317Y-39385D01*
X49860Y-39185D02*
X49860Y-38957D01*
X49593Y-39099D02*
X50279Y-39099D01*
X50355Y-39071D01*
X50393Y-39014D01*
X50393Y-38957D01*
X50355Y-38328D02*
X50393Y-38242D01*
X50393Y-38099D01*
X50355Y-38042D01*
X50317Y-38014D01*
X50241Y-37985D01*
X50165Y-37985D01*
X50089Y-38014D01*
X50050Y-38042D01*
X50012Y-38099D01*
X49974Y-38214D01*
X49936Y-38271D01*
X49898Y-38299D01*
X49822Y-38328D01*
X49746Y-38328D01*
X49670Y-38299D01*
X49631Y-38271D01*
X49593Y-38214D01*
X49593Y-38071D01*
X49631Y-37985D01*
X50393Y-37728D02*
X49593Y-37728D01*
X50393Y-37471D02*
X49974Y-37471D01*
X49898Y-37499D01*
X49860Y-37557D01*
X49860Y-37642D01*
X49898Y-37699D01*
X49936Y-37728D01*
X50393Y-37185D02*
X49860Y-37185D01*
X49593Y-37185D02*
X49631Y-37214D01*
X49670Y-37185D01*
X49631Y-37157D01*
X49593Y-37185D01*
X49670Y-37185D01*
X50355Y-36671D02*
X50393Y-36728D01*
X50393Y-36842D01*
X50355Y-36899D01*
X50279Y-36928D01*
X49974Y-36928D01*
X49898Y-36899D01*
X49860Y-36842D01*
X49860Y-36728D01*
X49898Y-36671D01*
X49974Y-36642D01*
X50050Y-36642D01*
X50127Y-36928D01*
X50393Y-36299D02*
X50355Y-36357D01*
X50279Y-36385D01*
X49593Y-36385D01*
X50393Y-35814D02*
X49593Y-35814D01*
X50355Y-35814D02*
X50393Y-35871D01*
X50393Y-35985D01*
X50355Y-36042D01*
X50317Y-36071D01*
X50241Y-36099D01*
X50012Y-36099D01*
X49936Y-36071D01*
X49898Y-36042D01*
X49860Y-35985D01*
X49860Y-35871D01*
X49898Y-35814D01*
X51633Y-46785D02*
X50833Y-46785D01*
X50833Y-46385D02*
X50833Y-46271D01*
X50871Y-46214D01*
X50948Y-46157D01*
X51100Y-46128D01*
X51367Y-46128D01*
X51519Y-46157D01*
X51595Y-46214D01*
X51633Y-46271D01*
X51633Y-46385D01*
X51595Y-46442D01*
X51519Y-46500D01*
X51367Y-46528D01*
X51100Y-46528D01*
X50948Y-46500D01*
X50871Y-46442D01*
X50833Y-46385D01*
X51633Y-45071D02*
X51252Y-45271D01*
X51633Y-45414D02*
X50833Y-45414D01*
X50833Y-45185D01*
X50871Y-45128D01*
X50910Y-45100D01*
X50986Y-45071D01*
X51100Y-45071D01*
X51176Y-45100D01*
X51214Y-45128D01*
X51252Y-45185D01*
X51252Y-45414D01*
X51633Y-44728D02*
X51595Y-44785D01*
X51557Y-44814D01*
X51481Y-44842D01*
X51252Y-44842D01*
X51176Y-44814D01*
X51138Y-44785D01*
X51100Y-44728D01*
X51100Y-44642D01*
X51138Y-44585D01*
X51176Y-44557D01*
X51252Y-44528D01*
X51481Y-44528D01*
X51557Y-44557D01*
X51595Y-44585D01*
X51633Y-44642D01*
X51633Y-44728D01*
X51633Y-44014D02*
X50833Y-44014D01*
X51595Y-44014D02*
X51633Y-44071D01*
X51633Y-44185D01*
X51595Y-44242D01*
X51557Y-44271D01*
X51481Y-44300D01*
X51252Y-44300D01*
X51176Y-44271D01*
X51138Y-44242D01*
X51100Y-44185D01*
X51100Y-44071D01*
X51138Y-44014D01*
X51595Y-43500D02*
X51633Y-43557D01*
X51633Y-43671D01*
X51595Y-43728D01*
X51519Y-43757D01*
X51214Y-43757D01*
X51138Y-43728D01*
X51100Y-43671D01*
X51100Y-43557D01*
X51138Y-43500D01*
X51214Y-43471D01*
X51290Y-43471D01*
X51367Y-43757D01*
X51633Y-43128D02*
X51595Y-43185D01*
X51557Y-43214D01*
X51481Y-43242D01*
X51252Y-43242D01*
X51176Y-43214D01*
X51138Y-43185D01*
X51100Y-43128D01*
X51100Y-43042D01*
X51138Y-42985D01*
X51176Y-42957D01*
X51252Y-42928D01*
X51481Y-42928D01*
X51557Y-42957D01*
X51595Y-42985D01*
X51633Y-43042D01*
X51633Y-43128D01*
X51633Y-42214D02*
X50833Y-42214D01*
X51100Y-41928D02*
X51633Y-41928D01*
X51176Y-41928D02*
X51138Y-41900D01*
X51100Y-41842D01*
X51100Y-41757D01*
X51138Y-41700D01*
X51214Y-41671D01*
X51633Y-41671D01*
X51595Y-41128D02*
X51633Y-41185D01*
X51633Y-41300D01*
X51595Y-41357D01*
X51557Y-41385D01*
X51481Y-41414D01*
X51252Y-41414D01*
X51176Y-41385D01*
X51138Y-41357D01*
X51100Y-41300D01*
X51100Y-41185D01*
X51138Y-41128D01*
X51557Y-40871D02*
X51595Y-40842D01*
X51633Y-40871D01*
X51595Y-40900D01*
X51557Y-40871D01*
X51633Y-40871D01*
X50833Y-39757D02*
X51633Y-39557D01*
X50833Y-39357D01*
X50833Y-39042D02*
X50833Y-38985D01*
X50871Y-38928D01*
X50910Y-38900D01*
X50986Y-38871D01*
X51138Y-38842D01*
X51329Y-38842D01*
X51481Y-38871D01*
X51557Y-38900D01*
X51595Y-38928D01*
X51633Y-38985D01*
X51633Y-39042D01*
X51595Y-39100D01*
X51557Y-39128D01*
X51481Y-39157D01*
X51329Y-39185D01*
X51138Y-39185D01*
X50986Y-39157D01*
X50910Y-39128D01*
X50871Y-39100D01*
X50833Y-39042D01*
X51557Y-38585D02*
X51595Y-38557D01*
X51633Y-38585D01*
X51595Y-38614D01*
X51557Y-38585D01*
X51633Y-38585D01*
X50833Y-38357D02*
X50833Y-37985D01*
X51138Y-38185D01*
X51138Y-38100D01*
X51176Y-38042D01*
X51214Y-38014D01*
X51290Y-37985D01*
X51481Y-37985D01*
X51557Y-38014D01*
X51595Y-38042D01*
X51633Y-38100D01*
X51633Y-38271D01*
X51595Y-38328D01*
X51557Y-38357D01*
G54D11*
X70297Y-50785D02*
X70297Y-50595D01*
X70411Y-50823D02*
X70011Y-50690D01*
X70411Y-50557D01*
X70411Y-50423D02*
X70011Y-50423D01*
X70011Y-50328D01*
X70030Y-50271D01*
X70069Y-50233D01*
X70107Y-50214D01*
X70183Y-50195D01*
X70240Y-50195D01*
X70316Y-50214D01*
X70354Y-50233D01*
X70392Y-50271D01*
X70411Y-50328D01*
X70411Y-50423D01*
X70011Y-49833D02*
X70011Y-50023D01*
X70202Y-50042D01*
X70183Y-50023D01*
X70164Y-49985D01*
X70164Y-49890D01*
X70183Y-49852D01*
X70202Y-49833D01*
X70240Y-49814D01*
X70335Y-49814D01*
X70373Y-49833D01*
X70392Y-49852D01*
X70411Y-49890D01*
X70411Y-49985D01*
X70392Y-50023D01*
X70373Y-50042D01*
X69297Y-50785D02*
X69297Y-50595D01*
X69411Y-50823D02*
X69011Y-50690D01*
X69411Y-50557D01*
X69411Y-50423D02*
X69011Y-50423D01*
X69011Y-50328D01*
X69030Y-50271D01*
X69069Y-50233D01*
X69107Y-50214D01*
X69183Y-50195D01*
X69240Y-50195D01*
X69316Y-50214D01*
X69354Y-50233D01*
X69392Y-50271D01*
X69411Y-50328D01*
X69411Y-50423D01*
X69145Y-49852D02*
X69411Y-49852D01*
X68992Y-49947D02*
X69278Y-50042D01*
X69278Y-49795D01*
X68247Y-50785D02*
X68247Y-50595D01*
X68361Y-50823D02*
X67961Y-50690D01*
X68361Y-50557D01*
X68361Y-50423D02*
X67961Y-50423D01*
X67961Y-50328D01*
X67980Y-50271D01*
X68019Y-50233D01*
X68057Y-50214D01*
X68133Y-50195D01*
X68190Y-50195D01*
X68266Y-50214D01*
X68304Y-50233D01*
X68342Y-50271D01*
X68361Y-50328D01*
X68361Y-50423D01*
X67961Y-50061D02*
X67961Y-49814D01*
X68114Y-49947D01*
X68114Y-49890D01*
X68133Y-49852D01*
X68152Y-49833D01*
X68190Y-49814D01*
X68285Y-49814D01*
X68323Y-49833D01*
X68342Y-49852D01*
X68361Y-49890D01*
X68361Y-50004D01*
X68342Y-50042D01*
X68323Y-50061D01*
X67297Y-50785D02*
X67297Y-50595D01*
X67411Y-50823D02*
X67011Y-50690D01*
X67411Y-50557D01*
X67411Y-50423D02*
X67011Y-50423D01*
X67011Y-50328D01*
X67030Y-50271D01*
X67069Y-50233D01*
X67107Y-50214D01*
X67183Y-50195D01*
X67240Y-50195D01*
X67316Y-50214D01*
X67354Y-50233D01*
X67392Y-50271D01*
X67411Y-50328D01*
X67411Y-50423D01*
X67050Y-50042D02*
X67030Y-50023D01*
X67011Y-49985D01*
X67011Y-49890D01*
X67030Y-49852D01*
X67050Y-49833D01*
X67088Y-49814D01*
X67126Y-49814D01*
X67183Y-49833D01*
X67411Y-50061D01*
X67411Y-49814D01*
X66247Y-50785D02*
X66247Y-50595D01*
X66361Y-50823D02*
X65961Y-50690D01*
X66361Y-50557D01*
X66361Y-50423D02*
X65961Y-50423D01*
X65961Y-50328D01*
X65980Y-50271D01*
X66019Y-50233D01*
X66057Y-50214D01*
X66133Y-50195D01*
X66190Y-50195D01*
X66266Y-50214D01*
X66304Y-50233D01*
X66342Y-50271D01*
X66361Y-50328D01*
X66361Y-50423D01*
X66361Y-49814D02*
X66361Y-50042D01*
X66361Y-49928D02*
X65961Y-49928D01*
X66019Y-49966D01*
X66057Y-50004D01*
X66076Y-50042D01*
X65247Y-50785D02*
X65247Y-50595D01*
X65361Y-50823D02*
X64961Y-50690D01*
X65361Y-50557D01*
X65361Y-50423D02*
X64961Y-50423D01*
X64961Y-50328D01*
X64980Y-50271D01*
X65019Y-50233D01*
X65057Y-50214D01*
X65133Y-50195D01*
X65190Y-50195D01*
X65266Y-50214D01*
X65304Y-50233D01*
X65342Y-50271D01*
X65361Y-50328D01*
X65361Y-50423D01*
X64961Y-49947D02*
X64961Y-49909D01*
X64980Y-49871D01*
X65000Y-49852D01*
X65038Y-49833D01*
X65114Y-49814D01*
X65209Y-49814D01*
X65285Y-49833D01*
X65323Y-49852D01*
X65342Y-49871D01*
X65361Y-49909D01*
X65361Y-49947D01*
X65342Y-49985D01*
X65323Y-50004D01*
X65285Y-50023D01*
X65209Y-50042D01*
X65114Y-50042D01*
X65038Y-50023D01*
X65000Y-50004D01*
X64980Y-49985D01*
X64961Y-49947D01*
X63011Y-50840D02*
X63411Y-50707D01*
X63011Y-50573D01*
X63450Y-50535D02*
X63450Y-50230D01*
X63411Y-50135D02*
X63011Y-50135D01*
X63411Y-49945D02*
X63011Y-49945D01*
X63411Y-49716D01*
X63011Y-49716D01*
X62080Y-50604D02*
X62061Y-50642D01*
X62061Y-50700D01*
X62080Y-50757D01*
X62119Y-50795D01*
X62157Y-50814D01*
X62233Y-50833D01*
X62290Y-50833D01*
X62366Y-50814D01*
X62404Y-50795D01*
X62442Y-50757D01*
X62461Y-50700D01*
X62461Y-50661D01*
X62442Y-50604D01*
X62423Y-50585D01*
X62290Y-50585D01*
X62290Y-50661D01*
X62461Y-50414D02*
X62061Y-50414D01*
X62461Y-50185D01*
X62061Y-50185D01*
X62461Y-49995D02*
X62061Y-49995D01*
X62061Y-49899D01*
X62080Y-49842D01*
X62119Y-49804D01*
X62157Y-49785D01*
X62233Y-49766D01*
X62290Y-49766D01*
X62366Y-49785D01*
X62404Y-49804D01*
X62442Y-49842D01*
X62461Y-49899D01*
X62461Y-49995D01*
X61080Y-50604D02*
X61061Y-50642D01*
X61061Y-50700D01*
X61080Y-50757D01*
X61119Y-50795D01*
X61157Y-50814D01*
X61233Y-50833D01*
X61290Y-50833D01*
X61366Y-50814D01*
X61404Y-50795D01*
X61442Y-50757D01*
X61461Y-50700D01*
X61461Y-50661D01*
X61442Y-50604D01*
X61423Y-50585D01*
X61290Y-50585D01*
X61290Y-50661D01*
X61461Y-50414D02*
X61061Y-50414D01*
X61461Y-50185D01*
X61061Y-50185D01*
X61461Y-49995D02*
X61061Y-49995D01*
X61061Y-49899D01*
X61080Y-49842D01*
X61119Y-49804D01*
X61157Y-49785D01*
X61233Y-49766D01*
X61290Y-49766D01*
X61366Y-49785D01*
X61404Y-49804D01*
X61442Y-49842D01*
X61461Y-49899D01*
X61461Y-49995D01*
X60011Y-50626D02*
X60011Y-50816D01*
X60202Y-50835D01*
X60183Y-50816D01*
X60164Y-50778D01*
X60164Y-50683D01*
X60183Y-50645D01*
X60202Y-50626D01*
X60240Y-50607D01*
X60335Y-50607D01*
X60373Y-50626D01*
X60392Y-50645D01*
X60411Y-50683D01*
X60411Y-50778D01*
X60392Y-50816D01*
X60373Y-50835D01*
X60011Y-50492D02*
X60411Y-50359D01*
X60011Y-50226D01*
X59011Y-50845D02*
X59011Y-50597D01*
X59164Y-50730D01*
X59164Y-50673D01*
X59183Y-50635D01*
X59202Y-50616D01*
X59240Y-50597D01*
X59335Y-50597D01*
X59373Y-50616D01*
X59392Y-50635D01*
X59411Y-50673D01*
X59411Y-50788D01*
X59392Y-50826D01*
X59373Y-50845D01*
X59011Y-50483D02*
X59411Y-50349D01*
X59011Y-50216D01*
X59011Y-50121D02*
X59011Y-49873D01*
X59164Y-50007D01*
X59164Y-49950D01*
X59183Y-49911D01*
X59202Y-49892D01*
X59240Y-49873D01*
X59335Y-49873D01*
X59373Y-49892D01*
X59392Y-49911D01*
X59411Y-49950D01*
X59411Y-50064D01*
X59392Y-50102D01*
X59373Y-50121D01*
X58411Y-50619D02*
X58221Y-50752D01*
X58411Y-50847D02*
X58011Y-50847D01*
X58011Y-50695D01*
X58030Y-50657D01*
X58050Y-50638D01*
X58088Y-50619D01*
X58145Y-50619D01*
X58183Y-50638D01*
X58202Y-50657D01*
X58221Y-50695D01*
X58221Y-50847D01*
X58392Y-50466D02*
X58411Y-50409D01*
X58411Y-50314D01*
X58392Y-50276D01*
X58373Y-50257D01*
X58335Y-50238D01*
X58297Y-50238D01*
X58259Y-50257D01*
X58240Y-50276D01*
X58221Y-50314D01*
X58202Y-50390D01*
X58183Y-50428D01*
X58164Y-50447D01*
X58126Y-50466D01*
X58088Y-50466D01*
X58050Y-50447D01*
X58030Y-50428D01*
X58011Y-50390D01*
X58011Y-50295D01*
X58030Y-50238D01*
X58011Y-50123D02*
X58011Y-49895D01*
X58411Y-50009D02*
X58011Y-50009D01*
X54717Y-34607D02*
X54717Y-34417D01*
X54831Y-34645D02*
X54431Y-34512D01*
X54831Y-34379D01*
X54831Y-34017D02*
X54641Y-34150D01*
X54831Y-34245D02*
X54431Y-34245D01*
X54431Y-34093D01*
X54450Y-34055D01*
X54470Y-34036D01*
X54508Y-34017D01*
X54565Y-34017D01*
X54603Y-34036D01*
X54622Y-34055D01*
X54641Y-34093D01*
X54641Y-34245D01*
X54622Y-33845D02*
X54622Y-33712D01*
X54831Y-33655D02*
X54831Y-33845D01*
X54431Y-33845D01*
X54431Y-33655D01*
X54622Y-33350D02*
X54622Y-33483D01*
X54831Y-33483D02*
X54431Y-33483D01*
X54431Y-33293D01*
X55460Y-34204D02*
X55441Y-34242D01*
X55441Y-34300D01*
X55460Y-34357D01*
X55499Y-34395D01*
X55537Y-34414D01*
X55613Y-34433D01*
X55670Y-34433D01*
X55746Y-34414D01*
X55784Y-34395D01*
X55822Y-34357D01*
X55841Y-34300D01*
X55841Y-34261D01*
X55822Y-34204D01*
X55803Y-34185D01*
X55670Y-34185D01*
X55670Y-34261D01*
X55841Y-34014D02*
X55441Y-34014D01*
X55841Y-33785D01*
X55441Y-33785D01*
X55841Y-33595D02*
X55441Y-33595D01*
X55441Y-33499D01*
X55460Y-33442D01*
X55499Y-33404D01*
X55537Y-33385D01*
X55613Y-33366D01*
X55670Y-33366D01*
X55746Y-33385D01*
X55784Y-33404D01*
X55822Y-33442D01*
X55841Y-33499D01*
X55841Y-33595D01*
X56792Y-35625D02*
X56811Y-35582D01*
X56811Y-35511D01*
X56792Y-35482D01*
X56773Y-35468D01*
X56735Y-35454D01*
X56697Y-35454D01*
X56659Y-35468D01*
X56640Y-35482D01*
X56621Y-35511D01*
X56602Y-35568D01*
X56583Y-35597D01*
X56564Y-35611D01*
X56526Y-35625D01*
X56488Y-35625D01*
X56450Y-35611D01*
X56430Y-35597D01*
X56411Y-35568D01*
X56411Y-35497D01*
X56430Y-35454D01*
X56773Y-35154D02*
X56792Y-35168D01*
X56811Y-35211D01*
X56811Y-35240D01*
X56792Y-35282D01*
X56754Y-35311D01*
X56716Y-35325D01*
X56640Y-35340D01*
X56583Y-35340D01*
X56507Y-35325D01*
X56469Y-35311D01*
X56430Y-35282D01*
X56411Y-35240D01*
X56411Y-35211D01*
X56430Y-35168D01*
X56450Y-35154D01*
X56811Y-35025D02*
X56411Y-35025D01*
X56811Y-34854D02*
X56583Y-34982D01*
X56411Y-34854D02*
X56640Y-35025D01*
X57791Y-35691D02*
X57391Y-35691D01*
X57677Y-35591D01*
X57391Y-35491D01*
X57791Y-35491D01*
X57791Y-35348D02*
X57391Y-35348D01*
X57772Y-35220D02*
X57791Y-35177D01*
X57791Y-35105D01*
X57772Y-35077D01*
X57753Y-35062D01*
X57715Y-35048D01*
X57677Y-35048D01*
X57639Y-35062D01*
X57620Y-35077D01*
X57601Y-35105D01*
X57582Y-35162D01*
X57563Y-35191D01*
X57544Y-35205D01*
X57506Y-35220D01*
X57468Y-35220D01*
X57430Y-35205D01*
X57410Y-35191D01*
X57391Y-35162D01*
X57391Y-35091D01*
X57410Y-35048D01*
X57391Y-34862D02*
X57391Y-34805D01*
X57410Y-34777D01*
X57449Y-34748D01*
X57525Y-34734D01*
X57658Y-34734D01*
X57734Y-34748D01*
X57772Y-34777D01*
X57791Y-34805D01*
X57791Y-34862D01*
X57772Y-34891D01*
X57734Y-34920D01*
X57658Y-34934D01*
X57525Y-34934D01*
X57449Y-34920D01*
X57410Y-34891D01*
X57391Y-34862D01*
X58851Y-35721D02*
X58451Y-35721D01*
X58737Y-35621D01*
X58451Y-35521D01*
X58851Y-35521D01*
X58451Y-35321D02*
X58451Y-35264D01*
X58470Y-35235D01*
X58509Y-35207D01*
X58585Y-35192D01*
X58718Y-35192D01*
X58794Y-35207D01*
X58832Y-35235D01*
X58851Y-35264D01*
X58851Y-35321D01*
X58832Y-35350D01*
X58794Y-35378D01*
X58718Y-35392D01*
X58585Y-35392D01*
X58509Y-35378D01*
X58470Y-35350D01*
X58451Y-35321D01*
X58832Y-35078D02*
X58851Y-35035D01*
X58851Y-34964D01*
X58832Y-34935D01*
X58813Y-34921D01*
X58775Y-34907D01*
X58737Y-34907D01*
X58699Y-34921D01*
X58680Y-34935D01*
X58661Y-34964D01*
X58642Y-35021D01*
X58623Y-35050D01*
X58604Y-35064D01*
X58566Y-35078D01*
X58528Y-35078D01*
X58490Y-35064D01*
X58470Y-35050D01*
X58451Y-35021D01*
X58451Y-34950D01*
X58470Y-34907D01*
X58851Y-34778D02*
X58451Y-34778D01*
X59783Y-35372D02*
X59802Y-35387D01*
X59821Y-35430D01*
X59821Y-35458D01*
X59802Y-35501D01*
X59764Y-35530D01*
X59726Y-35544D01*
X59650Y-35558D01*
X59593Y-35558D01*
X59517Y-35544D01*
X59479Y-35530D01*
X59440Y-35501D01*
X59421Y-35458D01*
X59421Y-35430D01*
X59440Y-35387D01*
X59460Y-35372D01*
X59802Y-35258D02*
X59821Y-35215D01*
X59821Y-35144D01*
X59802Y-35115D01*
X59783Y-35101D01*
X59745Y-35087D01*
X59707Y-35087D01*
X59669Y-35101D01*
X59650Y-35115D01*
X59631Y-35144D01*
X59612Y-35201D01*
X59593Y-35230D01*
X59574Y-35244D01*
X59536Y-35258D01*
X59498Y-35258D01*
X59460Y-35244D01*
X59440Y-35230D01*
X59421Y-35201D01*
X59421Y-35130D01*
X59440Y-35087D01*
X59421Y-34901D02*
X59421Y-34872D01*
X59440Y-34844D01*
X59460Y-34830D01*
X59498Y-34815D01*
X59574Y-34801D01*
X59669Y-34801D01*
X59745Y-34815D01*
X59783Y-34830D01*
X59802Y-34844D01*
X59821Y-34872D01*
X59821Y-34901D01*
X59802Y-34930D01*
X59783Y-34944D01*
X59745Y-34958D01*
X59669Y-34972D01*
X59574Y-34972D01*
X59498Y-34958D01*
X59460Y-34944D01*
X59440Y-34930D01*
X59421Y-34901D01*
X61882Y-35692D02*
X61901Y-35649D01*
X61901Y-35578D01*
X61882Y-35549D01*
X61863Y-35535D01*
X61825Y-35521D01*
X61787Y-35521D01*
X61749Y-35535D01*
X61730Y-35549D01*
X61711Y-35578D01*
X61692Y-35635D01*
X61673Y-35664D01*
X61654Y-35678D01*
X61616Y-35692D01*
X61578Y-35692D01*
X61540Y-35678D01*
X61520Y-35664D01*
X61501Y-35635D01*
X61501Y-35564D01*
X61520Y-35521D01*
X61882Y-35407D02*
X61901Y-35364D01*
X61901Y-35292D01*
X61882Y-35264D01*
X61863Y-35249D01*
X61825Y-35235D01*
X61787Y-35235D01*
X61749Y-35249D01*
X61730Y-35264D01*
X61711Y-35292D01*
X61692Y-35349D01*
X61673Y-35378D01*
X61654Y-35392D01*
X61616Y-35407D01*
X61578Y-35407D01*
X61540Y-35392D01*
X61520Y-35378D01*
X61501Y-35349D01*
X61501Y-35278D01*
X61520Y-35235D01*
X61501Y-35150D02*
X61501Y-34978D01*
X61901Y-35064D02*
X61501Y-35064D01*
X61901Y-34707D02*
X61711Y-34807D01*
X61901Y-34878D02*
X61501Y-34878D01*
X61501Y-34764D01*
X61520Y-34735D01*
X61540Y-34721D01*
X61578Y-34707D01*
X61635Y-34707D01*
X61673Y-34721D01*
X61692Y-34735D01*
X61711Y-34764D01*
X61711Y-34878D01*
X61692Y-34478D02*
X61711Y-34435D01*
X61730Y-34421D01*
X61768Y-34407D01*
X61825Y-34407D01*
X61863Y-34421D01*
X61882Y-34435D01*
X61901Y-34464D01*
X61901Y-34578D01*
X61501Y-34578D01*
X61501Y-34478D01*
X61520Y-34450D01*
X61540Y-34435D01*
X61578Y-34421D01*
X61616Y-34421D01*
X61654Y-34435D01*
X61673Y-34450D01*
X61692Y-34478D01*
X61692Y-34578D01*
X64401Y-34055D02*
X64001Y-34055D01*
X64001Y-33959D01*
X64020Y-33902D01*
X64059Y-33864D01*
X64097Y-33845D01*
X64173Y-33826D01*
X64230Y-33826D01*
X64306Y-33845D01*
X64344Y-33864D01*
X64382Y-33902D01*
X64401Y-33959D01*
X64401Y-34055D01*
X64001Y-33483D02*
X64001Y-33559D01*
X64020Y-33598D01*
X64040Y-33617D01*
X64097Y-33655D01*
X64173Y-33674D01*
X64325Y-33674D01*
X64363Y-33655D01*
X64382Y-33636D01*
X64401Y-33598D01*
X64401Y-33521D01*
X64382Y-33483D01*
X64363Y-33464D01*
X64325Y-33445D01*
X64230Y-33445D01*
X64192Y-33464D01*
X64173Y-33483D01*
X64154Y-33521D01*
X64154Y-33598D01*
X64173Y-33636D01*
X64192Y-33655D01*
X64230Y-33674D01*
X65411Y-34055D02*
X65011Y-34055D01*
X65011Y-33959D01*
X65030Y-33902D01*
X65069Y-33864D01*
X65107Y-33845D01*
X65183Y-33826D01*
X65240Y-33826D01*
X65316Y-33845D01*
X65354Y-33864D01*
X65392Y-33902D01*
X65411Y-33959D01*
X65411Y-34055D01*
X65011Y-33464D02*
X65011Y-33655D01*
X65202Y-33674D01*
X65183Y-33655D01*
X65164Y-33617D01*
X65164Y-33521D01*
X65183Y-33483D01*
X65202Y-33464D01*
X65240Y-33445D01*
X65335Y-33445D01*
X65373Y-33464D01*
X65392Y-33483D01*
X65411Y-33521D01*
X65411Y-33617D01*
X65392Y-33655D01*
X65373Y-33674D01*
X67451Y-34055D02*
X67051Y-34055D01*
X67051Y-33959D01*
X67070Y-33902D01*
X67109Y-33864D01*
X67147Y-33845D01*
X67223Y-33826D01*
X67280Y-33826D01*
X67356Y-33845D01*
X67394Y-33864D01*
X67432Y-33902D01*
X67451Y-33959D01*
X67451Y-34055D01*
X67051Y-33693D02*
X67051Y-33445D01*
X67204Y-33579D01*
X67204Y-33521D01*
X67223Y-33483D01*
X67242Y-33464D01*
X67280Y-33445D01*
X67375Y-33445D01*
X67413Y-33464D01*
X67432Y-33483D01*
X67451Y-33521D01*
X67451Y-33636D01*
X67432Y-33674D01*
X67413Y-33693D01*
X68421Y-34055D02*
X68021Y-34055D01*
X68021Y-33959D01*
X68040Y-33902D01*
X68079Y-33864D01*
X68117Y-33845D01*
X68193Y-33826D01*
X68250Y-33826D01*
X68326Y-33845D01*
X68364Y-33864D01*
X68402Y-33902D01*
X68421Y-33959D01*
X68421Y-34055D01*
X68060Y-33674D02*
X68040Y-33655D01*
X68021Y-33617D01*
X68021Y-33521D01*
X68040Y-33483D01*
X68060Y-33464D01*
X68098Y-33445D01*
X68136Y-33445D01*
X68193Y-33464D01*
X68421Y-33693D01*
X68421Y-33445D01*
X73295Y-33680D02*
X73257Y-33661D01*
X73200Y-33661D01*
X73142Y-33680D01*
X73104Y-33719D01*
X73085Y-33757D01*
X73066Y-33833D01*
X73066Y-33890D01*
X73085Y-33966D01*
X73104Y-34004D01*
X73142Y-34042D01*
X73200Y-34061D01*
X73238Y-34061D01*
X73295Y-34042D01*
X73314Y-34023D01*
X73314Y-33890D01*
X73238Y-33890D01*
X73485Y-34061D02*
X73485Y-33661D01*
X73714Y-34061D01*
X73714Y-33661D01*
X73904Y-34061D02*
X73904Y-33661D01*
X74000Y-33661D01*
X74057Y-33680D01*
X74095Y-33719D01*
X74114Y-33757D01*
X74133Y-33833D01*
X74133Y-33890D01*
X74114Y-33966D01*
X74095Y-34004D01*
X74057Y-34042D01*
X74000Y-34061D01*
X73904Y-34061D01*
X73504Y-35361D02*
X73504Y-34961D01*
X73600Y-34961D01*
X73657Y-34980D01*
X73695Y-35019D01*
X73714Y-35057D01*
X73733Y-35133D01*
X73733Y-35190D01*
X73714Y-35266D01*
X73695Y-35304D01*
X73657Y-35342D01*
X73600Y-35361D01*
X73504Y-35361D01*
X74076Y-34961D02*
X74000Y-34961D01*
X73961Y-34980D01*
X73942Y-35000D01*
X73904Y-35057D01*
X73885Y-35133D01*
X73885Y-35285D01*
X73904Y-35323D01*
X73923Y-35342D01*
X73961Y-35361D01*
X74038Y-35361D01*
X74076Y-35342D01*
X74095Y-35323D01*
X74114Y-35285D01*
X74114Y-35190D01*
X74095Y-35152D01*
X74076Y-35133D01*
X74038Y-35114D01*
X73961Y-35114D01*
X73923Y-35133D01*
X73904Y-35152D01*
X73885Y-35190D01*
X73504Y-36811D02*
X73504Y-36411D01*
X73600Y-36411D01*
X73657Y-36430D01*
X73695Y-36469D01*
X73714Y-36507D01*
X73733Y-36583D01*
X73733Y-36640D01*
X73714Y-36716D01*
X73695Y-36754D01*
X73657Y-36792D01*
X73600Y-36811D01*
X73504Y-36811D01*
X74095Y-36411D02*
X73904Y-36411D01*
X73885Y-36602D01*
X73904Y-36583D01*
X73942Y-36564D01*
X74038Y-36564D01*
X74076Y-36583D01*
X74095Y-36602D01*
X74114Y-36640D01*
X74114Y-36735D01*
X74095Y-36773D01*
X74076Y-36792D01*
X74038Y-36811D01*
X73942Y-36811D01*
X73904Y-36792D01*
X73885Y-36773D01*
X73504Y-38211D02*
X73504Y-37811D01*
X73600Y-37811D01*
X73657Y-37830D01*
X73695Y-37869D01*
X73714Y-37907D01*
X73733Y-37983D01*
X73733Y-38040D01*
X73714Y-38116D01*
X73695Y-38154D01*
X73657Y-38192D01*
X73600Y-38211D01*
X73504Y-38211D01*
X73866Y-37811D02*
X74114Y-37811D01*
X73980Y-37964D01*
X74038Y-37964D01*
X74076Y-37983D01*
X74095Y-38002D01*
X74114Y-38040D01*
X74114Y-38135D01*
X74095Y-38173D01*
X74076Y-38192D01*
X74038Y-38211D01*
X73923Y-38211D01*
X73885Y-38192D01*
X73866Y-38173D01*
X73504Y-39561D02*
X73504Y-39161D01*
X73600Y-39161D01*
X73657Y-39180D01*
X73695Y-39219D01*
X73714Y-39257D01*
X73733Y-39333D01*
X73733Y-39390D01*
X73714Y-39466D01*
X73695Y-39504D01*
X73657Y-39542D01*
X73600Y-39561D01*
X73504Y-39561D01*
X73885Y-39200D02*
X73904Y-39180D01*
X73942Y-39161D01*
X74038Y-39161D01*
X74076Y-39180D01*
X74095Y-39200D01*
X74114Y-39238D01*
X74114Y-39276D01*
X74095Y-39333D01*
X73866Y-39561D01*
X74114Y-39561D01*
X73323Y-40923D02*
X73304Y-40942D01*
X73247Y-40961D01*
X73209Y-40961D01*
X73152Y-40942D01*
X73114Y-40904D01*
X73095Y-40866D01*
X73076Y-40790D01*
X73076Y-40733D01*
X73095Y-40657D01*
X73114Y-40619D01*
X73152Y-40580D01*
X73209Y-40561D01*
X73247Y-40561D01*
X73304Y-40580D01*
X73323Y-40600D01*
X73495Y-40961D02*
X73495Y-40561D01*
X73495Y-40752D02*
X73723Y-40752D01*
X73723Y-40961D02*
X73723Y-40561D01*
X73876Y-40561D02*
X74142Y-40561D01*
X73971Y-40961D01*
X73323Y-42273D02*
X73304Y-42292D01*
X73247Y-42311D01*
X73209Y-42311D01*
X73152Y-42292D01*
X73114Y-42254D01*
X73095Y-42216D01*
X73076Y-42140D01*
X73076Y-42083D01*
X73095Y-42007D01*
X73114Y-41969D01*
X73152Y-41930D01*
X73209Y-41911D01*
X73247Y-41911D01*
X73304Y-41930D01*
X73323Y-41950D01*
X73495Y-42311D02*
X73495Y-41911D01*
X73495Y-42102D02*
X73723Y-42102D01*
X73723Y-42311D02*
X73723Y-41911D01*
X74085Y-41911D02*
X74009Y-41911D01*
X73971Y-41930D01*
X73952Y-41950D01*
X73914Y-42007D01*
X73895Y-42083D01*
X73895Y-42235D01*
X73914Y-42273D01*
X73933Y-42292D01*
X73971Y-42311D01*
X74047Y-42311D01*
X74085Y-42292D01*
X74104Y-42273D01*
X74123Y-42235D01*
X74123Y-42140D01*
X74104Y-42102D01*
X74085Y-42083D01*
X74047Y-42064D01*
X73971Y-42064D01*
X73933Y-42083D01*
X73914Y-42102D01*
X73895Y-42140D01*
X73323Y-43723D02*
X73304Y-43742D01*
X73247Y-43761D01*
X73209Y-43761D01*
X73152Y-43742D01*
X73114Y-43704D01*
X73095Y-43666D01*
X73076Y-43590D01*
X73076Y-43533D01*
X73095Y-43457D01*
X73114Y-43419D01*
X73152Y-43380D01*
X73209Y-43361D01*
X73247Y-43361D01*
X73304Y-43380D01*
X73323Y-43400D01*
X73495Y-43761D02*
X73495Y-43361D01*
X73495Y-43552D02*
X73723Y-43552D01*
X73723Y-43761D02*
X73723Y-43361D01*
X74104Y-43361D02*
X73914Y-43361D01*
X73895Y-43552D01*
X73914Y-43533D01*
X73952Y-43514D01*
X74047Y-43514D01*
X74085Y-43533D01*
X74104Y-43552D01*
X74123Y-43590D01*
X74123Y-43685D01*
X74104Y-43723D01*
X74085Y-43742D01*
X74047Y-43761D01*
X73952Y-43761D01*
X73914Y-43742D01*
X73895Y-43723D01*
X73323Y-46473D02*
X73304Y-46492D01*
X73247Y-46511D01*
X73209Y-46511D01*
X73152Y-46492D01*
X73114Y-46454D01*
X73095Y-46416D01*
X73076Y-46340D01*
X73076Y-46283D01*
X73095Y-46207D01*
X73114Y-46169D01*
X73152Y-46130D01*
X73209Y-46111D01*
X73247Y-46111D01*
X73304Y-46130D01*
X73323Y-46150D01*
X73495Y-46511D02*
X73495Y-46111D01*
X73495Y-46302D02*
X73723Y-46302D01*
X73723Y-46511D02*
X73723Y-46111D01*
X73876Y-46111D02*
X74123Y-46111D01*
X73990Y-46264D01*
X74047Y-46264D01*
X74085Y-46283D01*
X74104Y-46302D01*
X74123Y-46340D01*
X74123Y-46435D01*
X74104Y-46473D01*
X74085Y-46492D01*
X74047Y-46511D01*
X73933Y-46511D01*
X73895Y-46492D01*
X73876Y-46473D01*
X73323Y-45073D02*
X73304Y-45092D01*
X73247Y-45111D01*
X73209Y-45111D01*
X73152Y-45092D01*
X73114Y-45054D01*
X73095Y-45016D01*
X73076Y-44940D01*
X73076Y-44883D01*
X73095Y-44807D01*
X73114Y-44769D01*
X73152Y-44730D01*
X73209Y-44711D01*
X73247Y-44711D01*
X73304Y-44730D01*
X73323Y-44750D01*
X73495Y-45111D02*
X73495Y-44711D01*
X73495Y-44902D02*
X73723Y-44902D01*
X73723Y-45111D02*
X73723Y-44711D01*
X74085Y-44845D02*
X74085Y-45111D01*
X73990Y-44692D02*
X73895Y-44978D01*
X74142Y-44978D01*
X73373Y-47823D02*
X73354Y-47842D01*
X73297Y-47861D01*
X73259Y-47861D01*
X73202Y-47842D01*
X73164Y-47804D01*
X73145Y-47766D01*
X73126Y-47690D01*
X73126Y-47633D01*
X73145Y-47557D01*
X73164Y-47519D01*
X73202Y-47480D01*
X73259Y-47461D01*
X73297Y-47461D01*
X73354Y-47480D01*
X73373Y-47500D01*
X73545Y-47861D02*
X73545Y-47461D01*
X73545Y-47652D02*
X73773Y-47652D01*
X73773Y-47861D02*
X73773Y-47461D01*
X73945Y-47500D02*
X73964Y-47480D01*
X74002Y-47461D01*
X74097Y-47461D01*
X74135Y-47480D01*
X74154Y-47500D01*
X74173Y-47538D01*
X74173Y-47576D01*
X74154Y-47633D01*
X73926Y-47861D01*
X74173Y-47861D01*
X73373Y-49173D02*
X73354Y-49192D01*
X73297Y-49211D01*
X73259Y-49211D01*
X73202Y-49192D01*
X73164Y-49154D01*
X73145Y-49116D01*
X73126Y-49040D01*
X73126Y-48983D01*
X73145Y-48907D01*
X73164Y-48869D01*
X73202Y-48830D01*
X73259Y-48811D01*
X73297Y-48811D01*
X73354Y-48830D01*
X73373Y-48850D01*
X73545Y-49211D02*
X73545Y-48811D01*
X73545Y-49002D02*
X73773Y-49002D01*
X73773Y-49211D02*
X73773Y-48811D01*
X74173Y-49211D02*
X73945Y-49211D01*
X74059Y-49211D02*
X74059Y-48811D01*
X74021Y-48869D01*
X73983Y-48907D01*
X73945Y-48926D01*
X73373Y-50573D02*
X73354Y-50592D01*
X73297Y-50611D01*
X73259Y-50611D01*
X73202Y-50592D01*
X73164Y-50554D01*
X73145Y-50516D01*
X73126Y-50440D01*
X73126Y-50383D01*
X73145Y-50307D01*
X73164Y-50269D01*
X73202Y-50230D01*
X73259Y-50211D01*
X73297Y-50211D01*
X73354Y-50230D01*
X73373Y-50250D01*
X73545Y-50611D02*
X73545Y-50211D01*
X73545Y-50402D02*
X73773Y-50402D01*
X73773Y-50611D02*
X73773Y-50211D01*
X74040Y-50211D02*
X74078Y-50211D01*
X74116Y-50230D01*
X74135Y-50250D01*
X74154Y-50288D01*
X74173Y-50364D01*
X74173Y-50459D01*
X74154Y-50535D01*
X74135Y-50573D01*
X74116Y-50592D01*
X74078Y-50611D01*
X74040Y-50611D01*
X74002Y-50592D01*
X73983Y-50573D01*
X73964Y-50535D01*
X73945Y-50459D01*
X73945Y-50364D01*
X73964Y-50288D01*
X73983Y-50250D01*
X74002Y-50230D01*
X74040Y-50211D01*
G54D13*
X68901Y-42670D02*
X68401Y-42670D01*
X68401Y-42670D02*
X68401Y-41670D01*
X68401Y-41670D02*
X68901Y-41670D01*
X68901Y-41670D02*
X68901Y-41670D01*
X68901Y-43170D02*
X55901Y-43170D01*
X55901Y-43170D02*
X55901Y-41170D01*
X55901Y-41170D02*
X68901Y-41170D01*
X68901Y-41170D02*
X68901Y-43170D01*
X74425Y-33000D02*
X74425Y-51347D01*
X77219Y-33001D02*
X77219Y-51347D01*
X74424Y-51348D02*
X77180Y-51348D01*
X74425Y-32999D02*
X77220Y-32999D01*
G54D12*
X65283Y-45563D02*
X65283Y-47543D01*
X65283Y-47543D02*
X64283Y-47543D01*
X64283Y-47543D02*
X64283Y-45543D01*
X64283Y-45543D02*
X65283Y-45543D01*
X65033Y-45543D02*
X65283Y-45793D01*
X67388Y-45151D02*
X67388Y-47951D01*
X67388Y-47951D02*
X66588Y-47951D01*
X66588Y-47951D02*
X66588Y-45151D01*
X66588Y-45151D02*
X67388Y-45151D01*
X67188Y-45151D02*
X67388Y-45351D01*
X68481Y-38541D02*
X68481Y-35741D01*
X68481Y-35741D02*
X69281Y-35741D01*
X69281Y-35741D02*
X69281Y-38541D01*
X69281Y-38541D02*
X68481Y-38541D01*
X68681Y-38541D02*
X68481Y-38341D01*
X66320Y-38541D02*
X66320Y-35741D01*
X66320Y-35741D02*
X67120Y-35741D01*
X67120Y-35741D02*
X67120Y-38541D01*
X67120Y-38541D02*
X66320Y-38541D01*
X66520Y-38541D02*
X66320Y-38341D01*
G54D14*
X54884Y-41911D02*
X54884Y-42235D01*
X54903Y-42273D01*
X54922Y-42292D01*
X54960Y-42311D01*
X55036Y-42311D01*
X55074Y-42292D01*
X55093Y-42273D01*
X55112Y-42235D01*
X55112Y-41911D01*
X55360Y-42083D02*
X55322Y-42063D01*
X55303Y-42044D01*
X55284Y-42006D01*
X55284Y-41987D01*
X55303Y-41949D01*
X55322Y-41930D01*
X55360Y-41911D01*
X55436Y-41911D01*
X55474Y-41930D01*
X55493Y-41949D01*
X55512Y-41987D01*
X55512Y-42006D01*
X55493Y-42044D01*
X55474Y-42063D01*
X55436Y-42083D01*
X55360Y-42083D01*
X55322Y-42102D01*
X55303Y-42121D01*
X55284Y-42159D01*
X55284Y-42235D01*
X55303Y-42273D01*
X55322Y-42292D01*
X55360Y-42311D01*
X55436Y-42311D01*
X55474Y-42292D01*
X55493Y-42273D01*
X55512Y-42235D01*
X55512Y-42159D01*
X55493Y-42121D01*
X55474Y-42102D01*
X55436Y-42083D01*
X60394Y-42327D02*
X60394Y-41927D01*
X60527Y-42213D01*
X60661Y-41927D01*
X60661Y-42327D01*
X60832Y-42213D02*
X61023Y-42213D01*
X60794Y-42327D02*
X60927Y-41927D01*
X61061Y-42327D01*
X61156Y-41927D02*
X61423Y-42327D01*
X61423Y-41927D02*
X61156Y-42327D01*
X61784Y-42327D02*
X61556Y-42327D01*
X61670Y-42327D02*
X61670Y-41927D01*
X61632Y-41984D01*
X61594Y-42022D01*
X61556Y-42041D01*
X61937Y-41965D02*
X61956Y-41946D01*
X61994Y-41927D01*
X62089Y-41927D01*
X62127Y-41946D01*
X62146Y-41965D01*
X62165Y-42003D01*
X62165Y-42041D01*
X62146Y-42098D01*
X61918Y-42327D01*
X62165Y-42327D01*
X62299Y-41927D02*
X62565Y-41927D01*
X62394Y-42327D01*
X62794Y-41927D02*
X62832Y-41927D01*
X62870Y-41946D01*
X62889Y-41965D01*
X62908Y-42003D01*
X62927Y-42079D01*
X62927Y-42174D01*
X62908Y-42251D01*
X62889Y-42289D01*
X62870Y-42308D01*
X62832Y-42327D01*
X62794Y-42327D01*
X62756Y-42308D01*
X62737Y-42289D01*
X62718Y-42251D01*
X62699Y-42174D01*
X62699Y-42079D01*
X62718Y-42003D01*
X62737Y-41965D01*
X62756Y-41946D01*
X62794Y-41927D01*
X63099Y-42174D02*
X63404Y-42174D01*
X63594Y-42327D02*
X63594Y-41927D01*
X63746Y-41927D01*
X63784Y-41946D01*
X63804Y-41965D01*
X63823Y-42003D01*
X63823Y-42060D01*
X63804Y-42098D01*
X63784Y-42117D01*
X63746Y-42136D01*
X63594Y-42136D01*
X63994Y-42327D02*
X63994Y-41927D01*
X64089Y-41927D01*
X64146Y-41946D01*
X64184Y-41984D01*
X64204Y-42022D01*
X64223Y-42098D01*
X64223Y-42155D01*
X64204Y-42232D01*
X64184Y-42270D01*
X64146Y-42308D01*
X64089Y-42327D01*
X63994Y-42327D01*
X64394Y-42327D02*
X64394Y-41927D01*
X64584Y-42327D02*
X64584Y-41927D01*
X64737Y-41927D01*
X64775Y-41946D01*
X64794Y-41965D01*
X64813Y-42003D01*
X64813Y-42060D01*
X64794Y-42098D01*
X64775Y-42117D01*
X64737Y-42136D01*
X64584Y-42136D01*
X75689Y-52235D02*
X75289Y-52235D01*
X75289Y-52083D01*
X75308Y-52045D01*
X75327Y-52026D01*
X75365Y-52007D01*
X75422Y-52007D01*
X75461Y-52026D01*
X75480Y-52045D01*
X75499Y-52083D01*
X75499Y-52235D01*
X75689Y-51626D02*
X75689Y-51855D01*
X75689Y-51740D02*
X75289Y-51740D01*
X75346Y-51778D01*
X75384Y-51816D01*
X75403Y-51855D01*
X64938Y-48188D02*
X64957Y-48207D01*
X64976Y-48264D01*
X64976Y-48302D01*
X64957Y-48360D01*
X64919Y-48398D01*
X64881Y-48417D01*
X64805Y-48436D01*
X64748Y-48436D01*
X64672Y-48417D01*
X64634Y-48398D01*
X64595Y-48360D01*
X64576Y-48302D01*
X64576Y-48264D01*
X64595Y-48207D01*
X64614Y-48188D01*
X64576Y-48055D02*
X64576Y-47807D01*
X64729Y-47941D01*
X64729Y-47883D01*
X64748Y-47845D01*
X64767Y-47826D01*
X64805Y-47807D01*
X64900Y-47807D01*
X64938Y-47826D01*
X64957Y-47845D01*
X64976Y-47883D01*
X64976Y-47998D01*
X64957Y-48036D01*
X64938Y-48055D01*
X63604Y-47390D02*
X63604Y-47352D01*
X63623Y-47314D01*
X63642Y-47295D01*
X63680Y-47276D01*
X63756Y-47257D01*
X63852Y-47257D01*
X63928Y-47276D01*
X63966Y-47295D01*
X63985Y-47314D01*
X64004Y-47352D01*
X64004Y-47390D01*
X63985Y-47429D01*
X63966Y-47448D01*
X63928Y-47467D01*
X63852Y-47486D01*
X63756Y-47486D01*
X63680Y-47467D01*
X63642Y-47448D01*
X63623Y-47429D01*
X63604Y-47390D01*
X63966Y-47086D02*
X63985Y-47067D01*
X64004Y-47086D01*
X63985Y-47105D01*
X63966Y-47086D01*
X64004Y-47086D01*
X63604Y-46819D02*
X63604Y-46781D01*
X63623Y-46743D01*
X63642Y-46724D01*
X63680Y-46705D01*
X63756Y-46686D01*
X63852Y-46686D01*
X63928Y-46705D01*
X63966Y-46724D01*
X63985Y-46743D01*
X64004Y-46781D01*
X64004Y-46819D01*
X63985Y-46857D01*
X63966Y-46876D01*
X63928Y-46895D01*
X63852Y-46914D01*
X63756Y-46914D01*
X63680Y-46895D01*
X63642Y-46876D01*
X63623Y-46857D01*
X63604Y-46819D01*
X64004Y-46305D02*
X64004Y-46533D01*
X64004Y-46419D02*
X63604Y-46419D01*
X63661Y-46457D01*
X63699Y-46495D01*
X63718Y-46533D01*
X63737Y-45962D02*
X64004Y-45962D01*
X63737Y-46133D02*
X63947Y-46133D01*
X63985Y-46114D01*
X64004Y-46076D01*
X64004Y-46019D01*
X63985Y-45981D01*
X63966Y-45962D01*
X63794Y-45638D02*
X63794Y-45771D01*
X64004Y-45771D02*
X63604Y-45771D01*
X63604Y-45581D01*
X67131Y-48527D02*
X67150Y-48546D01*
X67169Y-48603D01*
X67169Y-48641D01*
X67150Y-48698D01*
X67112Y-48736D01*
X67074Y-48755D01*
X66998Y-48774D01*
X66941Y-48774D01*
X66865Y-48755D01*
X66826Y-48736D01*
X66788Y-48698D01*
X66769Y-48641D01*
X66769Y-48603D01*
X66788Y-48546D01*
X66807Y-48527D01*
X67169Y-48146D02*
X67169Y-48374D01*
X67169Y-48260D02*
X66769Y-48260D01*
X66826Y-48298D01*
X66865Y-48336D01*
X66884Y-48374D01*
X67733Y-47105D02*
X68000Y-47105D01*
X67581Y-47200D02*
X67867Y-47295D01*
X67867Y-47048D01*
X67962Y-46895D02*
X67981Y-46876D01*
X68000Y-46895D01*
X67981Y-46914D01*
X67962Y-46895D01*
X68000Y-46895D01*
X67600Y-46743D02*
X67600Y-46476D01*
X68000Y-46648D01*
X67733Y-46152D02*
X68000Y-46152D01*
X67733Y-46324D02*
X67943Y-46324D01*
X67981Y-46305D01*
X68000Y-46267D01*
X68000Y-46209D01*
X67981Y-46171D01*
X67962Y-46152D01*
X67790Y-45829D02*
X67790Y-45962D01*
X68000Y-45962D02*
X67600Y-45962D01*
X67600Y-45771D01*
X69023Y-39166D02*
X69042Y-39185D01*
X69061Y-39242D01*
X69061Y-39280D01*
X69042Y-39338D01*
X69004Y-39376D01*
X68966Y-39395D01*
X68890Y-39414D01*
X68833Y-39414D01*
X68757Y-39395D01*
X68719Y-39376D01*
X68680Y-39338D01*
X68661Y-39280D01*
X68661Y-39242D01*
X68680Y-39185D01*
X68700Y-39166D01*
X68700Y-39014D02*
X68680Y-38995D01*
X68661Y-38957D01*
X68661Y-38861D01*
X68680Y-38823D01*
X68700Y-38804D01*
X68738Y-38785D01*
X68776Y-38785D01*
X68833Y-38804D01*
X69061Y-39033D01*
X69061Y-38785D01*
X69461Y-37807D02*
X69461Y-37769D01*
X69480Y-37730D01*
X69500Y-37711D01*
X69538Y-37692D01*
X69614Y-37673D01*
X69709Y-37673D01*
X69785Y-37692D01*
X69823Y-37711D01*
X69842Y-37730D01*
X69861Y-37769D01*
X69861Y-37807D01*
X69842Y-37845D01*
X69823Y-37864D01*
X69785Y-37883D01*
X69709Y-37902D01*
X69614Y-37902D01*
X69538Y-37883D01*
X69500Y-37864D01*
X69480Y-37845D01*
X69461Y-37807D01*
X69823Y-37502D02*
X69842Y-37483D01*
X69861Y-37502D01*
X69842Y-37521D01*
X69823Y-37502D01*
X69861Y-37502D01*
X69861Y-37102D02*
X69861Y-37330D01*
X69861Y-37216D02*
X69461Y-37216D01*
X69519Y-37254D01*
X69557Y-37292D01*
X69576Y-37330D01*
X69595Y-36759D02*
X69861Y-36759D01*
X69595Y-36930D02*
X69804Y-36930D01*
X69842Y-36911D01*
X69861Y-36873D01*
X69861Y-36816D01*
X69842Y-36778D01*
X69823Y-36759D01*
X69652Y-36435D02*
X69652Y-36569D01*
X69861Y-36569D02*
X69461Y-36569D01*
X69461Y-36378D01*
X66823Y-39116D02*
X66842Y-39135D01*
X66861Y-39192D01*
X66861Y-39230D01*
X66842Y-39288D01*
X66804Y-39326D01*
X66766Y-39345D01*
X66690Y-39364D01*
X66633Y-39364D01*
X66557Y-39345D01*
X66519Y-39326D01*
X66480Y-39288D01*
X66461Y-39230D01*
X66461Y-39192D01*
X66480Y-39135D01*
X66500Y-39116D01*
X66595Y-38773D02*
X66861Y-38773D01*
X66442Y-38869D02*
X66728Y-38964D01*
X66728Y-38716D01*
X65845Y-37711D02*
X66111Y-37711D01*
X65692Y-37807D02*
X65978Y-37902D01*
X65978Y-37654D01*
X66073Y-37502D02*
X66092Y-37483D01*
X66111Y-37502D01*
X66092Y-37521D01*
X66073Y-37502D01*
X66111Y-37502D01*
X65711Y-37349D02*
X65711Y-37083D01*
X66111Y-37254D01*
X65845Y-36759D02*
X66111Y-36759D01*
X65845Y-36930D02*
X66054Y-36930D01*
X66092Y-36911D01*
X66111Y-36873D01*
X66111Y-36816D01*
X66092Y-36778D01*
X66073Y-36759D01*
X65902Y-36435D02*
X65902Y-36569D01*
X66111Y-36569D02*
X65711Y-36569D01*
X65711Y-36378D01*
M02*
